<?xml version="1.0" encoding="UTF-8" ?>
<!DOCTYPE svg PUBLIC "-//W3C//DTD SVG 1.1//EN" "http://www.w3.org/Graphics/SVG/1.1/DTD/svg11.dtd">
<svg width="1024pt" height="1024pt" viewBox="0 0 1024 1024" version="1.1" xmlns="http://www.w3.org/2000/svg">
<g id="#ffffffff">
<path fill="#ffffff" opacity="1.00" d=" M 790.01 131.78 C 812.67 128.39 837.61 130.64 856.76 144.26 C 864.49 148.97 870.49 155.87 876.71 162.32 C 887.95 176.39 894.49 194.06 895.49 212.02 C 896.46 236.44 887.84 261.88 869.80 278.80 C 866.77 281.77 863.87 284.88 860.73 287.74 C 856.55 291.07 853.50 295.53 849.51 299.07 C 862.04 310.70 875.44 321.37 887.93 333.05 C 892.50 336.43 896.05 340.95 900.57 344.39 C 903.37 346.59 905.86 349.17 908.06 351.98 C 917.05 362.98 929.09 370.95 938.06 381.98 C 941.67 386.67 946.46 390.28 950.06 394.98 C 953.37 399.30 957.76 402.65 961.07 406.98 C 967.46 414.90 974.76 421.99 981.06 429.99 C 989.30 439.45 997.13 449.26 1005.06 458.98 C 1009.66 465.36 1014.25 471.95 1016.68 479.52 C 1018.45 485.01 1020.11 490.64 1020.44 496.43 C 1020.74 510.41 1021.35 524.84 1016.44 538.19 C 1013.47 548.45 1007.13 557.27 1000.50 565.47 C 994.97 572.88 989.04 579.98 982.95 586.93 C 975.94 595.26 969.11 603.74 961.95 611.94 C 957.77 617.39 952.34 621.70 948.22 627.20 C 940.17 637.11 930.73 645.72 921.80 654.80 C 918.32 658.02 915.74 662.04 912.31 665.31 C 906.76 670.76 901.37 676.38 895.75 681.75 C 891.74 685.08 887.86 688.54 883.87 691.86 C 877.47 697.80 871.78 704.49 864.87 709.86 C 860.35 714.39 854.97 717.93 850.31 722.29 C 841.98 730.08 832.71 736.73 823.75 743.78 C 812.82 751.86 802.08 760.21 790.77 767.77 C 780.53 775.53 769.30 781.80 758.16 788.13 C 742.04 799.07 724.37 807.32 706.97 815.93 C 696.06 820.21 685.55 825.41 674.57 829.53 C 657.99 835.30 641.57 841.67 624.45 845.73 C 610.97 849.28 597.18 851.30 583.44 853.52 C 568.75 856.06 553.88 857.56 539.03 858.51 C 523.06 858.58 507.10 858.60 491.13 858.49 C 474.29 857.17 457.47 855.34 440.85 852.23 C 418.46 849.32 396.57 843.40 375.30 835.92 C 359.89 831.14 344.97 824.93 330.32 818.20 C 317.56 831.15 304.62 843.91 291.80 856.81 C 282.75 866.32 271.52 873.75 259.25 878.40 C 253.38 880.00 247.49 881.84 241.40 882.39 C 231.69 882.77 221.97 882.74 212.27 882.36 C 195.61 880.47 180.16 872.31 167.72 861.28 C 157.47 851.56 149.62 839.44 144.59 826.25 C 138.33 808.27 137.36 788.11 143.82 770.05 C 147.81 756.62 155.47 744.26 165.69 734.69 C 170.06 730.36 174.35 725.95 178.77 721.68 C 169.25 713.74 159.97 705.52 150.70 697.30 C 141.38 687.57 130.54 679.50 121.20 669.80 C 116.90 665.43 112.34 661.28 108.60 656.40 C 98.67 645.68 87.49 636.12 78.20 624.83 C 75.02 621.64 72.49 617.87 69.20 614.80 C 63.33 609.28 58.86 602.50 53.25 596.73 C 44.52 586.45 35.56 576.36 27.30 565.68 C 23.63 560.74 18.68 556.87 15.47 551.57 C 8.92 542.34 5.70 531.15 4.58 519.99 C 4.04 509.17 3.80 498.16 6.52 487.59 C 9.92 474.46 17.30 462.43 27.22 453.22 C 30.48 450.12 33.12 446.46 35.94 442.98 C 44.27 433.30 52.35 423.42 61.05 414.07 C 66.84 407.53 72.40 400.76 78.71 394.69 C 81.19 392.16 83.18 389.19 85.70 386.70 C 98.53 373.86 111.37 361.04 124.20 348.20 C 127.04 345.36 129.80 342.42 132.98 339.94 C 137.84 336.17 141.58 331.18 146.52 327.50 C 154.78 321.18 162.25 313.91 170.18 307.20 C 178.88 299.11 188.53 292.15 197.87 284.84 C 209.10 276.34 220.02 267.35 232.24 260.26 C 251.31 246.86 270.84 233.88 292.03 224.02 C 302.71 217.77 314.01 212.67 325.02 207.02 C 332.50 203.65 340.09 200.51 347.77 197.60 C 361.55 193.24 374.76 187.23 388.74 183.46 C 417.96 175.32 447.73 168.40 478.06 166.51 C 482.42 166.66 486.66 165.33 491.02 165.50 C 507.82 165.57 524.62 165.33 541.41 165.62 C 546.86 166.68 552.42 166.29 557.92 166.90 C 592.68 170.54 627.06 178.20 660.01 189.88 C 668.02 193.25 676.51 195.28 684.52 198.66 C 688.38 200.20 692.25 201.75 696.11 203.32 C 701.01 197.77 707.18 193.61 712.20 188.20 C 723.52 176.85 734.87 165.53 746.19 154.19 C 757.56 141.90 773.55 134.24 790.01 131.78 M 775.36 184.37 C 762.62 196.60 750.45 209.42 737.76 221.71 C 727.01 231.97 716.81 242.81 706.11 253.12 C 703.90 254.53 701.37 252.17 699.23 251.50 C 646.11 225.48 587.77 209.09 528.52 207.19 C 520.71 206.31 512.82 206.75 504.98 206.81 C 497.92 207.93 490.72 207.04 483.67 208.27 C 467.76 209.31 451.95 211.76 436.33 214.95 C 378.62 226.56 324.16 251.13 274.52 282.39 C 232.25 309.05 193.41 340.82 157.05 375.00 C 142.87 389.16 128.29 402.97 114.79 417.79 C 96.67 436.78 79.43 456.58 62.63 476.76 C 59.30 481.37 54.65 484.80 51.27 489.37 C 45.34 497.00 42.55 507.35 45.09 516.80 C 46.84 525.40 52.91 532.11 58.99 538.04 C 88.47 574.31 119.70 609.19 153.05 641.95 C 160.16 648.52 167.17 655.20 174.12 661.94 C 195.76 681.41 217.93 700.39 241.59 717.40 C 239.86 719.40 238.11 721.38 236.26 723.26 C 222.53 736.86 208.79 750.45 195.30 764.29 C 186.73 772.89 181.64 784.87 181.58 797.02 C 181.91 807.38 185.38 817.85 192.27 825.73 C 200.93 836.17 214.32 842.94 228.01 842.44 C 235.53 842.46 243.00 840.40 249.53 836.68 C 257.57 832.34 263.59 825.33 270.02 819.02 C 286.51 802.51 303.02 786.03 319.51 769.52 C 321.08 767.42 323.88 768.52 325.74 769.54 C 351.05 782.63 377.60 793.29 404.91 801.41 C 440.31 811.65 477.07 818.01 514.00 817.60 C 566.40 818.47 618.54 806.83 667.01 787.27 C 714.41 768.04 758.37 741.07 798.83 709.91 C 862.34 660.88 917.47 601.92 967.51 539.43 C 971.68 534.31 975.80 528.92 977.70 522.49 C 979.88 514.96 981.43 506.80 979.21 499.08 C 976.79 489.10 969.21 481.74 963.03 473.95 C 950.69 459.03 937.96 444.44 925.03 430.04 C 907.60 411.47 890.46 392.55 871.63 375.36 C 847.33 351.80 821.44 329.85 794.27 309.64 C 791.59 307.48 788.34 305.91 786.23 303.12 C 787.36 301.64 788.71 300.34 790.03 299.02 C 806.07 283.08 822.04 267.04 838.04 251.05 C 847.57 242.00 853.48 229.19 853.40 215.98 C 852.81 204.27 848.23 192.52 839.61 184.39 C 831.64 176.13 820.33 171.58 808.97 170.88 C 796.55 170.63 784.22 175.68 775.36 184.37 Z" />
<path fill="#ffffff" opacity="1.00" d=" M 375.82 300.97 C 414.77 284.21 456.55 273.40 498.97 271.44 C 513.99 271.40 529.08 270.70 544.02 272.42 C 582.97 275.66 620.98 286.68 656.73 302.28 C 652.71 307.37 647.74 311.60 643.25 316.25 C 619.42 340.42 595.06 364.05 571.14 388.13 C 559.05 400.71 546.30 412.62 534.13 425.13 C 519.09 440.75 503.43 455.76 488.12 471.11 C 466.33 493.35 443.94 514.98 422.12 537.19 C 381.83 577.21 341.86 617.55 301.59 657.59 C 296.86 662.06 292.86 667.30 287.75 671.36 C 284.51 670.17 281.99 667.67 279.19 665.74 C 254.22 647.36 230.51 627.31 208.01 606.00 C 183.14 581.87 158.84 557.10 136.41 530.67 C 130.21 523.91 124.47 516.76 118.50 509.79 C 159.56 460.70 204.54 414.65 254.73 374.84 C 291.98 345.57 332.15 319.58 375.82 300.97 Z" />
<path fill="#ffffff" opacity="1.00" d=" M 737.53 351.53 C 738.59 350.04 740.62 349.70 742.03 350.95 C 770.35 370.49 796.67 392.75 821.92 416.07 C 842.68 436.31 863.42 456.64 882.51 478.49 C 890.70 487.61 898.75 496.86 906.73 506.18 C 907.82 507.55 909.60 509.48 908.12 511.24 C 892.65 529.99 876.80 548.44 860.34 566.33 C 834.86 593.15 808.64 619.39 780.10 642.98 C 752.99 665.48 724.24 686.08 693.54 703.42 C 662.66 720.51 630.08 734.97 595.71 743.40 C 568.70 750.23 540.85 753.80 513.00 753.63 C 465.64 753.00 418.67 741.69 375.45 722.43 C 373.46 721.54 371.55 720.48 369.75 719.26 C 389.55 699.56 409.23 679.74 429.04 660.04 C 430.59 658.27 432.97 659.53 434.64 660.40 C 453.39 670.03 473.79 676.59 494.82 678.61 C 501.17 679.75 507.66 679.21 514.03 680.19 C 518.68 679.77 523.34 679.34 528.03 679.31 C 537.24 678.23 546.49 677.08 555.49 674.80 C 594.18 665.31 629.14 641.72 652.67 609.60 C 664.31 594.28 672.56 576.64 678.54 558.42 C 682.57 545.81 684.71 532.65 685.69 519.48 C 686.68 511.32 686.55 503.01 685.54 494.86 C 684.07 471.44 677.03 448.62 666.27 427.85 C 665.27 426.21 664.69 423.84 666.54 422.54 C 690.18 398.85 713.90 375.23 737.53 351.53 Z" />
</g>
<g id="#88001bff">
<path fill="#88001b" opacity="1.00" d=" M 775.36 184.37 C 784.22 175.68 796.55 170.63 808.97 170.88 C 820.33 171.58 831.64 176.13 839.61 184.39 C 848.23 192.52 852.81 204.27 853.40 215.98 C 853.48 229.19 847.57 242.00 838.04 251.05 C 822.04 267.04 806.07 283.08 790.03 299.02 C 788.71 300.34 787.36 301.64 786.23 303.12 C 788.34 305.91 791.59 307.48 794.27 309.64 C 821.44 329.85 847.33 351.80 871.63 375.36 C 890.46 392.55 907.60 411.47 925.03 430.04 C 937.96 444.44 950.69 459.03 963.03 473.95 C 969.21 481.74 976.79 489.10 979.21 499.08 C 981.43 506.80 979.88 514.96 977.70 522.49 C 975.80 528.92 971.68 534.31 967.51 539.43 C 917.47 601.92 862.34 660.88 798.83 709.91 C 758.37 741.07 714.41 768.04 667.01 787.27 C 618.54 806.83 566.40 818.47 514.00 817.60 C 477.07 818.01 440.31 811.65 404.91 801.41 C 377.60 793.29 351.05 782.63 325.74 769.54 C 323.88 768.52 321.08 767.42 319.51 769.52 C 303.02 786.03 286.51 802.51 270.02 819.02 C 263.59 825.33 257.57 832.34 249.53 836.68 C 243.00 840.40 235.53 842.46 228.01 842.44 C 214.32 842.94 200.93 836.17 192.27 825.73 C 185.38 817.85 181.91 807.38 181.58 797.02 C 181.64 784.87 186.73 772.89 195.30 764.29 C 208.79 750.45 222.53 736.86 236.26 723.26 C 238.11 721.38 239.86 719.40 241.59 717.40 C 217.93 700.39 195.76 681.41 174.12 661.94 C 167.17 655.20 160.16 648.52 153.05 641.95 C 119.70 609.19 88.47 574.31 58.99 538.04 C 52.91 532.11 46.84 525.40 45.09 516.80 C 42.55 507.35 45.34 497.00 51.27 489.37 C 54.65 484.80 59.30 481.37 62.63 476.76 C 79.43 456.58 96.67 436.78 114.79 417.79 C 128.29 402.97 142.87 389.16 157.05 375.00 C 193.41 340.82 232.25 309.05 274.52 282.39 C 324.16 251.13 378.62 226.56 436.33 214.95 C 451.95 211.76 467.76 209.31 483.67 208.27 C 490.72 207.04 497.92 207.93 504.98 206.81 C 512.82 206.75 520.71 206.31 528.52 207.19 C 587.77 209.09 646.11 225.48 699.23 251.50 C 701.37 252.17 703.90 254.53 706.11 253.12 C 716.81 242.81 727.01 231.97 737.76 221.71 C 750.45 209.42 762.62 196.60 775.36 184.37 M 375.82 300.97 C 332.15 319.58 291.98 345.57 254.73 374.84 C 204.54 414.65 159.56 460.70 118.50 509.79 C 124.47 516.76 130.21 523.91 136.41 530.67 C 158.84 557.10 183.14 581.87 208.01 606.00 C 230.51 627.31 254.22 647.36 279.19 665.74 C 281.99 667.67 284.51 670.17 287.75 671.36 C 292.86 667.30 296.86 662.06 301.59 657.59 C 341.86 617.55 381.83 577.21 422.12 537.19 C 443.94 514.98 466.33 493.35 488.12 471.11 C 503.43 455.76 519.09 440.75 534.13 425.13 C 546.30 412.62 559.05 400.71 571.14 388.13 C 595.06 364.05 619.42 340.42 643.25 316.25 C 647.74 311.60 652.71 307.37 656.73 302.28 C 620.98 286.68 582.97 275.66 544.02 272.42 C 529.08 270.70 513.99 271.40 498.97 271.44 C 456.55 273.40 414.77 284.21 375.82 300.97 M 737.53 351.53 C 713.90 375.23 690.18 398.85 666.54 422.54 C 664.69 423.84 665.27 426.21 666.27 427.85 C 677.03 448.62 684.07 471.44 685.54 494.86 C 686.55 503.01 686.68 511.32 685.69 519.48 C 684.71 532.65 682.57 545.81 678.54 558.42 C 672.56 576.64 664.31 594.28 652.67 609.60 C 629.14 641.72 594.18 665.31 555.49 674.80 C 546.49 677.08 537.24 678.23 528.03 679.31 C 523.34 679.34 518.68 679.77 514.03 680.19 C 507.66 679.21 501.17 679.75 494.82 678.61 C 473.79 676.59 453.39 670.03 434.64 660.40 C 432.97 659.53 430.59 658.27 429.04 660.04 C 409.23 679.74 389.55 699.56 369.75 719.26 C 371.55 720.48 373.46 721.54 375.45 722.43 C 418.67 741.69 465.64 753.00 513.00 753.63 C 540.85 753.80 568.70 750.23 595.71 743.40 C 630.08 734.97 662.66 720.51 693.54 703.42 C 724.24 686.08 752.99 665.48 780.10 642.98 C 808.64 619.39 834.86 593.15 860.34 566.33 C 876.80 548.44 892.65 529.99 908.12 511.24 C 909.60 509.48 907.82 507.55 906.73 506.18 C 898.75 496.86 890.70 487.61 882.51 478.49 C 863.42 456.64 842.68 436.31 821.92 416.07 C 796.67 392.75 770.35 370.49 742.03 350.95 C 740.62 349.70 738.59 350.04 737.53 351.53 Z" />
</g>
</svg>
