<?xml version="1.0" encoding="UTF-8" ?>
<!DOCTYPE svg PUBLIC "-//W3C//DTD SVG 1.1//EN" "http://www.w3.org/Graphics/SVG/1.1/DTD/svg11.dtd">
<svg width="1024pt" height="1024pt" viewBox="0 0 1024 1024" version="1.1" xmlns="http://www.w3.org/2000/svg">
<g id="#ffffffff">
<path fill="#ffffff" opacity="1.00" d=" M 469.70 4.88 C 482.02 2.74 494.41 -0.07 507.00 0.61 C 516.06 0.01 525.06 1.15 534.02 2.27 C 545.61 4.33 557.43 5.57 568.56 9.59 C 577.94 11.96 587.08 15.45 595.20 20.78 C 601.28 23.85 607.54 26.72 612.72 31.26 C 627.90 42.84 642.03 56.38 651.40 73.19 C 656.51 71.60 661.70 70.14 667.06 69.76 C 675.15 69.43 682.84 66.16 691.01 66.51 C 700.95 67.29 711.08 65.39 720.83 68.24 C 731.22 71.41 742.24 72.32 752.24 76.77 C 767.16 81.80 780.76 89.82 794.33 97.66 C 799.71 101.27 805.57 104.21 810.37 108.64 C 814.74 112.95 819.82 116.48 823.94 121.06 C 830.11 126.63 834.58 133.72 840.29 139.72 C 846.16 147.37 851.54 155.45 855.97 164.02 C 860.51 171.05 863.43 179.03 864.84 187.27 C 868.36 199.45 871.11 211.99 871.47 224.70 C 878.89 226.11 885.67 229.50 892.55 232.45 C 902.02 237.38 912.26 241.38 919.93 249.08 C 924.79 254.27 931.09 257.83 935.93 263.05 C 939.91 267.12 942.65 272.25 946.94 276.06 C 952.55 281.34 956.03 288.29 960.55 294.43 C 967.15 304.06 971.73 314.88 976.54 325.46 C 979.28 331.04 980.76 337.10 982.86 342.92 C 985.26 349.22 985.84 355.99 987.80 362.41 C 989.84 369.73 989.40 377.36 989.54 384.87 C 990.38 391.20 990.81 397.61 990.33 404.00 C 989.14 413.14 989.60 422.61 986.11 431.34 C 982.35 444.68 977.68 457.87 970.69 469.90 C 979.21 480.66 986.01 492.67 991.86 505.06 C 995.34 511.31 997.42 518.17 998.97 525.12 C 1002.60 535.37 1003.65 546.22 1004.53 556.99 C 1004.98 560.98 1005.60 564.97 1005.49 569.00 C 1005.19 579.18 1006.41 589.55 1003.83 599.54 C 1000.55 629.20 988.97 657.65 972.14 682.17 C 966.26 690.79 958.07 697.41 950.95 704.95 C 945.77 710.60 939.58 715.19 933.04 719.15 C 934.33 726.40 935.54 733.67 936.33 740.99 C 936.58 747.64 936.66 754.33 936.25 760.98 C 934.22 775.54 932.05 790.22 926.89 804.06 C 924.50 812.59 920.12 820.31 916.20 828.19 C 906.75 848.72 891.56 865.89 875.44 881.45 C 870.14 887.25 863.56 891.61 857.33 896.33 C 849.49 901.67 841.55 907.02 832.80 910.79 C 820.73 915.31 808.53 919.79 795.76 921.94 C 784.62 924.14 773.13 923.79 761.86 922.95 C 752.86 942.56 740.19 960.68 723.71 974.73 C 719.92 977.58 716.91 981.33 713.03 984.07 C 707.78 987.79 703.11 992.34 697.46 995.49 C 678.77 1005.09 659.86 1015.22 639.01 1019.21 C 634.51 1020.53 629.84 1020.97 625.23 1021.68 C 614.37 1024.49 603.08 1023.22 592.00 1023.48 C 585.16 1023.80 578.44 1022.45 571.71 1021.53 C 559.01 1020.33 547.15 1015.25 535.44 1010.55 C 528.45 1006.44 520.80 1003.29 514.63 997.91 C 506.63 1004.39 496.94 1008.09 487.93 1012.87 C 476.52 1018.41 463.92 1020.92 451.40 1022.37 C 443.69 1023.91 435.81 1023.39 428.01 1023.50 C 421.07 1023.43 414.05 1023.87 407.21 1022.42 C 400.74 1020.89 394.03 1020.47 387.73 1018.20 C 377.51 1016.35 367.86 1012.43 358.19 1008.78 C 350.01 1005.11 342.18 1000.71 334.08 996.86 C 327.15 993.52 321.60 988.08 315.41 983.64 C 311.54 980.87 308.60 977.06 304.85 974.17 C 296.65 967.67 290.39 959.20 283.81 951.15 C 276.95 942.55 271.85 932.80 267.12 922.93 C 250.81 924.53 234.15 923.45 218.49 918.42 C 211.76 916.85 205.49 913.94 198.94 911.86 C 189.08 908.19 180.33 902.19 171.67 896.34 C 164.66 891.09 157.55 885.87 151.56 879.45 C 142.73 870.89 134.24 861.93 127.16 851.85 C 119.45 842.60 114.46 831.55 109.13 820.85 C 104.21 809.51 99.16 798.06 96.96 785.81 C 94.66 777.04 93.99 767.96 92.76 759.00 C 91.90 745.70 93.40 732.31 96.18 719.30 C 89.57 715.28 83.29 710.67 78.04 704.95 C 70.43 696.91 61.60 689.84 55.65 680.38 C 47.97 668.85 41.16 656.63 36.44 643.58 C 30.04 629.37 27.39 613.86 25.17 598.54 C 22.68 589.21 23.79 579.52 23.51 570.00 C 23.36 562.28 25.44 554.73 25.58 547.02 C 25.77 539.27 27.99 531.78 30.23 524.42 C 32.89 510.81 40.24 498.81 46.81 486.81 C 50.25 480.92 54.08 475.24 58.31 469.90 C 51.80 458.51 46.92 446.23 43.61 433.54 C 40.97 426.36 39.45 418.79 39.45 411.13 C 38.49 403.82 38.05 396.40 38.98 389.07 C 40.20 381.54 38.81 373.84 40.20 366.32 C 42.67 353.80 46.30 341.53 50.67 329.55 C 53.82 322.44 55.97 314.86 60.41 308.38 C 63.76 301.08 68.37 294.52 72.89 287.93 C 77.02 280.31 83.87 274.85 89.11 268.09 C 94.56 262.54 99.88 256.80 106.03 252.00 C 111.57 246.36 117.91 241.41 125.14 238.13 C 135.60 232.95 146.03 227.23 157.53 224.70 C 157.56 214.90 159.97 205.33 161.49 195.70 C 162.44 190.00 164.78 184.68 166.10 179.08 C 168.16 171.27 172.91 164.65 176.52 157.54 C 182.71 147.63 189.34 137.91 197.48 129.48 C 204.01 121.04 212.36 114.31 220.28 107.25 C 225.97 102.81 232.11 98.98 238.29 95.27 C 242.87 92.41 248.03 90.60 252.45 87.46 C 260.22 82.03 269.53 79.73 278.20 76.21 C 283.10 74.14 288.28 72.87 293.47 71.74 C 301.42 70.56 308.95 67.30 317.02 66.75 C 322.69 66.01 328.37 67.23 334.04 66.62 C 340.01 66.23 346.03 66.80 351.84 68.26 C 358.08 69.88 364.62 69.73 370.85 71.46 C 379.33 56.35 392.13 44.22 405.53 33.49 C 417.79 24.80 430.92 17.09 445.19 12.21 C 453.21 9.31 461.25 6.28 469.70 4.88 M 448.62 79.55 C 440.98 84.41 434.40 90.75 428.53 97.60 C 422.03 105.93 417.68 115.99 416.27 126.48 C 415.94 128.20 413.98 128.82 412.58 129.47 C 401.84 133.69 391.22 138.22 380.50 142.50 C 378.16 143.63 375.90 142.11 374.02 140.84 C 366.13 135.66 357.03 132.66 347.80 130.93 C 340.43 129.92 332.92 128.94 325.50 130.21 C 309.77 131.29 294.55 136.38 280.51 143.38 C 262.79 152.77 246.59 165.74 235.35 182.50 C 227.11 194.07 221.81 207.79 220.57 221.97 C 219.88 232.63 222.08 243.39 226.83 252.96 C 219.84 263.20 211.81 272.68 204.59 282.76 C 200.03 282.86 195.53 282.12 191.01 281.77 C 181.12 282.28 171.34 284.87 162.47 289.27 C 149.95 295.00 139.70 304.52 130.56 314.63 C 114.65 333.93 104.11 357.77 101.39 382.68 C 99.91 392.53 100.72 402.57 102.42 412.34 C 105.91 431.08 116.54 449.31 133.76 458.43 C 134.10 462.04 133.92 465.67 133.42 469.25 C 132.57 476.63 133.71 484.19 131.83 491.45 C 115.71 497.45 103.35 510.75 95.72 525.86 C 88.09 541.76 84.85 559.50 84.99 577.05 C 85.53 581.63 85.78 586.23 86.16 590.83 C 88.84 611.13 96.03 631.08 108.42 647.52 C 117.68 659.59 129.93 669.82 144.55 674.60 C 148.47 675.82 152.55 676.38 156.53 677.36 C 160.46 687.21 165.26 696.71 168.65 706.76 C 166.16 710.64 163.38 714.35 161.39 718.52 C 155.88 730.16 154.01 743.25 154.74 756.03 C 156.27 775.14 163.07 793.63 173.37 809.73 C 183.94 826.38 198.19 840.90 215.41 850.69 C 228.77 858.67 244.43 863.10 260.03 862.23 C 270.33 861.62 280.08 857.64 288.92 852.52 C 295.01 855.44 300.63 859.24 306.54 862.50 C 310.38 864.98 314.80 866.65 318.17 869.81 C 318.90 873.08 318.25 876.52 318.90 879.83 C 321.56 895.50 329.22 910.31 340.33 921.66 C 350.03 932.36 361.76 941.17 374.79 947.42 C 389.14 954.99 405.05 959.41 421.17 960.96 C 434.31 962.06 447.76 960.93 460.23 956.47 C 475.56 951.55 489.03 940.58 496.40 926.22 C 508.45 925.60 520.56 926.08 532.62 926.28 C 540.09 940.24 552.98 951.23 568.03 956.22 C 591.41 964.71 617.44 961.96 640.48 953.68 C 664.65 944.61 687.00 928.76 700.52 906.42 C 706.53 896.07 710.77 884.30 710.62 872.22 C 710.66 870.81 711.30 869.32 712.70 868.81 C 720.48 864.56 728.21 860.23 735.98 855.96 C 737.89 855.00 739.73 853.72 741.88 853.33 C 752.06 859.57 764.07 862.88 776.03 862.28 C 789.26 861.64 802.25 857.52 813.60 850.71 C 833.22 839.60 848.95 822.37 859.86 802.76 C 872.33 780.33 878.67 753.06 871.33 727.92 C 869.10 719.46 864.28 712.07 859.14 705.12 C 862.56 695.77 866.30 686.52 870.30 677.41 C 884.68 676.03 898.49 669.88 909.04 660.02 C 930.92 640.21 941.99 610.64 943.63 581.63 C 944.32 576.95 944.22 572.21 943.64 567.53 C 943.27 555.92 940.66 544.44 936.59 533.58 C 932.36 521.91 925.19 511.35 916.05 502.96 C 911.07 497.85 904.55 494.75 898.21 491.72 C 897.56 480.82 895.86 469.98 895.83 459.06 C 897.27 456.77 899.95 455.70 901.96 454.00 C 908.79 449.10 914.16 442.42 918.32 435.17 C 928.12 417.45 930.16 396.24 926.74 376.51 C 921.22 343.74 903.07 312.49 875.13 293.97 C 863.42 286.72 849.89 281.69 835.99 281.80 C 832.60 281.84 827.80 284.23 825.66 280.39 C 818.85 270.88 811.90 261.46 805.15 251.91 C 803.57 250.12 804.35 247.73 805.04 245.75 C 808.85 235.15 809.60 223.43 806.84 212.49 C 803.05 194.19 792.16 178.07 778.94 165.19 C 777.64 163.46 776.26 161.79 774.64 160.36 C 764.60 151.59 753.21 144.35 740.91 139.19 C 726.82 132.93 711.47 129.23 696.01 129.37 C 678.00 128.80 659.54 134.51 645.92 146.54 C 632.76 140.79 619.55 135.15 606.34 129.54 C 605.43 126.43 604.92 123.23 604.15 120.10 C 601.01 107.58 593.40 96.56 583.84 88.04 C 569.38 75.36 550.89 67.78 532.03 64.68 C 503.67 59.68 473.33 64.52 448.62 79.55 Z" />
<path fill="#ffffff" opacity="1.00" d=" M 479.12 117.79 C 489.49 112.45 501.47 110.84 513.02 111.21 C 521.77 111.16 530.42 113.15 538.66 116.01 C 533.53 121.37 530.24 128.79 531.38 136.30 C 531.81 142.09 535.20 146.99 538.86 151.27 C 526.87 155.98 513.81 156.44 501.11 155.53 C 494.29 154.56 487.54 152.92 481.18 150.22 C 485.70 144.01 487.93 136.02 485.70 128.49 C 484.63 124.34 482.10 120.80 479.12 117.79 Z" />
<path fill="#ffffff" opacity="1.00" d=" M 429.52 174.49 C 433.25 172.65 435.53 177.03 437.98 179.02 C 452.93 192.54 472.60 199.95 492.35 202.89 C 502.31 204.28 512.48 205.05 522.49 203.74 C 541.34 202.26 560.01 196.38 575.80 185.86 C 580.23 183.07 583.75 179.16 587.70 175.77 C 589.26 174.37 591.33 175.36 592.95 176.10 C 604.68 181.45 616.73 186.09 628.37 191.63 C 629.80 208.70 636.81 225.05 647.59 238.30 C 670.83 267.36 707.58 286.02 745.02 285.37 C 752.69 285.41 760.02 282.73 767.61 282.10 C 772.67 289.13 777.73 296.16 782.80 303.19 C 784.47 305.51 786.41 307.71 787.59 310.35 C 787.13 312.39 785.75 314.06 784.89 315.94 C 780.37 325.50 777.73 335.94 777.29 346.51 C 776.09 353.00 777.74 359.49 777.75 366.00 C 780.20 384.48 786.57 402.51 796.59 418.25 C 808.36 437.32 825.60 453.60 846.81 461.51 C 848.31 466.90 847.83 472.56 848.73 478.06 C 848.75 483.35 849.93 488.57 849.85 493.86 C 849.87 496.05 847.19 496.55 845.83 497.77 C 829.04 508.23 817.62 525.32 810.18 543.31 C 804.30 558.81 800.92 575.36 801.49 591.99 C 801.07 604.92 803.59 617.80 807.87 629.96 C 811.33 639.95 816.81 649.22 823.90 657.06 C 825.38 658.43 825.04 660.61 824.25 662.25 C 820.99 670.02 818.06 677.92 814.71 685.65 C 802.75 686.58 790.81 689.28 780.19 695.02 C 763.85 703.12 750.35 715.95 739.17 730.18 C 723.77 750.70 713.78 776.13 714.68 802.03 C 714.68 805.24 715.66 808.35 715.65 811.57 C 714.60 812.92 712.97 813.62 711.55 814.52 C 705.06 817.97 698.66 821.57 692.24 825.16 C 690.37 826.41 687.86 826.08 686.14 824.73 C 674.38 816.58 660.20 812.17 645.96 811.50 C 632.57 810.06 619.06 812.41 606.13 815.91 C 580.08 823.42 555.92 838.96 540.16 861.25 C 536.66 866.39 533.90 871.99 531.39 877.67 C 520.94 877.94 510.48 877.70 500.03 877.72 C 498.06 878.17 497.11 876.26 496.43 874.79 C 491.40 862.70 482.94 852.34 473.39 843.52 C 451.86 824.31 423.74 812.72 394.95 811.07 C 376.85 810.46 357.95 814.13 342.93 824.78 C 341.70 825.64 340.01 826.29 338.61 825.44 C 330.52 820.77 322.45 816.08 314.38 811.41 C 314.19 811.04 313.82 810.31 313.64 809.94 C 316.34 791.82 312.39 773.38 305.41 756.65 C 298.85 741.87 289.76 728.15 278.15 716.86 C 266.60 704.63 252.14 695.12 236.21 689.69 C 228.53 687.12 220.44 686.28 212.42 685.62 C 209.07 677.92 205.89 670.15 202.51 662.47 C 201.52 660.75 202.98 659.23 204.10 658.08 C 216.79 645.23 223.35 627.57 226.36 610.05 C 227.81 602.79 227.46 595.36 227.53 588.01 C 227.66 572.45 224.07 557.06 218.54 542.59 C 212.25 527.95 203.64 513.89 191.23 503.66 C 187.87 500.90 184.25 498.50 180.69 496.02 C 180.80 484.48 181.62 472.98 182.28 461.47 C 199.66 455.20 214.19 442.80 225.45 428.39 C 239.42 410.02 248.58 387.95 251.28 365.00 C 251.30 358.56 252.77 352.13 251.60 345.71 C 251.24 333.96 247.10 322.85 242.68 312.12 C 249.37 302.71 256.69 293.76 263.54 284.48 C 264.14 283.31 265.41 282.80 266.65 283.22 C 271.06 284.29 275.48 285.53 280.05 285.59 C 288.22 285.76 296.48 285.99 304.57 284.49 C 326.35 280.77 346.92 270.92 363.98 256.94 C 369.66 252.25 375.35 247.35 379.30 241.04 C 391.84 225.71 400.86 206.63 400.43 186.48 C 410.10 182.44 419.85 178.56 429.52 174.49 M 373.23 344.32 C 352.82 346.35 333.20 353.83 316.06 364.98 C 291.69 381.10 273.33 405.76 264.46 433.57 C 259.19 451.47 257.14 470.50 259.94 489.02 C 262.24 507.50 269.09 525.22 279.02 540.92 C 288.59 556.57 302.93 568.34 314.88 582.05 C 368.98 642.26 423.23 702.36 477.32 762.59 C 489.02 775.20 500.11 788.36 512.03 800.77 C 520.53 792.66 527.78 783.38 535.89 774.90 C 549.37 759.71 563.14 744.77 576.64 729.59 C 628.00 672.95 678.96 615.98 730.38 559.40 C 733.51 556.16 736.78 552.98 739.10 549.08 C 743.17 542.41 747.53 535.89 750.92 528.83 C 768.43 494.45 769.01 451.85 752.03 417.16 C 739.66 390.44 717.57 368.33 690.84 355.98 C 660.68 341.23 624.61 339.73 593.06 350.95 C 575.78 357.52 559.24 366.92 546.47 380.48 C 537.04 389.35 529.08 399.74 523.13 411.25 C 518.55 420.11 514.20 429.27 512.03 439.05 L 511.11 439.02 C 504.61 414.58 490.72 391.99 471.49 375.51 C 461.23 365.70 448.57 358.85 435.67 353.17 C 416.06 345.03 394.32 341.99 373.23 344.32 M 283.29 638.06 C 282.89 639.77 282.42 641.47 281.96 643.17 C 286.11 645.24 290.35 647.16 294.10 649.94 C 290.69 645.80 287.04 641.88 283.29 638.06 Z" />
<path fill="#ffffff" opacity="1.00" d=" M 696.67 178.21 C 717.03 178.67 736.29 189.32 749.94 204.06 C 743.91 207.02 738.06 211.30 735.63 217.82 C 732.65 223.81 733.43 230.72 735.51 236.85 C 719.97 234.98 705.34 227.61 693.54 217.46 C 690.02 214.05 686.14 210.78 683.97 206.29 C 693.94 201.12 699.76 189.18 696.67 178.21 Z" />
<path fill="#ffffff" opacity="1.00" d=" M 308.97 183.18 C 313.34 181.32 317.91 179.92 322.59 179.07 C 322.89 185.80 324.12 192.92 328.98 197.97 C 332.92 202.92 339.08 205.08 345.04 206.43 C 340.88 213.25 334.58 218.44 328.17 223.06 C 321.11 228.21 313.04 231.78 304.78 234.51 C 300.53 235.84 296.12 236.71 291.66 236.76 C 290.29 226.22 281.81 217.60 271.51 215.43 C 279.17 200.29 293.59 189.61 308.97 183.18 Z" />
<path fill="#ffffff" opacity="1.00" d=" M 853.26 337.34 C 867.29 348.90 875.94 366.04 879.12 383.76 C 879.85 387.39 879.72 391.11 879.72 394.80 C 872.53 390.49 862.99 390.11 855.80 394.62 C 851.56 396.67 848.88 400.60 846.06 404.19 C 833.02 390.32 825.37 371.27 825.27 352.23 C 831.08 352.65 837.16 352.45 842.33 349.44 C 847.29 346.84 850.69 342.18 853.26 337.34 Z" />
<path fill="#ffffff" opacity="1.00" d=" M 163.14 351.09 C 165.51 347.83 167.75 344.36 171.05 341.96 C 173.56 349.67 179.61 356.38 187.51 358.68 C 192.80 360.34 198.40 359.26 203.68 358.12 C 201.64 374.53 195.21 390.79 183.98 403.06 C 181.88 396.27 177.55 389.90 170.84 387.01 C 164.05 383.30 155.93 384.38 149.15 387.50 C 151.11 374.53 155.61 361.88 163.14 351.09 Z" />
<path fill="#ffffff" opacity="1.00" d=" M 860.48 549.93 C 864.63 551.60 868.11 554.82 872.67 555.53 C 879.34 557.57 886.17 554.68 891.88 551.32 C 896.21 563.50 896.53 576.79 894.32 589.44 C 892.38 598.38 889.87 607.54 884.36 615.01 C 879.81 608.34 872.16 603.82 864.02 603.76 C 859.56 604.02 855.29 605.56 851.28 607.44 C 847.01 588.04 850.27 567.01 860.48 549.93 Z" />
<path fill="#ffffff" opacity="1.00" d=" M 136.39 553.38 C 142.48 559.96 152.38 563.34 161.04 560.28 C 164.88 559.34 167.73 556.43 171.33 554.97 C 179.75 572.29 182.22 592.89 176.59 611.46 C 170.64 607.62 163.22 606.04 156.34 608.04 C 151.81 609.11 148.23 612.23 144.75 615.13 C 137.47 604.86 134.54 592.07 133.53 579.70 C 132.84 570.85 133.91 561.89 136.39 553.38 Z" />
<path fill="#ffffff" opacity="1.00" d=" M 230.84 740.08 C 247.44 749.96 259.39 767.06 264.50 785.55 C 257.53 784.97 250.55 787.72 245.56 792.55 C 241.35 796.86 239.09 802.73 238.44 808.66 C 224.00 799.82 213.19 785.82 206.95 770.20 C 205.53 766.71 204.62 763.03 203.91 759.33 C 211.24 759.75 218.99 757.59 224.07 752.07 C 227.58 748.92 229.40 744.45 230.84 740.08 Z" />
<path fill="#ffffff" opacity="1.00" d=" M 786.81 748.80 C 790.49 745.42 794.16 741.49 799.11 740.08 C 802.32 751.28 814.45 758.70 825.87 756.53 C 823.57 770.39 816.94 783.28 807.86 793.92 C 803.10 799.47 797.59 804.44 791.22 808.08 C 789.84 804.48 789.11 800.47 786.52 797.48 C 783.41 793.78 779.73 790.29 775.02 788.80 C 771.55 787.39 767.76 787.57 764.09 787.54 C 767.53 772.74 775.78 759.19 786.81 748.80 Z" />
<path fill="#ffffff" opacity="1.00" d=" M 389.05 859.27 C 406.18 859.13 422.97 865.39 436.76 875.36 C 438.91 876.88 440.79 878.74 442.63 880.63 C 431.63 886.75 427.04 901.88 433.52 912.85 C 422.64 913.55 411.82 911.16 401.78 907.07 C 393.16 903.20 384.74 898.55 377.93 891.91 C 382.98 888.25 388.24 884.05 390.04 877.79 C 392.53 871.76 391.29 865.15 389.05 859.27 Z" />
<path fill="#ffffff" opacity="1.00" d=" M 586.15 880.92 C 600.36 867.30 620.02 859.45 639.69 859.28 C 636.55 865.78 636.21 873.75 639.59 880.22 C 641.98 885.30 646.59 888.81 651.07 891.95 C 640.40 902.22 626.45 908.72 612.06 911.83 C 607.20 913.02 602.16 912.85 597.19 912.85 C 600.21 906.10 600.46 897.98 596.72 891.45 C 594.55 886.78 590.45 883.51 586.15 880.92 Z" />
</g>
<g id="#88001bff">
<path fill="#88001b" opacity="1.00" d=" M 448.62 79.55 C 473.33 64.52 503.67 59.68 532.03 64.68 C 550.89 67.78 569.38 75.36 583.84 88.04 C 593.40 96.56 601.01 107.58 604.15 120.10 C 604.92 123.23 605.43 126.43 606.34 129.54 C 619.55 135.15 632.76 140.79 645.92 146.54 C 650.11 145.99 652.72 142.10 656.32 140.24 C 671.38 131.26 689.72 128.28 706.98 130.79 C 725.53 132.82 743.35 139.91 759.05 149.86 C 766.17 154.30 772.41 159.96 778.94 165.19 C 792.16 178.07 803.05 194.19 806.84 212.49 C 809.60 223.43 808.85 235.15 805.04 245.75 C 804.35 247.73 803.57 250.12 805.15 251.91 C 811.90 261.46 818.85 270.88 825.66 280.39 C 827.80 284.23 832.60 281.84 835.99 281.80 C 849.89 281.69 863.42 286.72 875.13 293.97 C 903.07 312.49 921.22 343.74 926.74 376.51 C 930.16 396.24 928.12 417.45 918.32 435.17 C 914.16 442.42 908.79 449.10 901.96 454.00 C 899.95 455.70 897.27 456.77 895.83 459.06 C 895.86 469.98 897.56 480.82 898.21 491.72 C 904.55 494.75 911.07 497.85 916.05 502.96 C 925.19 511.35 932.36 521.91 936.59 533.58 C 940.66 544.44 943.27 555.92 943.64 567.53 C 944.22 572.21 944.32 576.95 943.63 581.63 C 941.99 610.64 930.92 640.21 909.04 660.02 C 898.49 669.88 884.68 676.03 870.30 677.41 C 866.30 686.52 862.56 695.77 859.14 705.12 C 864.28 712.07 869.10 719.46 871.33 727.92 C 878.67 753.06 872.33 780.33 859.86 802.76 C 848.95 822.37 833.22 839.60 813.60 850.71 C 802.25 857.52 789.26 861.64 776.03 862.28 C 764.07 862.88 752.06 859.57 741.88 853.33 C 739.73 853.72 737.89 855.00 735.98 855.96 C 728.21 860.23 720.48 864.56 712.70 868.81 C 711.30 869.32 710.66 870.81 710.62 872.22 C 710.77 884.30 706.53 896.07 700.52 906.42 C 687.00 928.76 664.65 944.61 640.48 953.68 C 617.44 961.96 591.41 964.71 568.03 956.22 C 552.98 951.23 540.09 940.24 532.62 926.28 C 520.56 926.08 508.45 925.60 496.40 926.22 C 489.03 940.58 475.56 951.55 460.23 956.47 C 447.76 960.93 434.31 962.06 421.17 960.96 C 405.05 959.41 389.14 954.99 374.79 947.42 C 361.76 941.17 350.03 932.36 340.33 921.66 C 329.22 910.31 321.56 895.50 318.90 879.83 C 318.25 876.52 318.90 873.08 318.17 869.81 C 314.80 866.65 310.38 864.98 306.54 862.50 C 300.63 859.24 295.01 855.44 288.92 852.52 C 280.08 857.64 270.33 861.62 260.03 862.23 C 244.43 863.10 228.77 858.67 215.41 850.69 C 198.19 840.90 183.94 826.38 173.37 809.73 C 163.07 793.63 156.27 775.14 154.74 756.03 C 154.01 743.25 155.88 730.16 161.39 718.52 C 163.38 714.35 166.16 710.64 168.65 706.76 C 165.26 696.71 160.46 687.21 156.53 677.36 C 152.55 676.38 148.47 675.82 144.55 674.60 C 129.93 669.82 117.68 659.59 108.42 647.52 C 96.03 631.08 88.84 611.13 86.16 590.83 C 85.78 586.23 85.53 581.63 84.99 577.05 C 84.85 559.50 88.09 541.76 95.72 525.86 C 103.35 510.75 115.71 497.45 131.83 491.45 C 133.71 484.19 132.57 476.63 133.42 469.25 C 133.92 465.67 134.10 462.04 133.76 458.43 C 116.54 449.31 105.91 431.08 102.42 412.34 C 100.72 402.57 99.91 392.53 101.39 382.68 C 104.11 357.77 114.65 333.93 130.56 314.63 C 139.70 304.52 149.95 295.00 162.47 289.27 C 171.34 284.87 181.12 282.28 191.01 281.77 C 195.53 282.12 200.03 282.86 204.59 282.76 C 211.81 272.68 219.84 263.20 226.83 252.96 C 222.08 243.39 219.88 232.63 220.57 221.97 C 221.81 207.79 227.11 194.07 235.35 182.50 C 246.59 165.74 262.79 152.77 280.51 143.38 C 294.55 136.38 309.77 131.29 325.50 130.21 C 332.92 128.94 340.43 129.92 347.80 130.93 C 357.03 132.66 366.13 135.66 374.02 140.84 C 375.90 142.11 378.16 143.63 380.50 142.50 C 391.22 138.22 401.84 133.69 412.58 129.47 C 413.98 128.82 415.94 128.20 416.27 126.48 C 417.68 115.99 422.03 105.93 428.53 97.60 C 434.40 90.75 440.98 84.41 448.62 79.55 M 479.12 117.79 C 482.10 120.80 484.63 124.34 485.70 128.49 C 487.93 136.02 485.70 144.01 481.18 150.22 C 487.54 152.92 494.29 154.56 501.11 155.53 C 513.81 156.44 526.87 155.98 538.86 151.27 C 535.20 146.99 531.81 142.09 531.38 136.30 C 530.24 128.79 533.53 121.37 538.66 116.01 C 530.42 113.15 521.77 111.16 513.02 111.21 C 501.47 110.84 489.49 112.45 479.12 117.79 M 429.52 174.49 C 419.85 178.56 410.10 182.44 400.43 186.48 C 400.86 206.63 391.84 225.71 379.30 241.04 C 372.82 246.65 367.44 253.47 360.44 258.49 C 339.10 275.29 312.25 285.40 284.98 285.24 C 278.80 285.33 272.82 283.35 266.65 283.22 C 265.41 282.80 264.14 283.31 263.54 284.48 C 256.69 293.76 249.37 302.71 242.68 312.12 C 247.10 322.85 251.24 333.96 251.60 345.71 C 252.77 352.13 251.30 358.56 251.28 365.00 C 248.58 387.95 239.42 410.02 225.45 428.39 C 214.19 442.80 199.66 455.20 182.28 461.47 C 181.62 472.98 180.80 484.48 180.69 496.02 C 184.25 498.50 187.87 500.90 191.23 503.66 C 203.64 513.89 212.25 527.95 218.54 542.59 C 224.07 557.06 227.66 572.45 227.53 588.01 C 227.46 595.36 227.81 602.79 226.36 610.05 C 223.35 627.57 216.79 645.23 204.10 658.08 C 202.98 659.23 201.52 660.75 202.51 662.47 C 205.89 670.15 209.07 677.92 212.42 685.62 C 220.44 686.28 228.53 687.12 236.21 689.69 C 252.14 695.12 266.60 704.63 278.15 716.86 C 289.76 728.15 298.85 741.87 305.41 756.65 C 312.39 773.38 316.34 791.82 313.64 809.94 C 313.82 810.31 314.19 811.04 314.38 811.41 C 322.45 816.08 330.52 820.77 338.61 825.44 C 340.01 826.29 341.70 825.64 342.93 824.78 C 357.95 814.13 376.85 810.46 394.95 811.07 C 423.74 812.72 451.86 824.31 473.39 843.52 C 482.94 852.34 491.40 862.70 496.43 874.79 C 497.11 876.26 498.06 878.17 500.03 877.72 C 510.48 877.70 520.94 877.94 531.39 877.67 C 533.90 871.99 536.66 866.39 540.16 861.25 C 555.92 838.96 580.08 823.42 606.13 815.91 C 619.06 812.41 632.57 810.06 645.96 811.50 C 660.20 812.17 674.38 816.58 686.14 824.73 C 687.86 826.08 690.37 826.41 692.24 825.16 C 698.66 821.57 705.06 817.97 711.55 814.52 C 712.97 813.62 714.60 812.92 715.65 811.57 C 715.66 808.35 714.68 805.24 714.68 802.03 C 713.78 776.13 723.77 750.70 739.17 730.18 C 750.35 715.95 763.85 703.12 780.19 695.02 C 790.81 689.28 802.75 686.58 814.71 685.65 C 818.06 677.92 820.99 670.02 824.25 662.25 C 825.04 660.61 825.38 658.43 823.90 657.06 C 816.81 649.22 811.33 639.95 807.87 629.96 C 803.59 617.80 801.07 604.92 801.49 591.99 C 800.92 575.36 804.30 558.81 810.18 543.31 C 817.62 525.32 829.04 508.23 845.83 497.77 C 847.19 496.55 849.87 496.05 849.85 493.86 C 849.93 488.57 848.75 483.35 848.73 478.06 C 847.83 472.56 848.31 466.90 846.81 461.51 C 825.60 453.60 808.36 437.32 796.59 418.25 C 786.57 402.51 780.20 384.48 777.75 366.00 C 777.74 359.49 776.09 353.00 777.29 346.51 C 777.73 335.94 780.37 325.50 784.89 315.94 C 785.75 314.06 787.13 312.39 787.59 310.35 C 786.41 307.71 784.47 305.51 782.80 303.19 C 777.73 296.16 772.67 289.13 767.61 282.10 C 760.02 282.73 752.69 285.41 745.02 285.37 C 707.58 286.02 670.83 267.36 647.59 238.30 C 636.81 225.05 629.80 208.70 628.37 191.63 C 616.73 186.09 604.68 181.45 592.95 176.10 C 591.33 175.36 589.26 174.37 587.70 175.77 C 583.75 179.16 580.23 183.07 575.80 185.86 C 560.01 196.38 541.34 202.26 522.49 203.74 C 512.48 205.05 502.31 204.28 492.35 202.89 C 472.60 199.95 452.93 192.54 437.98 179.02 C 435.53 177.03 433.25 172.65 429.52 174.49 M 696.67 178.21 C 699.76 189.18 693.94 201.12 683.97 206.29 C 686.14 210.78 690.02 214.05 693.54 217.46 C 705.34 227.61 719.97 234.98 735.51 236.85 C 733.43 230.72 732.65 223.81 735.63 217.82 C 738.06 211.30 743.91 207.02 749.94 204.06 C 736.29 189.32 717.03 178.67 696.67 178.21 M 308.97 183.18 C 293.59 189.61 279.17 200.29 271.51 215.43 C 281.81 217.60 290.29 226.22 291.66 236.76 C 296.12 236.71 300.53 235.84 304.78 234.51 C 313.04 231.78 321.11 228.21 328.17 223.06 C 334.58 218.44 340.88 213.25 345.04 206.43 C 339.08 205.08 332.92 202.92 328.98 197.97 C 324.12 192.92 322.89 185.80 322.59 179.07 C 317.91 179.92 313.34 181.32 308.97 183.18 M 853.26 337.34 C 850.69 342.18 847.29 346.84 842.33 349.44 C 837.16 352.45 831.08 352.65 825.27 352.23 C 825.37 371.27 833.02 390.32 846.06 404.19 C 848.88 400.60 851.56 396.67 855.80 394.62 C 862.99 390.11 872.53 390.49 879.72 394.80 C 879.72 391.11 879.85 387.39 879.12 383.76 C 875.94 366.04 867.29 348.90 853.26 337.34 M 163.14 351.09 C 155.61 361.88 151.11 374.53 149.15 387.50 C 155.93 384.38 164.05 383.30 170.84 387.01 C 177.55 389.90 181.88 396.27 183.98 403.06 C 195.21 390.79 201.64 374.53 203.68 358.12 C 198.40 359.26 192.80 360.34 187.51 358.68 C 179.61 356.38 173.56 349.67 171.05 341.96 C 167.75 344.36 165.51 347.83 163.14 351.09 M 860.48 549.93 C 850.27 567.01 847.01 588.04 851.28 607.44 C 855.29 605.56 859.56 604.02 864.02 603.76 C 872.16 603.82 879.81 608.34 884.36 615.01 C 889.87 607.54 892.38 598.38 894.32 589.44 C 896.53 576.79 896.21 563.50 891.88 551.32 C 886.17 554.68 879.34 557.57 872.67 555.53 C 868.11 554.82 864.63 551.60 860.48 549.93 M 136.39 553.38 C 133.91 561.89 132.84 570.85 133.53 579.70 C 134.54 592.07 137.47 604.86 144.75 615.13 C 148.23 612.23 151.81 609.11 156.34 608.04 C 163.22 606.04 170.64 607.62 176.59 611.46 C 182.22 592.89 179.75 572.29 171.33 554.97 C 167.73 556.43 164.88 559.34 161.04 560.28 C 152.38 563.34 142.48 559.96 136.39 553.38 M 230.84 740.08 C 229.40 744.45 227.58 748.92 224.07 752.07 C 218.99 757.59 211.24 759.75 203.91 759.33 C 204.62 763.03 205.53 766.71 206.95 770.20 C 213.19 785.82 224.00 799.82 238.44 808.66 C 239.09 802.73 241.35 796.86 245.56 792.55 C 250.55 787.72 257.53 784.97 264.50 785.55 C 259.39 767.06 247.44 749.96 230.84 740.08 M 786.81 748.80 C 775.78 759.19 767.53 772.74 764.09 787.54 C 767.76 787.57 771.55 787.39 775.02 788.80 C 779.73 790.29 783.41 793.78 786.52 797.48 C 789.11 800.47 789.84 804.48 791.22 808.08 C 797.59 804.44 803.10 799.47 807.86 793.92 C 816.94 783.28 823.57 770.39 825.87 756.53 C 814.45 758.70 802.32 751.28 799.11 740.08 C 794.16 741.49 790.49 745.42 786.81 748.80 M 389.05 859.27 C 391.29 865.15 392.53 871.76 390.04 877.79 C 388.24 884.05 382.98 888.25 377.93 891.91 C 384.74 898.55 393.16 903.20 401.78 907.07 C 411.82 911.16 422.64 913.55 433.52 912.85 C 427.04 901.88 431.63 886.75 442.63 880.63 C 440.79 878.74 438.91 876.88 436.76 875.36 C 422.97 865.39 406.18 859.13 389.05 859.27 M 586.15 880.92 C 590.45 883.51 594.55 886.78 596.72 891.45 C 600.46 897.98 600.21 906.10 597.19 912.85 C 602.16 912.85 607.20 913.02 612.06 911.83 C 626.45 908.72 640.40 902.22 651.07 891.95 C 646.59 888.81 641.98 885.30 639.59 880.22 C 636.21 873.75 636.55 865.78 639.69 859.28 C 620.02 859.45 600.36 867.30 586.15 880.92 Z" />
<path fill="#88001b" opacity="1.00" d=" M 373.23 344.32 C 394.32 341.99 416.06 345.03 435.67 353.17 C 448.57 358.85 461.23 365.70 471.49 375.51 C 490.72 391.99 504.61 414.58 511.11 439.02 C 509.82 441.01 513.15 441.13 512.03 439.05 C 514.20 429.27 518.55 420.11 523.13 411.25 C 529.08 399.74 537.04 389.35 546.47 380.48 C 559.24 366.92 575.78 357.52 593.06 350.95 C 624.61 339.73 660.68 341.23 690.84 355.98 C 717.57 368.33 739.66 390.44 752.03 417.16 C 769.01 451.85 768.43 494.45 750.92 528.83 C 747.53 535.89 743.17 542.41 739.10 549.08 C 736.78 552.98 733.51 556.16 730.38 559.40 C 678.96 615.98 628.00 672.95 576.64 729.59 C 563.14 744.77 549.37 759.71 535.89 774.90 C 527.78 783.38 520.53 792.66 512.03 800.77 C 500.11 788.36 489.02 775.20 477.32 762.59 C 423.23 702.36 368.98 642.26 314.88 582.05 C 302.93 568.34 288.59 556.57 279.02 540.92 C 269.09 525.22 262.24 507.50 259.94 489.02 C 257.14 470.50 259.19 451.47 264.46 433.57 C 273.33 405.76 291.69 381.10 316.06 364.98 C 333.20 353.83 352.82 346.35 373.23 344.32 Z" />
</g>
<g id="#bca5aaa3">
<path fill="#bca5aa" opacity="0.64" d=" M 645.92 146.54 C 659.54 134.51 678.00 128.80 696.01 129.37 C 711.47 129.23 726.82 132.93 740.91 139.19 C 753.21 144.35 764.60 151.59 774.64 160.36 C 776.26 161.79 777.64 163.46 778.94 165.19 C 772.41 159.96 766.17 154.30 759.05 149.86 C 743.35 139.91 725.53 132.82 706.98 130.79 C 689.72 128.28 671.38 131.26 656.32 140.24 C 652.72 142.10 650.11 145.99 645.92 146.54 Z" />
<path fill="#bca5aa" opacity="0.64" d=" M 360.44 258.49 C 367.44 253.47 372.82 246.65 379.30 241.04 C 375.35 247.35 369.66 252.25 363.98 256.94 C 346.92 270.92 326.35 280.77 304.57 284.49 C 296.48 285.99 288.22 285.76 280.05 285.59 C 275.48 285.53 271.06 284.29 266.65 283.22 C 272.82 283.35 278.80 285.33 284.98 285.24 C 312.25 285.40 339.10 275.29 360.44 258.49 Z" />
<path fill="#bca5aa" opacity="0.64" d=" M 511.11 439.02 L 512.03 439.05 C 513.15 441.13 509.82 441.01 511.11 439.02 Z" />
</g>
</svg>
