<?xml version="1.0" encoding="UTF-8" ?>
<!DOCTYPE svg PUBLIC "-//W3C//DTD SVG 1.1//EN" "http://www.w3.org/Graphics/SVG/1.1/DTD/svg11.dtd">
<svg width="1024pt" height="1024pt" viewBox="0 0 1024 1024" version="1.1" xmlns="http://www.w3.org/2000/svg">
<g id="#ffffffff">
<path fill="#ffffff" opacity="1.00" d=" M 544.81 2.35 C 553.45 1.01 562.21 1.64 570.92 1.43 C 579.00 1.60 587.13 1.09 595.14 2.35 C 622.51 2.38 649.52 7.56 676.12 13.58 C 683.04 15.86 690.31 16.94 697.13 19.53 C 712.82 24.71 728.64 29.62 743.80 36.22 C 760.51 42.99 776.50 51.39 792.62 59.46 C 799.12 62.84 805.94 65.71 811.92 70.01 C 827.08 80.00 842.21 90.11 855.92 102.05 C 862.91 109.33 871.24 115.22 877.60 123.13 C 880.39 126.95 884.16 129.91 887.17 133.56 C 893.71 142.12 900.96 150.18 906.53 159.45 C 913.72 169.28 919.10 180.22 925.20 190.72 C 928.93 199.00 933.03 207.13 936.12 215.69 C 938.69 224.17 942.18 232.38 943.96 241.09 C 946.95 255.91 950.64 270.68 951.73 285.80 C 953.18 297.13 952.47 308.59 952.64 319.98 C 952.91 329.05 951.72 338.03 951.03 347.04 C 947.69 365.92 943.71 384.78 936.82 402.72 C 932.85 410.92 930.02 419.62 925.52 427.57 C 915.76 445.27 904.39 462.07 891.80 477.89 C 888.45 481.36 885.37 485.07 882.38 488.87 C 889.09 491.12 895.65 493.83 901.93 497.11 C 907.37 499.93 913.04 502.36 918.14 505.81 C 923.70 509.75 929.95 512.60 935.41 516.71 C 954.76 531.40 971.33 550.25 981.57 572.43 C 987.91 584.33 992.09 597.27 994.68 610.49 C 997.36 621.79 996.46 633.50 996.53 645.01 C 997.11 659.12 992.87 672.85 988.13 685.97 C 983.39 696.21 978.65 706.61 971.69 715.58 C 965.85 723.96 958.09 730.71 950.91 737.90 C 933.80 752.45 912.78 762.11 890.93 766.99 C 882.56 769.05 873.94 770.43 865.32 770.47 C 862.05 782.74 855.72 794.14 847.26 803.59 C 848.44 807.60 848.42 811.81 849.22 815.89 C 849.43 820.28 849.45 824.69 849.19 829.09 C 848.62 831.72 848.46 834.42 848.20 837.10 C 844.97 852.96 839.15 868.96 827.91 880.96 C 822.21 886.60 816.86 892.73 810.12 897.19 C 800.97 903.24 790.61 907.24 780.03 909.96 C 770.84 912.13 761.33 911.54 751.98 911.48 C 742.56 911.42 733.56 908.33 724.85 905.07 C 711.02 899.43 699.20 889.66 689.93 878.06 C 686.58 873.49 683.23 868.84 681.09 863.57 C 682.91 871.57 682.53 879.83 682.64 887.98 C 682.56 893.46 682.66 898.95 682.21 904.42 C 678.78 930.72 667.54 956.01 649.96 975.91 C 643.43 982.40 637.29 989.40 629.77 994.80 C 622.60 1000.17 615.07 1005.15 606.91 1008.90 C 594.60 1015.64 580.70 1018.67 566.99 1021.03 C 555.69 1021.98 544.32 1021.58 532.99 1021.39 C 520.20 1020.31 507.81 1016.53 495.84 1012.06 C 483.14 1006.53 471.21 999.21 460.58 990.33 C 456.42 986.50 452.54 982.38 448.52 978.42 C 441.46 971.55 436.83 962.75 431.54 954.56 C 428.09 948.18 424.61 941.75 422.27 934.86 C 417.45 923.14 415.11 910.56 413.95 898.01 C 413.50 892.94 413.26 887.83 413.69 882.76 C 408.83 892.36 401.24 900.21 393.27 907.30 C 382.88 915.44 371.62 922.85 358.90 926.79 C 351.20 929.56 343.15 931.16 335.05 932.12 C 304.07 934.90 271.81 923.37 250.55 900.46 C 240.51 891.08 233.64 878.82 229.28 865.89 C 228.91 864.88 228.54 863.88 228.19 862.88 C 226.28 857.40 225.08 851.72 223.84 846.07 C 223.54 843.39 223.41 840.69 222.83 838.06 C 222.61 832.08 222.20 826.03 223.17 820.11 C 223.46 812.85 225.66 805.90 227.10 798.84 C 220.86 792.72 214.19 786.88 209.39 779.50 C 201.25 767.72 196.20 754.20 191.36 740.83 C 188.36 732.85 185.32 724.90 182.40 716.90 C 179.12 705.07 175.43 693.32 173.23 681.22 C 172.08 675.19 170.57 669.19 170.54 663.02 C 162.84 667.43 154.10 669.26 145.57 671.29 C 136.51 673.12 127.20 672.66 118.02 672.60 C 105.76 672.71 93.90 668.93 82.59 664.53 C 72.81 659.87 63.41 654.01 56.05 645.95 C 37.81 629.20 26.96 604.74 26.45 580.01 C 26.41 572.97 26.18 565.90 27.12 558.92 C 29.04 546.99 32.47 535.14 38.49 524.61 C 41.28 520.17 43.41 515.37 45.80 510.72 C 51.81 500.17 56.87 489.02 64.35 479.37 C 70.80 469.96 77.87 460.99 85.54 452.56 C 92.23 445.85 98.90 439.12 105.67 432.50 C 113.39 425.81 121.72 419.85 130.27 414.28 C 147.02 405.11 163.26 394.77 181.29 388.20 C 165.58 367.79 156.37 342.58 154.54 316.92 C 154.50 308.98 154.17 301.01 154.84 293.09 C 156.17 284.12 157.50 275.06 160.58 266.49 C 164.43 253.47 171.35 241.68 177.72 229.79 C 183.89 218.05 187.99 205.30 195.12 194.05 C 198.45 186.20 204.23 179.85 208.40 172.49 C 212.58 165.79 217.81 159.85 222.50 153.51 C 226.00 148.71 230.55 144.82 234.12 140.08 C 241.56 132.48 249.04 124.90 256.72 117.56 C 260.90 114.50 264.26 110.51 268.38 107.38 C 275.22 102.23 281.81 96.75 288.84 91.85 C 301.31 83.59 313.55 74.94 326.72 67.81 C 333.40 64.50 340.01 61.06 346.74 57.86 C 357.20 53.56 366.91 47.64 377.41 43.44 C 390.19 38.07 402.96 32.61 416.17 28.34 C 436.19 20.63 456.94 15.09 477.87 10.47 C 499.92 6.06 522.26 2.35 544.81 2.35 M 512.10 66.56 C 464.25 74.00 418.18 90.50 374.87 111.90 C 348.38 125.24 322.72 140.75 300.51 160.55 C 276.99 180.85 257.26 205.68 243.55 233.61 C 236.55 247.91 229.09 261.98 222.31 276.39 C 211.30 299.20 213.59 327.72 228.18 348.45 C 242.18 369.02 267.24 381.40 292.06 380.01 C 309.07 378.87 325.64 371.74 338.00 359.96 C 350.97 347.82 357.38 330.87 365.43 315.44 C 371.13 304.62 375.57 292.96 383.38 283.41 C 395.47 268.16 412.05 257.36 428.80 247.88 C 449.65 236.73 471.49 227.43 493.97 220.14 C 527.77 209.32 563.87 204.83 599.17 209.53 C 621.73 212.43 643.80 218.67 664.83 227.29 C 683.84 234.86 702.40 244.08 718.58 256.74 C 729.71 266.21 739.32 278.20 743.42 292.44 C 746.80 303.33 748.55 315.43 744.21 326.32 C 737.13 343.68 723.62 357.43 709.43 369.23 C 694.53 381.59 677.11 390.62 658.90 397.01 C 641.02 403.55 622.01 405.98 603.88 411.63 C 569.53 421.78 536.41 439.60 513.20 467.42 C 499.36 484.10 489.81 504.25 485.48 525.48 C 481.79 544.16 479.79 563.13 477.97 582.07 C 477.57 590.05 476.61 598.00 476.63 606.01 C 475.22 620.64 476.14 635.38 475.15 650.03 C 475.18 664.69 474.80 679.33 474.81 693.99 C 474.46 704.66 475.65 715.51 479.36 725.58 C 485.96 743.80 500.06 759.13 517.73 767.13 C 544.23 779.58 578.15 773.66 598.53 752.53 C 609.96 741.57 617.45 726.63 619.54 710.95 C 621.09 702.40 619.91 693.69 620.71 685.08 C 620.99 679.42 620.80 673.75 620.89 668.09 C 621.61 650.95 620.50 633.75 622.10 616.65 C 622.01 604.62 623.43 592.67 624.51 580.71 C 625.59 573.44 625.84 565.95 627.74 558.85 C 641.71 550.15 658.46 548.35 674.08 544.23 C 726.62 531.48 776.64 506.37 816.05 469.06 C 824.63 462.01 831.69 453.39 839.32 445.37 C 843.92 439.82 848.57 434.29 852.75 428.41 C 876.82 395.37 892.84 355.26 892.39 313.97 C 892.76 298.86 890.96 283.77 887.80 269.00 C 883.23 248.29 876.03 228.08 865.62 209.57 C 851.73 184.41 832.63 162.32 810.54 144.02 C 784.01 122.77 753.90 106.29 722.49 93.49 C 684.55 77.91 644.46 67.04 603.53 63.49 C 573.08 60.46 542.30 61.85 512.10 66.56 M 187.92 451.79 C 167.18 461.84 147.99 475.32 132.08 492.03 C 119.31 505.23 109.30 520.83 101.16 537.23 C 95.08 549.19 86.59 560.95 86.71 574.93 C 87.20 584.32 90.68 593.88 97.48 600.55 C 104.68 608.29 115.32 612.97 125.93 612.49 C 135.77 612.58 145.39 608.22 152.19 601.19 C 159.78 593.77 163.50 583.65 168.75 574.65 C 174.08 563.81 180.21 553.21 188.64 544.47 C 198.68 534.13 211.06 526.29 224.03 520.14 C 238.28 513.59 254.27 509.59 269.97 511.97 C 283.00 513.80 295.79 518.22 306.97 525.22 C 308.86 526.63 311.77 528.20 311.13 531.01 C 309.85 542.38 302.61 551.92 295.59 560.52 C 284.69 572.29 273.35 583.63 261.96 594.92 C 254.44 601.84 246.72 608.70 240.71 617.01 C 235.60 624.02 232.44 632.32 231.08 640.86 C 230.45 647.49 230.46 654.22 231.11 660.86 C 233.78 680.67 241.07 699.43 248.10 718.01 C 251.91 727.40 254.52 737.58 260.92 745.66 C 269.92 757.22 285.91 763.12 300.14 759.07 C 311.43 756.37 321.15 748.14 325.76 737.50 C 330.09 728.60 330.27 718.15 327.06 708.87 C 321.21 691.43 313.37 674.62 309.03 656.70 C 315.67 650.14 322.28 643.54 328.87 636.93 C 337.45 628.18 346.54 619.91 354.37 610.46 C 367.78 594.80 379.04 576.85 384.80 556.92 C 388.09 544.58 390.06 531.59 388.11 518.85 C 385.63 499.34 374.97 481.30 360.05 468.68 C 344.91 455.80 326.57 447.33 307.76 441.31 C 291.35 436.32 274.18 433.51 257.01 433.81 C 233.04 434.71 209.33 441.00 187.92 451.79 M 766.62 548.60 C 757.86 552.18 748.93 555.34 740.27 559.14 C 734.52 561.52 730.15 566.25 726.92 571.44 C 726.03 574.59 724.68 577.68 724.67 581.01 C 724.55 587.44 727.21 593.72 731.78 598.22 C 737.69 604.33 746.93 606.83 755.10 604.43 C 772.86 599.08 789.31 589.23 807.96 586.97 C 828.68 583.74 849.75 590.75 866.97 602.04 C 878.37 609.24 886.58 621.52 888.09 634.99 C 888.87 642.01 886.04 649.18 881.03 654.07 C 874.95 659.22 866.77 660.63 859.14 661.81 C 845.66 662.76 832.08 663.64 818.98 667.20 C 805.09 670.42 791.75 677.60 782.91 689.00 C 773.37 700.44 767.48 714.45 763.75 728.76 C 761.78 736.68 758.20 744.85 760.39 753.12 C 762.04 761.02 768.06 767.75 775.67 770.39 C 784.38 773.40 794.77 770.96 800.89 763.96 C 806.94 757.26 808.16 748.07 810.68 739.75 C 813.30 731.78 815.65 722.92 822.35 717.32 C 828.90 713.29 836.83 712.51 844.28 711.33 C 855.88 710.16 867.65 710.03 879.00 707.05 C 893.48 703.67 907.35 696.53 917.45 685.47 C 925.96 676.40 931.68 664.89 934.70 652.88 C 937.42 640.74 936.75 627.90 933.29 615.98 C 927.36 593.96 912.77 574.80 893.90 562.20 C 871.80 547.45 845.66 538.32 818.99 537.83 C 801.03 537.96 783.27 541.97 766.62 548.60 M 318.62 787.77 C 306.20 789.51 295.35 797.56 288.81 808.07 C 283.15 818.03 281.19 830.27 284.61 841.32 C 287.34 851.74 294.59 860.59 303.65 866.24 C 314.82 872.88 329.05 874.00 341.11 869.14 C 348.45 866.53 354.26 861.05 359.23 855.23 C 367.52 844.41 370.22 829.40 365.72 816.47 C 359.81 797.16 338.52 784.05 318.62 787.77 M 755.53 793.72 C 742.24 795.48 731.60 807.66 731.00 820.94 C 730.59 829.37 734.15 837.87 740.37 843.56 C 750.22 853.33 767.45 853.89 778.06 845.04 C 785.91 839.03 789.99 828.71 788.87 818.94 C 787.91 812.98 785.57 807.08 781.30 802.71 C 774.94 795.67 764.87 792.01 755.53 793.72 M 539.46 813.56 C 517.36 815.94 496.79 829.07 485.19 848.00 C 470.52 870.71 470.14 901.73 484.16 924.84 C 491.47 937.14 502.33 947.25 515.05 953.78 C 537.85 965.14 566.57 963.92 587.98 949.95 C 606.67 938.34 619.51 917.92 622.00 896.07 C 625.62 869.16 612.61 840.98 590.05 825.98 C 575.53 815.76 557.02 811.37 539.46 813.56 Z" />
</g>
<g id="#88001bff">
<path fill="#88001b" opacity="1.00" d=" M 512.10 66.56 C 542.30 61.85 573.08 60.46 603.53 63.49 C 644.46 67.04 684.55 77.91 722.49 93.49 C 753.90 106.29 784.01 122.77 810.54 144.02 C 832.63 162.32 851.73 184.41 865.62 209.57 C 876.03 228.08 883.23 248.29 887.80 269.00 C 890.96 283.77 892.76 298.86 892.39 313.97 C 892.84 355.26 876.82 395.37 852.75 428.41 C 848.57 434.29 843.92 439.82 839.32 445.37 C 831.69 453.39 824.63 462.01 816.05 469.06 C 776.64 506.37 726.62 531.48 674.08 544.23 C 658.46 548.35 641.71 550.15 627.74 558.85 C 625.84 565.95 625.59 573.44 624.51 580.71 C 623.43 592.67 622.01 604.62 622.10 616.65 C 620.50 633.75 621.61 650.95 620.89 668.09 C 620.80 673.75 620.99 679.42 620.71 685.08 C 619.91 693.69 621.09 702.40 619.54 710.95 C 617.45 726.63 609.96 741.57 598.53 752.53 C 578.15 773.66 544.23 779.58 517.73 767.13 C 500.06 759.13 485.96 743.80 479.36 725.58 C 475.65 715.51 474.46 704.66 474.81 693.99 C 474.80 679.33 475.18 664.69 475.15 650.03 C 476.14 635.38 475.22 620.64 476.63 606.01 C 476.61 598.00 477.57 590.05 477.97 582.07 C 479.79 563.13 481.79 544.16 485.48 525.48 C 489.81 504.25 499.36 484.10 513.20 467.42 C 536.41 439.60 569.53 421.78 603.88 411.63 C 622.01 405.98 641.02 403.55 658.90 397.01 C 677.11 390.62 694.53 381.59 709.43 369.23 C 723.62 357.43 737.13 343.68 744.21 326.32 C 748.55 315.43 746.80 303.33 743.42 292.44 C 739.32 278.20 729.71 266.21 718.58 256.74 C 702.40 244.08 683.84 234.86 664.83 227.29 C 643.80 218.67 621.73 212.43 599.17 209.53 C 563.87 204.83 527.77 209.32 493.97 220.14 C 471.49 227.43 449.65 236.73 428.80 247.88 C 412.05 257.36 395.47 268.16 383.38 283.41 C 375.57 292.96 371.13 304.62 365.43 315.44 C 357.38 330.87 350.97 347.82 338.00 359.96 C 325.64 371.74 309.07 378.87 292.06 380.01 C 267.24 381.40 242.18 369.02 228.18 348.45 C 213.59 327.72 211.30 299.20 222.31 276.39 C 229.09 261.98 236.55 247.91 243.55 233.61 C 257.26 205.68 276.99 180.85 300.51 160.55 C 322.72 140.75 348.38 125.24 374.87 111.90 C 418.18 90.50 464.25 74.00 512.10 66.56 Z" />
<path fill="#88001b" opacity="1.00" d=" M 187.92 451.79 C 209.33 441.00 233.04 434.71 257.01 433.81 C 274.18 433.51 291.35 436.32 307.76 441.31 C 326.57 447.33 344.91 455.80 360.05 468.68 C 374.97 481.30 385.63 499.34 388.11 518.85 C 390.06 531.59 388.09 544.58 384.80 556.92 C 379.04 576.85 367.78 594.80 354.37 610.46 C 346.54 619.91 337.45 628.18 328.87 636.93 C 322.28 643.54 315.67 650.14 309.03 656.70 C 313.37 674.62 321.21 691.43 327.06 708.87 C 330.27 718.15 330.09 728.60 325.76 737.50 C 321.15 748.14 311.43 756.37 300.14 759.07 C 285.91 763.12 269.92 757.22 260.92 745.66 C 254.52 737.58 251.91 727.40 248.10 718.01 C 241.07 699.43 233.78 680.67 231.11 660.86 C 230.46 654.22 230.45 647.49 231.08 640.86 C 232.44 632.32 235.60 624.02 240.71 617.01 C 246.72 608.70 254.44 601.84 261.96 594.92 C 273.35 583.63 284.69 572.29 295.59 560.52 C 302.61 551.92 309.85 542.38 311.13 531.01 C 311.77 528.20 308.86 526.63 306.97 525.22 C 295.79 518.22 283.00 513.80 269.97 511.97 C 254.27 509.59 238.28 513.59 224.03 520.14 C 211.06 526.29 198.68 534.13 188.64 544.47 C 180.21 553.21 174.08 563.81 168.75 574.65 C 163.50 583.65 159.78 593.77 152.19 601.19 C 145.39 608.22 135.77 612.58 125.93 612.49 C 115.32 612.97 104.68 608.29 97.48 600.55 C 90.68 593.88 87.20 584.32 86.71 574.93 C 86.59 560.95 95.08 549.19 101.16 537.23 C 109.30 520.83 119.31 505.23 132.08 492.03 C 147.99 475.32 167.18 461.84 187.92 451.79 Z" />
<path fill="#88001b" opacity="1.00" d=" M 766.62 548.60 C 783.27 541.97 801.03 537.96 818.99 537.83 C 845.66 538.32 871.80 547.45 893.90 562.20 C 912.77 574.80 927.36 593.96 933.29 615.98 C 936.75 627.90 937.42 640.74 934.70 652.88 C 931.68 664.89 925.96 676.40 917.45 685.47 C 907.35 696.53 893.48 703.67 879.00 707.05 C 867.65 710.03 855.88 710.16 844.28 711.33 C 836.83 712.51 828.90 713.29 822.35 717.32 C 815.65 722.92 813.30 731.78 810.68 739.75 C 808.16 748.07 806.94 757.26 800.89 763.96 C 794.77 770.96 784.38 773.40 775.67 770.39 C 768.06 767.75 762.04 761.02 760.39 753.12 C 758.20 744.85 761.78 736.68 763.75 728.76 C 767.48 714.45 773.37 700.44 782.91 689.00 C 791.75 677.60 805.09 670.42 818.98 667.20 C 832.08 663.64 845.66 662.76 859.14 661.81 C 866.77 660.63 874.95 659.22 881.03 654.07 C 886.04 649.18 888.87 642.01 888.09 634.99 C 886.58 621.52 878.37 609.24 866.97 602.04 C 849.75 590.75 828.68 583.74 807.96 586.97 C 789.31 589.23 772.86 599.08 755.10 604.43 C 746.93 606.83 737.69 604.33 731.78 598.22 C 727.21 593.72 724.55 587.44 724.67 581.01 C 724.68 577.68 726.03 574.59 726.92 571.44 C 730.15 566.25 734.52 561.52 740.27 559.14 C 748.93 555.34 757.86 552.18 766.62 548.60 Z" />
<path fill="#88001b" opacity="1.00" d=" M 318.62 787.77 C 338.52 784.05 359.81 797.16 365.72 816.47 C 370.22 829.40 367.52 844.41 359.23 855.23 C 354.26 861.05 348.45 866.53 341.11 869.14 C 329.05 874.00 314.82 872.88 303.65 866.24 C 294.59 860.59 287.34 851.74 284.61 841.32 C 281.19 830.27 283.15 818.03 288.81 808.07 C 295.35 797.56 306.20 789.51 318.62 787.77 Z" />
<path fill="#88001b" opacity="1.00" d=" M 755.53 793.72 C 764.87 792.01 774.94 795.67 781.30 802.71 C 785.57 807.08 787.91 812.98 788.87 818.94 C 789.99 828.71 785.91 839.03 778.06 845.04 C 767.45 853.89 750.22 853.33 740.37 843.56 C 734.15 837.87 730.59 829.37 731.00 820.94 C 731.60 807.66 742.24 795.48 755.53 793.72 Z" />
<path fill="#88001b" opacity="1.00" d=" M 539.46 813.56 C 557.02 811.37 575.53 815.76 590.05 825.98 C 612.61 840.98 625.62 869.16 622.00 896.07 C 619.51 917.92 606.67 938.34 587.98 949.95 C 566.57 963.92 537.85 965.14 515.05 953.78 C 502.33 947.25 491.47 937.14 484.16 924.84 C 470.14 901.73 470.52 870.71 485.19 848.00 C 496.79 829.07 517.36 815.94 539.46 813.56 Z" />
</g>
</svg>
