<?xml version="1.0" encoding="UTF-8" ?>
<!DOCTYPE svg PUBLIC "-//W3C//DTD SVG 1.1//EN" "http://www.w3.org/Graphics/SVG/1.1/DTD/svg11.dtd">
<svg width="1024pt" height="1024pt" viewBox="0 0 1024 1024" version="1.1" xmlns="http://www.w3.org/2000/svg">
<g id="#ffffffff">
<path fill="#ffffff" opacity="1.00" d=" M 488.61 4.68 C 506.58 4.17 524.60 4.20 542.58 4.62 C 549.00 5.64 555.50 5.49 561.99 5.54 C 585.25 7.75 608.49 11.91 630.57 19.70 C 642.10 23.47 653.59 27.71 663.97 34.05 C 672.98 39.43 682.58 43.80 691.16 49.88 C 696.76 53.47 701.96 57.64 707.11 61.84 C 719.01 72.84 734.10 79.88 745.32 91.69 C 749.10 95.58 753.19 99.21 756.50 103.53 C 763.35 112.73 767.99 123.56 770.07 134.82 C 781.69 126.71 795.42 121.68 809.55 120.40 C 816.40 119.17 823.43 119.17 830.28 120.37 C 841.18 120.95 851.78 124.46 861.33 129.68 C 869.88 133.53 877.35 139.45 883.82 146.18 C 888.09 150.57 892.79 154.65 896.13 159.84 C 903.47 172.46 909.49 186.28 910.47 201.02 C 910.51 208.01 910.59 215.01 910.42 222.00 C 908.64 239.78 900.92 256.80 889.28 270.28 C 862.85 296.85 836.26 323.27 809.81 349.81 C 808.22 351.52 806.43 353.02 804.74 354.62 C 812.27 357.35 818.59 362.31 825.02 366.93 C 832.10 372.60 838.03 379.64 842.37 387.61 C 848.74 396.99 851.20 408.34 852.45 419.44 C 852.64 438.87 852.65 458.32 852.48 477.75 C 851.27 489.86 850.09 502.17 845.93 513.69 C 843.87 522.55 840.98 531.20 837.52 539.60 C 832.19 551.20 827.40 563.06 821.24 574.27 C 817.26 580.75 814.35 587.82 810.11 594.15 C 803.61 606.09 796.16 617.46 789.00 629.01 C 785.02 636.17 779.04 641.97 775.10 649.14 C 771.10 655.11 767.27 661.19 763.07 667.01 C 753.96 677.87 746.63 690.02 738.75 701.76 C 735.14 708.33 729.97 713.88 726.47 720.54 C 719.19 731.41 713.06 742.99 706.02 754.01 C 700.90 763.79 695.16 773.23 689.95 782.96 C 686.84 789.75 682.57 795.92 679.65 802.80 C 676.81 810.31 672.39 817.10 669.50 824.60 C 663.80 837.31 657.88 849.94 652.78 862.92 C 650.64 869.15 647.26 874.82 644.94 880.97 C 635.03 899.63 624.35 917.94 612.50 935.46 C 603.93 945.85 595.60 956.52 585.80 965.80 C 579.48 972.58 571.78 977.80 564.70 983.72 C 561.81 986.24 558.43 988.09 555.32 990.32 C 547.93 995.71 539.34 999.03 531.32 1003.32 C 526.11 1006.21 520.23 1007.44 514.81 1009.83 C 506.97 1012.63 498.66 1013.76 490.65 1015.94 C 485.02 1017.54 479.13 1017.45 473.39 1018.38 C 458.40 1018.67 443.41 1018.62 428.42 1018.44 C 421.21 1017.59 413.94 1017.08 406.87 1015.33 C 397.79 1013.48 388.44 1012.55 379.69 1009.35 C 358.29 1003.98 337.91 995.35 317.17 987.94 C 307.69 985.52 298.60 981.67 290.08 976.88 C 273.37 966.99 261.98 949.88 256.10 931.65 C 253.60 922.13 251.52 912.18 252.97 902.31 C 239.00 913.38 221.67 919.86 203.97 921.47 C 196.27 921.42 188.46 922.06 180.86 920.41 C 174.31 919.68 168.19 917.17 161.98 915.13 C 156.29 913.17 151.36 909.65 146.08 906.87 C 132.51 898.72 122.16 885.96 115.01 871.99 C 105.47 852.64 104.73 830.12 108.20 809.17 C 109.79 802.06 112.25 795.11 115.68 788.68 C 119.06 781.49 123.40 774.68 129.19 769.19 C 134.77 763.77 139.97 757.93 146.04 753.03 C 155.24 742.62 165.33 732.98 175.39 723.42 C 180.97 717.01 187.28 711.29 193.20 705.20 C 200.69 697.33 209.31 690.68 216.68 682.68 C 222.54 677.50 226.86 670.88 232.79 665.77 C 239.23 660.61 244.92 654.58 250.60 648.60 C 256.95 640.29 265.26 633.88 272.94 626.90 C 283.93 614.92 295.83 603.81 307.20 592.20 C 323.18 576.18 339.22 560.22 355.20 544.20 C 359.56 539.89 363.72 535.34 368.61 531.60 C 377.10 524.08 383.64 514.65 392.33 507.31 C 398.41 502.44 403.92 496.87 408.77 490.78 C 412.85 485.83 418.30 482.32 422.69 477.69 C 445.69 454.69 468.70 431.70 491.70 408.69 C 502.97 397.97 513.41 386.37 524.88 375.84 C 530.94 371.59 534.68 365.03 540.21 360.21 C 550.94 351.21 560.33 340.77 570.35 331.01 C 551.62 327.93 532.77 325.56 514.00 322.78 C 504.81 322.00 494.55 322.01 486.85 327.80 C 480.54 334.05 475.02 341.20 471.24 349.27 C 466.08 357.04 462.53 365.70 457.48 373.53 C 451.62 383.80 445.69 394.08 438.63 403.58 C 425.58 419.20 406.12 429.01 386.00 431.34 C 380.35 431.64 374.67 431.55 369.01 431.42 C 347.82 429.26 327.12 419.01 314.08 401.91 C 305.79 391.26 299.14 378.82 297.44 365.28 C 295.94 356.44 296.23 347.33 297.07 338.44 C 288.23 343.15 278.46 345.95 268.56 347.30 C 262.76 347.69 256.92 347.54 251.11 347.43 C 221.82 344.76 194.35 324.89 184.08 297.10 C 181.26 289.69 178.27 282.06 178.49 273.99 C 178.75 265.71 177.65 257.23 179.87 249.14 C 181.57 243.31 183.68 237.61 186.06 232.04 C 193.88 216.27 200.69 200.04 208.35 184.20 C 214.43 169.77 221.31 155.65 229.02 142.02 C 231.51 136.77 235.02 132.12 238.59 127.58 C 243.14 119.98 248.36 112.82 253.83 105.87 C 258.24 100.63 263.69 96.35 267.85 90.88 C 271.18 86.54 275.70 83.38 279.69 79.70 C 285.44 73.71 291.86 68.34 298.90 63.92 C 310.83 53.97 324.17 45.54 338.60 39.70 C 348.52 34.85 358.23 29.51 368.65 25.78 C 398.42 14.95 429.76 8.59 461.31 6.16 C 470.34 4.67 479.58 6.30 488.61 4.68 M 485.35 45.38 C 472.61 46.30 459.87 47.35 447.22 49.14 C 407.44 54.59 368.02 66.93 334.41 89.32 C 297.79 113.02 269.39 148.35 251.94 188.17 C 242.77 207.70 233.87 227.35 224.78 246.91 C 220.96 255.34 218.38 264.93 220.56 274.15 C 222.68 285.41 230.01 295.47 239.87 301.22 C 248.11 305.68 257.94 307.74 267.16 305.49 C 278.67 303.33 288.34 295.21 294.18 285.28 C 300.74 272.55 306.36 259.36 312.53 246.43 C 321.32 227.88 328.74 208.47 340.70 191.63 C 353.47 173.86 370.18 158.76 389.71 148.76 C 410.78 137.46 434.20 131.16 457.79 127.91 C 470.46 126.19 483.21 125.32 495.95 124.40 C 517.69 123.99 539.57 123.50 561.10 127.04 C 583.22 130.34 605.42 137.02 623.66 150.36 C 636.37 159.59 648.68 169.36 661.35 178.65 C 669.25 184.94 678.69 189.92 688.96 190.37 C 700.35 190.76 711.80 185.88 719.50 177.49 C 727.07 169.36 730.90 157.88 729.57 146.84 C 728.76 135.28 721.74 125.17 712.86 118.13 C 698.18 107.11 683.59 95.95 668.80 85.08 C 633.91 59.76 590.69 48.77 548.23 45.58 C 540.18 44.55 532.02 45.15 523.95 44.37 C 517.65 44.07 511.32 44.07 505.04 44.63 C 498.48 45.04 491.90 44.76 485.35 45.38 M 811.31 162.08 C 804.49 163.46 797.89 166.05 792.18 170.07 C 787.36 173.17 783.53 177.49 779.44 181.44 C 771.75 189.09 764.05 196.72 756.38 204.38 C 749.63 211.34 742.13 217.54 735.68 224.80 C 688.51 271.23 641.95 318.30 594.87 364.84 C 586.29 372.23 579.26 381.20 570.69 388.60 C 526.02 432.96 481.56 477.54 436.89 521.90 C 427.30 530.61 418.92 540.56 409.16 549.11 C 374.05 584.02 339.05 619.03 303.97 653.96 C 292.54 665.21 281.42 676.78 269.66 687.68 C 262.83 695.15 255.62 702.27 248.16 709.11 C 219.91 737.20 191.72 765.36 163.51 793.49 C 155.62 801.18 149.56 811.05 147.72 822.02 C 142.82 846.19 159.19 873.16 183.54 878.63 C 197.60 882.58 213.14 879.39 225.00 871.06 C 230.08 867.57 234.10 862.84 238.64 858.72 C 243.08 854.75 247.28 850.54 251.36 846.21 C 257.74 838.97 265.22 832.84 271.89 825.89 C 302.13 795.79 332.30 765.63 362.53 735.53 C 374.64 723.61 386.42 711.36 398.85 699.78 C 403.72 694.35 409.01 689.32 414.16 684.15 C 424.72 674.39 434.70 664.03 444.90 653.90 C 485.19 613.86 525.27 573.61 565.66 533.67 C 573.57 526.93 579.96 518.64 587.86 511.90 C 633.64 466.33 679.29 420.63 725.13 375.12 C 736.38 363.70 748.19 352.86 759.41 341.41 C 788.58 312.24 817.84 283.17 847.02 254.01 C 852.34 248.59 858.21 243.54 862.10 236.91 C 868.99 226.32 871.10 212.98 868.56 200.67 C 865.35 185.38 854.51 171.89 840.17 165.64 C 831.20 161.48 821.01 160.57 811.31 162.08 M 400.28 190.28 C 400.83 190.82 400.83 190.82 400.28 190.28 M 397.25 192.25 C 397.80 192.80 397.80 192.80 397.25 192.25 M 394.27 194.23 C 394.82 194.77 394.82 194.77 394.27 194.23 M 491.33 202.22 C 459.38 204.79 428.15 217.73 404.52 239.53 C 398.66 245.34 392.56 250.96 387.50 257.50 C 373.21 275.06 363.27 295.52 351.78 314.90 C 346.63 324.43 339.81 333.49 338.18 344.48 C 334.48 363.93 348.33 384.39 367.49 388.84 C 379.57 392.32 393.09 388.63 402.52 380.53 C 410.58 373.74 414.95 363.96 420.23 355.08 C 426.81 343.66 433.33 332.21 439.95 320.81 C 447.42 308.19 457.14 296.31 470.38 289.47 C 486.31 280.67 505.31 279.95 522.96 282.33 C 542.77 285.06 562.54 288.03 582.34 290.85 C 597.35 293.26 613.57 286.71 622.14 274.02 C 627.69 265.60 630.64 254.96 628.42 244.96 C 626.81 233.94 619.60 224.44 610.46 218.40 C 603.35 213.93 594.98 212.21 586.77 211.13 C 568.10 208.55 549.48 205.67 530.82 203.11 C 517.74 201.45 504.46 201.13 491.33 202.22 M 667.24 228.46 C 667.75 229.94 668.14 231.47 668.54 233.00 C 669.59 231.90 670.63 230.80 671.75 229.76 C 670.23 229.36 668.73 228.93 667.24 228.46 M 770.24 390.78 C 762.34 391.99 754.47 395.00 748.76 400.77 C 740.30 408.28 736.13 419.83 736.44 430.99 C 736.42 440.99 736.51 451.00 736.53 461.00 C 736.11 479.21 728.75 496.22 721.14 512.44 C 704.26 546.48 682.41 577.70 660.36 608.52 C 636.02 642.88 613.64 678.62 593.28 715.48 C 577.26 744.29 562.71 773.94 550.28 804.47 C 542.63 823.05 534.01 841.31 522.93 858.12 C 515.11 869.89 506.29 881.37 494.63 889.59 C 481.46 899.04 464.92 902.50 448.95 902.56 C 418.33 901.52 389.88 889.10 361.23 879.53 C 351.99 876.62 342.88 872.19 332.99 872.44 C 318.62 871.90 304.70 881.07 298.79 894.05 C 294.42 903.20 294.20 914.23 298.17 923.56 C 301.91 932.93 309.83 940.23 318.94 944.32 C 326.07 947.43 333.56 949.61 340.86 952.29 C 359.73 958.63 378.36 965.81 397.70 970.64 C 409.64 973.57 421.76 975.82 433.96 977.31 C 441.49 977.20 448.99 979.07 456.51 977.77 C 480.37 976.92 504.16 970.74 525.17 959.31 C 548.51 946.18 567.44 926.35 582.52 904.45 C 597.48 882.86 609.07 859.14 619.22 834.97 C 629.84 808.78 641.98 783.21 655.64 758.47 C 670.98 730.04 687.68 702.35 705.64 675.49 C 721.24 651.90 738.49 629.46 753.84 605.70 C 771.44 578.64 788.06 550.68 799.72 520.48 C 806.19 502.68 811.75 484.11 811.60 465.00 C 811.66 452.99 811.57 440.99 811.50 428.98 C 811.27 414.29 802.49 399.75 788.82 393.88 C 782.98 391.53 776.57 389.94 770.24 390.78 M 637.79 520.79 C 630.33 526.97 623.53 533.90 616.93 540.96 C 610.82 549.17 602.20 554.86 595.32 562.32 C 556.47 601.14 517.64 639.97 478.79 678.79 C 474.48 682.47 470.19 686.16 466.33 690.33 C 460.61 696.27 454.32 701.70 449.23 708.21 C 445.16 713.17 439.69 716.67 435.32 721.31 C 431.86 724.86 428.21 728.22 424.86 731.86 C 419.39 738.67 413.11 744.81 406.34 750.32 C 379.76 776.69 353.48 803.36 326.79 829.62 C 337.70 828.48 348.29 831.55 358.76 834.14 C 371.45 838.18 383.54 844.04 396.47 847.36 C 408.58 851.36 420.63 855.72 433.22 857.96 C 444.65 861.56 457.41 861.69 468.34 856.41 C 474.96 853.28 478.52 846.51 483.31 841.32 C 486.53 836.54 490.72 832.37 493.03 827.03 C 499.65 813.31 507.17 800.00 512.87 785.86 C 514.00 782.16 515.68 778.68 517.35 775.21 C 524.07 756.82 533.35 739.53 542.07 722.04 C 545.09 715.57 548.80 709.47 552.26 703.23 C 562.25 684.21 572.87 665.54 584.48 647.45 C 592.83 633.36 601.30 619.27 611.08 606.11 C 615.13 601.31 617.69 595.51 621.61 590.62 C 624.84 584.71 629.12 579.51 633.24 574.23 C 639.38 564.77 646.64 556.08 652.38 546.36 C 656.16 539.89 660.86 534.01 664.53 527.47 C 668.54 521.67 671.73 515.38 675.37 509.36 C 677.81 504.18 681.18 499.50 683.36 494.19 C 685.06 489.71 687.41 485.51 689.10 481.02 C 691.98 475.60 692.25 469.30 694.74 463.73 C 675.91 482.90 656.73 501.73 637.79 520.79 Z" />
</g>
<g id="#88001bff">
<path fill="#88001b" opacity="1.00" d=" M 485.35 45.38 C 491.90 44.76 498.48 45.04 505.04 44.63 C 511.32 44.07 517.65 44.07 523.95 44.37 C 532.02 45.15 540.18 44.55 548.23 45.58 C 590.69 48.77 633.91 59.76 668.80 85.08 C 683.59 95.95 698.18 107.11 712.86 118.13 C 721.74 125.17 728.76 135.28 729.57 146.84 C 730.90 157.88 727.07 169.36 719.50 177.49 C 711.80 185.88 700.35 190.76 688.96 190.37 C 678.69 189.92 669.25 184.94 661.35 178.65 C 648.68 169.36 636.37 159.59 623.66 150.36 C 605.42 137.02 583.22 130.34 561.10 127.04 C 539.57 123.50 517.69 123.99 495.95 124.40 C 483.21 125.32 470.46 126.19 457.79 127.91 C 434.20 131.16 410.78 137.46 389.71 148.76 C 370.18 158.76 353.47 173.86 340.70 191.63 C 328.74 208.47 321.32 227.88 312.53 246.43 C 306.36 259.36 300.74 272.55 294.18 285.28 C 288.34 295.21 278.67 303.33 267.16 305.49 C 257.94 307.74 248.11 305.68 239.87 301.22 C 230.01 295.47 222.68 285.41 220.56 274.15 C 218.38 264.93 220.96 255.34 224.78 246.91 C 233.87 227.35 242.77 207.70 251.94 188.17 C 269.39 148.35 297.79 113.02 334.41 89.32 C 368.02 66.93 407.44 54.59 447.22 49.14 C 459.87 47.35 472.61 46.30 485.35 45.38 Z" />
<path fill="#88001b" opacity="1.00" d=" M 811.31 162.08 C 821.01 160.57 831.20 161.48 840.17 165.64 C 854.51 171.89 865.35 185.38 868.56 200.67 C 871.10 212.98 868.99 226.32 862.10 236.91 C 858.21 243.54 852.34 248.59 847.02 254.01 C 817.84 283.17 788.58 312.24 759.41 341.41 C 748.19 352.86 736.38 363.70 725.13 375.12 C 679.29 420.63 633.64 466.33 587.86 511.90 C 579.96 518.64 573.57 526.93 565.66 533.67 C 525.27 573.61 485.19 613.86 444.90 653.90 C 434.70 664.03 424.72 674.39 414.16 684.15 C 409.01 689.32 403.72 694.35 398.85 699.78 C 386.42 711.36 374.64 723.61 362.53 735.53 C 332.30 765.63 302.13 795.79 271.89 825.89 C 265.22 832.84 257.74 838.97 251.36 846.21 C 247.28 850.54 243.08 854.75 238.64 858.72 C 234.10 862.84 230.08 867.57 225.00 871.06 C 213.14 879.39 197.60 882.58 183.54 878.63 C 159.19 873.16 142.82 846.19 147.72 822.02 C 149.56 811.05 155.62 801.18 163.51 793.49 C 191.72 765.36 219.91 737.20 248.16 709.11 C 255.62 702.27 262.83 695.15 269.66 687.68 C 281.42 676.78 292.54 665.21 303.97 653.96 C 339.05 619.03 374.05 584.02 409.16 549.11 C 418.92 540.56 427.30 530.61 436.89 521.90 C 481.56 477.54 526.02 432.96 570.69 388.60 C 579.26 381.20 586.29 372.23 594.87 364.84 C 641.95 318.30 688.51 271.23 735.68 224.80 C 742.13 217.54 749.63 211.34 756.38 204.38 C 764.05 196.72 771.75 189.09 779.44 181.44 C 783.53 177.49 787.36 173.17 792.18 170.07 C 797.89 166.05 804.49 163.46 811.31 162.08 Z" />
<path fill="#88001b" opacity="1.00" d=" M 491.33 202.22 C 504.46 201.13 517.74 201.45 530.82 203.11 C 549.48 205.67 568.10 208.55 586.77 211.13 C 594.98 212.21 603.35 213.93 610.46 218.40 C 619.60 224.44 626.81 233.94 628.42 244.96 C 630.64 254.96 627.69 265.60 622.14 274.02 C 613.57 286.71 597.35 293.26 582.34 290.85 C 562.54 288.03 542.77 285.06 522.96 282.33 C 505.31 279.95 486.31 280.67 470.38 289.47 C 457.14 296.31 447.42 308.19 439.95 320.81 C 433.33 332.21 426.81 343.66 420.23 355.08 C 414.95 363.96 410.58 373.74 402.52 380.53 C 393.09 388.63 379.57 392.32 367.49 388.84 C 348.33 384.39 334.48 363.93 338.18 344.48 C 339.81 333.49 346.63 324.43 351.78 314.90 C 363.27 295.52 373.21 275.06 387.50 257.50 C 392.56 250.96 398.66 245.34 404.52 239.53 C 428.15 217.73 459.38 204.79 491.33 202.22 Z" />
<path fill="#88001b" opacity="1.00" d=" M 770.24 390.78 C 776.57 389.94 782.98 391.53 788.82 393.88 C 802.49 399.75 811.27 414.29 811.50 428.98 C 811.57 440.99 811.66 452.99 811.60 465.00 C 811.75 484.11 806.19 502.68 799.72 520.48 C 788.06 550.68 771.44 578.64 753.84 605.70 C 738.49 629.46 721.24 651.90 705.64 675.49 C 687.68 702.35 670.98 730.04 655.64 758.47 C 641.98 783.21 629.84 808.78 619.22 834.97 C 609.07 859.14 597.48 882.86 582.52 904.45 C 567.44 926.35 548.51 946.18 525.17 959.31 C 504.16 970.74 480.37 976.92 456.51 977.77 C 448.99 979.07 441.49 977.20 433.96 977.31 C 421.76 975.82 409.64 973.57 397.70 970.64 C 378.36 965.81 359.73 958.63 340.86 952.29 C 333.56 949.61 326.07 947.43 318.94 944.32 C 309.83 940.23 301.91 932.93 298.17 923.56 C 294.20 914.23 294.42 903.20 298.79 894.05 C 304.70 881.07 318.62 871.90 332.99 872.44 C 342.88 872.19 351.99 876.62 361.23 879.53 C 389.88 889.10 418.33 901.52 448.95 902.56 C 464.92 902.50 481.46 899.04 494.63 889.59 C 506.29 881.37 515.11 869.89 522.93 858.12 C 534.01 841.31 542.63 823.05 550.28 804.47 C 562.71 773.94 577.26 744.29 593.28 715.48 C 613.64 678.62 636.02 642.88 660.36 608.52 C 682.41 577.70 704.26 546.48 721.14 512.44 C 728.75 496.22 736.11 479.21 736.53 461.00 C 736.51 451.00 736.42 440.99 736.44 430.99 C 736.13 419.83 740.30 408.28 748.76 400.77 C 754.47 395.00 762.34 391.99 770.24 390.78 Z" />
</g>
<g id="#b2b2b22e">
<path fill="#b2b2b2" opacity="0.18" d=" M 400.28 190.28 C 400.83 190.82 400.83 190.82 400.28 190.28 Z" />
<path fill="#b2b2b2" opacity="0.18" d=" M 397.25 192.25 C 397.80 192.80 397.80 192.80 397.25 192.25 Z" />
<path fill="#b2b2b2" opacity="0.18" d=" M 394.27 194.23 C 394.82 194.77 394.82 194.77 394.27 194.23 Z" />
</g>
</svg>
