<?xml version="1.0" encoding="UTF-8" ?>
<!DOCTYPE svg PUBLIC "-//W3C//DTD SVG 1.1//EN" "http://www.w3.org/Graphics/SVG/1.1/DTD/svg11.dtd">
<svg width="1024pt" height="1024pt" viewBox="0 0 1024 1024" version="1.1" xmlns="http://www.w3.org/2000/svg">
<g id="#ffffffff">
<path fill="#ffffff" opacity="1.00" d=" M 144.90 124.92 C 159.55 123.88 174.31 122.46 189.02 123.96 C 192.94 124.70 196.94 124.36 200.90 124.66 C 210.19 125.71 219.27 128.09 228.25 130.60 C 242.76 136.53 257.51 142.47 270.29 151.70 C 275.28 154.92 280.12 158.46 284.31 162.70 C 300.06 176.10 314.25 191.90 323.37 210.60 C 327.45 217.27 330.90 224.35 333.12 231.85 C 336.44 239.57 338.49 247.74 340.17 255.95 C 343.60 245.99 349.56 237.15 355.50 228.53 C 360.76 222.17 366.74 216.37 373.13 211.14 C 379.14 205.71 385.24 200.09 392.68 196.68 C 401.20 192.48 409.59 187.56 419.11 186.00 C 428.89 183.54 439.03 184.78 449.00 184.48 C 456.20 184.17 463.07 186.57 470.05 187.93 C 478.93 191.04 488.16 192.92 497.19 195.58 C 505.87 198.58 515.08 199.96 523.53 203.67 C 531.58 206.65 540.01 208.64 547.79 212.34 C 552.83 214.28 557.94 216.05 562.96 218.06 C 571.06 222.25 580.00 224.56 587.95 229.07 C 596.79 233.29 605.92 236.89 614.63 241.40 C 620.41 245.16 626.93 247.58 632.76 251.26 C 636.53 253.56 640.74 255.07 644.32 257.68 C 668.51 272.36 692.80 287.26 714.41 305.64 C 722.47 311.08 729.27 318.10 737.03 323.94 C 744.25 330.02 750.41 337.26 757.39 343.60 C 767.91 352.06 776.42 362.61 785.70 372.33 C 793.89 382.14 802.16 391.87 809.92 402.04 C 814.97 407.77 819.23 414.13 823.50 420.45 C 830.34 429.73 836.44 439.53 842.87 449.09 C 846.24 455.88 851.22 461.70 854.37 468.62 C 858.97 475.00 861.78 482.39 865.96 489.02 C 869.94 497.32 874.55 505.34 877.95 513.91 C 885.89 529.96 893.64 546.23 898.48 563.54 C 899.74 571.29 900.84 579.12 900.50 587.00 C 900.71 599.50 900.89 612.36 896.40 624.24 C 892.94 632.52 890.93 641.48 886.13 649.16 C 882.06 654.73 877.76 660.15 873.71 665.74 C 863.72 678.94 851.79 690.72 837.98 699.93 C 830.02 706.71 821.55 712.87 813.45 719.48 C 802.61 727.09 792.62 735.83 781.92 743.63 C 793.28 743.59 804.75 742.83 816.03 744.42 C 828.69 744.93 841.45 743.59 854.02 745.43 C 866.34 745.92 878.78 744.60 891.02 746.43 C 900.81 746.65 910.61 746.30 920.40 746.62 C 924.24 747.08 928.06 747.73 931.95 747.50 C 940.23 747.44 948.24 750.04 955.83 753.11 C 973.71 758.36 988.09 771.19 1000.07 784.98 C 1007.55 795.37 1013.21 807.18 1016.47 819.58 C 1019.64 831.38 1018.29 843.68 1018.47 855.75 C 1017.64 867.50 1013.90 878.97 1008.32 889.32 C 1004.83 895.89 1001.25 902.61 995.80 907.80 C 990.70 912.68 986.13 918.23 980.16 922.12 C 977.13 924.07 974.44 926.50 971.29 928.25 C 961.50 933.87 950.46 936.66 939.67 939.65 C 925.48 942.04 910.86 938.74 896.75 941.82 C 892.22 942.73 887.58 942.47 883.00 942.50 C 824.33 942.50 765.67 942.50 707.00 942.52 C 697.67 942.62 688.33 942.34 679.01 942.67 C 672.73 943.85 666.34 943.43 660.00 943.50 C 596.33 943.50 532.66 943.50 468.99 943.50 C 451.32 944.16 434.14 937.83 419.24 928.72 C 411.17 923.16 402.33 918.64 395.20 911.80 C 389.07 905.58 382.33 899.78 377.87 892.16 C 371.28 883.16 368.22 872.34 364.88 861.87 C 362.14 851.46 362.26 840.67 362.58 830.01 C 363.32 822.68 364.70 815.39 367.37 808.51 C 370.45 797.19 376.31 786.78 383.76 777.78 C 391.46 769.78 398.21 760.92 406.22 753.22 C 410.85 748.83 414.42 743.46 419.20 739.21 C 423.45 735.42 426.67 730.69 430.69 726.69 C 438.25 719.55 444.50 711.20 452.21 704.20 C 457.10 698.44 462.28 692.95 467.67 687.66 C 472.49 681.53 478.22 676.22 483.71 670.70 C 494.72 658.72 505.10 646.14 516.71 634.71 C 522.31 629.61 526.56 623.26 532.20 618.18 C 536.78 612.47 542.01 607.34 547.20 602.20 C 557.59 592.37 565.85 580.58 576.47 570.97 C 569.16 564.43 561.98 557.68 553.82 552.19 C 537.10 540.85 519.13 531.47 500.79 523.05 C 487.22 517.68 473.40 512.93 459.37 508.95 C 455.39 527.31 454.38 546.17 450.70 564.59 C 448.17 585.62 444.33 606.47 441.56 627.47 C 440.15 636.53 440.26 645.79 437.94 654.72 C 434.74 666.79 429.53 678.29 422.73 688.76 C 417.10 699.61 410.26 709.76 404.49 720.53 C 399.87 728.61 395.11 736.62 390.88 744.91 C 387.19 749.79 385.07 755.59 381.52 760.55 C 379.00 764.20 377.58 768.46 375.11 772.14 C 371.86 776.68 369.62 781.84 366.37 786.38 C 362.75 793.68 358.61 800.68 354.88 807.92 C 350.85 813.43 348.37 819.84 344.37 825.38 C 341.30 831.80 336.96 837.49 333.88 843.91 C 329.75 849.70 327.05 856.29 323.31 862.32 C 318.05 871.37 313.15 880.64 307.37 889.38 C 303.83 896.53 299.27 903.11 294.63 909.58 C 289.25 915.54 283.64 921.37 277.47 926.50 C 267.31 933.44 256.44 939.93 244.19 942.29 C 231.88 945.66 219.04 944.38 206.44 944.44 C 194.06 943.03 181.50 939.96 170.97 933.02 C 162.92 929.17 156.42 923.02 149.73 917.28 C 146.26 914.00 143.79 909.88 140.74 906.26 C 134.82 899.55 131.65 891.05 128.08 882.98 C 123.37 872.33 121.93 860.56 122.49 849.00 C 121.89 836.93 123.53 824.60 128.72 813.60 C 131.16 807.59 133.98 801.75 137.12 796.09 C 140.74 790.92 143.43 785.19 147.00 780.00 C 150.17 773.33 154.63 767.39 157.70 760.68 C 165.61 746.65 173.97 732.86 181.90 718.86 C 187.97 709.41 193.37 699.57 198.69 689.69 C 201.58 683.15 206.09 677.54 209.13 671.09 C 213.04 665.74 215.44 659.53 219.01 653.98 C 223.47 646.68 227.44 639.11 231.68 631.69 C 237.18 620.44 244.70 610.27 249.96 598.92 C 252.38 585.35 253.60 571.58 255.90 557.98 C 258.51 545.84 259.31 533.40 261.05 521.12 C 264.65 502.96 266.38 484.50 269.20 466.21 C 271.91 454.55 273.01 442.59 274.76 430.76 C 267.94 434.93 261.70 440.10 254.31 443.31 C 247.53 446.06 241.11 449.60 234.20 452.07 C 220.74 458.54 205.66 460.12 191.05 462.16 C 183.52 464.12 175.70 463.36 168.01 463.51 C 161.71 463.73 155.72 461.37 149.45 461.27 C 139.52 459.81 129.54 458.25 119.97 455.13 C 111.36 451.46 102.58 448.16 94.35 443.65 C 73.76 434.37 56.76 418.78 42.23 401.79 C 33.34 391.90 26.63 380.30 20.37 368.65 C 15.78 357.52 10.39 346.56 8.16 334.64 C 7.12 328.77 5.36 322.96 5.51 316.94 C 5.70 312.58 4.46 308.33 4.48 303.98 C 4.21 294.68 4.08 285.34 4.85 276.06 C 5.85 271.46 5.19 266.71 6.04 262.10 C 7.73 252.08 9.36 241.86 13.73 232.59 C 15.16 229.59 15.92 226.32 17.38 223.34 C 22.39 213.28 27.07 202.92 34.07 194.04 C 40.38 183.35 50.28 175.62 58.69 166.69 C 65.95 158.73 75.10 152.92 84.09 147.12 C 90.66 143.73 96.89 139.69 103.71 136.77 C 111.29 133.74 118.82 130.50 126.74 128.46 C 132.71 126.90 138.81 125.91 144.90 124.92 M 167.48 163.62 C 153.07 164.70 138.44 166.98 125.18 172.99 C 112.55 178.24 100.51 185.13 90.14 194.10 C 79.87 203.62 69.86 213.73 62.95 226.03 C 54.38 240.44 48.07 256.35 45.92 273.04 C 44.70 282.46 43.35 292.03 44.65 301.52 C 45.48 311.76 47.28 321.95 50.21 331.80 C 56.01 348.48 64.44 364.48 76.31 377.65 C 90.88 394.70 110.26 407.32 131.29 414.92 C 140.88 418.33 150.94 420.11 161.02 421.31 C 167.51 421.57 174.01 423.00 180.50 421.76 C 199.05 420.67 217.53 416.06 233.85 407.01 C 250.96 398.34 265.52 385.24 277.26 370.18 C 284.08 360.83 289.74 350.65 294.12 339.94 C 298.66 329.15 300.88 317.56 302.36 306.00 C 304.76 288.28 301.89 270.25 296.97 253.19 C 291.23 236.45 282.56 220.54 270.69 207.34 C 256.91 191.35 238.85 179.28 219.19 171.72 C 208.91 167.52 197.89 165.55 186.93 164.15 C 180.46 163.76 173.97 162.89 167.48 163.62 M 405.67 238.56 C 397.68 244.94 390.05 252.06 384.68 260.84 C 381.49 266.25 378.95 272.01 376.52 277.79 C 360.76 313.75 345.49 349.92 329.64 385.85 C 325.72 393.76 321.77 401.83 320.32 410.64 C 310.64 477.08 300.49 543.46 290.55 609.86 C 290.03 613.95 288.28 617.75 286.12 621.22 C 249.05 685.85 211.98 750.47 175.00 815.15 C 170.06 823.77 165.48 832.95 164.54 842.98 C 164.29 849.85 164.04 856.88 166.18 863.51 C 172.23 886.22 194.33 903.92 218.01 903.60 C 233.39 904.34 248.77 897.41 259.09 886.11 C 265.79 879.34 269.94 870.66 274.71 862.54 C 311.01 799.18 347.31 735.82 383.62 672.48 C 387.66 665.06 392.69 658.11 395.33 650.02 C 397.98 642.67 398.88 634.87 399.48 627.14 C 407.91 570.56 416.60 514.01 424.78 457.40 C 464.56 464.94 503.79 476.73 539.95 495.15 C 575.85 513.42 608.55 538.78 632.99 570.98 C 633.75 572.10 634.52 573.24 635.04 574.53 C 629.90 577.34 625.03 580.74 620.91 584.93 C 611.81 593.88 603.47 603.56 594.60 612.73 C 556.13 654.20 517.36 695.41 478.96 736.96 C 472.91 742.91 467.59 749.56 461.51 755.49 C 447.24 771.25 432.37 786.44 418.18 802.26 C 409.13 812.65 404.04 826.22 403.80 839.97 C 404.60 851.32 408.06 862.71 415.09 871.80 C 419.78 877.53 425.19 882.83 431.69 886.49 C 439.14 890.77 445.95 896.32 454.22 899.02 C 466.32 903.51 479.37 902.28 492.00 902.40 C 540.66 902.32 589.33 902.22 637.99 902.16 C 661.31 901.27 684.66 901.55 708.00 901.44 C 762.00 901.34 816.00 901.27 870.00 901.20 C 880.33 901.42 890.58 900.08 900.81 898.76 C 906.54 897.80 912.26 899.49 918.02 899.23 C 927.38 898.91 937.02 897.92 945.56 893.76 C 955.69 889.19 964.28 881.36 969.99 871.84 C 979.59 855.97 980.22 835.11 971.40 818.77 C 962.87 802.29 945.60 790.76 927.07 789.43 C 915.78 787.76 904.31 789.33 893.02 787.80 C 883.07 787.52 873.11 787.67 863.17 787.34 C 853.50 786.11 843.71 786.83 833.99 786.47 C 827.95 786.75 822.02 785.36 815.98 785.63 C 806.66 785.36 797.29 785.94 788.02 784.76 C 778.41 784.46 768.78 784.64 759.17 784.32 C 746.85 782.77 734.35 784.35 722.02 782.82 C 711.03 782.28 699.98 783.06 689.04 781.79 C 681.40 781.58 673.74 781.68 666.10 781.37 C 673.40 775.22 681.09 769.58 688.54 763.63 C 731.40 730.16 774.21 696.63 817.10 663.18 C 824.56 657.70 831.08 651.11 837.51 644.49 C 840.44 641.32 842.07 637.19 845.04 634.06 C 851.78 627.37 854.89 618.06 857.28 609.10 C 858.50 603.49 859.75 597.75 859.15 591.99 C 858.46 586.70 857.72 581.40 857.37 576.07 C 856.08 566.56 852.15 557.69 848.27 548.99 C 837.58 524.48 825.12 500.75 811.29 477.86 C 791.32 445.07 767.80 414.46 741.45 386.56 C 727.16 371.76 712.03 357.80 696.26 344.61 C 640.86 298.80 576.01 265.10 507.77 242.93 C 490.09 237.03 472.18 231.80 454.01 227.64 C 447.14 225.93 440.00 226.32 432.99 226.57 C 423.01 227.95 413.51 232.27 405.67 238.56 Z" />
</g>
<g id="#88001bff">
<path fill="#88001b" opacity="1.00" d=" M 167.48 163.62 C 173.97 162.89 180.46 163.76 186.93 164.15 C 197.89 165.55 208.91 167.52 219.19 171.72 C 238.85 179.28 256.91 191.35 270.69 207.34 C 282.56 220.54 291.23 236.45 296.97 253.19 C 301.89 270.25 304.76 288.28 302.36 306.00 C 300.88 317.56 298.66 329.15 294.12 339.94 C 289.74 350.65 284.08 360.83 277.26 370.18 C 265.52 385.24 250.96 398.34 233.85 407.01 C 217.53 416.06 199.05 420.67 180.50 421.76 C 174.01 423.00 167.51 421.57 161.02 421.31 C 150.94 420.11 140.88 418.33 131.29 414.92 C 110.26 407.32 90.88 394.70 76.31 377.65 C 64.44 364.48 56.01 348.48 50.21 331.80 C 47.28 321.95 45.48 311.76 44.65 301.52 C 43.35 292.03 44.70 282.46 45.92 273.04 C 48.07 256.35 54.38 240.44 62.95 226.03 C 69.86 213.73 79.87 203.62 90.14 194.10 C 100.51 185.13 112.55 178.24 125.18 172.99 C 138.44 166.98 153.07 164.70 167.48 163.62 Z" />
<path fill="#88001b" opacity="1.00" d=" M 405.67 238.56 C 413.51 232.27 423.01 227.95 432.99 226.57 C 440.00 226.32 447.14 225.93 454.01 227.64 C 472.18 231.80 490.09 237.03 507.77 242.93 C 576.01 265.10 640.86 298.80 696.26 344.61 C 712.03 357.80 727.16 371.76 741.45 386.56 C 767.80 414.46 791.32 445.07 811.29 477.86 C 825.12 500.75 837.58 524.48 848.27 548.99 C 852.15 557.69 856.08 566.56 857.37 576.07 C 857.72 581.40 858.46 586.70 859.15 591.99 C 859.75 597.75 858.50 603.49 857.28 609.10 C 854.89 618.06 851.78 627.37 845.04 634.06 C 842.07 637.19 840.44 641.32 837.51 644.49 C 831.08 651.11 824.56 657.70 817.10 663.18 C 774.21 696.63 731.40 730.16 688.54 763.63 C 681.09 769.58 673.40 775.22 666.10 781.37 C 673.74 781.68 681.40 781.58 689.04 781.79 C 699.98 783.06 711.03 782.28 722.02 782.82 C 734.35 784.35 746.85 782.77 759.17 784.32 C 768.78 784.64 778.41 784.46 788.02 784.76 C 797.29 785.94 806.66 785.36 815.98 785.63 C 822.02 785.36 827.95 786.75 833.99 786.47 C 843.71 786.83 853.50 786.11 863.17 787.34 C 873.11 787.67 883.07 787.52 893.02 787.80 C 904.31 789.33 915.78 787.76 927.07 789.43 C 945.60 790.76 962.87 802.29 971.40 818.77 C 980.22 835.11 979.59 855.97 969.99 871.84 C 964.28 881.36 955.69 889.19 945.56 893.76 C 937.02 897.92 927.38 898.91 918.02 899.23 C 912.26 899.49 906.54 897.80 900.81 898.76 C 890.58 900.08 880.33 901.42 870.00 901.20 C 816.00 901.27 762.00 901.34 708.00 901.44 C 684.66 901.55 661.31 901.27 637.99 902.16 C 589.33 902.22 540.66 902.32 492.00 902.40 C 479.37 902.28 466.32 903.51 454.22 899.02 C 445.95 896.32 439.14 890.77 431.69 886.49 C 425.19 882.83 419.78 877.53 415.09 871.80 C 408.06 862.71 404.60 851.32 403.80 839.97 C 404.04 826.22 409.13 812.65 418.18 802.26 C 432.37 786.44 447.24 771.25 461.51 755.49 C 467.59 749.56 472.91 742.91 478.96 736.96 C 517.36 695.41 556.13 654.20 594.60 612.73 C 603.47 603.56 611.81 593.88 620.91 584.93 C 625.03 580.74 629.90 577.34 635.04 574.53 C 634.52 573.24 633.75 572.10 632.99 570.98 C 608.55 538.78 575.85 513.42 539.95 495.15 C 503.79 476.73 464.56 464.94 424.78 457.40 C 416.60 514.01 407.91 570.56 399.48 627.14 C 398.88 634.87 397.98 642.67 395.33 650.02 C 392.69 658.11 387.66 665.06 383.62 672.48 C 347.31 735.82 311.01 799.18 274.71 862.54 C 269.94 870.66 265.79 879.34 259.09 886.11 C 248.77 897.41 233.39 904.34 218.01 903.60 C 194.33 903.92 172.23 886.22 166.18 863.51 C 164.04 856.88 164.29 849.85 164.54 842.98 C 165.48 832.95 170.06 823.77 175.00 815.15 C 211.98 750.47 249.05 685.85 286.12 621.22 C 288.28 617.75 290.03 613.95 290.55 609.86 C 300.49 543.46 310.64 477.08 320.32 410.64 C 321.77 401.83 325.72 393.76 329.64 385.85 C 345.49 349.92 360.76 313.75 376.52 277.79 C 378.95 272.01 381.49 266.25 384.68 260.84 C 390.05 252.06 397.68 244.94 405.67 238.56 Z" />
</g>
</svg>
