<?xml version="1.0" encoding="UTF-8" ?>
<!DOCTYPE svg PUBLIC "-//W3C//DTD SVG 1.1//EN" "http://www.w3.org/Graphics/SVG/1.1/DTD/svg11.dtd">
<svg width="1024pt" height="1024pt" viewBox="0 0 1024 1024" version="1.1" xmlns="http://www.w3.org/2000/svg">
<g id="#ffffffff">
<path fill="#ffffff" opacity="1.00" d=" M 19.43 27.37 C 30.51 16.07 46.23 9.57 62.04 9.51 C 357.69 9.50 653.34 9.50 948.99 9.50 C 958.98 9.60 969.20 8.80 978.89 11.75 C 999.40 17.28 1016.23 34.35 1021.47 54.93 C 1024.10 64.06 1023.42 73.63 1023.49 83.01 C 1023.49 180.99 1023.50 278.98 1023.49 376.97 C 1023.46 390.02 1019.33 403.08 1011.54 413.59 C 1002.03 426.65 987.08 435.59 971.07 437.76 C 963.16 439.09 955.09 437.93 947.16 438.61 C 925.39 444.96 903.41 450.60 882.06 458.27 C 888.35 462.44 892.79 468.72 898.74 473.30 C 902.90 476.76 907.10 480.18 911.02 483.91 C 915.90 487.42 919.56 492.29 924.42 495.83 C 929.19 499.96 933.41 504.68 937.95 509.05 C 942.54 513.79 947.57 518.15 951.49 523.49 C 957.65 531.84 962.60 541.15 965.60 551.10 C 968.71 563.27 973.46 575.24 973.50 587.99 C 973.42 596.98 973.94 606.02 973.03 614.99 C 971.09 627.29 967.12 639.31 961.20 650.28 C 956.21 661.19 948.64 670.76 939.94 678.95 C 934.80 684.53 928.40 688.67 922.43 693.28 C 914.89 699.11 906.86 704.30 899.55 710.45 C 886.14 719.27 874.00 729.87 860.54 738.61 C 851.51 746.73 841.36 753.42 831.73 760.76 C 822.26 766.75 813.84 774.15 805.06 781.05 C 796.42 787.85 787.11 793.68 778.49 800.49 C 759.27 814.59 740.71 829.57 721.02 843.01 C 716.34 847.01 711.71 851.13 706.52 854.46 C 706.42 870.71 706.65 886.97 706.38 903.22 C 704.83 914.74 705.80 926.40 705.53 937.99 C 705.23 949.13 706.54 960.51 703.62 971.42 C 699.70 986.92 689.31 1000.65 675.39 1008.53 C 665.91 1014.03 654.90 1016.69 643.96 1016.58 C 555.66 1016.60 467.35 1016.60 379.05 1016.58 C 365.67 1016.78 352.20 1012.63 341.52 1004.52 C 326.94 993.79 317.88 976.09 317.51 958.02 C 317.40 946.03 317.52 934.04 317.49 922.05 C 317.58 914.31 317.11 906.52 318.37 898.85 C 318.61 888.92 318.42 878.97 318.50 869.03 C 318.60 862.51 318.13 855.95 319.20 849.48 C 311.54 843.23 304.14 836.65 295.96 831.08 C 285.58 823.25 275.25 815.28 265.52 806.66 C 245.52 792.06 226.69 775.97 207.15 760.79 C 198.37 753.21 188.54 746.93 179.98 739.10 C 173.89 734.61 168.14 729.67 162.14 725.07 C 152.18 718.08 142.73 710.40 133.48 702.51 C 125.76 696.54 117.86 690.82 110.22 684.76 C 103.21 679.89 97.67 673.33 91.55 667.45 C 84.51 660.87 79.63 652.45 74.82 644.21 C 65.84 628.06 60.56 609.57 61.49 591.00 C 60.22 565.82 70.37 541.31 85.31 521.46 C 96.30 508.06 110.42 497.84 122.62 485.65 C 127.17 482.23 130.93 477.94 135.42 474.47 C 138.44 470.83 141.48 467.15 145.28 464.28 C 149.24 461.35 152.29 457.43 156.07 454.29 C 153.37 454.29 150.78 453.44 148.19 452.81 C 131.40 448.08 114.65 443.16 97.81 438.58 C 83.62 437.65 69.08 440.02 55.14 436.37 C 50.99 435.29 46.98 433.74 43.14 431.87 C 31.32 425.89 21.46 416.04 15.79 404.05 C 14.80 401.86 13.46 399.87 12.08 397.92 C 11.08 396.25 10.12 394.56 9.21 392.85 C 4.75 383.93 2.43 373.95 2.51 363.97 C 2.52 347.65 2.49 331.33 2.52 315.01 C 2.66 310.32 1.36 305.73 1.51 301.04 C 1.50 224.02 1.50 147.00 1.51 69.98 C 1.59 54.16 8.11 38.44 19.43 27.37 M 63.00 71.00 C 63.01 88.28 62.97 105.55 63.02 122.83 C 74.93 136.25 88.28 148.33 100.26 161.70 C 110.63 172.38 121.34 182.73 131.33 193.76 C 141.63 204.43 152.34 214.71 162.28 225.71 C 172.65 236.35 183.28 246.73 193.27 257.73 C 208.99 273.32 223.99 289.61 239.60 305.31 C 245.69 311.28 251.03 317.94 257.04 323.98 C 262.59 330.22 270.72 333.91 279.02 334.33 C 288.84 334.25 298.79 329.31 303.98 320.83 C 307.40 315.95 308.97 309.92 308.93 304.03 C 307.62 295.84 302.82 288.90 299.25 281.60 C 285.00 251.98 270.16 222.64 255.96 193.00 C 247.09 174.88 237.90 156.91 229.32 138.65 C 217.96 116.20 207.35 93.39 195.91 70.98 C 151.60 71.02 107.30 70.99 63.00 71.00 M 283.98 70.98 C 305.52 123.80 327.11 176.61 348.56 229.47 C 355.13 245.63 361.99 261.69 368.03 278.06 C 372.25 286.86 379.91 294.75 389.83 296.56 C 404.32 300.21 420.00 290.20 424.02 276.06 C 425.42 264.83 421.39 254.03 419.99 243.03 C 411.45 185.82 402.79 128.62 394.45 71.38 C 393.84 71.28 392.62 71.09 392.00 70.99 C 356.00 71.00 319.99 71.02 283.98 70.98 M 458.22 70.98 C 466.17 124.40 473.76 177.87 481.62 231.31 C 482.53 238.11 482.38 245.22 485.22 251.62 C 487.13 256.63 490.99 260.55 495.00 263.98 C 501.93 269.46 511.35 270.66 519.81 268.83 C 528.37 266.53 535.54 260.07 539.08 252.00 C 541.25 246.19 540.79 239.91 541.54 233.86 C 541.91 224.49 543.86 215.30 545.14 206.04 C 552.14 161.05 558.92 116.03 565.99 71.05 C 530.07 70.92 494.14 71.06 458.22 70.98 M 630.13 71.00 C 629.10 75.22 629.17 79.58 628.49 83.84 C 622.22 141.52 615.78 199.20 609.43 256.89 C 608.94 262.28 607.25 267.49 607.14 272.93 C 606.87 278.84 605.85 285.23 608.89 290.65 C 614.74 302.98 629.95 310.29 643.12 306.09 C 654.03 303.20 661.81 293.38 664.88 282.85 C 673.48 253.54 683.76 224.78 694.21 196.10 C 709.14 154.39 724.11 112.69 739.06 70.99 C 702.75 71.02 666.44 70.99 630.13 71.00 M 829.13 71.01 C 792.52 146.78 755.89 222.55 719.38 298.38 C 718.59 300.70 718.37 303.19 717.31 305.44 C 715.13 310.32 715.26 315.80 715.75 321.02 C 718.01 332.97 728.34 343.10 740.45 344.75 C 746.10 345.97 752.04 344.44 757.27 342.23 C 763.55 339.68 767.84 334.23 773.02 330.12 C 836.37 278.09 899.73 226.08 963.01 173.95 C 962.99 139.63 963.01 105.32 963.00 71.00 C 918.38 71.00 873.76 70.99 829.13 71.01 M 920.23 276.16 C 893.56 299.15 867.16 322.47 840.43 345.39 C 835.30 348.80 832.39 354.34 829.70 359.68 C 827.23 364.75 827.20 370.52 827.75 376.01 C 829.65 386.31 837.42 395.29 847.27 398.78 C 854.62 401.23 862.83 400.87 870.01 398.01 C 900.97 388.86 932.17 380.47 963.05 371.08 C 962.93 326.98 963.04 282.88 962.99 238.78 C 948.94 251.47 934.43 263.63 920.23 276.16 M 63.08 240.28 C 62.89 282.14 63.06 324.00 62.99 365.86 C 96.26 375.50 129.64 384.76 162.97 394.23 C 174.51 397.43 187.55 391.90 194.01 381.99 C 199.80 373.73 200.84 362.25 196.16 353.25 C 193.90 347.78 189.16 344.02 184.91 340.14 C 180.18 336.52 175.57 332.73 171.01 328.90 C 135.00 299.40 99.16 269.68 63.08 240.28 M 636.75 363.69 C 632.53 366.87 629.29 371.10 626.52 375.55 C 618.32 389.73 620.02 408.81 630.74 421.24 C 634.48 425.80 638.79 429.89 643.36 433.62 C 647.14 436.87 650.43 440.67 654.36 443.76 C 658.05 446.67 661.04 450.37 664.80 453.22 C 668.65 456.34 671.86 460.17 675.76 463.24 C 679.62 466.38 682.95 470.11 686.69 473.39 C 691.89 477.45 696.22 482.50 701.45 486.54 C 707.57 492.75 714.45 498.11 720.57 504.33 C 726.03 508.56 730.54 513.84 735.95 518.12 C 757.31 537.75 778.84 557.19 800.23 576.79 C 800.59 577.24 801.31 578.13 801.66 578.58 C 741.38 623.55 681.19 668.66 620.90 713.61 C 616.33 715.99 610.90 714.22 605.98 714.62 C 596.44 713.45 586.81 713.84 577.22 713.59 C 577.30 710.38 576.80 707.21 576.69 704.02 C 577.03 701.00 577.51 697.92 576.53 694.96 C 576.69 690.02 581.10 687.32 583.89 683.83 C 589.14 677.33 594.12 670.57 598.37 663.37 C 610.78 643.36 618.38 620.76 623.62 597.92 C 627.59 577.88 629.59 557.42 629.16 537.00 C 628.23 515.77 625.81 494.45 619.72 474.02 C 614.02 453.88 605.91 434.25 593.97 416.98 C 584.66 402.69 572.60 390.16 558.39 380.70 C 544.88 371.27 528.38 366.41 511.97 366.12 C 496.22 366.72 480.36 371.26 467.31 380.26 C 455.25 388.26 444.47 398.29 435.98 410.03 C 424.82 424.89 416.08 441.51 410.08 459.09 C 402.66 479.66 398.30 501.27 396.76 523.07 C 394.42 547.79 396.62 572.77 401.27 597.11 C 405.69 616.89 411.96 636.41 421.46 654.37 C 429.93 669.92 440.21 684.66 453.55 696.43 C 453.61 700.50 453.57 704.57 453.58 708.65 C 448.38 708.67 443.15 708.77 438.01 707.92 C 426.47 707.71 414.89 707.68 403.42 706.53 C 400.22 704.77 397.61 702.12 394.63 700.03 C 380.20 688.56 365.69 677.20 351.21 665.79 C 313.25 635.57 274.98 605.74 237.06 575.49 C 237.29 574.38 237.78 573.40 238.73 572.75 C 246.22 566.27 252.73 558.73 260.34 552.39 C 266.53 546.54 272.45 540.40 278.71 534.61 C 284.49 529.82 289.51 524.20 295.01 519.09 C 305.06 510.46 313.84 500.46 323.92 491.85 C 330.93 485.23 337.52 478.14 344.89 471.90 C 352.07 465.10 358.84 457.85 366.35 451.42 C 372.34 445.71 378.11 439.77 384.20 434.16 C 387.78 431.11 391.29 427.92 394.26 424.25 C 402.55 414.79 407.23 401.54 404.28 389.06 C 402.48 379.45 396.99 370.65 389.23 364.72 C 386.23 362.64 383.28 360.36 379.76 359.25 C 370.19 355.26 358.74 355.21 349.19 359.27 C 343.07 361.55 337.95 365.89 333.05 370.10 C 322.82 380.51 311.76 390.01 301.52 400.41 C 291.27 409.17 282.33 419.35 272.09 428.12 C 266.14 433.84 260.38 439.75 254.32 445.36 C 245.87 452.53 238.63 461.00 230.12 468.12 C 224.32 473.63 218.75 479.39 212.87 484.83 C 205.25 491.18 198.84 498.83 191.20 505.15 C 183.30 512.59 175.85 520.52 167.62 527.60 C 159.51 535.51 151.60 543.65 142.77 550.77 C 140.07 552.77 137.82 555.27 135.51 557.70 L 135.44 558.22 C 119.24 575.82 119.26 605.21 134.67 623.30 C 138.45 627.91 142.96 631.81 147.68 635.42 C 213.23 687.27 278.88 738.99 344.46 790.81 C 353.54 797.71 362.00 805.55 371.98 811.15 C 372.48 811.40 373.48 811.88 373.97 812.13 C 376.13 813.14 378.31 814.17 380.67 814.65 C 380.96 824.77 380.49 834.90 380.53 845.03 C 379.26 862.46 380.07 879.98 379.36 897.44 C 378.19 915.59 379.34 933.84 377.98 951.98 C 378.17 953.37 377.10 955.89 379.08 956.37 C 383.37 956.70 387.69 956.40 391.99 956.50 C 466.02 956.50 540.04 956.50 614.07 956.50 C 624.19 956.31 634.34 956.89 644.44 956.18 C 645.34 911.58 645.17 866.94 645.37 822.33 C 655.08 816.35 663.93 809.09 673.13 802.36 C 739.58 752.70 806.09 703.10 872.51 653.39 C 882.64 645.28 894.23 638.65 902.26 628.21 C 903.22 626.82 904.21 625.45 905.14 624.04 C 909.52 616.78 912.05 608.42 912.46 599.97 C 913.10 589.27 909.28 579.03 906.17 568.98 C 905.21 566.86 903.94 564.89 903.23 562.69 L 902.67 562.48 C 902.04 561.13 901.15 559.95 900.29 558.78 C 896.46 553.96 891.83 549.86 887.38 545.65 C 882.65 542.06 878.83 537.46 874.19 533.77 C 847.95 509.67 821.56 485.75 795.22 461.76 C 764.90 434.02 734.53 406.35 704.17 378.65 C 695.19 370.94 687.14 361.34 675.67 357.25 C 669.42 355.15 662.62 355.28 656.11 355.69 C 648.93 355.97 642.36 359.42 636.75 363.69 M 330.09 570.75 C 332.38 572.67 334.82 574.46 336.70 576.82 C 335.44 572.98 335.37 568.82 335.75 564.84 C 334.04 566.97 332.06 568.86 330.09 570.75 Z" />
<path fill="#ffffff" opacity="1.00" d=" M 453.62 457.60 C 461.78 456.64 470.25 459.52 476.54 464.72 C 482.56 470.09 486.05 477.90 486.75 485.88 C 486.91 495.89 482.30 506.19 473.74 511.72 C 466.39 516.50 456.79 518.54 448.37 515.50 C 433.12 511.69 423.69 493.91 428.39 479.06 C 431.20 467.43 441.95 459.02 453.62 457.60 Z" />
<path fill="#ffffff" opacity="1.00" d=" M 548.51 465.76 C 553.75 461.72 560.19 458.69 566.96 459.16 C 575.15 458.55 583.54 461.81 589.09 467.89 C 594.63 473.02 596.96 480.69 597.58 488.02 C 597.40 493.44 595.97 498.84 593.37 503.62 C 589.53 509.74 583.63 514.66 576.61 516.62 C 569.03 519.26 560.50 518.05 553.46 514.45 C 547.00 510.48 541.35 504.41 539.45 496.91 C 536.00 485.94 539.78 473.20 548.51 465.76 Z" />
<path fill="#ffffff" opacity="1.00" d=" M 477.75 554.56 C 488.46 546.80 501.78 542.58 515.03 543.28 C 523.78 543.05 532.06 546.10 540.11 549.15 C 543.27 550.35 546.00 552.38 548.82 554.22 C 549.96 555.12 551.13 555.99 552.38 556.78 L 552.41 557.59 L 553.50 557.44 L 553.59 558.23 C 555.36 559.57 556.95 561.13 558.48 562.75 L 558.43 563.61 L 559.23 563.59 C 562.33 567.99 566.00 572.24 567.71 577.41 L 568.38 577.52 C 568.66 579.08 569.25 580.55 569.93 582.00 C 572.31 588.71 573.82 595.80 573.74 602.96 C 573.85 612.31 573.80 621.67 573.83 631.02 C 574.79 639.90 574.27 648.86 574.55 657.80 C 564.40 654.72 554.08 652.15 543.51 651.02 L 543.49 650.67 C 543.48 650.44 543.45 649.99 543.44 649.76 C 542.61 649.88 540.95 650.11 540.12 650.22 C 526.45 649.06 512.75 646.00 498.99 647.55 C 483.78 648.02 468.66 650.08 453.56 651.79 C 451.84 650.33 453.04 647.88 452.86 645.99 C 452.83 634.66 453.01 623.33 452.95 612.00 C 453.04 606.33 452.53 600.62 453.45 594.99 C 455.51 578.91 464.78 564.14 477.75 554.56 Z" />
</g>
<g id="#88001bff">
<path fill="#88001b" opacity="1.00" d=" M 63.00 71.00 C 107.30 70.99 151.60 71.02 195.91 70.98 C 207.35 93.39 217.96 116.20 229.32 138.65 C 237.90 156.91 247.09 174.88 255.96 193.00 C 270.16 222.64 285.00 251.98 299.25 281.60 C 302.82 288.90 307.62 295.84 308.93 304.03 C 308.97 309.92 307.40 315.95 303.98 320.83 C 298.79 329.31 288.84 334.25 279.02 334.33 C 270.72 333.91 262.59 330.22 257.04 323.98 C 251.03 317.94 245.69 311.28 239.60 305.31 C 223.99 289.61 208.99 273.32 193.27 257.73 C 183.28 246.73 172.65 236.35 162.28 225.71 C 152.34 214.71 141.63 204.43 131.33 193.76 C 121.34 182.73 110.63 172.38 100.26 161.70 C 88.28 148.33 74.93 136.25 63.02 122.83 C 62.97 105.55 63.01 88.28 63.00 71.00 Z" />
<path fill="#88001b" opacity="1.00" d=" M 283.98 70.98 C 319.99 71.02 356.00 71.00 392.00 70.99 C 392.62 71.09 393.84 71.28 394.45 71.38 C 402.79 128.62 411.45 185.82 419.99 243.03 C 421.39 254.03 425.42 264.83 424.02 276.06 C 420.00 290.20 404.32 300.21 389.83 296.56 C 379.91 294.75 372.25 286.86 368.03 278.06 C 361.99 261.69 355.13 245.63 348.56 229.47 C 327.11 176.61 305.52 123.80 283.98 70.98 Z" />
<path fill="#88001b" opacity="1.00" d=" M 458.22 70.98 C 494.14 71.06 530.07 70.92 565.99 71.05 C 558.92 116.03 552.14 161.05 545.14 206.04 C 543.86 215.30 541.91 224.49 541.54 233.86 C 540.79 239.91 541.25 246.19 539.08 252.00 C 535.54 260.07 528.37 266.53 519.81 268.83 C 511.35 270.66 501.93 269.46 495.00 263.98 C 490.99 260.55 487.13 256.63 485.22 251.62 C 482.38 245.22 482.53 238.11 481.62 231.31 C 473.76 177.87 466.17 124.40 458.22 70.98 Z" />
<path fill="#88001b" opacity="1.00" d=" M 630.13 71.00 C 666.44 70.99 702.75 71.02 739.06 70.99 C 724.11 112.69 709.14 154.39 694.21 196.10 C 683.76 224.78 673.48 253.54 664.88 282.85 C 661.81 293.38 654.03 303.20 643.12 306.09 C 629.95 310.29 614.74 302.98 608.89 290.65 C 605.85 285.23 606.87 278.84 607.14 272.93 C 607.25 267.49 608.94 262.28 609.43 256.89 C 615.78 199.20 622.22 141.52 628.49 83.84 C 629.17 79.58 629.10 75.22 630.13 71.00 Z" />
<path fill="#88001b" opacity="1.00" d=" M 829.13 71.01 C 873.76 70.99 918.38 71.00 963.00 71.00 C 963.01 105.32 962.99 139.63 963.01 173.95 C 899.73 226.08 836.37 278.09 773.02 330.12 C 767.84 334.23 763.55 339.68 757.27 342.23 C 752.04 344.44 746.10 345.97 740.45 344.75 C 728.34 343.10 718.01 332.97 715.75 321.02 C 715.26 315.80 715.13 310.32 717.31 305.44 C 718.37 303.19 718.59 300.70 719.38 298.38 C 755.89 222.55 792.52 146.78 829.13 71.01 Z" />
<path fill="#88001b" opacity="1.00" d=" M 920.23 276.16 C 934.43 263.63 948.94 251.47 962.99 238.78 C 963.04 282.88 962.93 326.98 963.05 371.08 C 932.17 380.47 900.97 388.86 870.01 398.01 C 862.83 400.87 854.62 401.23 847.27 398.78 C 837.42 395.29 829.65 386.31 827.75 376.01 C 827.20 370.52 827.23 364.75 829.70 359.68 C 832.39 354.34 835.30 348.80 840.43 345.39 C 867.16 322.47 893.56 299.15 920.23 276.16 Z" />
<path fill="#88001b" opacity="1.00" d=" M 63.08 240.28 C 99.16 269.68 135.00 299.40 171.01 328.90 C 175.57 332.73 180.18 336.52 184.91 340.14 C 189.16 344.02 193.90 347.78 196.16 353.25 C 200.84 362.25 199.80 373.73 194.01 381.99 C 187.55 391.90 174.51 397.43 162.97 394.23 C 129.64 384.76 96.26 375.50 62.99 365.86 C 63.06 324.00 62.89 282.14 63.08 240.28 Z" />
<path fill="#88001b" opacity="1.00" d=" M 636.75 363.69 C 642.36 359.42 648.93 355.97 656.11 355.69 C 662.62 355.28 669.42 355.15 675.67 357.25 C 687.14 361.34 695.19 370.94 704.17 378.65 C 734.53 406.35 764.90 434.02 795.22 461.76 C 821.56 485.75 847.95 509.67 874.19 533.77 C 878.83 537.46 882.65 542.06 887.38 545.65 C 891.83 549.86 896.46 553.96 900.29 558.78 C 901.15 559.95 902.04 561.13 902.67 562.48 L 903.23 562.69 C 903.94 564.89 905.21 566.86 906.17 568.98 C 909.28 579.03 913.10 589.27 912.46 599.97 C 912.05 608.42 909.52 616.78 905.14 624.04 C 904.21 625.45 903.22 626.82 902.26 628.21 C 894.23 638.65 882.64 645.28 872.51 653.39 C 806.09 703.10 739.58 752.70 673.13 802.36 C 663.93 809.09 655.08 816.35 645.37 822.33 C 645.17 866.94 645.34 911.58 644.44 956.18 C 634.34 956.89 624.19 956.31 614.07 956.50 C 540.04 956.50 466.02 956.50 391.99 956.50 C 387.69 956.40 383.37 956.70 379.08 956.37 C 377.10 955.89 378.17 953.37 377.98 951.98 C 379.34 933.84 378.19 915.59 379.36 897.44 C 380.07 879.98 379.26 862.46 380.53 845.03 C 380.49 834.90 380.96 824.77 380.67 814.65 C 378.31 814.17 376.13 813.14 373.97 812.13 C 373.48 811.88 372.48 811.40 371.98 811.15 C 362.00 805.55 353.54 797.71 344.46 790.81 C 278.88 738.99 213.23 687.27 147.68 635.42 C 142.96 631.81 138.45 627.91 134.67 623.30 C 119.26 605.21 119.24 575.82 135.44 558.22 L 135.51 557.70 C 137.82 555.27 140.07 552.77 142.77 550.77 C 151.60 543.65 159.51 535.51 167.62 527.60 C 175.85 520.52 183.30 512.59 191.20 505.15 C 198.84 498.83 205.25 491.18 212.87 484.83 C 218.75 479.39 224.32 473.63 230.12 468.12 C 238.63 461.00 245.87 452.53 254.32 445.36 C 260.38 439.75 266.14 433.84 272.09 428.12 C 282.33 419.35 291.27 409.17 301.52 400.41 C 311.76 390.01 322.82 380.51 333.05 370.10 C 337.95 365.89 343.07 361.55 349.19 359.27 C 358.74 355.21 370.19 355.26 379.76 359.25 C 383.28 360.36 386.23 362.64 389.23 364.72 C 396.99 370.65 402.48 379.45 404.28 389.06 C 407.23 401.54 402.55 414.79 394.26 424.25 C 391.29 427.92 387.78 431.11 384.20 434.16 C 378.11 439.77 372.34 445.71 366.35 451.42 C 358.84 457.85 352.07 465.10 344.89 471.90 C 337.52 478.14 330.93 485.23 323.92 491.85 C 313.84 500.46 305.06 510.46 295.01 519.09 C 289.51 524.20 284.49 529.82 278.71 534.61 C 272.45 540.40 266.53 546.54 260.34 552.39 C 252.73 558.73 246.22 566.27 238.73 572.75 C 237.78 573.40 237.29 574.38 237.06 575.49 C 274.98 605.74 313.25 635.57 351.21 665.79 C 365.69 677.20 380.20 688.56 394.63 700.03 C 397.61 702.12 400.22 704.77 403.42 706.53 C 414.89 707.68 426.47 707.71 438.01 707.92 C 443.15 708.77 448.38 708.67 453.58 708.65 C 453.57 704.57 453.61 700.50 453.55 696.43 C 440.21 684.66 429.93 669.92 421.46 654.37 C 411.96 636.41 405.69 616.89 401.27 597.11 C 396.62 572.77 394.42 547.79 396.76 523.07 C 398.30 501.27 402.66 479.66 410.08 459.09 C 416.08 441.51 424.82 424.89 435.98 410.03 C 444.47 398.29 455.25 388.26 467.31 380.26 C 480.36 371.26 496.22 366.72 511.97 366.12 C 528.38 366.41 544.88 371.27 558.39 380.70 C 572.60 390.16 584.66 402.69 593.97 416.98 C 605.91 434.25 614.02 453.88 619.72 474.02 C 625.81 494.45 628.23 515.77 629.16 537.00 C 629.59 557.42 627.59 577.88 623.62 597.92 C 618.38 620.76 610.78 643.36 598.37 663.37 C 594.12 670.57 589.14 677.33 583.89 683.83 C 581.10 687.32 576.69 690.02 576.53 694.96 C 577.51 697.92 577.03 701.00 576.69 704.02 C 576.80 707.21 577.30 710.38 577.22 713.59 C 586.81 713.84 596.44 713.45 605.98 714.62 C 610.90 714.22 616.33 715.99 620.90 713.61 C 681.19 668.66 741.38 623.55 801.66 578.58 C 801.31 578.13 800.59 577.24 800.23 576.79 C 778.84 557.19 757.31 537.75 735.95 518.12 C 730.54 513.84 726.03 508.56 720.57 504.33 C 714.45 498.11 707.57 492.75 701.45 486.54 C 696.22 482.50 691.89 477.45 686.69 473.39 C 682.95 470.11 679.62 466.38 675.76 463.24 C 671.86 460.17 668.65 456.34 664.80 453.22 C 661.04 450.37 658.05 446.67 654.36 443.76 C 650.43 440.67 647.14 436.87 643.36 433.62 C 638.79 429.89 634.48 425.80 630.74 421.24 C 620.02 408.81 618.32 389.73 626.52 375.55 C 629.29 371.10 632.53 366.87 636.75 363.69 M 453.62 457.60 C 441.95 459.02 431.20 467.43 428.39 479.06 C 423.69 493.91 433.12 511.69 448.37 515.50 C 456.79 518.54 466.39 516.50 473.74 511.72 C 482.30 506.19 486.91 495.89 486.75 485.88 C 486.05 477.90 482.56 470.09 476.54 464.72 C 470.25 459.52 461.78 456.64 453.62 457.60 M 548.51 465.76 C 539.78 473.20 536.00 485.94 539.45 496.91 C 541.35 504.41 547.00 510.48 553.46 514.45 C 560.50 518.05 569.03 519.26 576.61 516.62 C 583.63 514.66 589.53 509.74 593.37 503.62 C 595.97 498.84 597.40 493.44 597.58 488.02 C 596.96 480.69 594.63 473.02 589.09 467.89 C 583.54 461.81 575.15 458.55 566.96 459.16 C 560.19 458.69 553.75 461.72 548.51 465.76 M 462.37 569.36 C 456.81 577.95 453.30 587.84 452.06 597.98 C 451.99 616.01 451.91 634.06 452.28 652.09 C 467.15 650.50 482.00 648.61 496.96 647.87 C 512.49 647.83 528.17 648.00 543.39 651.38 C 543.42 651.20 543.47 650.84 543.49 650.67 L 543.51 651.02 C 554.08 652.15 564.40 654.72 574.55 657.80 C 574.27 648.86 574.79 639.90 573.83 631.02 C 573.80 621.67 573.85 612.31 573.74 602.96 C 573.82 595.80 572.31 588.71 569.93 582.00 C 569.25 580.55 568.66 579.08 568.38 577.52 L 567.71 577.41 C 566.00 572.24 562.33 567.99 559.23 563.59 L 558.43 563.61 L 558.48 562.75 C 556.95 561.13 555.36 559.57 553.59 558.23 L 553.50 557.44 L 552.41 557.59 L 552.38 556.78 C 551.13 555.99 549.96 555.12 548.82 554.22 C 546.00 552.38 543.27 550.35 540.11 549.15 C 535.37 545.85 529.44 544.80 523.90 543.50 C 500.76 539.00 475.26 549.50 462.37 569.36 Z" />
</g>
<g id="#bea7aca4">
<path fill="#bea7ac" opacity="0.64" d=" M 462.37 569.36 C 475.26 549.50 500.76 539.00 523.90 543.50 C 529.44 544.80 535.37 545.85 540.11 549.15 C 532.06 546.10 523.78 543.05 515.03 543.28 C 501.78 542.58 488.46 546.80 477.75 554.56 C 464.78 564.14 455.51 578.91 453.45 594.99 C 452.53 600.62 453.04 606.33 452.95 612.00 C 453.01 623.33 452.83 634.66 452.86 645.99 C 453.04 647.88 451.84 650.33 453.56 651.79 C 468.66 650.08 483.78 648.02 498.99 647.55 C 512.75 646.00 526.45 649.06 540.12 650.22 C 540.95 650.11 542.61 649.88 543.44 649.76 C 543.45 649.99 543.48 650.44 543.49 650.67 C 543.47 650.84 543.42 651.20 543.39 651.38 C 528.17 648.00 512.49 647.83 496.96 647.87 C 482.00 648.61 467.15 650.50 452.28 652.09 C 451.91 634.06 451.99 616.01 452.06 597.98 C 453.30 587.84 456.81 577.95 462.37 569.36 Z" />
</g>
</svg>
