<?xml version="1.0" encoding="UTF-8" ?>
<!DOCTYPE svg PUBLIC "-//W3C//DTD SVG 1.1//EN" "http://www.w3.org/Graphics/SVG/1.1/DTD/svg11.dtd">
<svg width="1024pt" height="1024pt" viewBox="0 0 1024 1024" version="1.1" xmlns="http://www.w3.org/2000/svg">
<g id="#ffffffff">
<path fill="#ffffff" opacity="1.00" d=" M 326.06 4.87 C 334.37 4.12 342.78 4.20 351.11 4.77 C 361.17 6.34 371.19 9.54 379.57 15.46 C 388.78 21.44 395.22 30.50 402.70 38.33 C 406.83 43.24 410.12 48.81 414.61 53.43 C 420.64 61.96 428.28 69.16 434.36 77.63 C 444.20 89.78 454.45 101.60 463.92 114.04 C 471.38 122.30 478.26 131.08 485.31 139.67 C 487.89 144.69 492.86 147.52 497.11 150.92 C 506.43 156.29 513.04 164.97 520.80 172.20 C 525.74 176.62 529.42 182.22 534.30 186.70 C 539.68 191.70 544.05 197.62 549.17 202.87 C 556.58 213.03 565.05 222.37 572.29 232.67 C 575.87 238.32 581.60 242.12 585.50 247.54 C 589.83 253.87 594.68 259.89 598.32 266.68 C 602.47 275.38 606.27 284.24 609.02 293.50 C 618.64 292.54 628.34 292.01 638.00 292.95 C 653.49 291.42 669.79 292.69 683.65 300.35 C 696.97 306.42 709.03 314.74 721.12 322.90 C 729.60 327.88 737.77 333.42 745.41 339.63 C 756.32 347.29 766.60 355.82 777.58 363.37 C 781.69 367.34 786.23 370.78 790.91 374.07 C 795.00 376.94 798.02 381.08 802.32 383.69 C 807.92 387.32 811.65 393.14 817.32 396.69 C 821.07 399.19 824.08 402.59 827.33 405.67 C 836.34 412.93 843.98 421.69 852.31 429.69 C 855.64 432.70 858.05 436.60 861.67 439.31 C 872.07 446.93 879.98 457.43 886.62 468.36 C 890.95 477.13 894.72 486.21 897.66 495.54 C 899.83 502.99 900.55 510.76 901.44 518.44 C 901.58 527.33 901.44 536.23 901.55 545.13 C 907.00 548.76 912.52 552.29 917.53 556.52 C 924.64 561.06 931.46 566.06 938.76 570.29 C 945.08 574.58 951.70 578.49 957.44 583.57 C 964.59 587.57 971.37 592.21 977.95 597.09 C 987.59 603.10 996.59 611.16 1001.26 621.72 C 1004.87 630.09 1005.33 639.61 1003.49 648.47 C 1000.73 662.48 996.33 676.10 991.55 689.53 C 987.54 697.85 985.18 706.86 980.97 715.10 C 978.93 720.16 976.66 725.15 973.74 729.77 C 968.41 739.19 964.57 749.45 958.37 758.38 C 952.56 770.13 944.52 780.53 937.52 791.56 C 934.30 796.61 930.00 800.88 927.10 806.14 C 916.73 820.89 904.79 834.43 893.28 848.27 C 887.05 854.40 881.79 861.41 875.31 867.31 C 867.89 873.87 861.95 882.15 853.37 887.34 C 843.00 894.62 829.20 896.43 817.19 892.59 C 809.23 889.69 801.52 885.56 795.69 879.31 C 791.56 874.73 786.36 871.33 782.18 866.82 C 774.06 858.93 766.54 850.39 757.60 843.39 C 752.70 839.67 748.69 834.94 743.79 831.23 C 737.13 824.88 730.72 818.27 724.25 811.75 C 720.83 807.41 716.96 803.48 713.08 799.57 C 703.94 805.39 693.50 808.65 684.29 814.30 C 681.76 815.32 680.52 817.87 678.91 819.90 C 675.49 824.76 670.67 828.37 667.03 833.04 C 663.68 837.03 660.45 841.12 656.84 844.88 C 647.23 858.08 635.58 869.64 625.24 882.25 C 619.72 890.26 612.85 897.21 607.06 905.02 C 600.17 912.54 594.18 920.81 587.48 928.51 C 580.66 937.92 572.55 946.31 565.78 955.76 C 562.11 961.02 556.97 965.05 553.49 970.47 C 548.36 976.08 544.21 982.47 539.23 988.21 C 530.28 997.56 522.51 1008.88 510.33 1014.32 C 503.75 1017.81 496.23 1018.30 489.00 1019.33 C 484.60 1019.76 480.15 1019.12 475.79 1019.97 C 471.57 1020.71 467.26 1020.46 463.00 1020.50 C 451.66 1020.51 440.33 1020.51 428.99 1020.50 C 425.35 1020.47 421.68 1020.66 418.07 1020.09 C 411.55 1018.82 404.84 1020.17 398.32 1018.84 C 378.87 1017.31 359.52 1014.23 340.53 1009.74 C 328.00 1006.14 315.36 1002.93 302.80 999.42 C 288.29 994.63 273.85 989.65 259.30 984.97 C 250.77 982.86 242.72 979.31 234.41 976.52 C 221.21 971.86 208.49 965.33 197.78 956.24 C 192.39 951.26 186.94 946.03 183.69 939.34 C 180.53 932.69 178.60 925.46 178.34 918.09 C 177.07 911.42 177.32 904.59 178.45 897.93 C 178.64 891.37 180.48 885.00 183.06 879.02 C 185.90 873.13 188.62 867.01 193.24 862.25 C 198.16 857.16 203.16 852.17 208.16 847.17 C 216.54 838.95 227.29 833.79 236.18 826.21 C 241.15 821.01 247.71 817.80 252.89 812.84 C 262.28 805.65 270.78 797.44 279.69 789.70 C 285.99 783.29 293.50 778.21 299.69 771.69 C 306.89 764.55 313.97 757.30 321.25 750.25 C 326.63 746.00 331.41 741.08 336.14 736.13 C 345.01 725.08 356.40 716.33 365.25 705.26 C 369.99 700.74 373.75 695.34 378.50 690.83 C 376.74 676.29 375.60 661.58 371.93 647.34 C 369.58 641.04 365.58 635.52 362.40 629.63 C 357.92 620.66 352.64 611.84 350.99 601.80 C 349.86 594.65 347.58 587.74 346.70 580.56 C 346.29 575.74 346.50 570.89 346.47 566.06 C 340.02 564.85 333.67 562.81 327.02 563.49 C 317.42 562.30 307.71 562.31 298.05 562.65 C 288.55 564.57 278.77 562.37 269.29 564.37 C 249.35 568.26 228.01 562.49 212.32 549.71 C 208.62 546.41 205.19 542.81 201.72 539.28 C 192.01 528.78 186.80 514.99 184.73 501.01 C 182.32 489.76 183.55 478.01 186.80 467.07 C 191.68 451.93 202.04 439.20 213.85 428.84 C 221.81 422.21 231.59 418.47 240.66 413.70 C 249.18 409.94 258.25 407.57 267.21 405.09 C 261.02 399.73 253.88 395.63 247.41 390.62 C 239.89 385.09 231.57 380.65 224.56 374.42 C 214.98 368.93 206.69 361.59 197.54 355.49 C 192.38 351.58 186.79 348.28 181.61 344.39 C 175.28 340.95 170.05 335.93 164.12 331.90 C 159.69 328.66 155.14 325.57 150.81 322.19 C 142.69 317.09 134.54 311.96 127.19 305.78 C 111.32 295.05 96.13 283.34 80.04 272.93 C 75.74 270.34 72.34 266.58 68.11 263.91 C 53.82 253.12 43.97 236.31 42.27 218.41 C 39.94 203.54 42.35 188.08 48.37 174.33 C 52.90 165.07 60.16 157.50 67.98 150.93 C 71.41 148.02 75.84 146.23 78.96 143.08 C 74.87 134.30 71.25 124.88 71.46 115.04 C 71.47 107.35 70.91 99.49 73.12 92.01 C 74.91 84.00 78.42 76.52 82.49 69.45 C 85.86 63.99 90.70 59.69 95.25 55.24 C 107.11 44.77 122.52 39.41 137.89 36.76 C 145.59 36.27 153.37 36.15 161.06 36.87 C 167.94 37.62 174.02 41.04 180.11 44.04 C 183.80 39.10 186.61 33.42 190.76 28.77 C 196.24 22.82 202.13 16.93 209.68 13.68 C 218.61 8.72 228.65 5.35 238.95 5.49 C 245.56 5.60 252.25 5.02 258.79 6.18 C 266.71 7.83 274.63 10.18 281.54 14.50 C 284.83 16.61 288.07 18.79 291.27 21.05 C 300.56 11.82 313.37 7.10 326.06 4.87 M 309.57 67.87 C 306.58 77.81 310.36 88.44 316.67 96.25 C 336.07 120.18 355.70 143.93 375.12 167.86 C 377.42 170.48 379.82 173.11 381.28 176.32 C 377.56 177.06 373.96 178.45 370.19 178.87 C 367.63 177.67 366.11 174.91 364.27 172.83 C 334.83 137.24 305.33 101.69 275.89 66.11 C 271.01 60.32 266.37 53.93 259.55 50.27 C 248.85 43.93 233.97 45.20 224.90 53.90 C 218.31 59.61 213.83 68.14 214.46 77.00 C 213.88 88.06 221.43 96.95 228.12 104.86 C 254.93 137.08 281.54 169.45 308.34 201.66 C 310.22 204.32 306.84 205.83 304.99 206.99 C 294.00 197.69 284.49 186.80 273.55 177.46 C 261.86 166.45 249.73 155.92 237.50 145.52 C 220.57 131.09 202.63 117.85 186.41 102.60 C 183.45 100.23 180.52 97.83 177.80 95.18 C 170.61 89.28 164.44 81.77 155.82 77.86 C 148.41 76.23 140.67 77.74 133.73 80.51 C 123.86 83.82 115.67 92.19 113.05 102.32 C 111.27 109.81 112.29 117.99 116.17 124.68 C 118.56 129.14 122.32 132.61 125.85 136.15 C 145.50 155.50 165.03 174.98 184.66 194.35 C 190.67 199.66 196.25 205.42 201.98 211.03 C 216.01 225.01 230.13 238.89 244.20 252.82 C 251.77 259.56 258.74 266.94 266.03 273.97 C 267.55 275.38 268.78 277.06 269.73 278.90 C 266.80 279.07 264.77 276.85 262.52 275.38 C 221.49 246.44 180.51 217.42 139.45 188.51 C 133.18 184.09 126.93 178.95 119.16 177.54 C 106.78 174.37 92.92 180.78 86.65 191.79 C 83.45 196.93 81.94 202.97 82.47 209.01 C 82.30 219.59 89.76 228.20 97.66 234.33 C 179.93 292.41 262.21 350.48 344.48 408.57 C 347.78 411.03 351.33 413.13 355.04 414.92 C 345.86 424.70 333.95 431.78 321.33 436.15 C 316.43 437.35 311.84 439.61 306.89 440.63 C 291.21 442.50 275.46 444.95 260.55 450.36 C 251.92 453.31 243.49 457.47 237.00 464.01 C 229.81 470.98 225.08 480.88 225.58 491.01 C 225.73 506.02 237.21 520.63 252.29 522.98 C 258.21 524.35 264.06 522.19 269.97 522.00 C 294.26 521.50 318.59 520.64 342.85 522.29 C 347.72 523.11 352.47 524.84 357.48 524.61 C 363.99 524.34 370.51 524.31 377.02 524.23 C 385.93 523.38 394.20 519.63 402.98 518.09 C 397.21 533.13 390.42 547.99 387.80 564.01 C 387.23 569.61 387.31 575.34 388.95 580.78 C 391.09 589.39 392.05 598.51 396.68 606.29 C 401.39 614.07 406.51 621.72 409.40 630.42 C 416.02 649.65 417.41 670.08 419.75 690.13 C 420.01 694.42 421.93 698.46 421.97 702.77 C 412.63 715.04 402.26 726.51 391.73 737.77 C 385.94 744.63 379.12 750.54 373.24 757.32 C 370.25 760.68 366.55 763.34 363.68 766.82 C 360.81 770.23 357.20 772.91 354.15 776.15 C 321.46 808.58 287.66 840.12 250.37 867.26 C 244.14 871.66 236.96 875.06 232.17 881.20 C 228.54 885.95 223.95 890.04 221.37 895.54 C 217.45 903.87 217.39 914.12 221.56 922.36 C 230.48 929.36 240.58 935.08 251.39 938.65 C 285.82 950.29 320.22 962.42 355.75 970.35 C 389.64 977.74 424.41 980.54 459.06 979.74 C 470.30 979.02 481.68 979.19 492.76 976.89 C 499.59 971.39 504.55 963.92 510.45 957.48 C 524.35 940.98 537.76 924.06 551.38 907.32 C 583.41 867.79 616.04 828.74 649.35 790.30 C 651.55 787.58 653.49 784.52 656.48 782.59 C 662.71 778.59 669.52 775.64 676.07 772.21 C 690.14 764.74 704.19 757.21 717.79 748.91 C 720.08 747.59 722.20 745.85 724.78 745.10 C 731.98 757.50 741.04 768.76 750.92 779.14 C 766.55 797.17 785.52 811.83 802.20 828.81 C 810.51 836.13 817.95 844.40 826.52 851.43 C 827.66 852.21 829.15 854.56 830.62 852.96 C 848.45 835.96 865.63 818.17 880.55 798.53 C 893.16 782.86 904.83 766.44 915.44 749.36 C 937.36 715.19 954.08 677.58 963.62 638.08 C 962.82 636.65 961.43 635.72 960.13 634.82 C 933.34 616.98 906.84 598.75 880.14 580.79 C 871.88 575.08 863.15 570.03 855.26 563.82 C 857.51 558.06 860.35 552.30 860.46 545.99 C 860.57 540.32 859.91 534.68 860.16 529.01 C 860.28 508.83 853.65 487.53 838.04 473.97 C 830.91 468.11 825.09 460.92 818.48 454.51 C 802.52 438.04 784.97 423.23 767.30 408.64 C 740.20 386.72 712.33 365.63 682.73 347.17 C 672.34 341.09 661.59 333.79 649.09 333.85 C 642.79 335.23 636.37 334.38 630.04 333.83 C 612.41 333.62 594.51 334.63 577.59 339.96 C 574.92 330.98 574.04 321.59 571.62 312.55 C 567.75 296.75 560.87 281.33 549.48 269.50 C 544.77 264.85 540.50 259.75 536.81 254.25 C 525.57 238.99 513.14 224.64 500.17 210.84 C 491.66 201.34 482.62 192.26 472.77 184.15 C 468.39 180.51 462.89 178.24 459.36 173.63 C 428.82 136.49 398.51 99.17 368.02 62.00 C 362.92 55.32 356.73 48.83 348.51 46.24 C 332.46 40.05 313.33 51.50 309.57 67.87 Z" />
<path fill="#ffffff" opacity="1.00" d=" M 597.60 398.37 C 606.19 395.88 615.16 396.04 624.00 395.53 C 631.46 395.72 638.88 396.63 646.22 397.94 C 649.68 398.61 652.46 400.95 655.44 402.69 C 684.47 421.41 711.88 442.53 738.46 464.57 C 755.32 478.94 772.09 493.58 786.55 510.44 C 790.12 514.26 790.22 519.76 791.27 524.60 C 792.21 532.02 793.18 539.58 792.00 547.04 C 791.27 555.14 787.32 562.43 783.27 569.31 C 768.27 597.03 751.07 623.50 736.08 651.23 C 733.65 655.45 732.27 660.33 729.10 664.09 C 720.16 673.30 709.66 680.82 699.03 687.94 C 681.19 699.54 662.64 710.03 643.59 719.50 C 636.03 723.51 628.15 727.07 621.23 732.16 C 616.61 735.51 613.64 740.55 609.18 744.06 C 605.04 747.63 601.28 751.63 597.86 755.89 C 561.46 797.93 525.97 840.75 491.11 884.09 C 478.38 899.66 465.82 915.39 452.59 930.54 C 451.53 931.63 450.46 932.82 448.99 933.37 C 417.30 931.06 385.71 927.08 354.45 921.32 C 336.27 917.60 318.02 913.47 300.89 906.18 C 324.60 888.03 346.97 868.19 368.67 847.71 C 381.50 835.92 393.53 823.28 406.14 811.25 C 410.53 807.60 413.99 803.03 418.07 799.07 C 434.99 782.23 451.07 764.58 466.24 746.15 C 470.76 739.97 476.48 734.58 479.72 727.54 C 483.27 720.58 483.61 712.63 484.21 705.00 C 484.95 693.22 482.00 681.70 479.85 670.22 C 477.15 647.49 473.60 624.54 464.97 603.19 C 460.91 592.78 454.79 583.39 449.34 573.70 C 448.79 570.42 450.43 567.26 451.25 564.15 C 457.06 547.71 464.29 531.77 472.18 516.23 C 479.31 518.20 486.53 520.63 494.03 520.29 C 504.79 520.04 515.52 515.86 522.98 507.97 C 533.84 497.98 542.49 485.96 551.22 474.15 C 564.04 456.11 578.08 438.72 587.90 418.78 C 591.84 412.35 595.63 405.70 597.60 398.37 Z" />
</g>
<g id="#88001bff">
<path fill="#88001b" opacity="1.00" d=" M 309.57 67.87 C 313.33 51.50 332.46 40.05 348.51 46.24 C 356.73 48.83 362.92 55.32 368.02 62.00 C 398.51 99.17 428.82 136.49 459.36 173.63 C 462.89 178.24 468.39 180.51 472.77 184.15 C 482.62 192.26 491.66 201.34 500.17 210.84 C 513.14 224.64 525.57 238.99 536.81 254.25 C 540.50 259.75 544.77 264.85 549.48 269.50 C 560.87 281.33 567.75 296.75 571.62 312.55 C 574.04 321.59 574.92 330.98 577.59 339.96 C 594.51 334.63 612.41 333.62 630.04 333.83 C 636.37 334.38 642.79 335.23 649.09 333.85 C 661.59 333.79 672.34 341.09 682.73 347.17 C 712.33 365.63 740.20 386.72 767.30 408.64 C 784.97 423.23 802.52 438.04 818.48 454.51 C 825.09 460.92 830.91 468.11 838.04 473.97 C 853.65 487.53 860.28 508.83 860.16 529.01 C 859.91 534.68 860.57 540.32 860.46 545.99 C 860.35 552.30 857.51 558.06 855.26 563.82 C 863.15 570.03 871.88 575.08 880.14 580.79 C 906.84 598.75 933.34 616.98 960.13 634.82 C 961.43 635.72 962.82 636.65 963.62 638.08 C 954.08 677.58 937.36 715.19 915.44 749.36 C 904.83 766.44 893.16 782.86 880.55 798.53 C 865.63 818.17 848.45 835.96 830.62 852.96 C 829.15 854.56 827.66 852.21 826.52 851.43 C 817.95 844.40 810.51 836.13 802.20 828.81 C 785.52 811.83 766.55 797.17 750.92 779.14 C 741.04 768.76 731.98 757.50 724.78 745.10 C 722.20 745.85 720.08 747.59 717.79 748.91 C 704.19 757.21 690.14 764.74 676.07 772.21 C 669.52 775.64 662.71 778.59 656.48 782.59 C 653.49 784.52 651.55 787.58 649.35 790.30 C 616.04 828.74 583.41 867.79 551.38 907.32 C 537.76 924.06 524.35 940.98 510.45 957.48 C 504.55 963.92 499.59 971.39 492.76 976.89 C 481.68 979.19 470.30 979.02 459.06 979.74 C 424.41 980.54 389.64 977.74 355.75 970.35 C 320.22 962.42 285.82 950.29 251.39 938.65 C 240.58 935.08 230.48 929.36 221.56 922.36 C 217.39 914.12 217.45 903.87 221.37 895.54 C 223.95 890.04 228.54 885.95 232.17 881.20 C 236.96 875.06 244.14 871.66 250.37 867.26 C 287.66 840.12 321.46 808.58 354.15 776.15 C 357.20 772.91 360.81 770.23 363.68 766.82 C 366.55 763.34 370.25 760.68 373.24 757.32 C 379.12 750.54 385.94 744.63 391.73 737.77 C 402.26 726.51 412.63 715.04 421.97 702.77 C 421.93 698.46 420.01 694.42 419.75 690.13 C 417.41 670.08 416.02 649.65 409.40 630.42 C 406.51 621.72 401.39 614.07 396.68 606.29 C 392.05 598.51 391.09 589.39 388.95 580.78 C 387.31 575.34 387.23 569.61 387.80 564.01 C 390.42 547.99 397.21 533.13 402.98 518.09 C 394.20 519.63 385.93 523.38 377.02 524.23 C 370.51 524.31 363.99 524.34 357.48 524.61 C 352.47 524.84 347.72 523.11 342.85 522.29 C 318.59 520.64 294.26 521.50 269.97 522.00 C 264.06 522.19 258.21 524.35 252.29 522.98 C 237.21 520.63 225.73 506.02 225.58 491.01 C 225.08 480.88 229.81 470.98 237.00 464.01 C 243.49 457.47 251.92 453.31 260.55 450.36 C 275.46 444.95 291.21 442.50 306.89 440.63 C 311.84 439.61 316.43 437.35 321.33 436.15 C 333.95 431.78 345.86 424.70 355.04 414.92 C 351.33 413.13 347.78 411.03 344.48 408.57 C 262.21 350.48 179.93 292.41 97.66 234.33 C 89.76 228.20 82.30 219.59 82.47 209.01 C 81.94 202.97 83.45 196.93 86.65 191.79 C 92.92 180.78 106.78 174.37 119.16 177.54 C 126.93 178.95 133.18 184.09 139.45 188.51 C 180.51 217.42 221.49 246.44 262.52 275.38 C 264.77 276.85 266.80 279.07 269.73 278.90 C 268.78 277.06 267.55 275.38 266.03 273.97 C 258.74 266.94 251.77 259.56 244.20 252.82 C 230.13 238.89 216.01 225.01 201.98 211.03 C 196.25 205.42 190.67 199.66 184.66 194.35 C 165.03 174.98 145.50 155.50 125.85 136.15 C 122.32 132.61 118.56 129.14 116.17 124.68 C 112.29 117.99 111.27 109.81 113.05 102.32 C 115.67 92.19 123.86 83.82 133.73 80.51 C 140.67 77.74 148.41 76.23 155.82 77.86 C 164.44 81.77 170.61 89.28 177.80 95.18 C 180.52 97.83 183.45 100.23 186.41 102.60 C 202.63 117.85 220.57 131.09 237.50 145.52 C 249.73 155.92 261.86 166.45 273.55 177.46 C 284.49 186.80 294.00 197.69 304.99 206.99 C 306.84 205.83 310.22 204.32 308.34 201.66 C 281.54 169.45 254.93 137.08 228.12 104.86 C 221.43 96.95 213.88 88.06 214.46 77.00 C 213.83 68.14 218.31 59.61 224.90 53.90 C 233.97 45.20 248.85 43.93 259.55 50.27 C 266.37 53.93 271.01 60.32 275.89 66.11 C 305.33 101.69 334.83 137.24 364.27 172.83 C 366.11 174.91 367.63 177.67 370.19 178.87 C 373.96 178.45 377.56 177.06 381.28 176.32 C 379.82 173.11 377.42 170.48 375.12 167.86 C 355.70 143.93 336.07 120.18 316.67 96.25 C 310.36 88.44 306.58 77.81 309.57 67.87 M 597.60 398.37 C 595.63 405.70 591.84 412.35 587.90 418.78 C 578.08 438.72 564.04 456.11 551.22 474.15 C 542.49 485.96 533.84 497.98 522.98 507.97 C 515.52 515.86 504.79 520.04 494.03 520.29 C 486.53 520.63 479.31 518.20 472.18 516.23 C 464.29 531.77 457.06 547.71 451.25 564.15 C 450.43 567.26 448.79 570.42 449.34 573.70 C 454.79 583.39 460.91 592.78 464.97 603.19 C 473.60 624.54 477.15 647.49 479.85 670.22 C 482.00 681.70 484.95 693.22 484.21 705.00 C 483.61 712.63 483.27 720.58 479.72 727.54 C 476.48 734.58 470.76 739.97 466.24 746.15 C 451.07 764.58 434.99 782.23 418.07 799.07 C 413.99 803.03 410.53 807.60 406.14 811.25 C 393.53 823.28 381.50 835.92 368.67 847.71 C 346.97 868.19 324.60 888.03 300.89 906.18 C 318.02 913.47 336.27 917.60 354.45 921.32 C 385.71 927.08 417.30 931.06 448.99 933.37 C 450.46 932.82 451.53 931.63 452.59 930.54 C 465.82 915.39 478.38 899.66 491.11 884.09 C 525.97 840.75 561.46 797.93 597.86 755.89 C 601.28 751.63 605.04 747.63 609.18 744.06 C 613.64 740.55 616.61 735.51 621.23 732.16 C 628.15 727.07 636.03 723.51 643.59 719.50 C 662.64 710.03 681.19 699.54 699.03 687.94 C 709.66 680.82 720.16 673.30 729.10 664.09 C 732.27 660.33 733.65 655.45 736.08 651.23 C 751.07 623.50 768.27 597.03 783.27 569.31 C 787.32 562.43 791.27 555.14 792.00 547.04 C 793.18 539.58 792.21 532.02 791.27 524.60 C 790.22 519.76 790.12 514.26 786.55 510.44 C 772.09 493.58 755.32 478.94 738.46 464.57 C 711.88 442.53 684.47 421.41 655.44 402.69 C 652.46 400.95 649.68 398.61 646.22 397.94 C 638.88 396.63 631.46 395.72 624.00 395.53 C 615.16 396.04 606.19 395.88 597.60 398.37 Z" />
</g>
</svg>
