<?xml version="1.0" encoding="UTF-8" standalone="no"?>
<!DOCTYPE svg PUBLIC "-//W3C//DTD SVG 1.1//EN" "http://www.w3.org/Graphics/SVG/1.1/DTD/svg11.dtd">
<svg width="100%" height="100%" viewBox="0 0 1024 1024" version="1.1" xmlns="http://www.w3.org/2000/svg" xmlns:xlink="http://www.w3.org/1999/xlink" xml:space="preserve" xmlns:serif="http://www.serif.com/" style="fill-rule:evenodd;clip-rule:evenodd;stroke-linejoin:round;stroke-miterlimit:2;">
    <g id="_-ffffffff" serif:id="#ffffffff">
        <path d="M485,1.54C492.66,1.37 500.36,1.77 507.97,0.68C522.31,0.28 536.68,0.26 551.02,0.7C560.45,2.27 570.09,0.62 579.5,2.28C604.6,3.9 629.6,7.8 653.97,14.15C667.03,16.86 679.82,20.75 692.56,24.69C707.13,29.85 722.34,33.56 735.98,41.03C741.97,44.06 746.73,48.91 751.24,53.77C765.88,70.66 770.48,95.44 763.32,116.55C761.18,123.96 757.15,130.62 752.59,136.77C770.41,142.08 787.9,150.51 800.82,164.19C812.25,174.7 819.49,189.25 822.65,204.33C826.16,225.31 820.41,248.08 805.79,263.8C801.62,267.95 797.66,272.35 793.06,276.04C782.79,284.17 770.91,290.05 758.78,294.84C746.87,298.95 734.93,303.04 722.66,305.93C712.73,308.5 702.76,310.97 692.57,312.26C706.19,323.33 720.03,334.32 731.69,347.52C738.86,344.18 746.54,342.1 753.72,338.79C766.16,333.47 778.29,327.49 790.35,321.36C799.55,317.06 808.13,311.61 817.35,307.35C828.22,301.24 840.81,299.69 853.02,298.54C860.76,298.04 868.49,299.13 875.94,301.17C899.5,308.49 917.08,332.24 916.52,357.01C916.37,364.58 917.17,372.36 914.9,379.71C908.57,398.92 893.99,414.95 875.99,423.98C866.73,428.53 858.32,434.61 848.97,438.98C836.96,445.89 824.31,451.64 811.99,457.98C807.01,460.16 802.08,462.48 796.93,464.2C800.64,475.4 801.58,487.21 803.93,498.71C811.4,503.14 817.3,509.57 823.24,515.78C834.01,528.3 839.15,544.77 840.47,561.02C840.37,569.72 841.12,578.52 839.47,587.13C837.47,602.22 834.23,617.11 829.97,631.71C823.73,655.61 816.02,679.07 808.93,702.71C806.27,710.3 803.72,717.96 799.97,725.1C796.83,732.82 793.21,740.45 787.92,746.96C784.17,753.32 779.16,758.76 773.82,763.81C768.01,770.04 760.56,774.34 752.99,778.05C750.15,783.44 748.44,789.41 745.92,794.97C742.57,802.1 740.33,809.71 736.63,816.68C731.32,828.89 725.47,840.83 719.65,852.81C717.32,859.18 713.57,864.92 711.22,871.29C708.81,877.25 704.98,882.48 702.31,888.32C698.4,896.77 693.16,904.5 688.49,912.53C683.05,920.61 678.67,929.33 673.62,937.65C665.72,951.04 656.82,963.88 646.76,975.74C641.94,981.3 635.96,985.62 630.74,990.75C620.19,999.84 608.67,1008.31 595.19,1012.44C584.72,1015.47 573.77,1016.26 562.99,1017.46C557.29,1017.07 551.72,1018.65 546.04,1018.51C523.78,1018.53 501.52,1018.59 479.26,1018.47C474.5,1018.14 469.8,1017.17 465.01,1017.46C454.68,1016.4 444.3,1015.31 434.13,1013.13C420.71,1008.88 408.94,1000.74 398.26,991.76C394.14,987.51 389.22,984.15 385.19,979.81C373.21,968.75 365.03,954.47 355.89,941.15C346.03,923.46 334.67,906.64 325.35,888.65C320.98,879.68 316.16,870.92 312.37,861.68C307.72,853.09 304.2,843.97 299.69,835.31C296.4,827.14 292,819.48 288.78,811.28C284.19,800.22 279.89,789.06 275.02,778.12C269.23,774.96 263.13,772.27 257.98,768.07C250.71,761.97 244.06,754.99 239.33,746.7C233.34,738.85 229.46,729.74 225.06,720.98C218.54,704.31 214.48,686.86 208.82,669.92C205.09,659.32 202.64,648.32 199.12,637.65C195.11,621.93 190.88,606.21 188.53,590.13C186.77,580.84 187.7,571.34 187.49,561.95C187.23,547.4 192.77,533.47 200.26,521.24C202.92,517.32 206.43,514.08 209.3,510.33C213.11,505.44 218.87,502.62 223.3,498.48C225.41,486.29 227.03,473.96 230.89,462.15C233.8,452.92 236.73,443.68 240.57,434.79C233.27,431.06 226.38,426.6 219.08,422.88C196.53,408.52 175.26,390.82 161.39,367.64C157.83,360.34 153.55,353.3 151.34,345.43C146.52,329.16 145.29,311.81 147.48,294.99C147.52,285.07 151.26,275.7 154.45,266.46C161.36,251.08 170.47,236.43 182.68,224.69C189.46,218.13 195.73,211.02 203.13,205.14C211.27,197.49 220.41,190.97 229.68,184.78C226.36,175.22 224.92,165.11 225.47,155C224.76,142.75 227.52,130.54 232.38,119.34C237.18,109.1 242.86,98.99 251.19,91.19C256.77,85.78 261.91,79.87 268.16,75.19C289.23,58.21 314.06,46.74 339.18,37.11C370.06,24.3 402.21,14.55 434.98,7.91C451.49,4.61 468.28,3.14 485,1.54M494.03,41.98C439.3,46.09 385.34,60.32 335.57,83.45C322.5,89.62 309.54,96.2 297.84,104.76C285.16,114.22 273.17,126.22 268.58,141.79C262.45,160.86 270.69,181.92 284.5,195.51C285.31,196.67 287.46,197.65 286.51,199.31C257.65,215.25 229.28,233.51 207.66,258.77C196.25,272.69 187.31,289.65 186.9,307.99C186.13,322.77 191.24,337.38 199.34,349.59C208.94,364.18 222.63,375.47 237.05,385.04C255.51,397.28 275.87,406.18 296.14,414.92C296.12,415.37 296.09,416.25 296.08,416.7C285,435.39 276.61,455.61 270.25,476.36C265.55,493.33 262.71,510.78 261.34,528.32C256.91,529.79 252.19,530.55 248.15,533.01C239.73,538 232.97,546.02 230.33,555.53C227.07,567.35 228.61,579.83 231.17,591.63C238.88,625.69 249,659.14 259.33,692.48C262.54,702.26 265.95,712.3 272.46,720.45C275.98,725 278.68,730.25 283.12,734.03C289.27,739.68 297.37,742.71 305.61,743.53C307.23,746.61 308.42,749.9 309.81,753.1C326.08,792.37 342.54,831.67 362.65,869.17C374.69,891.68 387.71,913.68 402.12,934.76C405.55,939.65 408.47,945 412.96,949.04C420.05,955.73 427.61,961.93 435.6,967.51C439.33,970 443.07,972.96 447.71,973.39C464.34,976.07 481.13,978.25 498.01,978.08C526.54,978.57 555.39,978.63 583.4,972.51C589.96,969.9 595.32,965.11 600.93,960.96C607.66,955.04 615.44,950 620.41,942.37C624.08,937 627.7,931.6 631.29,926.19C656.85,887.72 677.72,846.36 696.29,804.13C704.95,784.06 713.38,763.89 721.79,743.71C728.24,742.7 734.82,741.17 740.25,737.37C745.1,733.87 749.17,729.37 752.48,724.41C755.15,720.41 758.29,716.71 760.55,712.45C764.76,704.66 767.06,696.06 769.89,687.72C779.69,655.26 789.73,622.8 796.89,589.63C798.68,580.18 800.47,570.4 798.46,560.84C797.18,552.04 792.93,543.67 786.14,537.86C780.88,532.51 773.56,530.2 766.43,528.59C765.49,516.26 763.82,503.98 761.23,491.89C757.56,473.33 750.6,455.65 743.16,438.33C761.75,431.69 781.11,426.93 798.75,417.85C819.17,407.94 839.39,397.58 858.93,386.01C864.47,383.13 868.76,378.41 872.66,373.65C876.76,368.31 876.36,361.36 875.8,355.03C874.46,349.57 870.57,345.11 866.3,341.64C862.03,339.08 856.77,339.55 852.01,339.87C846.65,340.81 841,341.3 836.21,344.08C799.94,364.87 761.6,382.22 721.57,394.39C720.18,394.78 717.66,395.41 718.26,397.36C722.29,401.54 725.59,406.37 728.42,411.43C732.93,419.96 737.1,428.72 740.12,437.89C735.35,440.45 729.95,441.36 724.84,442.95C712.87,445.88 700.98,449.13 688.97,451.86C659.74,458.43 629.87,461.46 600.07,463.85C593.34,463.57 586.72,465.04 580,464.85C564.31,465.03 548.62,465 532.93,464.8C530.27,464.83 527.65,464.26 525.01,464.06C509.6,463.72 494.27,461.87 478.96,460.13C442.01,456.08 405.59,448.23 369.74,438.54C346.23,432.09 323.09,424.32 300.28,415.71C304.15,407.66 308.98,400.13 313.68,392.56C317.22,386.87 321.63,381.75 324.92,375.91C321.11,373.82 316.92,372.6 312.93,370.94C297.61,364.87 282.5,358.1 268.41,349.51C258.31,343.36 248.28,336.59 240.74,327.35C236.08,321.13 231.93,313.15 234.41,305.22C237.8,292.62 247.92,283.67 256.98,274.96C278.61,256.57 303.52,242.43 329.11,230.32C331.57,228.97 334.67,228.67 337.21,230.01C347.26,234.88 357.67,238.98 368.08,243.04C410.67,259.02 454.97,270.56 500.05,276.84C534.37,281.24 569.07,283.3 603.67,281.68C643.86,279.97 683.86,273.56 722.65,262.84C739.13,258.02 756.29,253.01 769.76,241.86C777.5,235.07 782.9,224.81 781.88,214.35C781,202.87 773.06,193.3 763.81,187.13C751.01,178.7 736.05,174.5 721.41,170.5C697.44,164.36 673.03,160.21 648.6,156.37C614.98,151.33 581.14,147.34 547.13,146.5C534.11,145.37 521.02,146.01 507.97,145.94C499.44,146.78 490.85,146.5 482.33,147.28C436.97,150.24 391.76,158.1 348.57,172.49C344.39,173.81 340.43,175.88 336.1,176.66C331.35,174.41 327.2,171.05 323.02,167.9C319.64,164.96 316.1,161.88 314.21,157.73C312.87,154.56 315.23,151.51 317.38,149.39C326.23,140.41 337.6,134.47 348.79,128.94C371.61,119.82 394.09,109.59 417.84,103.03C458.63,91.2 501.29,86.29 543.69,87.64C550.15,88.55 556.71,88.01 563.17,88.9C604.27,92.05 644.78,101.26 683.81,114.39C688.94,116.05 693.96,118.2 699.35,118.91C710.55,120.37 721.98,112.28 724.53,101.31C727.58,91.14 721.35,80.33 712.5,75.35C708.4,73.08 703.86,71.82 699.46,70.29C654.23,54.9 607.08,44.68 559.36,41.62C549.61,40.53 539.76,41.26 529.99,40.51C518,41.08 505.97,40.64 494.03,41.98M431.43,308.38C414.77,314.19 398.52,321.28 383.26,330.16C370.1,338 357.86,347.31 346.12,357.11C339.63,363.35 332.23,368.73 326.93,376.11C328.59,377.65 330.78,378.36 332.89,379.05C338.98,380.91 344.82,383.54 351.02,385.04C371.74,391.41 392.4,398.28 413.73,402.34C475.47,418 539.75,422.67 603.21,418.36C612.38,417.36 621.89,417.46 630.42,413.49C643.96,411.08 657.75,410.11 671.23,407.22C685.94,404.1 700.71,401.18 715.14,396.96C716.08,396.7 716.64,396.12 716.83,395.22C697.21,368.61 671.64,346.6 643.37,329.54C624.66,319.1 604.87,310.52 584.25,304.62C566.85,299.92 548.95,297.37 531.01,296.03C497.47,294.34 463.38,297.65 431.43,308.38Z" style="fill:white;fill-rule:nonzero;"/>
        <path d="M464.65,195.75C484.37,193.74 504.18,192.85 524.01,193.13C556.26,192.69 588.44,195.49 620.39,199.74C651.45,204.2 682.63,208.67 712.97,216.87C684.09,225.3 654.27,230.44 624.33,233.26C601.27,235.48 578.07,235.14 554.93,234.71C540.87,233.62 526.78,232.98 512.79,231.11C475.64,226.62 439,218.08 403.61,205.93C423.62,200.85 444.18,198.19 464.65,195.75Z" style="fill:white;fill-rule:nonzero;"/>
    </g>
    <g id="_-88001bff" serif:id="#88001bff">
        <path d="M494.03,41.98C505.97,40.64 518,41.08 529.99,40.51C539.76,41.26 549.61,40.53 559.36,41.62C607.08,44.68 654.23,54.9 699.46,70.29C703.86,71.82 708.4,73.08 712.5,75.35C721.35,80.33 727.58,91.14 724.53,101.31C721.98,112.28 710.55,120.37 699.35,118.91C693.96,118.2 688.94,116.05 683.81,114.39C644.78,101.26 604.27,92.05 563.17,88.9C556.71,88.01 550.15,88.55 543.69,87.64C501.29,86.29 458.63,91.2 417.84,103.03C394.09,109.59 371.61,119.82 348.79,128.94C337.6,134.47 326.23,140.41 317.38,149.39C315.23,151.51 312.87,154.56 314.21,157.73C316.1,161.88 319.64,164.96 323.02,167.9C327.2,171.05 331.35,174.41 336.1,176.66C340.43,175.88 344.39,173.81 348.57,172.49C391.76,158.1 436.97,150.24 482.33,147.28C490.85,146.5 499.44,146.78 507.97,145.94C521.02,146.01 534.11,145.37 547.13,146.5C581.14,147.34 614.98,151.33 648.6,156.37C673.03,160.21 697.44,164.36 721.41,170.5C736.05,174.5 751.01,178.7 763.81,187.13C773.06,193.3 781,202.87 781.88,214.35C782.9,224.81 777.5,235.07 769.76,241.86C756.29,253.01 739.13,258.02 722.65,262.84C683.86,273.56 643.86,279.97 603.67,281.68C569.07,283.3 534.37,281.24 500.05,276.84C454.97,270.56 410.67,259.02 368.08,243.04C357.67,238.98 347.26,234.88 337.21,230.01C334.67,228.67 331.57,228.97 329.11,230.32C303.52,242.43 278.61,256.57 256.98,274.96C247.92,283.67 237.8,292.62 234.41,305.22C231.93,313.15 236.08,321.13 240.74,327.35C248.28,336.59 258.31,343.36 268.41,349.51C282.5,358.1 297.61,364.87 312.93,370.94C316.92,372.6 321.11,373.82 324.92,375.91C321.63,381.75 317.22,386.87 313.68,392.56C308.98,400.13 304.15,407.66 300.28,415.71C323.09,424.32 346.23,432.09 369.74,438.54C405.59,448.23 442.01,456.08 478.96,460.13C494.27,461.87 509.6,463.72 525.01,464.06C527.65,464.26 530.27,464.83 532.93,464.8C548.62,465 564.31,465.03 580,464.85C586.72,465.04 593.34,463.57 600.07,463.85C629.87,461.46 659.74,458.43 688.97,451.86C700.98,449.13 712.87,445.88 724.84,442.95C729.95,441.36 735.35,440.45 740.12,437.89C737.1,428.72 732.93,419.96 728.42,411.43C725.59,406.37 722.29,401.54 718.26,397.36C717.66,395.41 720.18,394.78 721.57,394.39C761.6,382.22 799.94,364.87 836.21,344.08C841,341.3 846.65,340.81 852.01,339.87C856.77,339.55 862.03,339.08 866.3,341.64C870.57,345.11 874.46,349.57 875.8,355.03C876.36,361.36 876.76,368.31 872.66,373.65C868.76,378.41 864.47,383.13 858.93,386.01C839.39,397.58 819.17,407.94 798.75,417.85C781.11,426.93 761.75,431.69 743.16,438.33C750.6,455.65 757.56,473.33 761.23,491.89C763.82,503.98 765.49,516.26 766.43,528.59C773.56,530.2 780.88,532.51 786.14,537.86C792.93,543.67 797.18,552.04 798.46,560.84C800.47,570.4 798.68,580.18 796.89,589.63C789.73,622.8 779.69,655.26 769.89,687.72C767.06,696.06 764.76,704.66 760.55,712.45C758.29,716.71 755.15,720.41 752.48,724.41C749.17,729.37 745.1,733.87 740.25,737.37C734.82,741.17 728.24,742.7 721.79,743.71C713.38,763.89 704.95,784.06 696.29,804.13C677.72,846.36 656.85,887.72 631.29,926.19C627.7,931.6 624.08,937 620.41,942.37C615.44,950 607.66,955.04 600.93,960.96C595.32,965.11 589.96,969.9 583.4,972.51C555.39,978.63 526.54,978.57 498.01,978.08C481.13,978.25 464.34,976.07 447.71,973.39C443.07,972.96 439.33,970 435.6,967.51C427.61,961.93 420.05,955.73 412.96,949.04C408.47,945 405.55,939.65 402.12,934.76C387.71,913.68 374.69,891.68 362.65,869.17C342.54,831.67 326.08,792.37 309.81,753.1C308.42,749.9 307.23,746.61 305.61,743.53C297.37,742.71 289.27,739.68 283.12,734.03C278.68,730.25 275.98,725 272.46,720.45C265.95,712.3 262.54,702.26 259.33,692.48C249,659.14 238.88,625.69 231.17,591.63C228.61,579.83 227.07,567.35 230.33,555.53C232.97,546.02 239.73,538 248.15,533.01C252.19,530.55 256.91,529.79 261.34,528.32C262.71,510.78 265.55,493.33 270.25,476.36C276.61,455.61 285,435.39 296.08,416.7C296.39,416.48 297.01,416.05 297.32,415.83C297.02,415.6 296.43,415.15 296.14,414.92C275.87,406.18 255.51,397.28 237.05,385.04C222.63,375.47 208.94,364.18 199.34,349.59C191.24,337.38 186.13,322.77 186.9,307.99C187.31,289.65 196.25,272.69 207.66,258.77C229.28,233.51 257.65,215.25 286.51,199.31C287.46,197.65 285.31,196.67 284.5,195.51C270.69,181.92 262.45,160.86 268.58,141.79C273.17,126.22 285.16,114.22 297.84,104.76C309.54,96.2 322.5,89.62 335.57,83.45C385.34,60.32 439.3,46.09 494.03,41.98M464.65,195.75C444.18,198.19 423.62,200.85 403.61,205.93C439,218.08 475.64,226.62 512.79,231.11C526.78,232.98 540.87,233.62 554.93,234.71C578.07,235.14 601.27,235.48 624.33,233.26C654.27,230.44 684.09,225.3 712.97,216.87C682.63,208.67 651.45,204.2 620.39,199.74C588.44,195.49 556.26,192.69 524.01,193.13C504.18,192.85 484.37,193.74 464.65,195.75Z" style="fill:rgb(136,0,27);fill-rule:nonzero;"/>
        <path d="M431.43,308.38C463.38,297.65 497.47,294.34 531.01,296.03C548.95,297.37 566.85,299.92 584.25,304.62C604.87,310.52 624.66,319.1 643.37,329.54C671.64,346.6 697.21,368.61 716.83,395.22C716.64,396.12 716.08,396.7 715.14,396.96C700.71,401.18 685.94,404.1 671.23,407.22C657.75,410.11 643.96,411.08 630.42,413.49C621.89,417.46 612.38,417.36 603.21,418.36C539.75,422.67 475.47,418 413.73,402.34C392.4,398.28 371.74,391.41 351.02,385.04C344.82,383.54 338.98,380.91 332.89,379.05C330.78,378.36 328.59,377.65 326.93,376.11C332.23,368.73 339.63,363.35 346.12,357.11C357.86,347.31 370.1,338 383.26,330.16C398.52,321.28 414.77,314.19 431.43,308.38Z" style="fill:rgb(136,0,27);fill-rule:nonzero;"/>
    </g>
    <g id="_-b8b0b159" serif:id="#b8b0b159">
        <path d="M296.14,414.92C296.43,415.15 297.02,415.6 297.32,415.83C297.01,416.05 296.39,416.48 296.08,416.7C296.09,416.25 296.12,415.37 296.14,414.92Z" style="fill:rgb(184,176,177);fill-opacity:0.35;fill-rule:nonzero;"/>
    </g>
</svg>
