<?xml version="1.0" encoding="UTF-8" standalone="no"?>
<!DOCTYPE svg PUBLIC "-//W3C//DTD SVG 1.1//EN" "http://www.w3.org/Graphics/SVG/1.1/DTD/svg11.dtd">
<svg width="100%" height="100%" viewBox="0 0 1024 1024" version="1.1" xmlns="http://www.w3.org/2000/svg" xmlns:xlink="http://www.w3.org/1999/xlink" xml:space="preserve" xmlns:serif="http://www.serif.com/" style="fill-rule:evenodd;clip-rule:evenodd;stroke-linejoin:round;stroke-miterlimit:2;">
    <g id="_-ffffffff" serif:id="#ffffffff">
        <path d="M463.58,8.8C475.6,6.46 487.81,5.6 499.97,4.51C505.68,4.72 511.34,4.22 517,3.54C526.36,3.71 535.81,2.85 545.11,4.22C575.42,5.5 605.03,14.13 632.83,25.94C642.67,30.75 652.43,35.76 661.86,41.34C676.26,51.04 691.02,60.36 703.86,72.14C709.52,76.47 714.13,81.97 719.8,86.29C728.08,94.65 736.88,102.55 744.35,111.67C758.46,127.11 769.8,144.8 780.36,162.77C788.54,178.81 796.43,195.33 799.87,213.12C802.83,225.08 805.26,237.2 806.59,249.46C813.71,254.57 820.91,259.68 826.84,266.21C838.26,277.12 845.36,292.25 846.47,308C846.64,314.97 846.59,321.95 846.42,328.93C845.78,336.04 843.85,342.97 842.1,349.87C838.35,362.42 835.31,375.16 831.3,387.63C823.41,421.86 811.65,455.05 802.21,488.86C799,497.89 796.86,507.51 791.27,515.47C787.7,521.39 782.55,526.07 777.69,530.9C771.93,536.45 764.81,540.27 757.62,543.63C755.57,544.24 755.28,546.57 754.34,548.19C751.74,553.06 750.02,558.33 747.38,563.18C744.77,568.66 741.74,573.93 739.33,579.5C735.16,591.06 728.8,601.65 723.67,612.78C719.4,625.16 712.36,636.39 708.19,648.8C708.9,654.85 709.48,660.93 710.38,666.98C719.26,669.91 727.9,673.53 736.48,677.23C749.93,682.15 763.08,687.86 776.18,693.64C781.44,696.49 787.39,697.65 792.81,700.17C802.25,704.39 811.94,708.05 821.22,712.62C843.07,721.96 865.47,729.97 887.19,739.65C896.14,743.82 905.3,747.53 914.08,752.07C926.89,758.65 935.46,772.58 935.5,787C935.85,795.38 933.27,803.63 928.97,810.76C922.89,820.33 916.48,829.69 909.3,838.48C900.87,848.64 892.75,859.24 882.39,867.56C877.17,871.21 872.71,875.79 867.6,879.6C851.28,891.29 835.73,904.11 818.41,914.35C812.35,917.82 807.21,922.68 801.03,925.98C786.6,935.24 771.9,944.13 756.5,951.68C749.38,954.53 743.17,959.16 736.22,962.37C726.14,967.4 716.16,972.7 705.49,976.39C696.28,980.29 687.24,984.62 677.78,987.91C664.96,993.02 651.56,996.43 638.44,1000.65C628.78,1003.31 619.15,1006.37 609.18,1007.62C587.77,1012.55 566.01,1016.2 544.11,1017.93C538.01,1019.05 531.78,1018.07 525.67,1018.86C519.53,1019.92 513.27,1019.38 507.07,1019.51C501.33,1019.37 495.56,1019.85 489.85,1019.08C482.94,1017.88 475.84,1019.18 468.94,1017.8C447.9,1016.18 427.08,1012.33 406.49,1007.73C389.16,1004.79 372.48,999.06 355.87,993.45C338.77,988.07 322.56,980.32 306.21,973.08C295.6,967.66 284.74,962.72 274.48,956.66C264.97,950.62 254.88,945.55 245.23,939.71C237.87,934.77 230.45,929.92 223.12,924.93C210.55,914.66 196.5,906.35 184.13,895.83C177.75,890.87 172.51,884.58 165.61,880.28C159.89,875.73 154.34,870.95 149.12,865.84C143.9,861.79 139.36,856.98 134.73,852.29C124.72,841.15 118.06,827.57 111.71,814.15C108.15,805.14 104.08,795.89 104.48,786C104.18,775.96 107.64,765.82 114.31,758.28C118.61,753.04 124.67,749.81 130.18,746.06C136.44,742.73 142.79,739.06 149.94,738.08C151.45,737.79 153.01,737.71 154.48,737.24C164.87,733.32 174.96,728.59 185.6,725.36C191.35,723.2 196.96,720.68 202.84,718.87C219.58,712.3 236.03,705.01 252.82,698.58C260.64,696.05 268.37,693.17 275.8,689.65C289.6,683.59 303.92,678.82 317.78,672.9C318.46,668.96 318.7,664.96 318.84,660.98C307.08,639.25 296.6,616.85 287.03,594.08C285.2,590.03 283.51,585.91 282.07,581.7C279.82,573.95 275.11,567.24 272.15,559.77C270.54,555.49 268.05,551.61 266.56,547.28C255.21,540.91 244.06,533.39 236.18,522.83C231.2,516.56 226.51,509.9 223.43,502.48C217.1,485.61 211.47,468.47 206.44,451.17C201.59,429.8 194.32,409.04 190.28,387.48C188.2,379.89 186.73,372.16 184.77,364.53C182.75,354.71 179.97,345.03 178.66,335.08C178.27,328.07 178.45,321.05 178.47,314.03C178.25,305.4 181.05,297.1 183.84,289.05C187.42,279.13 194.34,270.98 200.84,262.87C205.35,257.69 210.3,252.85 216,248.99C220.64,240.31 223.49,230.79 227.98,222.03C232.13,212.5 236.36,203 241.14,193.75C244.66,186.12 247.74,178.29 251.61,170.82C258.79,153.63 268.44,137.54 279.4,122.5C286.35,112.22 292.32,101.15 301.13,92.27C310.69,82.76 319.98,72.96 329.89,63.81C344.69,52.53 360.12,41.71 377.45,34.65C388.97,29.74 400.33,24.31 412.52,21.24C429.21,15.87 446.2,11.33 463.58,8.8M500.72,45.77C475.46,47.84 450.07,51.54 426.04,59.89C428.42,66.33 431.65,72.41 434.07,78.84C436.28,83.8 437.65,89.13 440.18,93.95C447.51,92.2 454.7,89.88 462.1,88.39C480.29,84.73 498.81,82.58 517.34,82.17C518.61,77.88 518.01,73.38 518.24,68.99C518.73,61.08 519.95,53.24 520.4,45.32C513.85,44.08 507.3,45.94 500.72,45.77M588.63,53.31C584.43,64.81 581.25,76.66 577.32,88.26C584.75,91.02 592.35,93.35 599.56,96.7C618.68,105.55 636.37,117.34 652.37,131.01C652.8,130.87 653.66,130.57 654.09,130.42C660.86,120.79 667.73,111.23 674.74,101.77C666.89,94.62 658.12,88.54 649.42,82.46C630.59,70.11 610.39,59.46 588.63,53.31M307.24,154.91C318.83,159.33 328.13,167.64 337.92,174.94C349.56,156.22 362.63,137.98 379.94,124.07C377.75,120.65 375.13,117.56 372.6,114.39C367.31,108.08 362.93,101.02 357.19,95.1C336.97,111.66 320.28,132.33 307.24,154.91M712.71,158.9C707.62,164.95 701.45,169.94 695.33,174.89C706.47,189.61 715.62,205.93 721.51,223.46C722.82,226.98 723.46,230.73 724.98,234.17C733.7,232.25 742.21,229.44 750.95,227.56C754.06,226.58 757.85,226.47 760.14,223.86C753.27,196.62 739.66,171.28 722.12,149.41C718.79,152.37 715.59,155.5 712.71,158.9M277.07,213.13C269.56,230.01 261.82,246.79 254.66,263.82C252.83,267.85 251.83,272.17 250.86,276.47C241.21,280.98 232.6,287.79 226.52,296.59C219.53,306.3 217.5,319.03 219.59,330.68C221.32,330.82 223.06,330.99 224.79,330.7C235.07,329.06 245.26,326.92 255.55,325.3C256,322.09 255.97,318.58 258.15,315.94C261.65,311.51 267.37,309.94 271.97,306.99C278.84,302.98 285.05,296.89 286.99,288.96C288.2,285.1 287.45,280.85 289.18,277.14C296.19,261.15 302.98,245.05 310.54,229.31C305.73,226.15 300.16,224.52 295.09,221.86C289,219.12 283.33,215.48 277.07,213.13M754.31,286.28C748.41,288.43 742.1,288.92 736.1,290.69C737.54,295.16 740.43,298.97 743.96,302.01C751.4,308.13 760.32,312.21 767.83,318.25C769.44,319.09 768.47,320.84 768.27,322.19C762.63,343.96 756.46,365.59 750.54,387.28C757.06,388.83 763.75,389.7 770.13,391.82C775.61,393.16 780.57,396.21 786.2,396.97C792.44,375.05 798.55,353.09 804.22,331.01C806.14,323.31 807.35,315.01 804.76,307.31C802.16,298.82 795.59,292.25 788.44,287.33C783.45,283.98 778.55,280.42 773.11,277.82C766.95,280.87 760.92,284.28 754.31,286.28M245.83,409.89C243.33,410.14 240.89,410.79 238.51,411.57C244.43,433.85 250.59,456.09 258.03,477.92C260.78,486.31 265.55,493.95 271.52,500.43C278.81,508.02 288.62,512.32 298.39,515.75C305.99,505.6 313.72,495.56 321.66,485.67C317.78,480.97 311.73,479.01 305.86,478.38C300.75,477.91 296.62,474.03 294.57,469.53C292.06,464.03 290.63,458.14 288.68,452.44C284.5,439.07 280.56,425.62 277.06,412.05C276.4,410.41 276.39,408.19 274.72,407.22C265.07,407.8 255.43,408.78 245.83,409.89M734.96,442.44C731.6,452.19 728.82,462.14 725.6,471.94C719.08,473.31 712.12,473.61 706.3,477.19C703.53,478.95 700.35,480.76 698.96,483.87C706.51,491.75 714.74,498.98 723.36,505.67C725.14,506.89 726.86,508.47 729.05,508.9C742.81,507.84 755.84,498.38 760.2,485.12C763.18,476.09 766.11,467.03 768.79,457.9C769.28,456.17 766.85,455.73 765.72,455.2C755.13,451.81 744.85,447.52 734.96,442.44M675.28,532.28C669.03,546.23 662.19,559.92 656.27,574.01C659.73,576.19 663.08,578.66 666.98,580.04C674.56,582.67 682.15,585.38 689.21,589.22C691.38,585.83 693.1,582.17 694.65,578.46C700.76,565.22 707.15,552.11 712.92,538.72C702.44,532.06 692.98,523.98 682.49,517.35C679.7,522.13 677.82,527.36 675.28,532.28M342.23,547.21C333.93,551.39 325.07,554.53 317.1,559.35C324.19,576.78 332.14,593.9 339.78,611.11C340.73,613.31 341.96,615.38 343.37,617.32C349.51,614.96 355.83,613.15 362.04,611.03C367.31,609.18 372.88,608.16 377.85,605.53C369.88,587.69 361.7,569.94 354.08,551.95C352.81,549.15 351.88,546.16 350,543.7C347.26,544.5 344.78,545.96 342.23,547.21M633.77,623.43C630.49,629.46 628.03,636.09 627.77,643.01C627.94,647.74 629.32,652.33 629.93,657.01C632.64,673.96 632.99,691.26 636.84,708.03C638.36,714.87 641.55,721.52 647.03,726.07C651.91,730.69 658.92,731.18 665.18,732.5C668.6,721.78 671.56,710.91 674.57,700.08C675.82,697.95 673.56,696.85 672.29,695.59C669.47,681.05 669.09,666.17 666.61,651.58C666.23,647.88 664.45,643.98 666.36,640.41C655.93,633.97 644.31,629.7 633.77,623.43M361.12,659.13C360.88,659.38 360.39,659.89 360.15,660.15C358.84,672.73 357.9,685.38 356.74,697.99C356.05,701.94 359.12,704.86 361.07,707.89C366.76,715.99 371.07,724.92 375.64,733.66C379.41,731.56 383.15,729.27 386.03,726.01C390.6,721.18 392.35,714.49 393.01,708.05C394.67,691.58 396.01,675.08 397.37,658.58C390.66,657.17 383.77,658.1 376.99,658.28C371.72,658.85 366.34,658.2 361.12,659.13M724.93,717.25C719.89,728.25 715.24,739.44 710.51,750.58C718.64,754.76 727.31,757.75 735.69,761.37C747.84,766.61 760.18,771.39 772.33,776.63C774.12,769.76 775.01,762.69 776.96,755.86C778.2,750.7 780.48,745.88 781.89,740.78C775.82,737.72 769.45,735.35 763.19,732.72C750.45,727.55 737.88,721.89 724.93,717.25M254.24,742.76C257.71,751.67 261.87,760.3 265.59,769.12C266.56,771.71 267.78,774.21 269.37,776.5C287.51,768.6 306.36,762.37 324.34,754.13C320.96,743.41 317.41,732.75 313.91,722.08C313.49,720.95 312.83,718.82 311.2,719.92C292.26,727.64 273.02,734.65 254.24,742.76M169.16,776.03C160.8,779.98 153,785.16 144.07,787.85C148.65,797.43 155.01,806.03 161.33,814.52C169.78,812.48 177.92,809.38 185.92,806.06C193.3,804.73 200.09,801.51 207.15,799.14C211.33,797.68 215.73,796.96 219.9,795.44C214.86,784.36 210.26,773.06 207.18,761.26C194.32,765.67 181.86,771.18 169.16,776.03M832.82,761.76C829.67,766.31 827.67,771.5 825.48,776.55C822.75,782.74 821.29,789.49 817.64,795.26C823.95,798.62 830.77,800.85 837.26,803.83C831.04,808.91 824.69,813.84 818.35,818.77C822.07,825.19 827.53,830.25 832.18,835.97C835.4,839.63 838.16,843.66 841.14,847.53C853.74,838.46 865.44,828.18 877.64,818.62C883.78,808.61 889.4,798.25 894.95,787.9C874.37,778.9 853.49,770.57 832.82,761.76M204.14,815.13C197.24,823.63 191.89,833.3 184.75,841.61C188.64,846.3 193.63,849.84 198.16,853.87C212.8,866.05 227.98,877.58 243.41,888.74C249.51,878.05 254.78,866.87 261.58,856.57C257.18,852.86 252.38,849.68 247.85,846.15C234.67,836.34 221.94,825.93 209.62,815.08C208.08,813.52 205.47,813 204.14,815.13M748.51,866.5C740.55,871.42 732.27,875.76 724.32,880.68C730.13,891.45 734.63,902.85 739.86,913.9C761.21,902.65 781.73,889.81 801.64,876.19C795.28,865.68 787.65,855.99 779.1,847.19C768.88,853.59 758.89,860.36 748.51,866.5M310.7,887.44C305.67,897.49 301.97,908.15 297.3,918.38C296.48,919.92 296.07,922.2 298.28,922.79C315.53,931.98 333.11,940.64 351.33,947.78C361.73,951.83 372.13,956.07 382.92,958.98C385.27,956.5 385.48,952.77 386.78,949.72C389.36,941.35 392.93,933.31 395.31,924.88C393.08,923.42 390.49,922.74 388.01,921.91C361.25,912.86 335.36,901.24 310.7,887.44M600.02,929.98C598.31,930.53 596.2,930.6 594.96,932.04C594.48,937.88 595.37,943.76 596.14,949.55C597.66,955.64 599.87,961.54 601.93,967.47C623.8,962.72 645.21,956 666.15,948.12C673.98,944.92 682.1,942.3 689.56,938.24C686.01,926.56 682.26,914.58 675.06,904.57C650.77,915 625.75,923.82 600.02,929.98M450.86,937.85C450.47,946.26 449.22,954.59 448.58,962.98C448.13,966.72 447.44,970.53 448.42,974.27C466.17,976.81 484.08,978.46 502.02,978.38C514.45,978.38 526.91,978.57 539.29,977.21C539.49,976.71 539.9,975.72 540.11,975.23C536.9,963.85 534.56,952.27 532.16,940.71C524.11,940.91 516.07,941.3 508.03,941.59C489.43,941.26 470.81,940.24 452.42,937.32C452.03,937.46 451.25,937.72 450.86,937.85Z" style="fill:white;fill-rule:nonzero;"/>
    </g>
    <g id="_-0095ffff" serif:id="#0095ffff">
        <path d="M500.72,45.77C507.3,45.94 513.85,44.08 520.4,45.32C519.95,53.24 518.73,61.08 518.24,68.99C518.01,73.38 518.61,77.88 517.34,82.17C498.81,82.58 480.29,84.73 462.1,88.39C454.7,89.88 447.51,92.2 440.18,93.95C437.65,89.13 436.28,83.8 434.07,78.84C431.65,72.41 428.42,66.33 426.04,59.89C450.07,51.54 475.46,47.84 500.72,45.77Z" style="fill:rgb(136,0,27);fill-rule:nonzero;"/>
        <path d="M588.63,53.31C610.39,59.46 630.59,70.11 649.42,82.46C658.12,88.54 666.89,94.62 674.74,101.77C667.73,111.23 660.86,120.79 654.09,130.42C653.66,130.57 652.8,130.87 652.37,131.01C636.37,117.34 618.68,105.55 599.56,96.7C592.35,93.35 584.75,91.02 577.32,88.26C581.25,76.66 584.43,64.81 588.63,53.31Z" style="fill:rgb(136,0,27);fill-rule:nonzero;"/>
        <path d="M307.24,154.91C320.28,132.33 336.97,111.66 357.19,95.1C362.93,101.02 367.31,108.08 372.6,114.39C375.13,117.56 377.75,120.65 379.94,124.07C362.63,137.98 349.56,156.22 337.92,174.94C328.13,167.64 318.83,159.33 307.24,154.91Z" style="fill:rgb(136,0,27);fill-rule:nonzero;"/>
        <path d="M712.71,158.9C715.59,155.5 718.79,152.37 722.12,149.41C739.66,171.28 753.27,196.62 760.14,223.86C757.85,226.47 754.06,226.58 750.95,227.56C742.21,229.44 733.7,232.25 724.98,234.17C723.46,230.73 722.82,226.98 721.51,223.46C715.62,205.93 706.47,189.61 695.33,174.89C701.45,169.94 707.62,164.95 712.71,158.9Z" style="fill:rgb(136,0,27);fill-rule:nonzero;"/>
        <path d="M277.07,213.13C283.33,215.48 289,219.12 295.09,221.86C300.16,224.52 305.73,226.15 310.54,229.31C302.98,245.05 296.19,261.15 289.18,277.14C287.45,280.85 288.2,285.1 286.99,288.96C285.05,296.89 278.84,302.98 271.97,306.99C267.37,309.94 261.65,311.51 258.15,315.94C255.97,318.58 256,322.09 255.55,325.3C245.26,326.92 235.07,329.06 224.79,330.7C223.06,330.99 221.32,330.82 219.59,330.68C217.5,319.03 219.53,306.3 226.52,296.59C232.6,287.79 241.21,280.98 250.86,276.47C251.83,272.17 252.83,267.85 254.66,263.82C261.82,246.79 269.56,230.01 277.07,213.13Z" style="fill:rgb(136,0,27);fill-rule:nonzero;"/>
        <path d="M754.31,286.28C760.92,284.28 766.95,280.87 773.11,277.82C778.55,280.42 783.45,283.98 788.44,287.33C795.59,292.25 802.16,298.82 804.76,307.31C807.35,315.01 806.14,323.31 804.22,331.01C798.55,353.09 792.44,375.05 786.2,396.97C780.57,396.21 775.61,393.16 770.13,391.82C763.75,389.7 757.06,388.83 750.54,387.28C756.46,365.59 762.63,343.96 768.27,322.19C768.47,320.84 769.44,319.09 767.83,318.25C760.32,312.21 751.4,308.13 743.96,302.01C740.43,298.97 737.54,295.16 736.1,290.69C742.1,288.92 748.41,288.43 754.31,286.28Z" style="fill:rgb(136,0,27);fill-rule:nonzero;"/>
        <path d="M245.83,409.89C255.43,408.78 265.07,407.8 274.72,407.22C276.39,408.19 276.4,410.41 277.06,412.05C280.56,425.62 284.5,439.07 288.68,452.44C290.63,458.14 292.06,464.03 294.57,469.53C296.62,474.03 300.75,477.91 305.86,478.38C311.73,479.01 317.78,480.97 321.66,485.67C313.72,495.56 305.99,505.6 298.39,515.75C288.62,512.32 278.81,508.02 271.52,500.43C265.55,493.95 260.78,486.31 258.03,477.92C250.59,456.09 244.43,433.85 238.51,411.57C240.89,410.79 243.33,410.14 245.83,409.89Z" style="fill:rgb(136,0,27);fill-rule:nonzero;"/>
        <path d="M734.96,442.44C744.85,447.52 755.13,451.81 765.72,455.2C766.85,455.73 769.28,456.17 768.79,457.9C766.11,467.03 763.18,476.09 760.2,485.12C755.84,498.38 742.81,507.84 729.05,508.9C726.86,508.47 725.14,506.89 723.36,505.67C714.74,498.98 706.51,491.75 698.96,483.87C700.35,480.76 703.53,478.95 706.3,477.19C712.12,473.61 719.08,473.31 725.6,471.94C728.82,462.14 731.6,452.19 734.96,442.44Z" style="fill:rgb(136,0,27);fill-rule:nonzero;"/>
        <path d="M675.28,532.28C677.82,527.36 679.7,522.13 682.49,517.35C692.98,523.98 702.44,532.06 712.92,538.72C707.15,552.11 700.76,565.22 694.65,578.46C693.1,582.17 691.38,585.83 689.21,589.22C682.15,585.38 674.56,582.67 666.98,580.04C663.08,578.66 659.73,576.19 656.27,574.01C662.19,559.92 669.03,546.23 675.28,532.28Z" style="fill:rgb(136,0,27);fill-rule:nonzero;"/>
        <path d="M342.23,547.21C344.78,545.96 347.26,544.5 350,543.7C351.88,546.16 352.81,549.15 354.08,551.95C361.7,569.94 369.88,587.69 377.85,605.53C372.88,608.16 367.31,609.18 362.04,611.03C355.83,613.15 349.51,614.96 343.37,617.32C341.96,615.38 340.73,613.31 339.78,611.11C332.14,593.9 324.19,576.78 317.1,559.35C325.07,554.53 333.93,551.39 342.23,547.21Z" style="fill:rgb(136,0,27);fill-rule:nonzero;"/>
        <path d="M633.77,623.43C644.31,629.7 655.93,633.97 666.36,640.41C664.45,643.98 666.23,647.88 666.61,651.58C669.09,666.17 669.47,681.05 672.29,695.59C673.56,696.85 675.82,697.95 674.57,700.08C671.56,710.91 668.6,721.78 665.18,732.5C658.92,731.18 651.91,730.69 647.03,726.07C641.55,721.52 638.36,714.87 636.84,708.03C632.99,691.26 632.64,673.96 629.93,657.01C629.32,652.33 627.94,647.74 627.77,643.01C628.03,636.09 630.49,629.46 633.77,623.43Z" style="fill:rgb(136,0,27);fill-rule:nonzero;"/>
        <path d="M361.12,659.13C366.34,658.2 371.72,658.85 376.99,658.28C383.77,658.1 390.66,657.17 397.37,658.58C396.01,675.08 394.67,691.58 393.01,708.05C392.35,714.49 390.6,721.18 386.03,726.01C383.15,729.27 379.41,731.56 375.64,733.66C371.07,724.92 366.76,715.99 361.07,707.89C359.12,704.86 356.05,701.94 356.74,697.99C357.9,685.38 358.84,672.73 360.15,660.15C360.39,659.89 360.88,659.38 361.12,659.13Z" style="fill:rgb(136,0,27);fill-rule:nonzero;"/>
        <path d="M724.93,717.25C737.88,721.89 750.45,727.55 763.19,732.72C769.45,735.35 775.82,737.72 781.89,740.78C780.48,745.88 778.2,750.7 776.96,755.86C775.01,762.69 774.12,769.76 772.33,776.63C760.18,771.39 747.84,766.61 735.69,761.37C727.31,757.75 718.64,754.76 710.51,750.58C715.24,739.44 719.89,728.25 724.93,717.25Z" style="fill:rgb(136,0,27);fill-rule:nonzero;"/>
        <path d="M254.24,742.76C273.02,734.65 292.26,727.64 311.2,719.92C312.83,718.82 313.49,720.95 313.91,722.08C317.41,732.75 320.96,743.41 324.34,754.13C306.36,762.37 287.51,768.6 269.37,776.5C267.78,774.21 266.56,771.71 265.59,769.12C261.87,760.3 257.71,751.67 254.24,742.76Z" style="fill:rgb(136,0,27);fill-rule:nonzero;"/>
        <path d="M169.16,776.03C181.86,771.18 194.32,765.67 207.18,761.26C210.26,773.06 214.86,784.36 219.9,795.44C215.73,796.96 211.33,797.68 207.15,799.14C200.09,801.51 193.3,804.73 185.92,806.06C177.92,809.38 169.78,812.48 161.33,814.52C155.01,806.03 148.65,797.43 144.07,787.85C153,785.16 160.8,779.98 169.16,776.03Z" style="fill:rgb(136,0,27);fill-rule:nonzero;"/>
        <path d="M832.82,761.76C853.49,770.57 874.37,778.9 894.95,787.9C889.4,798.25 883.78,808.61 877.64,818.62C865.44,828.18 853.74,838.46 841.14,847.53C838.16,843.66 835.4,839.63 832.18,835.97C827.53,830.25 822.07,825.19 818.35,818.77C824.69,813.84 831.04,808.91 837.26,803.83C830.77,800.85 823.95,798.62 817.64,795.26C821.29,789.49 822.75,782.74 825.48,776.55C827.67,771.5 829.67,766.31 832.82,761.76Z" style="fill:rgb(136,0,27);fill-rule:nonzero;"/>
        <path d="M204.14,815.13C205.47,813 208.08,813.52 209.62,815.08C221.94,825.93 234.67,836.34 247.85,846.15C252.38,849.68 257.18,852.86 261.58,856.57C254.78,866.87 249.51,878.05 243.41,888.74C227.98,877.58 212.8,866.05 198.16,853.87C193.63,849.84 188.64,846.3 184.75,841.61C191.89,833.3 197.24,823.63 204.14,815.13Z" style="fill:rgb(136,0,27);fill-rule:nonzero;"/>
        <path d="M748.51,866.5C758.89,860.36 768.88,853.59 779.1,847.19C787.65,855.99 795.28,865.68 801.64,876.19C781.73,889.81 761.21,902.65 739.86,913.9C734.63,902.85 730.13,891.45 724.32,880.68C732.27,875.76 740.55,871.42 748.51,866.5Z" style="fill:rgb(136,0,27);fill-rule:nonzero;"/>
        <path d="M310.7,887.44C335.36,901.24 361.25,912.86 388.01,921.91C390.49,922.74 393.08,923.42 395.31,924.88C392.93,933.31 389.36,941.35 386.78,949.72C385.48,952.77 385.27,956.5 382.92,958.98C372.13,956.07 361.73,951.83 351.33,947.78C333.11,940.64 315.53,931.98 298.28,922.79C296.07,922.2 296.48,919.92 297.3,918.38C301.97,908.15 305.67,897.49 310.7,887.44Z" style="fill:rgb(136,0,27);fill-rule:nonzero;"/>
        <path d="M600.02,929.98C625.75,923.82 650.77,915 675.06,904.57C682.26,914.58 686.01,926.56 689.56,938.24C682.1,942.3 673.98,944.92 666.15,948.12C645.21,956 623.8,962.72 601.93,967.47C599.87,961.54 597.66,955.64 596.14,949.55C595.37,943.76 594.48,937.88 594.96,932.04C596.2,930.6 598.31,930.53 600.02,929.98Z" style="fill:rgb(136,0,27);fill-rule:nonzero;"/>
        <path d="M450.86,937.85C451.25,937.72 452.03,937.46 452.42,937.32C470.81,940.24 489.43,941.26 508.03,941.59C516.07,941.3 524.11,940.91 532.16,940.71C534.56,952.27 536.9,963.85 540.11,975.23C539.9,975.72 539.49,976.71 539.29,977.21C526.91,978.57 514.45,978.38 502.02,978.38C484.08,978.46 466.17,976.81 448.42,974.27C447.44,970.53 448.13,966.72 448.58,962.98C449.22,954.59 450.47,946.26 450.86,937.85Z" style="fill:rgb(136,0,27);fill-rule:nonzero;"/>
    </g>
</svg>
