<?xml version="1.0" encoding="UTF-8" ?>
<!DOCTYPE svg PUBLIC "-//W3C//DTD SVG 1.1//EN" "http://www.w3.org/Graphics/SVG/1.1/DTD/svg11.dtd">
<svg width="1024pt" height="1024pt" viewBox="0 0 1024 1024" version="1.1" xmlns="http://www.w3.org/2000/svg">
<g id="#ffffffff">
<path fill="#ffffff" opacity="1.00" d=" M 325.88 6.34 C 339.22 3.95 352.99 3.78 366.34 6.22 C 369.38 6.67 372.54 6.25 375.49 7.33 C 392.82 11.42 409.61 19.04 422.82 31.16 C 430.56 39.13 439.41 46.34 444.67 56.33 C 454.74 71.31 461.73 88.71 462.66 106.85 C 464.70 116.87 463.27 127.14 462.42 137.18 C 467.92 139.90 472.23 145.08 478.47 146.13 C 493.62 149.15 508.70 152.52 523.78 155.92 C 533.64 158.87 543.72 160.96 553.82 162.97 C 574.83 167.81 596.10 171.53 616.96 177.04 C 625.50 179.27 633.38 183.36 640.51 188.49 C 645.97 192.70 652.24 195.91 656.85 201.16 C 665.66 209.32 672.92 219.31 676.90 230.71 C 680.57 241.67 682.16 253.15 684.83 264.37 C 690.08 290.43 696.86 316.21 700.89 342.51 C 703.35 352.36 705.75 362.22 708.31 372.04 C 708.86 380.02 708.62 388.05 708.49 396.04 C 707.03 407.96 701.22 418.77 694.52 428.54 C 690.55 434.12 686.03 439.43 680.36 443.36 C 675.14 446.88 669.99 450.70 663.94 452.67 C 658.78 454.31 653.65 456.54 648.16 456.58 C 646.81 456.64 645.55 457.16 644.26 457.49 C 646.05 461.22 645.06 465.40 646.12 469.28 C 649.56 500.38 653.28 531.43 656.64 562.54 C 658.46 565.63 660.98 568.23 663.39 570.87 C 679.86 560.07 699.70 556.18 718.96 554.44 C 731.54 554.52 744.18 553.86 756.72 554.86 C 773.01 556.23 789.16 559.93 804.61 565.36 C 811.45 568.87 818.88 571.04 825.62 574.77 C 835.12 579.28 844.43 584.63 851.91 592.13 C 868.38 605.06 880.97 623.47 885.03 644.18 C 887.35 652.26 886.48 660.71 886.58 669.00 C 886.73 673.45 885.51 677.78 884.38 682.05 C 888.23 685.75 892.00 689.55 895.68 693.43 C 901.40 693.44 907.16 693.15 912.87 693.71 C 915.52 694.44 918.27 694.47 921.02 694.59 C 927.49 695.75 934.01 697.20 940.01 699.99 C 947.24 703.60 954.71 706.88 961.11 711.92 C 971.70 719.25 979.99 729.67 985.24 741.40 C 989.16 748.07 990.34 755.79 992.33 763.15 C 992.88 774.07 992.74 785.03 992.43 795.95 C 990.35 807.12 987.46 818.30 981.89 828.29 C 978.41 835.96 973.91 843.10 968.83 849.80 C 959.33 864.01 946.44 875.52 933.40 886.37 C 908.88 905.76 880.06 920.16 849.13 925.60 C 844.81 926.96 840.22 926.13 835.88 927.31 C 828.27 927.83 820.60 927.70 812.98 927.42 C 809.29 926.53 805.52 926.45 801.75 926.32 C 799.18 935.51 795.28 944.29 790.55 952.57 C 784.91 962.81 776.62 971.23 768.30 979.32 C 760.30 986.48 751.31 992.47 741.89 997.59 C 733.09 1001.87 724.54 1006.76 715.24 1009.90 C 704.55 1013.36 693.60 1016.04 682.49 1017.73 C 678.39 1018.83 674.08 1018.28 669.98 1019.42 C 654.99 1019.87 639.98 1019.64 624.99 1019.58 C 593.97 1017.51 562.54 1007.78 538.25 987.76 C 533.48 984.21 529.23 980.05 525.11 975.79 C 518.84 984.00 510.43 990.34 501.60 995.57 C 491.09 1002.35 479.88 1008.16 467.84 1011.69 C 456.45 1014.79 444.96 1017.84 433.17 1018.63 C 427.88 1019.96 422.40 1019.53 417.00 1019.63 C 404.66 1019.71 392.32 1019.66 379.99 1019.58 C 356.74 1018.04 333.68 1013.08 311.70 1005.17 C 297.73 998.97 283.62 992.72 271.02 983.96 C 247.18 969.21 228.27 946.41 218.31 920.21 C 214.27 921.47 210.17 922.62 206.02 923.43 C 194.34 923.82 182.64 923.71 170.96 923.53 C 158.75 922.49 147.21 918.06 135.70 914.17 C 129.32 911.42 123.22 908.06 116.98 905.00 C 108.25 900.00 100.28 893.82 92.28 887.75 C 87.81 883.18 82.24 879.78 78.37 874.63 C 76.12 871.58 73.33 869.00 70.66 866.34 C 64.11 860.03 59.73 851.96 54.25 844.79 C 44.80 829.54 37.44 812.73 34.53 794.97 C 34.62 792.26 34.07 789.62 33.58 786.99 C 33.04 775.99 33.04 764.97 33.59 753.98 C 35.09 745.11 36.82 736.08 40.96 727.99 C 44.50 721.09 47.46 713.66 53.16 708.17 C 58.44 703.09 63.18 697.31 69.46 693.40 C 77.56 687.70 86.51 683.16 96.01 680.34 C 104.79 677.12 114.14 675.76 123.48 676.47 C 123.50 670.07 122.71 663.46 124.65 657.26 C 125.75 653.37 126.42 649.35 127.87 645.56 C 133.12 633.67 139.35 621.92 148.66 612.66 C 153.94 607.57 158.72 601.82 165.07 597.99 C 175.07 590.94 186.25 585.89 197.16 580.46 C 210.39 575.52 223.98 571.39 237.98 569.36 C 242.58 568.09 247.41 568.78 252.02 567.58 C 264.00 567.15 276.00 567.28 287.99 567.36 C 291.78 567.47 295.63 567.20 299.33 568.22 C 309.49 568.64 319.31 571.81 329.02 574.59 C 331.94 573.89 334.79 572.92 337.74 572.38 C 337.16 565.28 337.47 558.15 337.36 551.03 C 335.64 540.47 336.50 529.65 336.57 518.98 C 339.55 503.64 346.36 488.58 357.69 477.60 C 342.13 477.67 326.56 477.65 311.00 477.64 C 306.28 477.35 301.71 478.89 296.99 478.59 C 272.31 478.57 247.63 478.83 222.95 478.49 C 216.18 477.44 209.41 475.56 203.37 472.23 C 195.62 468.57 188.05 464.16 182.16 457.84 C 174.24 450.51 169.53 440.60 165.08 430.95 C 162.22 423.32 160.99 415.14 161.37 407.00 C 160.20 386.70 169.44 366.81 183.66 352.65 C 193.84 342.74 207.11 336.44 220.94 333.57 C 225.33 333.20 229.81 333.83 234.12 332.69 C 238.73 332.22 243.37 332.44 248.00 332.38 C 268.42 332.39 288.84 332.35 309.26 332.40 C 309.61 298.52 309.10 264.64 309.54 230.77 C 304.68 229.52 300.23 227.19 295.79 224.93 C 283.84 219.38 273.43 211.07 263.66 202.35 C 257.74 196.18 252.58 189.29 247.84 182.18 C 239.23 167.21 232.25 150.73 231.22 133.33 C 229.72 125.34 230.50 117.10 230.58 109.01 C 231.80 104.79 231.03 100.30 232.44 96.12 C 234.28 88.33 236.52 80.62 239.46 73.17 C 243.85 63.48 249.38 54.29 255.79 45.80 C 260.36 40.70 265.36 36.01 270.22 31.19 C 279.47 23.42 289.75 16.67 301.07 12.33 C 309.16 9.73 317.27 6.38 325.88 6.34 M 340.36 46.27 C 318.73 48.15 298.11 59.99 286.01 78.06 C 277.70 89.67 273.50 103.82 272.82 118.00 C 272.37 140.43 282.85 162.72 300.31 176.78 C 311.10 185.36 324.16 191.20 337.93 192.58 C 350.55 194.75 363.52 191.93 375.34 187.46 C 393.21 179.81 407.65 164.85 415.13 146.96 C 417.86 139.90 419.19 132.41 420.18 124.94 C 421.99 99.35 409.48 73.08 387.98 58.91 C 374.24 49.29 357.04 44.86 340.36 46.27 M 408.74 177.80 C 397.08 185.13 385.58 192.70 373.93 200.03 C 371.68 201.41 369.67 203.15 368.00 205.21 C 361.10 211.14 356.24 219.35 353.77 228.07 C 352.01 233.88 352.63 240.01 352.56 245.99 C 352.52 260.34 352.43 274.68 352.39 289.03 C 352.41 291.68 351.91 294.30 351.80 296.95 C 351.56 322.73 351.88 348.53 351.27 374.28 C 343.66 375.31 335.91 374.09 328.29 375.04 C 326.55 375.28 324.80 375.37 323.05 375.38 C 296.02 375.45 268.99 375.59 241.96 375.68 C 239.26 375.63 236.61 376.17 233.93 376.36 C 226.03 376.59 218.27 380.12 212.89 385.91 C 208.07 390.71 205.52 397.38 204.64 404.03 C 203.89 413.84 208.53 423.75 216.30 429.73 C 222.61 434.87 230.99 436.85 239.01 436.44 C 263.88 436.06 288.77 436.57 313.62 435.69 C 319.74 436.22 325.87 436.19 332.00 436.04 C 347.28 435.47 362.58 435.69 377.87 435.37 C 391.03 435.16 403.75 426.04 407.12 413.14 C 408.66 406.62 411.68 400.46 412.30 393.73 C 412.95 374.43 411.96 355.06 413.34 335.79 C 423.18 348.68 432.28 362.15 441.75 375.32 C 442.79 376.65 444.02 377.82 445.27 378.96 C 456.04 394.38 467.02 409.65 477.95 424.95 C 478.72 426.17 479.69 427.37 479.86 428.86 C 477.76 432.05 474.17 433.85 471.51 436.54 C 457.53 448.55 443.49 460.48 429.50 472.49 C 417.42 483.00 404.94 493.06 393.11 503.85 C 387.45 507.19 383.30 512.70 380.86 518.74 C 377.78 525.85 378.44 533.77 378.91 541.31 C 379.82 549.50 379.23 557.77 380.07 565.96 C 380.76 573.61 380.27 581.31 381.05 588.96 C 381.78 596.61 381.25 604.33 382.03 611.99 C 382.79 619.63 382.23 627.34 383.04 634.99 C 383.46 639.33 383.49 643.70 383.55 648.07 C 383.54 655.07 384.65 662.01 384.52 669.02 C 384.37 676.71 385.61 684.34 385.53 692.03 C 385.40 699.72 386.67 707.34 386.53 715.04 C 386.40 721.73 387.43 728.38 387.49 735.07 C 387.48 742.44 389.85 749.82 394.29 755.72 C 401.90 765.87 416.11 770.36 428.13 766.17 C 437.15 763.05 444.64 755.71 447.49 746.54 C 450.93 736.28 448.23 725.45 448.40 714.93 C 445.80 658.62 443.32 602.29 440.98 545.97 C 440.77 542.46 444.11 540.34 445.90 537.74 C 477.23 511.30 508.22 484.46 539.44 457.89 C 541.39 464.21 541.11 470.99 542.24 477.49 C 546.15 511.55 550.27 545.60 554.15 579.66 C 555.07 587.10 557.49 594.28 557.78 601.81 C 559.58 613.74 569.80 621.15 577.05 629.80 C 605.32 659.58 633.10 689.80 661.31 719.62 C 666.91 726.34 673.50 732.14 679.22 738.76 C 683.80 744.14 689.11 748.86 693.71 754.24 C 695.70 756.51 697.65 758.86 699.97 760.82 C 703.34 766.24 709.64 768.81 715.54 770.41 C 727.24 773.35 740.37 768.06 747.14 758.14 C 752.82 750.11 754.14 739.27 750.80 730.05 C 748.16 723.34 743.70 717.22 737.78 713.03 C 709.66 683.23 681.73 653.22 653.71 623.31 C 647.90 616.50 641.15 610.55 635.43 603.66 C 629.19 597.19 622.99 590.68 616.88 584.10 C 615.10 577.53 614.89 570.69 613.99 563.99 C 609.83 527.26 605.45 490.57 601.13 453.86 C 600.84 452.18 600.37 450.54 599.86 448.92 C 599.35 443.33 598.51 437.78 597.99 432.20 C 596.38 422.38 596.73 411.98 592.42 402.80 C 590.36 398.12 586.20 394.84 583.96 390.28 C 579.91 381.99 573.96 374.87 568.94 367.19 C 545.01 332.82 521.16 298.40 497.13 264.12 C 496.08 261.73 494.97 259.39 493.90 257.02 C 498.97 257.62 503.94 258.87 508.93 259.97 C 531.91 264.93 554.89 269.96 577.82 275.16 C 580.60 275.44 580.85 278.59 581.46 280.71 C 586.77 305.92 592.59 331.02 598.02 356.20 C 598.47 358.20 599.19 360.13 599.99 362.02 L 600.17 362.83 C 600.56 370.29 602.89 377.45 604.27 384.75 C 605.73 392.23 608.10 399.89 613.47 405.54 C 620.66 413.58 632.31 417.14 642.79 414.69 C 647.36 413.55 652.18 411.81 655.07 407.86 C 662.46 401.93 666.33 392.40 666.17 383.05 C 665.40 376.24 663.73 369.58 662.27 362.90 C 654.23 327.24 646.37 291.55 638.49 255.86 C 637.01 248.07 634.49 240.00 628.70 234.29 C 624.61 229.78 618.86 227.42 614.15 223.68 C 609.18 219.89 603.12 217.97 597.08 216.71 C 574.74 211.84 552.42 206.89 530.08 202.00 C 526.35 200.38 522.34 199.60 518.38 198.80 C 499.78 194.69 481.21 190.43 462.57 186.51 C 459.59 185.84 456.53 185.43 453.70 184.26 C 451.40 183.00 449.74 180.91 447.78 179.23 C 442.72 174.52 435.87 171.99 429.03 171.61 C 421.78 171.25 414.80 174.04 408.74 177.80 M 483.64 572.78 C 482.70 578.09 483.09 583.54 483.22 588.91 C 484.95 597.05 483.40 605.43 484.54 613.63 C 495.29 611.71 506.16 610.87 517.08 611.23 C 516.56 607.57 516.03 603.92 515.70 600.24 C 513.23 590.53 512.84 580.45 511.26 570.60 C 502.01 570.65 492.86 572.25 483.64 572.78 M 692.93 604.02 C 696.76 608.83 701.45 612.87 705.72 617.28 C 709.33 620.69 712.10 624.87 715.71 628.29 C 718.32 630.71 720.43 633.61 722.83 636.24 C 724.28 638.19 726.96 637.12 729.00 637.06 C 735.33 635.73 741.69 637.28 748.04 637.46 C 757.96 638.16 767.48 641.18 777.03 643.70 C 780.55 641.36 782.85 637.53 786.61 635.49 C 790.84 633.28 795.06 630.85 799.77 629.81 C 805.06 628.30 810.61 629.06 816.03 628.89 C 821.33 628.55 826.08 631.37 831.27 632.01 C 820.58 620.04 806.19 612.20 791.38 606.51 C 774.93 600.45 757.49 597.15 739.99 596.63 C 724.07 596.21 707.76 597.95 692.93 604.02 M 256.07 609.92 C 237.67 612.26 219.33 616.99 202.86 625.71 C 195.82 629.42 189.02 633.73 183.34 639.35 C 178.55 644.11 173.31 648.85 170.82 655.30 C 174.54 654.57 178.07 652.76 181.95 652.91 C 186.61 652.92 191.29 652.72 195.94 653.08 C 203.66 654.90 211.15 658.07 217.25 663.24 C 231.95 655.25 248.34 650.90 264.94 649.27 C 266.83 646.25 265.42 642.40 266.08 639.05 C 267.36 633.09 270.24 627.59 273.27 622.34 C 277.05 617.63 281.63 613.62 286.22 609.73 C 276.27 607.57 266.09 609.35 256.07 609.92 M 307.34 624.15 C 295.50 625.67 286.16 637.17 286.47 649.00 C 286.21 660.54 295.01 671.48 306.34 673.71 C 314.31 675.71 322.28 672.73 329.97 670.86 C 334.37 669.60 338.97 668.95 343.19 667.12 C 344.33 665.92 343.63 664.31 343.27 662.97 C 342.50 656.07 343.28 649.12 342.68 642.24 C 340.76 633.50 343.12 624.40 341.11 615.71 C 329.72 617.97 318.53 621.11 307.34 624.15 M 522.05 650.52 C 515.69 650.55 509.36 652.21 503.02 650.97 C 497.51 650.62 492.01 650.30 486.57 649.31 C 486.12 652.03 485.84 654.84 486.44 657.58 C 487.60 662.51 486.61 667.62 487.45 672.59 C 488.60 678.24 487.75 684.05 488.31 689.76 C 498.38 691.94 508.79 691.21 519.03 691.10 C 535.31 689.94 551.67 686.83 566.66 680.19 C 562.83 676.38 559.17 672.43 555.76 668.26 C 549.35 661.93 543.42 655.15 537.69 648.21 C 532.43 648.71 527.32 650.20 522.05 650.52 M 786.20 674.00 C 785.54 681.72 789.11 689.14 794.41 694.58 C 797.84 698.21 800.98 702.23 805.20 705.01 C 815.28 715.20 824.83 725.90 834.95 736.05 C 841.74 742.85 847.92 750.24 854.87 756.89 C 857.62 761.44 862.69 763.83 867.59 765.33 C 874.68 767.53 882.51 765.61 888.53 761.50 C 897.05 755.71 901.38 744.32 898.61 734.36 C 897.17 729.15 894.43 724.04 889.82 721.00 C 883.20 714.01 876.31 707.28 869.94 700.06 C 860.70 691.04 852.33 681.19 843.11 672.15 C 841.17 668.78 838.43 666.02 835.70 663.31 C 830.40 657.75 824.65 651.84 816.80 650.29 C 802.24 646.54 786.06 658.87 786.20 674.00 M 752.85 667.72 C 753.68 670.45 756.25 671.90 758.18 673.80 C 760.86 676.25 762.96 679.24 765.46 681.87 C 765.87 677.58 766.51 672.99 765.16 668.83 C 761.30 667.17 756.92 668.00 752.85 667.72 M 163.85 688.11 C 150.51 702.62 137.37 717.31 124.21 731.99 C 119.91 734.68 116.87 738.82 113.67 742.65 C 109.70 747.52 107.01 753.63 107.20 759.99 C 106.81 769.48 112.49 778.82 121.06 782.89 C 130.75 787.66 144.50 786.01 151.03 776.84 C 167.81 758.73 184.10 740.15 200.79 721.96 C 209.38 715.63 215.10 704.22 212.40 693.54 C 210.31 684.02 202.35 676.19 192.81 674.26 C 181.44 671.56 169.43 678.24 163.85 688.11 M 252.97 680.51 C 245.63 680.63 238.32 682.17 231.02 680.61 C 231.66 685.15 234.28 689.27 234.09 693.95 C 234.07 698.61 234.27 703.28 233.92 707.94 C 233.08 712.60 230.61 716.72 229.17 721.19 C 253.38 722.47 277.91 718.68 300.40 709.57 C 309.68 705.27 319.27 701.02 326.87 694.01 C 318.71 695.08 310.41 695.62 302.20 694.77 C 297.53 693.41 292.98 691.62 288.61 689.51 C 282.68 686.47 278.65 681.06 273.83 676.67 C 266.88 677.83 260.04 679.95 252.97 680.51 M 85.46 737.47 C 76.22 748.97 72.58 764.54 74.86 779.03 C 76.36 793.90 82.67 807.85 90.42 820.46 C 106.46 845.47 130.20 865.68 157.98 876.46 C 151.16 862.92 151.20 846.21 158.27 832.76 C 155.88 830.73 153.27 828.98 150.70 827.20 C 143.93 822.45 138.07 816.56 132.62 810.38 C 131.33 809.04 130.39 807.21 128.66 806.40 C 123.82 805.47 118.70 805.23 114.25 802.89 C 111.15 801.31 107.97 799.87 104.96 798.13 C 93.91 790.32 87.63 777.23 85.94 764.05 C 84.80 753.20 88.60 742.54 94.28 733.45 C 95.63 731.62 97.00 729.75 97.57 727.51 C 92.44 729.18 89.05 733.70 85.46 737.47 M 920.64 739.20 C 919.76 743.50 920.50 747.99 919.19 752.23 C 916.90 761.77 910.79 769.63 904.38 776.80 C 906.49 777.33 908.61 777.92 910.71 778.55 C 911.19 785.64 907.35 792.00 903.63 797.72 C 891.07 815.72 872.71 829.11 852.92 838.19 L 852.53 838.99 C 854.94 845.04 857.06 851.37 857.12 857.96 C 857.28 865.99 855.22 873.86 852.11 881.21 C 876.97 873.45 899.71 859.44 918.52 841.51 C 932.05 828.26 944.14 812.57 949.25 794.06 C 953.02 781.21 951.48 766.46 943.60 755.42 C 938.15 747.48 929.47 742.54 920.64 739.20 M 197.70 757.63 C 193.71 762.95 188.00 766.69 184.23 772.20 C 181.12 775.76 178.32 779.58 175.00 782.96 C 182.10 790.36 188.39 798.52 193.55 807.38 C 198.29 808.76 203.60 807.05 208.41 808.62 C 219.45 810.92 228.79 817.65 239.48 820.90 C 235.60 794.68 220.45 771.52 201.66 753.41 C 200.19 754.66 198.84 756.06 197.70 757.63 M 819.73 770.62 C 811.89 776.76 804.79 783.78 798.15 791.18 C 791.06 800.23 783.58 809.50 780.05 820.61 C 788.51 818.59 796.12 813.52 804.96 812.95 C 808.31 812.83 811.68 812.87 815.05 812.91 C 819.89 812.94 824.46 814.80 829.03 816.23 C 839.68 804.67 852.55 795.42 866.17 787.70 C 859.85 785.34 853.37 783.11 847.76 779.29 C 841.55 773.98 836.43 767.47 830.05 762.36 C 826.78 765.33 823.19 767.89 819.73 770.62 M 282.06 841.20 C 285.71 844.17 290.36 845.26 294.46 847.44 C 302.02 850.55 309.43 854.15 316.23 858.72 C 319.05 860.58 320.81 864.10 323.97 865.26 C 338.96 861.56 354.56 859.41 369.99 861.03 C 391.83 862.16 413.53 867.51 433.33 876.85 C 437.87 877.23 442.31 874.71 446.95 874.92 C 456.63 874.96 466.32 874.72 475.99 875.05 C 481.96 876.17 488.13 876.28 494.14 875.35 C 485.01 862.92 472.74 852.98 459.30 845.51 C 441.17 834.96 420.94 828.55 400.48 824.32 C 383.87 820.94 366.89 820.16 349.98 820.62 C 326.23 822.19 301.96 827.51 282.06 841.20 M 619.25 830.31 C 605.77 833.14 592.79 838.20 580.80 844.96 C 576.24 847.57 571.37 850.03 568.06 854.26 C 560.15 860.37 553.29 867.87 548.04 876.38 C 553.55 877.48 559.22 876.37 564.75 877.29 C 569.78 878.39 574.95 877.70 580.05 877.91 C 584.77 877.83 589.11 880.02 593.47 881.56 C 594.93 881.99 596.61 883.35 598.03 882.10 C 613.63 872.56 631.87 867.93 650.02 867.04 C 656.68 865.80 663.36 867.36 670.05 867.43 C 673.38 867.48 676.61 868.63 679.96 868.46 C 682.39 867.15 684.23 865.00 686.49 863.44 C 698.23 853.93 713.33 850.51 726.45 843.49 L 727.26 843.86 C 724.22 840.51 719.86 839.00 715.84 837.23 C 697.02 829.19 676.41 825.79 656.00 826.31 C 643.62 825.91 631.32 827.71 619.25 830.31 M 192.75 829.82 C 184.12 831.80 176.99 838.86 174.70 847.38 C 170.99 859.49 177.66 874.32 190.10 878.06 C 214.22 889.74 238.78 900.54 262.93 912.17 C 269.36 914.80 275.35 918.55 282.13 920.27 C 286.02 920.84 290.00 920.77 293.91 920.37 C 302.79 918.25 310.31 910.92 312.41 901.99 C 314.72 894.68 312.16 886.50 307.52 880.65 C 302.16 873.91 293.74 871.10 286.22 867.57 C 277.51 863.31 268.68 859.33 259.90 855.25 C 257.14 853.18 254.07 851.59 250.92 850.21 C 237.62 844.25 224.56 837.78 211.26 831.83 C 205.51 829.20 198.94 828.53 192.75 829.82 M 796.37 837.42 C 783.90 842.70 771.43 847.94 758.94 853.15 C 754.56 854.97 750.00 856.51 746.10 859.27 C 734.45 864.17 722.79 869.04 711.14 873.90 C 705.01 876.33 698.91 879.76 695.22 885.40 C 692.51 889.12 691.29 893.66 690.69 898.17 C 690.34 908.32 696.79 918.20 706.15 922.11 C 710.14 924.12 714.72 923.66 719.04 923.62 C 723.73 923.43 728.00 921.22 732.29 919.55 C 745.04 914.32 757.66 908.80 770.42 903.59 C 787.20 896.35 804.35 889.86 820.92 882.15 C 830.94 878.75 836.68 867.44 835.62 857.24 C 834.89 844.86 823.55 833.82 811.02 834.21 C 805.92 833.94 800.98 835.41 796.37 837.42 M 425.59 919.97 C 425.04 930.63 432.05 941.17 442.12 944.75 C 447.49 946.90 453.36 946.45 459.01 946.76 C 471.31 947.82 483.66 947.22 495.98 947.61 C 508.63 948.64 521.32 948.38 533.99 948.56 C 542.46 948.53 550.96 950.12 559.41 948.81 C 566.98 949.61 574.89 949.68 582.22 947.42 C 593.98 943.51 602.15 929.95 598.44 917.84 C 595.80 907.57 586.11 900.02 575.70 899.03 C 565.51 898.01 555.19 899.16 545.02 897.87 C 531.03 897.39 516.99 898.11 503.04 896.80 C 492.41 896.66 481.78 896.73 471.16 896.42 C 464.26 895.72 457.28 895.49 450.37 895.95 C 437.32 895.34 425.89 907.18 425.59 919.97 M 322.34 928.34 C 315.96 934.85 307.96 940.02 298.95 941.91 C 295.43 942.18 291.87 941.99 288.40 942.73 C 295.15 949.08 303.63 953.19 311.76 957.47 C 327.19 965.58 344.07 970.44 361.03 974.14 C 389.49 979.57 419.30 980.13 447.44 972.62 C 451.38 971.41 455.57 970.59 458.96 968.10 C 453.55 966.12 447.74 967.76 442.20 966.76 C 435.59 964.95 429.20 962.30 423.35 958.73 C 416.24 953.19 410.85 945.79 406.85 937.77 C 400.25 937.64 393.64 937.81 387.05 937.44 C 368.80 935.63 350.70 931.29 333.92 923.80 C 332.00 923.07 330.22 921.65 328.13 921.58 C 325.82 923.49 324.27 926.08 322.34 928.34 M 681.31 933.17 C 671.67 935.41 661.94 937.82 651.98 937.77 C 646.64 938.91 641.32 937.47 635.95 937.62 C 630.62 937.60 625.37 936.61 620.15 935.67 C 618.35 939.89 616.29 943.99 614.22 948.08 C 612.13 952.45 608.18 955.45 604.92 958.89 C 601.00 963.04 595.63 965.20 590.87 968.16 C 599.40 972.36 608.85 974.22 618.11 976.08 C 644.89 980.37 672.73 978.35 698.47 969.68 C 717.40 962.98 735.77 952.78 748.52 936.92 C 741.82 938.63 735.67 941.90 729.13 944.08 C 725.26 945.57 721.04 944.99 717.00 945.12 C 712.73 945.00 708.42 945.40 704.19 944.76 C 697.71 943.02 691.51 940.04 686.37 935.69 C 684.76 934.74 683.41 932.52 681.31 933.17 Z" />
</g>
<g id="#88001bff">
<path fill="#88001b" opacity="1.00" d=" M 340.36 46.27 C 357.04 44.86 374.24 49.29 387.98 58.91 C 409.48 73.08 421.99 99.35 420.18 124.94 C 419.19 132.41 417.86 139.90 415.13 146.96 C 407.65 164.85 393.21 179.81 375.34 187.46 C 363.52 191.93 350.55 194.75 337.93 192.58 C 324.16 191.20 311.10 185.36 300.31 176.78 C 282.85 162.72 272.37 140.43 272.82 118.00 C 273.50 103.82 277.70 89.67 286.01 78.06 C 298.11 59.99 318.73 48.15 340.36 46.27 Z" />
<path fill="#88001b" opacity="1.00" d=" M 416.24 175.14 C 424.07 171.64 433.40 172.11 441.04 175.91 C 444.71 177.72 447.50 180.78 450.51 183.46 C 452.83 185.65 456.11 186.13 459.10 186.81 C 482.79 191.72 506.31 197.50 530.08 202.00 C 552.42 206.89 574.74 211.84 597.08 216.71 C 603.12 217.97 609.18 219.89 614.15 223.68 C 618.86 227.42 624.61 229.78 628.70 234.29 C 634.49 240.00 637.01 248.07 638.49 255.86 C 646.37 291.55 654.23 327.24 662.27 362.90 C 663.73 369.58 665.40 376.24 666.17 383.05 C 666.33 392.40 662.46 401.93 655.07 407.86 C 649.62 411.25 643.63 414.48 637.02 414.34 C 624.69 415.11 612.86 406.76 608.49 395.38 C 604.47 384.89 603.47 373.54 600.17 362.83 L 599.99 362.02 C 594.62 335.06 588.18 308.33 582.52 281.43 C 581.94 279.20 581.66 276.73 580.14 274.91 C 575.70 273.31 570.98 272.73 566.40 271.66 C 541.35 266.35 516.48 260.16 491.32 255.41 C 492.97 258.49 494.95 261.39 497.13 264.12 C 521.16 298.40 545.01 332.82 568.94 367.19 C 573.96 374.87 579.91 381.99 583.96 390.28 C 586.20 394.84 590.36 398.12 592.42 402.80 C 596.73 411.98 596.38 422.38 597.99 432.20 C 598.51 437.78 599.35 443.33 599.86 448.92 C 604.00 490.35 609.48 531.65 614.00 573.05 C 614.45 576.80 614.19 581.08 616.88 584.10 C 622.99 590.68 629.19 597.19 635.43 603.66 C 641.15 610.55 647.90 616.50 653.71 623.31 C 681.73 653.22 709.66 683.23 737.78 713.03 C 743.42 719.81 749.92 726.61 751.40 735.68 C 754.92 752.92 739.38 770.46 722.01 770.09 C 713.72 770.08 706.34 765.73 699.97 760.82 C 697.65 758.86 695.70 756.51 693.71 754.24 C 689.11 748.86 683.80 744.14 679.22 738.76 C 673.50 732.14 666.91 726.34 661.31 719.62 C 633.10 689.80 605.32 659.58 577.05 629.80 C 569.80 621.15 559.58 613.74 557.78 601.81 C 557.49 594.28 555.07 587.10 554.15 579.66 C 550.27 545.60 546.15 511.55 542.24 477.49 C 541.11 470.99 541.39 464.21 539.44 457.89 C 508.22 484.46 477.23 511.30 445.90 537.74 C 443.56 539.72 439.84 541.37 440.04 544.97 C 439.81 555.02 441.40 565.01 441.19 575.07 C 442.21 586.35 441.91 597.68 442.97 608.95 C 442.92 620.66 444.23 632.31 444.28 644.01 C 445.25 652.21 444.86 660.48 445.45 668.70 C 446.40 676.57 445.71 684.52 446.60 692.40 C 447.30 699.15 446.77 705.96 447.42 712.72 C 448.25 720.79 448.12 728.94 448.12 737.05 C 448.04 748.08 441.23 758.56 431.43 763.49 C 425.09 766.73 417.53 767.15 410.69 765.46 C 400.88 762.77 392.89 754.61 390.06 744.88 C 388.15 738.09 387.97 730.98 387.92 723.98 C 386.44 691.05 384.87 658.12 383.54 625.19 C 382.68 615.82 383.10 606.39 382.10 597.03 C 382.16 585.97 380.82 574.99 380.86 563.93 C 380.26 556.62 379.85 549.29 379.88 541.95 C 379.38 534.51 378.90 526.77 381.59 519.66 C 383.95 513.45 388.63 508.58 393.11 503.85 C 404.94 493.06 417.42 483.00 429.50 472.49 C 443.49 460.48 457.53 448.55 471.51 436.54 C 474.17 433.85 477.76 432.05 479.86 428.86 C 479.69 427.37 478.72 426.17 477.95 424.95 C 467.02 409.65 456.04 394.38 445.27 378.96 C 439.01 368.94 431.64 359.67 425.01 349.89 C 420.88 344.28 417.33 338.19 412.35 333.26 C 411.34 347.22 412.60 361.24 411.53 375.20 C 411.16 381.13 411.53 387.08 411.17 393.01 C 410.79 399.63 407.88 405.71 406.25 412.06 C 403.69 422.50 394.82 431.01 384.42 433.50 C 375.14 436.00 365.46 434.66 356.00 435.02 C 341.88 435.41 327.71 434.55 313.62 435.69 C 288.77 436.57 263.88 436.06 239.01 436.44 C 230.99 436.85 222.61 434.87 216.30 429.73 C 208.53 423.75 203.89 413.84 204.64 404.03 C 205.52 397.38 208.07 390.71 212.89 385.91 C 218.27 380.12 226.03 376.59 233.93 376.36 C 236.61 376.17 239.26 375.63 241.96 375.68 C 268.99 375.59 296.02 375.45 323.05 375.38 C 324.80 375.37 326.55 375.28 328.29 375.04 C 335.91 374.09 343.66 375.31 351.27 374.28 C 351.88 348.53 351.56 322.73 351.80 296.95 C 351.91 294.30 352.41 291.68 352.39 289.03 C 352.43 274.68 352.52 260.34 352.56 245.99 C 352.63 240.01 352.01 233.88 353.77 228.07 C 356.24 219.35 361.10 211.14 368.00 205.21 C 377.38 198.73 387.30 193.10 396.72 186.69 C 403.13 182.69 409.30 178.20 416.24 175.14 Z" />
<path fill="#88001b" opacity="1.00" d=" M 483.64 572.78 C 492.86 572.25 502.01 570.65 511.26 570.60 C 512.84 580.45 513.23 590.53 515.70 600.24 C 516.03 603.92 516.56 607.57 517.08 611.23 C 506.16 610.87 495.29 611.71 484.54 613.63 C 483.40 605.43 484.95 597.05 483.22 588.91 C 483.09 583.54 482.70 578.09 483.64 572.78 Z" />
<path fill="#88001b" opacity="1.00" d=" M 692.93 604.02 C 707.76 597.95 724.07 596.21 739.99 596.63 C 757.49 597.15 774.93 600.45 791.38 606.51 C 806.19 612.20 820.58 620.04 831.27 632.01 C 826.08 631.37 821.33 628.55 816.03 628.89 C 810.61 629.06 805.06 628.30 799.77 629.81 C 795.06 630.85 790.84 633.28 786.61 635.49 C 782.85 637.53 780.55 641.36 777.03 643.70 C 767.48 641.18 757.96 638.16 748.04 637.46 C 741.69 637.28 735.33 635.73 729.00 637.06 C 726.96 637.12 724.28 638.19 722.83 636.24 C 720.43 633.61 718.32 630.71 715.71 628.29 C 712.10 624.87 709.33 620.69 705.72 617.28 C 701.45 612.87 696.76 608.83 692.93 604.02 Z" />
<path fill="#88001b" opacity="1.00" d=" M 256.07 609.92 C 266.09 609.35 276.27 607.57 286.22 609.73 C 281.63 613.62 277.05 617.63 273.27 622.34 C 270.24 627.59 267.36 633.09 266.08 639.05 C 265.42 642.40 266.83 646.25 264.94 649.27 C 248.34 650.90 231.95 655.25 217.25 663.24 C 211.15 658.07 203.66 654.90 195.94 653.08 C 191.29 652.72 186.61 652.92 181.95 652.91 C 178.07 652.76 174.54 654.57 170.82 655.30 C 173.31 648.85 178.55 644.11 183.34 639.35 C 189.02 633.73 195.82 629.42 202.86 625.71 C 219.33 616.99 237.67 612.26 256.07 609.92 Z" />
<path fill="#88001b" opacity="1.00" d=" M 307.34 624.15 C 318.53 621.11 329.72 617.97 341.11 615.71 C 343.12 624.40 340.76 633.50 342.68 642.24 C 343.28 649.12 342.50 656.07 343.27 662.97 C 343.10 664.11 342.83 665.24 342.45 666.35 C 336.81 668.47 330.83 669.52 325.05 671.17 C 316.92 673.59 307.53 674.63 299.93 670.09 C 294.66 666.67 290.11 661.64 288.43 655.48 C 286.83 649.30 287.45 642.39 290.84 636.90 C 294.64 630.88 300.70 626.55 307.34 624.15 Z" />
<path fill="#88001b" opacity="1.00" d=" M 522.05 650.52 C 527.32 650.20 532.43 648.71 537.69 648.21 C 543.42 655.15 549.35 661.93 555.76 668.26 C 559.17 672.43 562.83 676.38 566.66 680.19 C 551.67 686.83 535.31 689.94 519.03 691.10 C 508.79 691.21 498.38 691.94 488.31 689.76 C 487.75 684.05 488.60 678.24 487.45 672.59 C 486.61 667.62 487.60 662.51 486.44 657.58 C 485.84 654.84 486.12 652.03 486.57 649.31 C 492.01 650.30 497.51 650.62 503.02 650.97 C 509.36 652.21 515.69 650.55 522.05 650.52 Z" />
<path fill="#88001b" opacity="1.00" d=" M 804.89 651.78 C 811.63 649.72 819.08 651.23 824.93 655.01 C 831.84 659.75 836.81 666.69 843.11 672.15 C 852.33 681.19 860.70 691.04 869.94 700.06 C 876.31 707.28 883.20 714.01 889.82 721.00 C 894.41 726.69 898.50 733.42 898.27 741.01 C 898.27 753.16 887.99 764.13 875.88 765.00 C 868.03 765.77 860.72 761.72 854.87 756.89 C 847.92 750.24 841.74 742.85 834.95 736.05 C 824.83 725.90 815.28 715.20 805.20 705.01 C 802.03 700.81 798.19 697.20 794.64 693.34 C 789.47 687.47 785.75 679.46 787.36 671.50 C 788.82 662.30 795.89 654.28 804.89 651.78 Z" />
<path fill="#88001b" opacity="1.00" d=" M 752.85 667.72 C 756.92 668.00 761.30 667.17 765.16 668.83 C 766.51 672.99 765.87 677.58 765.46 681.87 C 762.96 679.24 760.86 676.25 758.18 673.80 C 756.25 671.90 753.68 670.45 752.85 667.72 Z" />
<path fill="#88001b" opacity="1.00" d=" M 183.33 675.20 C 197.54 672.24 212.23 684.54 212.04 699.00 C 212.23 708.06 206.18 715.33 200.79 721.96 C 184.10 740.15 167.81 758.73 151.03 776.84 C 145.64 781.19 139.18 784.95 131.99 784.41 C 116.99 784.80 104.29 768.38 108.89 753.99 C 111.29 745.03 118.89 739.14 124.21 731.99 C 137.37 717.31 150.51 702.62 163.85 688.11 C 169.34 682.55 175.16 676.34 183.33 675.20 Z" />
<path fill="#88001b" opacity="1.00" d=" M 252.97 680.51 C 260.04 679.95 266.88 677.83 273.83 676.67 C 278.65 681.06 282.68 686.47 288.61 689.51 C 292.98 691.62 297.53 693.41 302.20 694.77 C 310.41 695.62 318.71 695.08 326.87 694.01 C 319.27 701.02 309.68 705.27 300.40 709.57 C 277.91 718.68 253.38 722.47 229.17 721.19 C 230.61 716.72 233.08 712.60 233.92 707.94 C 234.27 703.28 234.07 698.61 234.09 693.95 C 234.28 689.27 231.66 685.15 231.02 680.61 C 238.32 682.17 245.63 680.63 252.97 680.51 Z" />
<path fill="#88001b" opacity="1.00" d=" M 85.46 737.47 C 89.05 733.70 92.44 729.18 97.57 727.51 C 97.00 729.75 95.63 731.62 94.28 733.45 C 88.60 742.54 84.80 753.20 85.94 764.05 C 87.63 777.23 93.91 790.32 104.96 798.13 C 107.97 799.87 111.15 801.31 114.25 802.89 C 118.70 805.23 123.82 805.47 128.66 806.40 C 130.39 807.21 131.33 809.04 132.62 810.38 C 138.07 816.56 143.93 822.45 150.70 827.20 C 153.27 828.98 155.88 830.73 158.27 832.76 C 151.20 846.21 151.16 862.92 157.98 876.46 C 130.20 865.68 106.46 845.47 90.42 820.46 C 82.67 807.85 76.36 793.90 74.86 779.03 C 72.58 764.54 76.22 748.97 85.46 737.47 Z" />
<path fill="#88001b" opacity="1.00" d=" M 920.64 739.20 C 929.47 742.54 938.15 747.48 943.60 755.42 C 951.48 766.46 953.02 781.21 949.25 794.06 C 944.14 812.57 932.05 828.26 918.52 841.51 C 899.71 859.44 876.97 873.45 852.11 881.21 C 855.22 873.86 857.28 865.99 857.12 857.96 C 857.06 851.37 854.94 845.04 852.53 838.99 L 852.92 838.19 C 872.71 829.11 891.07 815.72 903.63 797.72 C 907.35 792.00 911.19 785.64 910.71 778.55 C 908.61 777.92 906.49 777.33 904.38 776.80 C 910.79 769.63 916.90 761.77 919.19 752.23 C 920.50 747.99 919.76 743.50 920.64 739.20 Z" />
<path fill="#88001b" opacity="1.00" d=" M 197.70 757.63 C 198.84 756.06 200.19 754.66 201.66 753.41 C 220.45 771.52 235.60 794.68 239.48 820.90 C 228.79 817.65 219.45 810.92 208.41 808.62 C 203.60 807.05 198.29 808.76 193.55 807.38 C 188.39 798.52 182.10 790.36 175.00 782.96 C 178.32 779.58 181.12 775.76 184.23 772.20 C 188.00 766.69 193.71 762.95 197.70 757.63 Z" />
<path fill="#88001b" opacity="1.00" d=" M 819.73 770.62 C 823.19 767.89 826.78 765.33 830.05 762.36 C 836.43 767.47 841.55 773.98 847.76 779.29 C 853.37 783.11 859.85 785.34 866.17 787.70 C 852.55 795.42 839.68 804.67 829.03 816.23 C 824.46 814.80 819.89 812.94 815.05 812.91 C 811.68 812.87 808.31 812.83 804.96 812.95 C 796.12 813.52 788.51 818.59 780.05 820.61 C 783.58 809.50 791.06 800.23 798.15 791.18 C 804.79 783.78 811.89 776.76 819.73 770.62 Z" />
<path fill="#88001b" opacity="1.00" d=" M 282.06 841.20 C 301.96 827.51 326.23 822.19 349.98 820.62 C 366.89 820.16 383.87 820.94 400.48 824.32 C 420.94 828.55 441.17 834.96 459.30 845.51 C 472.74 852.98 485.01 862.92 494.14 875.35 C 488.13 876.28 481.96 876.17 475.99 875.05 C 466.32 874.72 456.63 874.96 446.95 874.92 C 442.31 874.71 437.87 877.23 433.33 876.85 C 413.53 867.51 391.83 862.16 369.99 861.03 C 354.56 859.41 338.96 861.56 323.97 865.26 C 320.81 864.10 319.05 860.58 316.23 858.72 C 309.43 854.15 302.02 850.55 294.46 847.44 C 290.36 845.26 285.71 844.17 282.06 841.20 Z" />
<path fill="#88001b" opacity="1.00" d=" M 626.86 829.77 C 660.30 823.30 696.25 827.29 726.45 843.49 C 713.33 850.51 698.23 853.93 686.49 863.44 C 684.23 865.00 682.39 867.15 679.96 868.46 C 676.61 868.63 673.38 867.48 670.05 867.43 C 663.36 867.36 656.68 865.80 650.02 867.04 C 631.87 867.93 613.63 872.56 598.03 882.10 C 596.61 883.35 594.93 881.99 593.47 881.56 C 589.11 880.02 584.77 877.83 580.05 877.91 C 574.95 877.70 569.78 878.39 564.75 877.29 C 559.22 876.37 553.55 877.48 548.04 876.38 C 553.29 867.87 560.15 860.37 568.06 854.26 C 585.45 841.71 605.73 833.35 626.86 829.77 Z" />
<path fill="#88001b" opacity="1.00" d=" M 196.53 830.33 C 204.10 829.37 211.20 832.79 217.81 836.02 C 231.90 842.30 245.69 849.25 259.90 855.25 C 268.68 859.33 277.51 863.31 286.22 867.57 C 293.74 871.10 302.16 873.91 307.52 880.65 C 312.16 886.50 314.72 894.68 312.41 901.99 C 310.31 910.92 302.79 918.25 293.91 920.37 C 290.00 920.77 286.02 920.84 282.13 920.27 C 275.35 918.55 269.36 914.80 262.93 912.17 C 238.78 900.54 214.22 889.74 190.10 878.06 C 185.27 874.98 180.55 871.35 177.63 866.32 C 174.49 861.24 174.17 854.95 175.11 849.20 C 177.25 839.21 186.41 831.32 196.53 830.33 Z" />
<path fill="#88001b" opacity="1.00" d=" M 800.27 837.14 C 808.53 833.96 818.49 834.80 825.43 840.57 C 832.59 846.20 836.59 856.04 834.16 865.00 C 832.53 872.38 826.84 877.91 820.92 882.15 C 804.35 889.86 787.20 896.35 770.42 903.59 C 757.66 908.80 745.04 914.32 732.29 919.55 C 728.00 921.22 723.73 923.43 719.04 923.62 C 714.72 923.66 710.14 924.12 706.15 922.11 C 696.79 918.20 690.34 908.32 690.69 898.17 C 691.29 893.66 692.51 889.12 695.22 885.40 C 698.91 879.76 705.01 876.33 711.14 873.90 C 722.79 869.04 734.45 864.17 746.10 859.27 C 764.36 852.43 782.02 844.03 800.27 837.14 Z" />
<path fill="#88001b" opacity="1.00" d=" M 450.37 895.95 C 457.28 895.49 464.26 895.72 471.16 896.42 C 481.78 896.73 492.41 896.66 503.04 896.80 C 516.99 898.11 531.03 897.39 545.02 897.87 C 555.19 899.16 565.51 898.01 575.70 899.03 C 586.11 900.02 595.80 907.57 598.44 917.84 C 602.15 929.95 593.98 943.51 582.22 947.42 C 574.89 949.68 566.98 949.61 559.41 948.81 C 545.23 947.12 530.90 948.74 516.69 947.47 C 501.82 946.43 486.87 947.65 472.01 946.28 C 463.14 945.59 454.07 947.04 445.37 944.73 C 437.77 942.71 431.40 936.85 428.27 929.70 C 425.10 921.47 426.64 911.32 432.97 904.97 C 437.39 899.84 443.86 897.20 450.37 895.95 Z" />
<path fill="#88001b" opacity="1.00" d=" M 322.34 928.34 C 324.27 926.08 325.82 923.49 328.13 921.58 C 330.22 921.65 332.00 923.07 333.92 923.80 C 350.70 931.29 368.80 935.63 387.05 937.44 C 393.64 937.81 400.25 937.64 406.85 937.77 C 410.85 945.79 416.24 953.19 423.35 958.73 C 429.20 962.30 435.59 964.95 442.20 966.76 C 447.74 967.76 453.55 966.12 458.96 968.10 C 455.57 970.59 451.38 971.41 447.44 972.62 C 419.30 980.13 389.49 979.57 361.03 974.14 C 344.07 970.44 327.19 965.58 311.76 957.47 C 303.63 953.19 295.15 949.08 288.40 942.73 C 291.87 941.99 295.43 942.18 298.95 941.91 C 307.96 940.02 315.96 934.85 322.34 928.34 Z" />
<path fill="#88001b" opacity="1.00" d=" M 681.31 933.17 C 683.41 932.52 684.76 934.74 686.37 935.69 C 691.51 940.04 697.71 943.02 704.19 944.76 C 708.42 945.40 712.73 945.00 717.00 945.12 C 721.04 944.99 725.26 945.57 729.13 944.08 C 735.67 941.90 741.82 938.63 748.52 936.92 C 735.77 952.78 717.40 962.98 698.47 969.68 C 672.73 978.35 644.89 980.37 618.11 976.08 C 608.85 974.22 599.40 972.36 590.87 968.16 C 595.63 965.20 601.00 963.04 604.92 958.89 C 608.18 955.45 612.13 952.45 614.22 948.08 C 616.29 943.99 618.35 939.89 620.15 935.67 C 625.37 936.61 630.62 937.60 635.95 937.62 C 641.32 937.47 646.64 938.91 651.98 937.77 C 661.94 937.82 671.67 935.41 681.31 933.17 Z" />
</g>
<g id="#b3999eba">
<path fill="#b3999e" opacity="0.73" d=" M 408.74 177.80 C 414.80 174.04 421.78 171.25 429.03 171.61 C 435.87 171.99 442.72 174.52 447.78 179.23 C 449.74 180.91 451.40 183.00 453.70 184.26 C 456.53 185.43 459.59 185.84 462.57 186.51 C 481.21 190.43 499.78 194.69 518.38 198.80 C 522.34 199.60 526.35 200.38 530.08 202.00 C 506.31 197.50 482.79 191.72 459.10 186.81 C 456.11 186.13 452.83 185.65 450.51 183.46 C 447.50 180.78 444.71 177.72 441.04 175.91 C 433.40 172.11 424.07 171.64 416.24 175.14 C 409.30 178.20 403.13 182.69 396.72 186.69 C 387.30 193.10 377.38 198.73 368.00 205.21 C 369.67 203.15 371.68 201.41 373.93 200.03 C 385.58 192.70 397.08 185.13 408.74 177.80 Z" />
<path fill="#b3999e" opacity="0.73" d=" M 491.32 255.41 C 516.48 260.16 541.35 266.35 566.40 271.66 C 570.98 272.73 575.70 273.31 580.14 274.91 C 581.66 276.73 581.94 279.20 582.52 281.43 C 588.18 308.33 594.62 335.06 599.99 362.02 C 599.19 360.13 598.47 358.20 598.02 356.20 C 592.59 331.02 586.77 305.92 581.46 280.71 C 580.85 278.59 580.60 275.44 577.82 275.16 C 554.89 269.96 531.91 264.93 508.93 259.97 C 503.94 258.87 498.97 257.62 493.90 257.02 C 494.97 259.39 496.08 261.73 497.13 264.12 C 494.95 261.39 492.97 258.49 491.32 255.41 Z" />
<path fill="#b3999e" opacity="0.73" d=" M 412.35 333.26 C 417.33 338.19 420.88 344.28 425.01 349.89 C 431.64 359.67 439.01 368.94 445.27 378.96 C 444.02 377.82 442.79 376.65 441.75 375.32 C 432.28 362.15 423.18 348.68 413.34 335.79 C 411.96 355.06 412.95 374.43 412.30 393.73 C 411.68 400.46 408.66 406.62 407.12 413.14 C 403.75 426.04 391.03 435.16 377.87 435.37 C 362.58 435.69 347.28 435.47 332.00 436.04 C 325.87 436.19 319.74 436.22 313.62 435.69 C 327.71 434.55 341.88 435.41 356.00 435.02 C 365.46 434.66 375.14 436.00 384.42 433.50 C 394.82 431.01 403.69 422.50 406.25 412.06 C 407.88 405.71 410.79 399.63 411.17 393.01 C 411.53 387.08 411.16 381.13 411.53 375.20 C 412.60 361.24 411.34 347.22 412.35 333.26 Z" />
<path fill="#b3999e" opacity="0.73" d=" M 600.17 362.83 C 603.47 373.54 604.47 384.89 608.49 395.38 C 612.86 406.76 624.69 415.11 637.02 414.34 C 643.63 414.48 649.62 411.25 655.07 407.86 C 652.18 411.81 647.36 413.55 642.79 414.69 C 632.31 417.14 620.66 413.58 613.47 405.54 C 608.10 399.89 605.73 392.23 604.27 384.75 C 602.89 377.45 600.56 370.29 600.17 362.83 Z" />
<path fill="#b3999e" opacity="0.73" d=" M 599.86 448.92 C 600.37 450.54 600.84 452.18 601.13 453.86 C 605.45 490.57 609.83 527.26 613.99 563.99 C 614.89 570.69 615.10 577.53 616.88 584.10 C 614.19 581.08 614.45 576.80 614.00 573.05 C 609.48 531.65 604.00 490.35 599.86 448.92 Z" />
<path fill="#b3999e" opacity="0.73" d=" M 380.86 518.74 C 383.30 512.70 387.45 507.19 393.11 503.85 C 388.63 508.58 383.95 513.45 381.59 519.66 C 378.90 526.77 379.38 534.51 379.88 541.95 C 379.85 549.29 380.26 556.62 380.86 563.93 C 380.82 574.99 382.16 585.97 382.10 597.03 C 383.10 606.39 382.68 615.82 383.54 625.19 C 384.87 658.12 386.44 691.05 387.92 723.98 C 387.97 730.98 388.15 738.09 390.06 744.88 C 392.89 754.61 400.88 762.77 410.69 765.46 C 417.53 767.15 425.09 766.73 431.43 763.49 C 441.23 758.56 448.04 748.08 448.12 737.05 C 448.12 728.94 448.25 720.79 447.42 712.72 C 446.77 705.96 447.30 699.15 446.60 692.40 C 445.71 684.52 446.40 676.57 445.45 668.70 C 444.86 660.48 445.25 652.21 444.28 644.01 C 444.23 632.31 442.92 620.66 442.97 608.95 C 441.91 597.68 442.21 586.35 441.19 575.07 C 441.40 565.01 439.81 555.02 440.04 544.97 C 439.84 541.37 443.56 539.72 445.90 537.74 C 444.11 540.34 440.77 542.46 440.98 545.97 C 443.32 602.29 445.80 658.62 448.40 714.93 C 448.23 725.45 450.93 736.28 447.49 746.54 C 444.64 755.71 437.15 763.05 428.13 766.17 C 416.11 770.36 401.90 765.87 394.29 755.72 C 389.85 749.82 387.48 742.44 387.49 735.07 C 387.43 728.38 386.40 721.73 386.53 715.04 C 386.67 707.34 385.40 699.72 385.53 692.03 C 385.61 684.34 384.37 676.71 384.52 669.02 C 384.65 662.01 383.54 655.07 383.55 648.07 C 383.49 643.70 383.46 639.33 383.04 634.99 C 382.23 627.34 382.79 619.63 382.03 611.99 C 381.25 604.33 381.78 596.61 381.05 588.96 C 380.27 581.31 380.76 573.61 380.07 565.96 C 379.23 557.77 379.82 549.50 378.91 541.31 C 378.44 533.77 377.78 525.85 380.86 518.74 Z" />
<path fill="#b3999e" opacity="0.73" d=" M 286.47 649.00 C 286.16 637.17 295.50 625.67 307.34 624.15 C 300.70 626.55 294.64 630.88 290.84 636.90 C 287.45 642.39 286.83 649.30 288.43 655.48 C 290.11 661.64 294.66 666.67 299.93 670.09 C 307.53 674.63 316.92 673.59 325.05 671.17 C 330.83 669.52 336.81 668.47 342.45 666.35 C 342.83 665.24 343.10 664.11 343.27 662.97 C 343.63 664.31 344.33 665.92 343.19 667.12 C 338.97 668.95 334.37 669.60 329.97 670.86 C 322.28 672.73 314.31 675.71 306.34 673.71 C 295.01 671.48 286.21 660.54 286.47 649.00 Z" />
<path fill="#b3999e" opacity="0.73" d=" M 786.20 674.00 C 786.06 658.87 802.24 646.54 816.80 650.29 C 824.65 651.84 830.40 657.75 835.70 663.31 C 838.43 666.02 841.17 668.78 843.11 672.15 C 836.81 666.69 831.84 659.75 824.93 655.01 C 819.08 651.23 811.63 649.72 804.89 651.78 C 795.89 654.28 788.82 662.30 787.36 671.50 C 785.75 679.46 789.47 687.47 794.64 693.34 C 798.19 697.20 802.03 700.81 805.20 705.01 C 800.98 702.23 797.84 698.21 794.41 694.58 C 789.11 689.14 785.54 681.72 786.20 674.00 Z" />
<path fill="#b3999e" opacity="0.73" d=" M 163.85 688.11 C 169.43 678.24 181.44 671.56 192.81 674.26 C 202.35 676.19 210.31 684.02 212.40 693.54 C 215.10 704.22 209.38 715.63 200.79 721.96 C 206.18 715.33 212.23 708.06 212.04 699.00 C 212.23 684.54 197.54 672.24 183.33 675.20 C 175.16 676.34 169.34 682.55 163.85 688.11 Z" />
<path fill="#b3999e" opacity="0.73" d=" M 737.78 713.03 C 743.70 717.22 748.16 723.34 750.80 730.05 C 754.14 739.27 752.82 750.11 747.14 758.14 C 740.37 768.06 727.24 773.35 715.54 770.41 C 709.64 768.81 703.34 766.24 699.97 760.82 C 706.34 765.73 713.72 770.08 722.01 770.09 C 739.38 770.46 754.92 752.92 751.40 735.68 C 749.92 726.61 743.42 719.81 737.78 713.03 Z" />
<path fill="#b3999e" opacity="0.73" d=" M 889.82 721.00 C 894.43 724.04 897.17 729.15 898.61 734.36 C 901.38 744.32 897.05 755.71 888.53 761.50 C 882.51 765.61 874.68 767.53 867.59 765.33 C 862.69 763.83 857.62 761.44 854.87 756.89 C 860.72 761.72 868.03 765.77 875.88 765.00 C 887.99 764.13 898.27 753.16 898.27 741.01 C 898.50 733.42 894.41 726.69 889.82 721.00 Z" />
<path fill="#b3999e" opacity="0.73" d=" M 113.67 742.65 C 116.87 738.82 119.91 734.68 124.21 731.99 C 118.89 739.14 111.29 745.03 108.89 753.99 C 104.29 768.38 116.99 784.80 131.99 784.41 C 139.18 784.95 145.64 781.19 151.03 776.84 C 144.50 786.01 130.75 787.66 121.06 782.89 C 112.49 778.82 106.81 769.48 107.20 759.99 C 107.01 753.63 109.70 747.52 113.67 742.65 Z" />
<path fill="#b3999e" opacity="0.73" d=" M 619.25 830.31 C 631.32 827.71 643.62 825.91 656.00 826.31 C 676.41 825.79 697.02 829.19 715.84 837.23 C 719.86 839.00 724.22 840.51 727.26 843.86 L 726.45 843.49 C 696.25 827.29 660.30 823.30 626.86 829.77 C 605.73 833.35 585.45 841.71 568.06 854.26 C 571.37 850.03 576.24 847.57 580.80 844.96 C 592.79 838.20 605.77 833.14 619.25 830.31 Z" />
<path fill="#b3999e" opacity="0.73" d=" M 192.75 829.82 C 198.94 828.53 205.51 829.20 211.26 831.83 C 224.56 837.78 237.62 844.25 250.92 850.21 C 254.07 851.59 257.14 853.18 259.90 855.25 C 245.69 849.25 231.90 842.30 217.81 836.02 C 211.20 832.79 204.10 829.37 196.53 830.33 C 186.41 831.32 177.25 839.21 175.11 849.20 C 174.17 854.95 174.49 861.24 177.63 866.32 C 180.55 871.35 185.27 874.98 190.10 878.06 C 177.66 874.32 170.99 859.49 174.70 847.38 C 176.99 838.86 184.12 831.80 192.75 829.82 Z" />
<path fill="#b3999e" opacity="0.73" d=" M 796.37 837.42 C 800.98 835.41 805.92 833.94 811.02 834.21 C 823.55 833.82 834.89 844.86 835.62 857.24 C 836.68 867.44 830.94 878.75 820.92 882.15 C 826.84 877.91 832.53 872.38 834.16 865.00 C 836.59 856.04 832.59 846.20 825.43 840.57 C 818.49 834.80 808.53 833.96 800.27 837.14 C 782.02 844.03 764.36 852.43 746.10 859.27 C 750.00 856.51 754.56 854.97 758.94 853.15 C 771.43 847.94 783.90 842.70 796.37 837.42 Z" />
<path fill="#b3999e" opacity="0.73" d=" M 425.59 919.97 C 425.89 907.18 437.32 895.34 450.37 895.95 C 443.86 897.20 437.39 899.84 432.97 904.97 C 426.64 911.32 425.10 921.47 428.27 929.70 C 431.40 936.85 437.77 942.71 445.37 944.73 C 454.07 947.04 463.14 945.59 472.01 946.28 C 486.87 947.65 501.82 946.43 516.69 947.47 C 530.90 948.74 545.23 947.12 559.41 948.81 C 550.96 950.12 542.46 948.53 533.99 948.56 C 521.32 948.38 508.63 948.64 495.98 947.61 C 483.66 947.22 471.31 947.82 459.01 946.76 C 453.36 946.45 447.49 946.90 442.12 944.75 C 432.05 941.17 425.04 930.63 425.59 919.97 Z" />
</g>
</svg>
