<?xml version="1.0" encoding="UTF-8" ?>
<!DOCTYPE svg PUBLIC "-//W3C//DTD SVG 1.1//EN" "http://www.w3.org/Graphics/SVG/1.1/DTD/svg11.dtd">
<svg width="1024pt" height="1024pt" viewBox="0 0 1024 1024" version="1.1" xmlns="http://www.w3.org/2000/svg">
<g id="#ffffffff">
<path fill="#ffffff" opacity="1.00" d=" M 479.83 5.35 C 489.14 3.85 498.63 4.58 508.03 4.33 C 518.64 4.57 529.34 3.80 539.86 5.42 C 557.10 5.44 574.13 8.92 590.78 13.15 C 603.61 17.47 616.74 21.20 628.84 27.38 C 635.08 29.82 641.39 32.23 647.00 35.99 C 654.94 39.82 662.43 44.52 669.62 49.60 C 679.82 56.09 689.40 63.52 698.66 71.28 C 702.81 74.81 706.22 79.15 710.61 82.41 C 715.97 86.39 719.32 92.33 724.31 96.71 C 728.95 100.82 732.13 106.18 736.23 110.77 C 739.92 114.88 742.54 119.79 745.75 124.26 C 749.44 129.00 752.70 134.07 755.75 139.24 C 758.09 142.98 760.83 146.48 762.72 150.49 C 766.16 157.65 770.10 164.57 773.00 171.98 C 775.74 177.58 777.19 183.68 779.36 189.51 C 782.73 197.83 785.40 206.42 787.38 215.18 C 789.03 223.66 791.63 231.95 792.64 240.57 C 796.68 243.01 800.04 246.37 803.33 249.71 C 807.80 254.28 812.74 258.56 815.95 264.18 C 820.70 272.94 825.37 282.06 826.45 292.12 C 827.99 298.98 827.40 306.04 827.51 313.00 C 828.09 328.13 824.36 342.97 820.66 357.52 C 819.35 363.03 818.12 368.58 816.18 373.92 C 813.66 381.09 812.51 388.66 810.20 395.89 C 807.07 404.47 805.44 413.50 802.45 422.12 C 798.35 434.10 794.60 446.21 790.32 458.12 C 786.06 466.69 782.35 475.72 776.15 483.13 C 773.45 486.21 771.96 490.14 769.16 493.15 C 761.63 501.86 752.27 509.04 741.89 514.01 C 738.08 522.91 735.15 532.19 730.64 540.79 C 725.75 553.79 719.10 566.00 713.96 578.90 C 708.16 590.67 702.26 602.40 696.40 614.15 C 694.44 617.96 692.74 621.92 690.25 625.43 C 694.65 645.53 699.03 665.63 702.95 685.83 C 708.48 687.71 714.09 689.38 719.50 691.62 C 730.98 695.86 742.89 698.97 754.07 704.02 C 764.18 708.18 774.24 712.44 784.43 716.42 C 793.19 720.43 802.34 723.50 811.53 726.34 C 822.72 730.12 833.96 733.77 845.14 737.60 C 862.37 743.41 880.19 747.39 897.18 753.91 C 907.54 756.97 918.25 761.16 925.19 769.87 C 934.12 780.17 936.29 794.89 933.38 807.91 C 931.48 816.32 926.29 823.44 920.89 829.97 C 912.68 840.67 903.05 850.12 894.28 860.33 C 886.29 867.99 879.06 876.52 870.13 883.15 C 866.66 885.98 863.44 889.09 859.91 891.84 C 851.70 900.02 842.82 907.50 833.54 914.44 C 826.59 919.09 820.53 924.94 813.54 929.54 C 804.76 935.27 796.27 941.54 786.78 946.09 C 777.95 950.16 770.04 955.89 761.42 960.37 C 741.70 972.22 720.45 981.12 698.97 989.21 C 676.55 997.96 653.49 1005.04 630.06 1010.55 C 617.44 1013.23 604.68 1015.13 591.95 1017.22 C 582.73 1018.79 573.33 1019.03 564.10 1020.13 C 536.42 1020.79 508.71 1020.24 481.02 1020.42 C 472.33 1020.21 463.56 1021.01 454.94 1019.58 C 443.16 1019.33 431.53 1017.36 419.90 1015.58 C 404.80 1012.85 389.55 1010.69 374.85 1006.13 C 363.70 1003.25 352.71 999.81 341.82 996.10 C 334.31 993.81 327.24 990.35 319.74 988.04 C 308.10 983.28 296.27 978.90 285.13 973.04 C 277.89 969.31 270.40 966.02 263.47 961.73 C 255.49 958.01 248.40 952.71 240.55 948.73 C 223.90 940.78 208.68 930.15 194.35 918.58 C 185.36 912.42 177.07 905.30 168.74 898.30 C 163.52 892.81 157.60 888.08 151.88 883.15 C 144.04 877.44 137.69 870.06 130.75 863.35 C 125.67 858.67 121.79 852.89 116.67 848.23 C 108.03 837.81 98.03 827.97 92.89 815.20 C 88.89 803.13 89.36 789.10 95.64 777.88 C 100.71 768.53 109.87 762.35 119.25 757.90 C 128.37 753.17 137.82 749.07 147.50 745.63 C 162.61 739.71 177.58 733.40 192.80 727.73 C 196.69 726.06 200.80 725.01 204.87 723.85 C 223.43 716.55 242.56 710.81 261.43 704.36 C 274.29 700.45 287.10 696.34 300.15 693.13 C 310.32 690.49 319.87 686.13 329.65 682.36 C 332.55 668.47 335.93 654.50 336.45 640.29 C 333.31 635.02 331.01 629.30 327.68 624.14 C 319.10 607.55 310.92 590.76 303.16 573.79 C 300.83 567.16 296.61 561.40 294.33 554.74 C 291.42 549.54 290.13 543.64 287.25 538.44 C 283.24 530.57 281.35 521.77 277.03 514.08 C 266.74 508.55 256.82 501.75 249.52 492.50 C 241.36 480.67 232.14 469.23 227.43 455.46 C 222.51 441.09 217.38 426.75 213.89 411.95 C 209.70 400.83 207.00 389.26 203.64 377.89 C 199.22 360.60 193.71 343.40 192.28 325.52 C 190.93 317.74 191.64 309.81 191.54 301.97 C 192.71 289.52 194.90 276.58 202.00 265.99 C 205.73 258.74 212.08 253.46 217.68 247.71 C 220.20 245.10 223.19 243.04 226.11 240.93 C 227.12 233.26 228.38 225.50 230.81 218.10 C 233.77 209.65 234.87 200.66 238.13 192.31 C 240.89 185.39 243.67 178.48 246.41 171.56 C 248.40 166.67 251.27 162.19 253.15 157.25 C 256.74 148.02 262.72 140.04 267.73 131.58 C 277.98 118.23 287.06 103.83 299.22 92.07 C 302.02 88.60 304.84 85.08 308.44 82.38 C 311.87 79.87 314.56 76.53 317.85 73.86 C 322.74 70.12 326.66 65.24 331.99 62.08 C 340.68 54.88 350.33 48.99 359.65 42.66 C 364.52 39.27 370.23 37.37 375.17 34.08 C 381.00 30.43 387.79 28.82 393.84 25.62 C 400.22 22.14 407.46 20.79 414.07 17.85 C 435.21 10.57 457.41 5.60 479.83 5.35 M 492.90 44.88 C 480.28 45.78 467.75 47.50 455.31 49.78 C 455.93 52.50 457.34 54.92 458.62 57.37 C 471.89 84.72 483.54 112.82 495.10 140.94 C 496.58 144.59 497.41 148.66 496.38 152.55 C 494.06 163.74 485.73 172.17 478.58 180.57 C 471.64 187.64 464.81 194.86 457.17 201.20 C 455.68 202.70 453.85 204.01 452.88 205.93 C 451.73 214.71 454.27 223.35 456.23 231.82 C 457.14 234.09 459.80 234.48 461.83 235.21 C 488.11 243.35 514.33 251.79 541.10 258.19 C 545.91 259.30 550.70 260.72 555.66 260.97 C 568.65 247.49 581.99 233.79 598.69 224.91 C 603.87 222.42 609.36 220.65 614.77 218.75 C 619.71 217.18 624.68 219.22 629.37 220.64 C 657.86 229.75 686.25 239.56 713.13 252.77 C 725.73 258.80 737.46 266.46 749.23 273.92 C 750.81 278.36 749.91 283.38 749.64 288.02 C 746.87 313.47 740.30 338.28 733.74 362.95 C 732.64 366.45 731.76 370.31 729.11 373.02 C 723.63 378.71 713.18 378.17 708.57 371.65 C 706.50 367.80 705.53 363.31 706.92 359.06 C 712.72 337.21 718.57 315.32 721.94 292.93 C 721.98 291.55 722.77 289.57 721.26 288.69 C 715.88 284.93 710.26 281.47 704.34 278.63 C 678.65 265.40 651.16 256.17 623.78 247.18 C 618.24 244.86 612.53 248.07 607.81 250.81 C 596.92 257.99 587.40 267.01 578.26 276.25 C 574.19 280.17 571.92 286.17 566.23 288.14 C 559.16 290.66 551.84 287.61 544.79 286.62 C 512.96 279.92 482.05 269.62 451.01 260.06 C 440.47 263.21 432.22 270.90 424.01 277.86 C 417.35 283.23 411.81 289.83 405.28 295.35 C 399.44 301.81 393.30 308.02 387.12 314.16 C 382.26 318.80 374.64 318.65 368.79 316.16 C 364.40 314.60 361.45 310.82 358.41 307.51 C 355.70 304.02 352.67 300.80 350.00 297.28 C 346.40 301.34 343.53 305.96 340.29 310.30 C 325.95 331.32 313.30 353.93 306.66 378.65 C 305.15 384.02 304.71 389.65 302.78 394.90 C 301.56 398.31 298.71 400.85 295.55 402.46 C 291.49 404.07 287.19 403.30 283.35 401.46 C 279.14 398.18 276.47 392.82 277.41 387.43 C 280.15 369.03 286.57 351.34 294.67 334.66 C 306.16 310.63 321.63 288.77 338.19 268.01 C 340.96 264.46 345.47 262.07 350.04 262.31 C 353.84 262.35 357.36 264.35 360.05 266.91 C 365.57 273.30 370.51 280.20 376.37 286.30 C 393.06 269.22 409.96 251.94 430.33 239.23 C 426.62 225.37 424.26 210.92 425.64 196.58 C 428.39 188.74 436.13 184.44 441.72 178.81 C 451.30 169.31 461.68 160.35 469.17 149.01 C 461.59 130.05 453.42 111.33 445.26 92.62 C 440.39 81.04 434.41 69.99 429.03 58.67 L 428.72 58.60 C 428.73 58.11 428.73 57.12 428.73 56.63 C 427.80 56.84 425.93 57.26 425.00 57.48 C 424.53 58.76 423.04 58.93 421.97 59.42 C 416.45 61.42 411.02 63.68 405.67 66.11 C 389.25 72.82 374.16 82.36 360.09 93.09 C 334.31 112.13 313.22 136.98 296.65 164.31 C 291.48 173.07 287.40 182.41 283.27 191.69 C 279.22 202.49 274.78 213.18 272.07 224.42 L 271.82 225.22 C 269.81 232.70 268.51 240.39 267.20 248.02 C 265.48 251.09 266.66 254.64 265.61 257.88 C 264.63 261.93 264.83 266.14 264.37 270.26 C 248.27 271.71 234.40 285.98 233.42 302.13 C 232.42 307.35 232.15 312.76 233.28 317.99 C 234.74 334.38 239.91 350.11 243.79 366.02 C 249.13 384.44 254.28 402.92 260.14 421.18 C 263.05 431.32 266.18 441.51 271.31 450.79 C 274.00 455.33 277.50 459.33 280.33 463.79 C 286.51 472.95 297.18 478.20 307.99 479.25 C 320.37 508.22 331.49 537.75 345.64 565.93 C 354.86 586.05 364.78 605.89 376.30 624.81 C 378.80 630.66 377.62 637.17 377.29 643.31 C 375.47 666.39 370.06 688.99 366.54 711.83 C 365.65 712.56 364.86 713.49 363.72 713.86 C 354.55 717.20 345.44 720.74 336.32 724.22 C 318.30 731.29 299.59 736.36 281.05 741.81 C 281.49 743.35 283.10 743.92 284.34 744.68 C 303.05 753.64 319.47 766.61 334.99 780.23 C 345.48 789.35 354.82 799.70 364.80 809.35 C 374.98 807.86 384.74 804.48 394.59 801.62 C 415.13 795.18 435.41 787.91 455.67 780.66 C 458.15 779.48 458.02 776.39 458.68 774.13 C 462.95 752.51 464.43 730.47 466.42 708.57 C 466.94 703.60 469.53 698.75 474.09 696.45 C 479.83 693.73 487.50 695.54 490.83 701.10 C 493.46 704.86 493.23 709.66 493.01 714.03 C 490.74 738.51 489.02 763.14 483.52 787.17 C 501.32 802.74 518.07 819.49 534.57 836.45 C 548.68 852.06 562.74 867.84 574.75 885.19 C 581.24 894.08 586.50 903.78 592.12 913.22 C 604.26 904.42 617.07 896.05 631.44 891.42 C 635.29 890.96 639.75 890.50 643.07 892.95 C 646.75 895.31 649.36 899.56 648.85 904.05 C 649.23 909.76 644.95 914.80 639.87 916.84 C 624.71 922.79 611.05 932.11 598.80 942.73 C 590.86 953.57 583.91 965.22 578.34 977.46 C 612.37 974.05 645.37 964.16 677.75 953.52 C 698.61 946.01 718.75 936.69 738.39 926.41 C 754.61 917.74 770.62 908.62 785.84 898.28 C 780.88 898.58 775.22 900.09 770.72 897.18 C 768.12 895.89 766.37 893.49 765.03 891.01 C 760.18 883.08 753.81 876.24 747.78 869.21 C 735.77 856.89 723.58 844.69 710.27 833.77 C 705.42 830.79 701.27 826.35 699.47 820.89 C 698.50 813.80 695.98 807.05 694.94 799.98 C 690.55 775.85 691.84 751.13 694.29 726.88 C 685.35 722.60 675.36 721.03 666.33 716.94 C 664.68 703.16 661.54 689.63 659.10 675.98 C 655.22 658.98 652.42 641.75 648.28 624.82 C 646.13 627.14 644.09 629.72 641.21 631.18 C 635.54 634.41 628.35 632.21 623.54 628.37 C 617.89 625.19 614.07 619.81 608.98 615.95 C 606.80 613.10 605.02 609.67 605.35 605.97 C 605.60 598.27 610.71 592.09 613.03 585.01 C 617.53 572.53 621.47 559.85 625.13 547.10 C 626.78 542.62 623.13 538.62 620.68 535.26 C 613.18 526.82 604.99 519.00 596.76 511.28 C 591.82 507.62 586.75 502.60 586.93 495.97 C 586.23 489.08 590.72 483.53 594.20 478.12 C 601.78 463.59 604.39 447.12 606.11 431.00 C 606.36 424.29 607.43 417.63 607.19 410.90 C 607.57 409.53 606.41 408.14 605.03 408.25 C 594.31 407.74 583.61 406.88 572.93 405.72 C 569.10 405.11 565.17 403.27 563.15 399.81 C 560.27 395.61 560.50 389.80 562.57 385.32 C 563.81 384.06 565.05 382.80 566.30 381.56 C 572.03 379.01 577.32 375.61 583.04 373.04 C 608.79 361.06 638.20 354.07 666.39 360.53 C 674.08 362.46 682.31 364.19 688.39 369.64 C 689.52 371.57 690.68 373.53 691.22 375.73 C 692.31 379.14 690.57 382.56 690.69 386.01 C 690.51 393.37 685.24 399.82 678.69 402.75 C 665.05 409.61 649.35 408.50 634.59 409.60 C 633.14 415.41 634.37 421.47 633.39 427.34 C 631.60 449.80 628.11 472.88 616.98 492.82 C 624.30 499.88 631.62 506.94 638.55 514.39 C 642.88 519.15 645.88 525.00 650.63 529.39 C 654.28 532.76 655.53 538.28 654.27 543.02 C 653.03 548.04 651.56 553.02 650.05 557.97 C 645.85 571.46 642.26 585.21 636.71 598.23 C 640.12 601.58 643.53 604.92 646.27 608.87 C 646.21 609.62 646.09 611.13 646.02 611.89 L 647.84 610.43 C 648.40 611.42 648.95 612.42 649.49 613.44 C 657.85 597.70 666.27 581.99 673.63 565.76 C 687.24 537.42 699.08 508.31 711.06 479.25 C 723.32 478.17 735.09 471.30 740.97 460.30 C 750.65 448.98 754.75 434.37 759.07 420.43 C 768.19 390.97 776.91 361.33 783.87 331.26 C 785.26 323.93 786.64 316.52 786.46 309.03 C 786.29 299.10 783.55 288.80 776.51 281.46 C 771.16 275.48 763.71 271.89 756.02 269.98 C 753.43 267.66 753.58 263.29 753.83 260.00 C 754.05 255.80 750.98 251.74 752.81 247.62 C 752.11 246.39 751.49 245.12 750.90 243.85 C 749.47 233.78 746.83 223.90 743.86 214.18 C 741.40 206.17 737.95 198.50 735.24 190.59 L 734.55 190.49 C 734.18 187.28 731.80 184.77 731.21 181.62 L 730.26 181.47 C 730.34 181.00 730.51 180.06 730.60 179.59 L 729.28 179.46 C 729.37 178.99 729.54 178.04 729.63 177.57 L 728.30 177.46 C 728.38 176.99 728.55 176.06 728.64 175.59 L 727.30 175.46 C 727.38 174.99 727.54 174.05 727.62 173.58 L 726.28 173.48 C 726.36 173.01 726.52 172.05 726.60 171.57 L 725.24 171.49 C 725.34 171.02 725.53 170.06 725.62 169.59 L 724.33 169.57 C 724.35 169.19 724.37 168.42 724.39 168.04 C 722.03 164.53 719.78 160.93 717.64 157.28 C 714.76 152.53 711.17 148.25 708.31 143.51 L 707.66 143.43 C 707.19 141.93 705.89 140.95 705.28 139.53 L 704.65 139.44 C 704.16 137.71 702.70 136.64 701.72 135.23 C 700.29 133.27 698.44 131.64 697.26 129.50 L 696.76 129.44 C 695.35 126.81 692.68 125.18 691.23 122.58 L 690.40 122.54 L 690.58 121.40 L 689.78 121.41 C 689.26 120.63 688.69 119.89 688.08 119.20 C 676.30 106.12 662.37 95.17 647.93 85.20 C 630.30 72.61 610.21 64.03 589.90 56.77 C 584.75 54.81 579.02 54.23 574.36 51.12 C 573.76 51.24 572.56 51.46 571.97 51.58 C 564.52 49.76 557.01 48.08 549.37 47.31 C 546.74 46.35 543.96 46.06 541.27 45.37 C 540.73 45.49 539.64 45.73 539.10 45.85 C 531.76 44.88 524.31 45.11 516.97 44.11 C 508.93 43.77 500.92 44.54 492.90 44.88 M 720.73 736.24 C 719.68 741.41 719.89 746.71 719.26 751.93 C 718.52 771.25 718.96 791.11 725.18 809.61 C 728.34 813.75 732.56 817.05 736.51 820.46 C 750.61 833.33 764.55 846.48 776.70 861.25 C 779.55 864.05 781.26 867.92 784.69 870.15 C 799.64 865.54 815.36 863.62 830.95 863.00 C 848.27 849.26 864.11 833.35 878.37 816.37 C 883.90 810.11 889.33 803.74 894.33 797.03 C 889.77 794.37 884.48 793.41 879.66 791.34 C 844.23 779.98 808.27 770.11 773.68 756.28 C 757.64 749.93 741.59 743.59 725.47 737.44 C 723.93 736.87 722.31 736.56 720.73 736.24 M 230.43 758.27 C 202.39 768.07 174.71 778.88 147.29 790.29 C 141.49 793.00 135.46 795.55 130.55 799.74 C 131.18 802.33 133.50 803.97 134.90 806.14 C 144.42 816.90 153.56 828.04 163.71 838.24 C 168.24 843.06 173.40 847.23 178.17 851.82 C 184.23 857.85 190.88 863.22 197.45 868.69 C 216.59 884.88 236.96 899.61 258.59 912.31 C 285.31 928.04 313.12 942.04 342.26 952.73 C 374.02 963.60 406.51 972.81 439.86 977.23 C 449.55 978.42 459.23 980.34 469.04 980.00 C 495.43 980.02 521.82 979.95 548.21 980.04 C 549.48 977.52 550.28 974.81 551.21 972.16 C 556.28 959.03 563.65 946.96 571.10 935.07 C 571.67 933.29 570.51 931.63 569.94 930.04 C 564.86 918.99 558.23 908.73 551.23 898.83 C 537.17 879.47 521.26 861.55 504.43 844.58 C 494.36 834.67 484.61 824.41 473.95 815.13 C 470.81 812.13 467.79 808.97 464.24 806.44 C 436.78 815.73 409.58 826.02 381.53 833.47 C 374.13 835.15 366.64 836.94 359.02 836.85 C 354.84 837.12 351.11 834.60 348.36 831.69 C 341.91 825.47 336.52 818.20 329.55 812.51 C 314.69 797.81 298.78 783.90 280.66 773.33 C 270.70 767.54 259.83 762.59 248.18 761.81 C 244.16 761.42 239.81 761.12 236.48 758.57 C 234.85 756.82 232.35 757.50 230.43 758.27 Z" />
<path fill="#ffffff" opacity="1.00" d=" M 340.37 365.32 C 353.48 359.90 367.82 357.64 381.97 358.15 C 408.80 359.10 434.33 369.39 457.33 382.66 C 459.85 385.36 461.04 388.82 461.40 392.45 C 460.95 394.90 460.50 397.38 459.43 399.66 C 456.78 402.85 453.19 405.30 448.99 405.74 C 422.13 408.47 395.09 410.18 368.09 408.69 C 357.03 407.31 344.52 406.04 336.35 397.60 C 331.12 392.43 331.38 384.77 330.46 378.03 C 330.82 372.25 335.04 367.31 340.37 365.32 Z" />
<path fill="#ffffff" opacity="1.00" d=" M 461.67 572.71 C 493.40 566.55 527.07 565.36 558.02 575.96 C 565.92 577.93 569.44 586.31 576.38 589.90 C 581.76 592.93 583.55 600.83 579.84 605.84 C 577.30 610.21 571.49 610.66 566.98 610.05 C 529.09 602.79 490.11 603.57 451.95 608.14 C 446.76 608.86 440.47 607.21 438.35 601.91 C 436.25 597.99 437.74 593.52 439.91 590.01 C 442.86 587.93 445.55 585.50 448.57 583.52 C 453.42 580.42 455.50 573.79 461.67 572.71 Z" />
</g>
<g id="#bca8ac8e">
<path fill="#bca8ac" opacity="0.56" d=" M 492.90 44.88 C 500.92 44.54 508.93 43.77 516.97 44.11 C 524.31 45.11 531.76 44.88 539.10 45.85 C 539.64 45.73 540.73 45.49 541.27 45.37 C 543.96 46.06 546.74 46.35 549.37 47.31 C 557.01 48.08 564.52 49.76 571.97 51.58 C 572.56 51.46 573.76 51.24 574.36 51.12 C 579.02 54.23 584.75 54.81 589.90 56.77 C 610.21 64.03 630.30 72.61 647.93 85.20 C 662.37 95.17 676.30 106.12 688.08 119.20 C 670.18 101.57 650.34 85.66 628.14 73.75 C 610.54 64.55 592.04 56.86 572.75 52.11 C 557.77 47.94 542.21 46.69 526.82 44.97 C 515.51 44.82 504.20 44.01 492.90 44.88 Z" />
<path fill="#bca8ac" opacity="0.56" d=" M 425.00 57.48 C 425.93 57.26 427.80 56.84 428.73 56.63 C 428.73 57.12 428.73 58.11 428.72 58.60 C 424.99 57.20 421.77 60.27 418.30 61.14 C 400.42 68.24 383.09 77.00 367.50 88.34 C 358.15 94.88 349.32 102.12 340.89 109.81 C 334.60 114.52 330.05 120.98 324.63 126.58 C 319.11 133.16 313.56 139.74 308.71 146.83 C 295.96 164.24 286.54 183.83 278.80 203.91 C 276.07 210.58 274.63 217.69 272.07 224.42 C 274.78 213.18 279.22 202.49 283.27 191.69 C 287.40 182.41 291.48 173.07 296.65 164.31 C 313.22 136.98 334.31 112.13 360.09 93.09 C 374.16 82.36 389.25 72.82 405.67 66.11 C 411.02 63.68 416.45 61.42 421.97 59.42 C 423.04 58.93 424.53 58.76 425.00 57.48 Z" />
<path fill="#bca8ac" opacity="0.56" d=" M 267.20 248.02 C 268.51 240.39 269.81 232.70 271.82 225.22 C 269.26 237.37 266.92 249.60 265.91 261.99 C 265.73 264.85 265.34 267.70 264.60 270.48 C 254.78 272.18 245.49 277.55 239.96 285.96 C 233.03 295.86 232.61 308.48 233.84 320.08 C 236.36 335.42 240.17 350.51 244.33 365.48 C 250.94 389.47 257.92 413.36 265.79 436.97 C 269.10 447.38 275.53 456.33 282.07 464.92 C 288.32 472.79 297.95 477.61 307.94 478.29 C 326.61 522.94 344.81 567.97 368.61 610.21 C 371.64 615.29 373.95 620.87 377.72 625.47 C 378.52 631.38 377.75 637.38 377.29 643.31 C 377.62 637.17 378.80 630.66 376.30 624.81 C 364.78 605.89 354.86 586.05 345.64 565.93 C 331.49 537.75 320.37 508.22 307.99 479.25 C 297.18 478.20 286.51 472.95 280.33 463.79 C 277.50 459.33 274.00 455.33 271.31 450.79 C 266.18 441.51 263.05 431.32 260.14 421.18 C 254.28 402.92 249.13 384.44 243.79 366.02 C 239.91 350.11 234.74 334.38 233.28 317.99 C 232.15 312.76 232.42 307.35 233.42 302.13 C 234.40 285.98 248.27 271.71 264.37 270.26 C 264.83 266.14 264.63 261.93 265.61 257.88 C 266.66 254.64 265.48 251.09 267.20 248.02 Z" />
<path fill="#bca8ac" opacity="0.56" d=" M 750.90 243.85 C 751.49 245.12 752.11 246.39 752.81 247.62 C 750.98 251.74 754.05 255.80 753.83 260.00 C 753.58 263.29 753.43 267.66 756.02 269.98 C 763.71 271.89 771.16 275.48 776.51 281.46 C 783.55 288.80 786.29 299.10 786.46 309.03 C 786.64 316.52 785.26 323.93 783.87 331.26 C 776.91 361.33 768.19 390.97 759.07 420.43 C 754.75 434.37 750.65 448.98 740.97 460.30 C 735.09 471.30 723.32 478.17 711.06 479.25 C 699.08 508.31 687.24 537.42 673.63 565.76 C 666.27 581.99 657.85 597.70 649.49 613.44 C 648.95 612.42 648.40 611.42 647.84 610.43 L 646.02 611.89 C 646.09 611.13 646.21 609.62 646.27 608.87 C 647.39 610.03 648.75 610.92 650.26 611.54 C 652.26 606.08 655.66 601.32 658.19 596.11 C 662.86 586.70 667.82 577.43 672.01 567.79 C 686.50 538.62 698.27 508.22 711.07 478.29 C 719.36 477.63 727.60 474.39 733.58 468.50 C 737.94 464.39 741.06 459.23 744.50 454.38 C 752.74 443.34 755.51 429.53 759.86 416.73 C 765.79 396.52 771.97 376.38 777.32 356.00 C 780.35 343.76 783.68 331.55 785.29 319.02 C 785.71 309.90 786.30 300.31 782.31 291.81 C 777.40 280.61 766.57 271.85 754.21 270.76 C 753.13 261.78 752.25 252.78 750.90 243.85 Z" />
</g>
<g id="#88001bff">
<path fill="#88001b" opacity="1.00" d=" M 455.31 49.78 C 467.75 47.50 480.28 45.78 492.90 44.88 C 504.20 44.01 515.51 44.82 526.82 44.97 C 542.21 46.69 557.77 47.94 572.75 52.11 C 592.04 56.86 610.54 64.55 628.14 73.75 C 650.34 85.66 670.18 101.57 688.08 119.20 C 688.69 119.89 689.26 120.63 689.78 121.41 L 690.58 121.40 L 690.40 122.54 L 691.23 122.58 C 692.68 125.18 695.35 126.81 696.76 129.44 L 697.26 129.50 C 698.44 131.64 700.29 133.27 701.72 135.23 C 702.70 136.64 704.16 137.71 704.65 139.44 L 705.28 139.53 C 705.89 140.95 707.19 141.93 707.66 143.43 L 708.31 143.51 C 711.17 148.25 714.76 152.53 717.64 157.28 C 719.78 160.93 722.03 164.53 724.39 168.04 C 724.37 168.42 724.35 169.19 724.33 169.57 L 725.62 169.59 C 725.53 170.06 725.34 171.02 725.24 171.49 L 726.60 171.57 C 726.52 172.05 726.36 173.01 726.28 173.48 L 727.62 173.58 C 727.54 174.05 727.38 174.99 727.30 175.46 L 728.64 175.59 C 728.55 176.06 728.38 176.99 728.30 177.46 L 729.63 177.57 C 729.54 178.04 729.37 178.99 729.28 179.46 L 730.60 179.59 C 730.51 180.06 730.34 181.00 730.26 181.47 L 731.21 181.62 C 731.80 184.77 734.18 187.28 734.55 190.49 L 735.24 190.59 C 737.95 198.50 741.40 206.17 743.86 214.18 C 746.83 223.90 749.47 233.78 750.90 243.85 C 752.25 252.78 753.13 261.78 754.21 270.76 C 766.57 271.85 777.40 280.61 782.31 291.81 C 786.30 300.31 785.71 309.90 785.29 319.02 C 783.68 331.55 780.35 343.76 777.32 356.00 C 771.97 376.38 765.79 396.52 759.86 416.73 C 755.51 429.53 752.74 443.34 744.50 454.38 C 741.06 459.23 737.94 464.39 733.58 468.50 C 727.60 474.39 719.36 477.63 711.07 478.29 C 698.27 508.22 686.50 538.62 672.01 567.79 C 667.82 577.43 662.86 586.70 658.19 596.11 C 655.66 601.32 652.26 606.08 650.26 611.54 C 648.75 610.92 647.39 610.03 646.27 608.87 C 643.53 604.92 640.12 601.58 636.71 598.23 C 642.26 585.21 645.85 571.46 650.05 557.97 C 651.56 553.02 653.03 548.04 654.27 543.02 C 655.53 538.28 654.28 532.76 650.63 529.39 C 645.88 525.00 642.88 519.15 638.55 514.39 C 631.62 506.94 624.30 499.88 616.98 492.82 C 628.11 472.88 631.60 449.80 633.39 427.34 C 634.37 421.47 633.14 415.41 634.59 409.60 C 649.35 408.50 665.05 409.61 678.69 402.75 C 685.24 399.82 690.51 393.37 690.69 386.01 C 690.57 382.56 692.31 379.14 691.22 375.73 C 690.68 373.53 689.52 371.57 688.39 369.64 C 682.31 364.19 674.08 362.46 666.39 360.53 C 638.20 354.07 608.79 361.06 583.04 373.04 C 577.32 375.61 572.03 379.01 566.30 381.56 C 565.05 382.80 563.81 384.06 562.57 385.32 C 560.50 389.80 560.27 395.61 563.15 399.81 C 565.17 403.27 569.10 405.11 572.93 405.72 C 583.61 406.88 594.31 407.74 605.03 408.25 C 606.41 408.14 607.57 409.53 607.19 410.90 C 607.43 417.63 606.36 424.29 606.11 431.00 C 604.39 447.12 601.78 463.59 594.20 478.12 C 590.72 483.53 586.23 489.08 586.93 495.97 C 586.75 502.60 591.82 507.62 596.76 511.28 C 604.99 519.00 613.18 526.82 620.68 535.26 C 623.13 538.62 626.78 542.62 625.13 547.10 C 621.47 559.85 617.53 572.53 613.03 585.01 C 610.71 592.09 605.60 598.27 605.35 605.97 C 605.02 609.67 606.80 613.10 608.98 615.95 C 614.07 619.81 617.89 625.19 623.54 628.37 C 628.35 632.21 635.54 634.41 641.21 631.18 C 644.09 629.72 646.13 627.14 648.28 624.82 C 652.42 641.75 655.22 658.98 659.10 675.98 C 661.54 689.63 664.68 703.16 666.33 716.94 C 675.36 721.03 685.35 722.60 694.29 726.88 C 691.84 751.13 690.55 775.85 694.94 799.98 C 695.98 807.05 698.50 813.80 699.47 820.89 C 701.27 826.35 705.42 830.79 710.27 833.77 C 723.58 844.69 735.77 856.89 747.78 869.21 C 753.81 876.24 760.18 883.08 765.03 891.01 C 766.37 893.49 768.12 895.89 770.72 897.18 C 775.22 900.09 780.88 898.58 785.84 898.28 C 770.62 908.62 754.61 917.74 738.39 926.41 C 718.75 936.69 698.61 946.01 677.75 953.52 C 645.37 964.16 612.37 974.05 578.34 977.46 C 583.91 965.22 590.86 953.57 598.80 942.73 C 611.05 932.11 624.71 922.79 639.87 916.84 C 644.95 914.80 649.23 909.76 648.85 904.05 C 649.36 899.56 646.75 895.31 643.07 892.95 C 639.75 890.50 635.29 890.96 631.44 891.42 C 617.07 896.05 604.26 904.42 592.12 913.22 C 586.50 903.78 581.24 894.08 574.75 885.19 C 562.74 867.84 548.68 852.06 534.57 836.45 C 518.07 819.49 501.32 802.74 483.52 787.17 C 489.02 763.14 490.74 738.51 493.01 714.03 C 493.23 709.66 493.46 704.86 490.83 701.10 C 487.50 695.54 479.83 693.73 474.09 696.45 C 469.53 698.75 466.94 703.60 466.42 708.57 C 464.43 730.47 462.95 752.51 458.68 774.13 C 458.02 776.39 458.15 779.48 455.67 780.66 C 435.41 787.91 415.13 795.18 394.59 801.62 C 384.74 804.48 374.98 807.86 364.80 809.35 C 354.82 799.70 345.48 789.35 334.99 780.23 C 319.47 766.61 303.05 753.64 284.34 744.68 C 283.10 743.92 281.49 743.35 281.05 741.81 C 299.59 736.36 318.30 731.29 336.32 724.22 C 345.44 720.74 354.55 717.20 363.72 713.86 C 364.86 713.49 365.65 712.56 366.54 711.83 C 370.06 688.99 375.47 666.39 377.29 643.31 C 377.75 637.38 378.52 631.38 377.72 625.47 C 373.95 620.87 371.64 615.29 368.61 610.21 C 344.81 567.97 326.61 522.94 307.94 478.29 C 297.95 477.61 288.32 472.79 282.07 464.92 C 275.53 456.33 269.10 447.38 265.79 436.97 C 257.92 413.36 250.94 389.47 244.33 365.48 C 240.17 350.51 236.36 335.42 233.84 320.08 C 232.61 308.48 233.03 295.86 239.96 285.96 C 245.49 277.55 254.78 272.18 264.60 270.48 C 265.34 267.70 265.73 264.85 265.91 261.99 C 266.92 249.60 269.26 237.37 271.82 225.22 L 272.07 224.42 C 274.63 217.69 276.07 210.58 278.80 203.91 C 286.54 183.83 295.96 164.24 308.71 146.83 C 313.56 139.74 319.11 133.16 324.63 126.58 C 330.05 120.98 334.60 114.52 340.89 109.81 C 349.32 102.12 358.15 94.88 367.50 88.34 C 383.09 77.00 400.42 68.24 418.30 61.14 C 421.77 60.27 424.99 57.20 428.72 58.60 L 429.03 58.67 C 434.41 69.99 440.39 81.04 445.26 92.62 C 453.42 111.33 461.59 130.05 469.17 149.01 C 461.68 160.35 451.30 169.31 441.72 178.81 C 436.13 184.44 428.39 188.74 425.64 196.58 C 424.26 210.92 426.62 225.37 430.33 239.23 C 409.96 251.94 393.06 269.22 376.37 286.30 C 370.51 280.20 365.57 273.30 360.05 266.91 C 357.36 264.35 353.84 262.35 350.04 262.31 C 345.47 262.07 340.96 264.46 338.19 268.01 C 321.63 288.77 306.16 310.63 294.67 334.66 C 286.57 351.34 280.15 369.03 277.41 387.43 C 276.47 392.82 279.14 398.18 283.35 401.46 C 287.19 403.30 291.49 404.07 295.55 402.46 C 298.71 400.85 301.56 398.31 302.78 394.90 C 304.71 389.65 305.15 384.02 306.66 378.65 C 313.30 353.93 325.95 331.32 340.29 310.30 C 343.53 305.96 346.40 301.34 350.00 297.28 C 352.67 300.80 355.70 304.02 358.41 307.51 C 361.45 310.82 364.40 314.60 368.79 316.16 C 374.64 318.65 382.26 318.80 387.12 314.16 C 393.30 308.02 399.44 301.81 405.28 295.35 C 411.81 289.83 417.35 283.23 424.01 277.86 C 432.22 270.90 440.47 263.21 451.01 260.06 C 482.05 269.62 512.96 279.92 544.79 286.62 C 551.84 287.61 559.16 290.66 566.23 288.14 C 571.92 286.17 574.19 280.17 578.26 276.25 C 587.40 267.01 596.92 257.99 607.81 250.81 C 612.53 248.07 618.24 244.86 623.78 247.18 C 651.16 256.17 678.65 265.40 704.34 278.63 C 710.26 281.47 715.88 284.93 721.26 288.69 C 722.77 289.57 721.98 291.55 721.94 292.93 C 718.57 315.32 712.72 337.21 706.92 359.06 C 705.53 363.31 706.50 367.80 708.57 371.65 C 713.18 378.17 723.63 378.71 729.11 373.02 C 731.76 370.31 732.64 366.45 733.74 362.95 C 740.30 338.28 746.87 313.47 749.64 288.02 C 749.91 283.38 750.81 278.36 749.23 273.92 C 737.46 266.46 725.73 258.80 713.13 252.77 C 686.25 239.56 657.86 229.75 629.37 220.64 C 624.68 219.22 619.71 217.18 614.77 218.75 C 609.36 220.65 603.87 222.42 598.69 224.91 C 581.99 233.79 568.65 247.49 555.66 260.97 C 550.70 260.72 545.91 259.30 541.10 258.19 C 514.33 251.79 488.11 243.35 461.83 235.21 C 459.80 234.48 457.14 234.09 456.23 231.82 C 454.27 223.35 451.73 214.71 452.88 205.93 C 453.85 204.01 455.68 202.70 457.17 201.20 C 464.81 194.86 471.64 187.64 478.58 180.57 C 485.73 172.17 494.06 163.74 496.38 152.55 C 497.41 148.66 496.58 144.59 495.10 140.94 C 483.54 112.82 471.89 84.72 458.62 57.37 C 457.34 54.92 455.93 52.50 455.31 49.78 M 340.37 365.32 C 335.04 367.31 330.82 372.25 330.46 378.03 C 331.38 384.77 331.12 392.43 336.35 397.60 C 344.52 406.04 357.03 407.31 368.09 408.69 C 395.09 410.18 422.13 408.47 448.99 405.74 C 453.19 405.30 456.78 402.85 459.43 399.66 C 460.50 397.38 460.95 394.90 461.40 392.45 C 461.04 388.82 459.85 385.36 457.33 382.66 C 434.33 369.39 408.80 359.10 381.97 358.15 C 367.82 357.64 353.48 359.90 340.37 365.32 M 461.67 572.71 C 455.50 573.79 453.42 580.42 448.57 583.52 C 445.55 585.50 442.86 587.93 439.91 590.01 C 437.74 593.52 436.25 597.99 438.35 601.91 C 440.47 607.21 446.76 608.86 451.95 608.14 C 490.11 603.57 529.09 602.79 566.98 610.05 C 571.49 610.66 577.30 610.21 579.84 605.84 C 583.55 600.83 581.76 592.93 576.38 589.90 C 569.44 586.31 565.92 577.93 558.02 575.96 C 527.07 565.36 493.40 566.55 461.67 572.71 Z" />
<path fill="#88001b" opacity="1.00" d=" M 720.73 736.24 C 722.31 736.56 723.93 736.87 725.47 737.44 C 741.59 743.59 757.64 749.93 773.68 756.28 C 808.27 770.11 844.23 779.98 879.66 791.34 C 884.48 793.41 889.77 794.37 894.33 797.03 C 889.33 803.74 883.90 810.11 878.37 816.37 C 864.11 833.35 848.27 849.26 830.95 863.00 C 815.36 863.62 799.64 865.54 784.69 870.15 C 781.26 867.92 779.55 864.05 776.70 861.25 C 764.55 846.48 750.61 833.33 736.51 820.46 C 732.56 817.05 728.34 813.75 725.18 809.61 C 718.96 791.11 718.52 771.25 719.26 751.93 C 719.89 746.71 719.68 741.41 720.73 736.24 Z" />
<path fill="#88001b" opacity="1.00" d=" M 230.43 758.27 C 232.35 757.50 234.85 756.82 236.48 758.57 C 239.81 761.12 244.16 761.42 248.18 761.81 C 259.83 762.59 270.70 767.54 280.66 773.33 C 298.78 783.90 314.69 797.81 329.55 812.51 C 336.52 818.20 341.91 825.47 348.36 831.69 C 351.11 834.60 354.84 837.12 359.02 836.85 C 366.64 836.94 374.13 835.15 381.53 833.47 C 409.58 826.02 436.78 815.73 464.24 806.44 C 467.79 808.97 470.81 812.13 473.95 815.13 C 484.61 824.41 494.36 834.67 504.43 844.58 C 521.26 861.55 537.17 879.47 551.23 898.83 C 558.23 908.73 564.86 918.99 569.94 930.04 C 570.51 931.63 571.67 933.29 571.10 935.07 C 563.65 946.96 556.28 959.03 551.21 972.16 C 550.28 974.81 549.48 977.52 548.21 980.04 C 521.82 979.95 495.43 980.02 469.04 980.00 C 459.23 980.34 449.55 978.42 439.86 977.23 C 406.51 972.81 374.02 963.60 342.26 952.73 C 313.12 942.04 285.31 928.04 258.59 912.31 C 236.96 899.61 216.59 884.88 197.45 868.69 C 190.88 863.22 184.23 857.85 178.17 851.82 C 173.40 847.23 168.24 843.06 163.71 838.24 C 153.56 828.04 144.42 816.90 134.90 806.14 C 133.50 803.97 131.18 802.33 130.55 799.74 C 135.46 795.55 141.49 793.00 147.29 790.29 C 174.71 778.88 202.39 768.07 230.43 758.27 Z" />
</g>
</svg>
