<?xml version="1.0" encoding="UTF-8" ?>
<!DOCTYPE svg PUBLIC "-//W3C//DTD SVG 1.1//EN" "http://www.w3.org/Graphics/SVG/1.1/DTD/svg11.dtd">
<svg width="1024pt" height="1024pt" viewBox="0 0 1024 1024" version="1.1" xmlns="http://www.w3.org/2000/svg">
<g id="#ffffffff">
<path fill="#ffffff" opacity="1.00" d=" M 478.46 11.32 C 488.25 3.84 500.69 -0.26 513.04 0.30 C 527.93 -0.26 543.18 5.65 553.31 16.69 C 561.17 24.37 564.77 35.02 569.10 44.84 C 573.59 56.03 578.58 67.05 582.38 78.51 C 592.74 100.61 603.07 122.74 612.64 145.21 C 615.41 153.10 619.98 160.17 622.98 167.94 C 627.68 177.91 633.31 187.46 637.08 197.84 C 640.42 205.69 645.11 212.95 647.64 221.16 C 651.85 228.29 655.32 235.82 659.07 243.21 C 661.33 247.82 663.85 252.32 665.61 257.16 C 670.55 267.66 676.34 277.77 680.70 288.54 C 685.54 297.43 690.46 306.29 694.57 315.55 C 697.40 323.29 702.39 329.95 705.70 337.47 C 709.65 344.41 711.88 352.19 716.32 358.86 C 723.11 371.78 729.00 385.18 736.36 397.78 C 744.95 414.77 753.06 432.01 762.65 448.45 C 765.66 454.11 768.18 460.03 771.65 465.44 C 775.99 474.16 780.62 482.76 784.53 491.70 C 789.36 500.07 795.12 507.86 799.95 516.24 C 804.74 523.74 808.32 531.92 812.38 539.83 C 817.50 551.96 823.75 563.63 827.89 576.16 C 832.01 586.58 834.86 597.45 838.12 608.16 C 841.02 621.55 843.78 635.05 844.63 648.75 C 846.06 656.58 845.28 664.57 845.70 672.49 L 846.35 672.46 C 846.52 682.83 846.44 693.20 846.34 703.57 L 845.67 703.43 C 845.88 732.47 841.55 761.65 831.81 789.08 C 827.93 801.50 823.18 813.64 817.75 825.46 C 813.95 832.54 811.25 840.13 807.38 847.18 C 802.27 858.32 794.98 868.23 788.28 878.44 C 776.86 894.69 764.98 910.82 750.21 924.24 C 743.35 931.03 736.97 938.37 729.31 944.30 C 721.62 951.12 712.99 956.71 704.86 962.96 C 695.44 969.29 686.43 976.34 676.20 981.38 C 668.53 985.10 661.05 989.26 653.12 992.43 C 642.60 998.04 631.39 1002.14 620.22 1006.27 C 597.75 1014.62 574.12 1020.27 550.16 1021.77 C 543.05 1023.03 535.79 1022.26 528.61 1022.78 L 528.53 1023.39 C 517.18 1023.56 505.83 1023.50 494.48 1023.36 L 494.45 1022.73 C 487.26 1022.26 479.98 1023.04 472.85 1021.77 C 445.99 1020.19 419.74 1012.96 394.74 1003.26 C 385.65 999.98 376.85 995.96 368.23 991.61 C 356.87 986.76 345.84 981.10 335.26 974.74 C 326.91 969.08 318.58 963.39 310.57 957.27 C 301.43 951.33 293.43 943.91 285.22 936.81 C 282.01 933.63 278.75 930.50 275.87 927.01 C 263.53 916.01 252.43 903.56 243.20 889.83 C 237.32 882.87 232.55 875.09 227.47 867.55 C 216.58 852.00 209.72 834.20 201.63 817.17 C 197.20 807.33 193.78 797.09 190.45 786.84 C 184.41 769.74 180.88 751.82 179.18 733.80 C 177.94 728.63 179.17 723.23 177.86 718.11 C 177.59 713.57 177.36 709.03 177.34 704.48 L 176.68 704.53 C 176.47 694.16 176.55 683.80 176.68 673.44 L 177.34 673.58 C 177.03 664.97 178.71 656.50 178.59 647.91 C 179.21 643.21 179.58 638.47 180.24 633.78 C 182.35 612.40 189.83 592.09 196.56 571.83 C 199.23 564.81 202.59 558.08 205.46 551.15 C 209.13 543.70 212.86 536.21 214.81 528.10 C 221.17 512.99 229.89 499.05 237.91 484.79 C 240.30 481.33 241.26 477.18 243.29 473.53 C 248.87 464.47 252.87 454.55 258.03 445.26 C 262.10 438.59 265.62 431.61 269.60 424.90 C 272.88 418.39 275.94 411.77 279.59 405.46 C 282.58 397.61 287.52 390.76 290.95 383.13 C 294.43 376.59 298.52 370.38 301.27 363.47 C 305.24 356.88 308.41 349.86 312.33 343.25 C 315.37 334.86 320.44 327.47 324.32 319.49 C 328.95 312.56 330.97 304.29 335.74 297.43 C 339.09 290.34 343.73 283.91 346.44 276.51 C 349.00 270.05 353.03 264.35 356.07 258.13 C 360.85 248.32 365.68 238.51 370.70 228.82 C 376.65 219.55 379.80 208.87 385.50 199.46 C 392.98 184.03 400.46 168.54 408.65 153.47 C 411.90 144.73 416.32 136.51 420.01 127.96 C 423.70 118.40 429.30 109.71 433.01 100.17 C 435.68 94.42 438.73 88.86 441.41 83.12 C 445.64 70.81 450.68 58.79 455.31 46.62 C 457.65 38.88 460.65 31.23 465.40 24.63 C 469.29 19.77 473.77 15.40 478.46 11.32 M 508.21 41.18 C 502.51 44.20 497.70 49.51 495.91 55.79 C 493.94 62.04 491.34 68.06 489.14 74.22 C 476.20 105.67 461.96 136.57 447.07 167.13 C 420.20 223.34 391.67 278.74 363.09 334.10 C 330.34 397.50 296.95 460.57 263.44 523.57 C 259.86 530.94 255.00 537.77 252.76 545.74 C 250.50 551.91 247.02 557.54 244.36 563.53 C 229.73 596.18 219.76 631.23 217.88 667.07 C 216.40 677.31 217.20 687.67 217.00 697.98 C 216.73 703.72 218.08 709.36 218.12 715.09 C 219.95 732.21 222.39 749.35 227.12 765.93 C 232.67 784.78 239.37 803.34 248.11 820.96 C 260.76 844.61 275.35 867.50 293.89 887.00 C 302.19 896.75 311.88 905.18 321.40 913.70 C 331.82 922.79 343.19 930.71 354.88 938.08 C 368.55 946.52 382.60 954.51 397.58 960.42 C 426.03 972.16 456.20 980.04 486.96 982.12 C 499.90 983.68 512.97 982.77 525.97 982.98 C 538.06 982.22 550.14 980.90 562.11 978.94 C 583.88 975.47 605.03 968.77 625.39 960.42 C 647.03 951.80 667.00 939.52 685.96 926.11 C 708.41 909.81 728.05 889.88 745.23 868.17 C 758.36 850.74 769.61 831.91 779.17 812.30 C 791.67 783.95 800.90 753.92 804.06 723.02 C 806.89 698.83 806.85 674.28 803.65 650.13 C 800.03 619.35 790.56 589.49 777.64 561.39 C 770.76 546.81 761.99 533.25 753.50 519.59 C 714.74 446.83 677.09 373.48 640.53 299.58 C 601.35 219.58 563.42 138.95 529.09 56.73 C 526.89 51.62 525.13 45.67 520.08 42.59 C 516.62 40.26 512.11 39.98 508.21 41.18 Z" />
<path fill="#ffffff" opacity="1.00" d=" M 422.11 452.14 C 461.57 431.97 507.84 426.60 551.21 434.71 C 568.19 437.84 584.72 443.24 600.16 451.01 C 623.77 461.56 644.16 478.24 661.24 497.48 C 682.45 523.03 697.16 554.60 699.88 587.92 C 701.10 596.26 700.87 604.71 700.64 613.11 C 699.09 631.84 695.45 650.62 687.62 667.80 C 677.22 691.55 661.65 713.13 641.64 729.70 C 636.54 734.59 630.66 738.66 625.68 743.63 C 621.92 758.58 618.44 773.68 614.70 788.68 C 609.08 809.14 601.60 829.08 593.54 848.68 C 587.44 852.14 580.93 854.78 574.54 857.64 C 566.61 861.05 557.95 862.02 549.52 863.51 C 533.54 865.79 517.17 867.54 501.12 864.92 C 479.96 862.00 458.86 857.63 438.84 850.07 C 437.79 849.55 436.42 849.30 435.82 848.21 C 432.86 840.74 428.54 833.88 425.61 826.39 C 419.55 818.23 418.23 807.79 414.06 798.69 C 411.22 790.40 407.78 782.33 404.99 774.02 C 401.44 765.55 401.05 756.25 398.66 747.47 C 398.11 744.67 398.05 741.25 395.27 739.61 C 383.65 731.47 373.70 721.28 363.99 711.01 C 355.35 700.94 348.11 689.73 342.02 677.97 C 329.79 655.71 324.48 630.17 323.86 604.95 C 324.01 584.99 327.39 564.97 334.40 546.24 C 340.42 531.42 348.44 517.46 357.76 504.48 C 363.25 497.45 369.30 490.87 375.75 484.74 C 389.36 471.51 404.91 460.25 422.11 452.14 M 405.69 616.86 C 403.37 618.07 400.79 618.58 398.31 619.35 C 395.95 621.37 393.34 623.17 391.17 625.36 C 388.90 630.93 388.79 637.05 388.32 642.96 C 388.11 650.51 387.91 658.13 389.14 665.61 C 390.86 674.10 394.46 682.23 399.86 689.04 C 403.74 695.95 408.34 702.79 415.02 707.30 C 419.21 709.53 423.25 712.28 427.97 713.30 C 433.56 714.58 439.31 715.10 445.04 715.04 C 451.09 715.04 457.31 716.02 463.24 714.44 C 466.66 713.04 470.07 711.63 473.52 710.29 L 473.57 709.30 C 473.92 709.33 474.61 709.39 474.96 709.42 C 478.16 705.85 481.77 702.15 481.81 697.00 C 480.79 690.19 478.23 683.72 477.08 676.93 C 473.27 665.04 467.54 653.36 458.30 644.73 C 450.33 637.41 443.51 628.82 434.75 622.38 C 428.85 619.57 422.33 618.41 416.03 616.84 C 412.65 616.23 408.86 614.94 405.69 616.86 M 603.55 620.00 C 599.14 621.05 594.48 621.99 590.77 624.76 C 586.40 628.36 582.82 632.81 578.42 636.38 C 575.51 638.80 572.97 641.61 570.53 644.50 C 563.67 651.86 556.92 660.22 555.14 670.41 C 553.66 676.66 551.78 682.81 549.87 688.93 C 549.57 692.27 549.59 695.65 549.69 699.01 C 549.69 703.73 553.75 707.26 557.66 709.22 C 567.96 715.19 580.22 716.37 591.89 716.38 C 599.98 714.91 608.16 713.19 615.58 709.52 C 618.55 708.04 622.23 706.82 623.46 703.39 C 626.69 696.32 630.01 689.24 632.24 681.77 C 636.23 667.58 637.39 652.64 636.13 637.98 C 636.41 630.64 630.72 624.79 625.04 621.01 C 618.27 618.32 610.60 619.07 603.55 620.00 M 521.71 744.87 C 521.07 749.15 523.24 753.07 524.01 757.19 C 525.72 765.41 527.47 773.69 527.87 782.10 C 529.36 789.41 528.12 797.12 530.71 804.24 C 531.91 806.66 534.11 808.76 536.92 808.99 C 544.13 809.76 551.40 809.42 558.63 809.26 C 563.55 806.70 566.22 801.51 566.21 796.05 C 566.13 786.03 563.09 776.21 558.85 767.19 C 554.90 760.98 549.66 755.72 544.82 750.22 C 539.77 745.39 535.43 739.42 528.89 736.49 C 525.50 738.07 522.04 740.88 521.71 744.87 M 493.94 739.97 C 483.33 748.63 473.70 758.45 464.70 768.75 C 461.96 772.41 460.82 776.94 459.19 781.14 C 457.14 787.32 454.03 794.08 456.79 800.56 C 457.46 801.53 458.10 802.54 458.70 803.58 L 459.59 803.46 L 459.31 804.61 L 460.47 804.48 L 460.59 805.38 C 467.79 808.88 476.15 808.29 483.96 808.37 C 487.48 808.65 490.35 806.39 493.50 805.26 L 493.40 804.49 L 494.55 804.59 L 494.47 803.43 L 495.40 803.53 C 496.96 796.79 496.91 789.78 497.49 782.91 C 499.04 773.15 501.64 763.60 504.13 754.06 C 504.73 748.96 506.79 743.50 504.30 738.59 C 500.91 737.01 496.72 737.39 493.94 739.97 Z" />
</g>
<g id="#88001bff">
<path fill="#88001b" opacity="1.00" d=" M 508.21 41.18 C 512.11 39.98 516.62 40.26 520.08 42.59 C 525.13 45.67 526.89 51.62 529.09 56.73 C 563.42 138.95 601.35 219.58 640.53 299.58 C 677.09 373.48 714.74 446.83 753.50 519.59 C 761.99 533.25 770.76 546.81 777.64 561.39 C 790.56 589.49 800.03 619.35 803.65 650.13 C 806.85 674.28 806.89 698.83 804.06 723.02 C 800.90 753.92 791.67 783.95 779.17 812.30 C 769.61 831.91 758.36 850.74 745.23 868.17 C 728.05 889.88 708.41 909.81 685.96 926.11 C 667.00 939.52 647.03 951.80 625.39 960.42 C 605.03 968.77 583.88 975.47 562.11 978.94 C 550.14 980.90 538.06 982.22 525.97 982.98 C 512.97 982.77 499.90 983.68 486.96 982.12 C 456.20 980.04 426.03 972.16 397.58 960.42 C 382.60 954.51 368.55 946.52 354.88 938.08 C 343.19 930.71 331.82 922.79 321.40 913.70 C 311.88 905.18 302.19 896.75 293.89 887.00 C 275.35 867.50 260.76 844.61 248.11 820.96 C 239.37 803.34 232.67 784.78 227.12 765.93 C 222.39 749.35 219.95 732.21 218.12 715.09 C 218.08 709.36 216.73 703.72 217.00 697.98 C 217.20 687.67 216.40 677.31 217.88 667.07 C 219.76 631.23 229.73 596.18 244.36 563.53 C 247.02 557.54 250.50 551.91 252.76 545.74 C 255.00 537.77 259.86 530.94 263.44 523.57 C 296.95 460.57 330.34 397.50 363.09 334.10 C 391.67 278.74 420.20 223.34 447.07 167.13 C 461.96 136.57 476.20 105.67 489.14 74.22 C 491.34 68.06 493.94 62.04 495.91 55.79 C 497.70 49.51 502.51 44.20 508.21 41.18 M 422.11 452.14 C 404.91 460.25 389.36 471.51 375.75 484.74 C 369.30 490.87 363.25 497.45 357.76 504.48 C 348.44 517.46 340.42 531.42 334.40 546.24 C 327.39 564.97 324.01 584.99 323.86 604.95 C 324.48 630.17 329.79 655.71 342.02 677.97 C 348.11 689.73 355.35 700.94 363.99 711.01 C 373.70 721.28 383.65 731.47 395.27 739.61 C 398.05 741.25 398.11 744.67 398.66 747.47 C 401.05 756.25 401.44 765.55 404.99 774.02 C 407.78 782.33 411.22 790.40 414.06 798.69 C 418.23 807.79 419.55 818.23 425.61 826.39 C 428.54 833.88 432.86 840.74 435.82 848.21 C 436.42 849.30 437.79 849.55 438.84 850.07 C 458.86 857.63 479.96 862.00 501.12 864.92 C 517.17 867.54 533.54 865.79 549.52 863.51 C 557.95 862.02 566.61 861.05 574.54 857.64 C 580.93 854.78 587.44 852.14 593.54 848.68 C 601.60 829.08 609.08 809.14 614.70 788.68 C 618.44 773.68 621.92 758.58 625.68 743.63 C 630.66 738.66 636.54 734.59 641.64 729.70 C 661.65 713.13 677.22 691.55 687.62 667.80 C 695.45 650.62 699.09 631.84 700.64 613.11 C 700.87 604.71 701.10 596.26 699.88 587.92 C 697.16 554.60 682.45 523.03 661.24 497.48 C 644.16 478.24 623.77 461.56 600.16 451.01 C 584.72 443.24 568.19 437.84 551.21 434.71 C 507.84 426.60 461.57 431.97 422.11 452.14 Z" />
<path fill="#88001b" opacity="1.00" d=" M 405.69 616.86 C 408.86 614.94 412.65 616.23 416.03 616.84 C 422.33 618.41 428.85 619.57 434.75 622.38 C 443.51 628.82 450.33 637.41 458.30 644.73 C 467.54 653.36 473.27 665.04 477.08 676.93 C 478.23 683.72 480.79 690.19 481.81 697.00 C 481.77 702.15 478.16 705.85 474.96 709.42 C 474.61 709.39 473.92 709.33 473.57 709.30 L 473.52 710.29 C 470.07 711.63 466.66 713.04 463.24 714.44 C 457.31 716.02 451.09 715.04 445.04 715.04 C 439.31 715.10 433.56 714.58 427.97 713.30 C 423.25 712.28 419.21 709.53 415.02 707.30 C 408.34 702.79 403.74 695.95 399.86 689.04 C 394.46 682.23 390.86 674.10 389.14 665.61 C 387.91 658.13 388.11 650.51 388.32 642.96 C 388.79 637.05 388.90 630.93 391.17 625.36 C 393.34 623.17 395.95 621.37 398.31 619.35 C 400.79 618.58 403.37 618.07 405.69 616.86 Z" />
<path fill="#88001b" opacity="1.00" d=" M 603.55 620.00 C 610.60 619.07 618.27 618.32 625.04 621.01 C 630.72 624.79 636.41 630.64 636.13 637.98 C 637.39 652.64 636.23 667.58 632.24 681.77 C 630.01 689.24 626.69 696.32 623.46 703.39 C 622.23 706.82 618.55 708.04 615.58 709.52 C 608.16 713.19 599.98 714.91 591.89 716.38 C 580.22 716.37 567.96 715.19 557.66 709.22 C 553.75 707.26 549.69 703.73 549.69 699.01 C 549.59 695.65 549.57 692.27 549.87 688.93 C 551.78 682.81 553.66 676.66 555.14 670.41 C 556.92 660.22 563.67 651.86 570.53 644.50 C 572.97 641.61 575.51 638.80 578.42 636.38 C 582.82 632.81 586.40 628.36 590.77 624.76 C 594.48 621.99 599.14 621.05 603.55 620.00 Z" />
<path fill="#88001b" opacity="1.00" d=" M 521.71 744.87 C 522.04 740.88 525.50 738.07 528.89 736.49 C 535.43 739.42 539.77 745.39 544.82 750.22 C 549.66 755.72 554.90 760.98 558.85 767.19 C 563.09 776.21 566.13 786.03 566.21 796.05 C 566.22 801.51 563.55 806.70 558.63 809.26 C 551.40 809.42 544.13 809.76 536.92 808.99 C 534.11 808.76 531.91 806.66 530.71 804.24 C 528.12 797.12 529.36 789.41 527.87 782.10 C 527.47 773.69 525.72 765.41 524.01 757.19 C 523.24 753.07 521.07 749.15 521.71 744.87 Z" />
<path fill="#88001b" opacity="1.00" d=" M 493.94 739.97 C 496.72 737.39 500.91 737.01 504.30 738.59 C 506.79 743.50 504.73 748.96 504.13 754.06 C 501.64 763.60 499.04 773.15 497.49 782.91 C 496.91 789.78 496.96 796.79 495.40 803.53 L 494.47 803.43 L 494.55 804.59 L 493.40 804.49 L 493.50 805.26 C 490.35 806.39 487.48 808.65 483.96 808.37 C 476.15 808.29 467.79 808.88 460.59 805.38 L 460.47 804.48 L 459.31 804.61 L 459.59 803.46 L 458.70 803.58 C 458.10 802.54 457.46 801.53 456.79 800.56 C 454.03 794.08 457.14 787.32 459.19 781.14 C 460.82 776.94 461.96 772.41 464.70 768.75 C 473.70 758.45 483.33 748.63 493.94 739.97 Z" />
</g>
</svg>
