<?xml version="1.0" encoding="UTF-8" ?>
<!DOCTYPE svg PUBLIC "-//W3C//DTD SVG 1.1//EN" "http://www.w3.org/Graphics/SVG/1.1/DTD/svg11.dtd">
<svg width="1024pt" height="1024pt" viewBox="0 0 1024 1024" version="1.1" xmlns="http://www.w3.org/2000/svg">
<g id="#ffffffff">
<path fill="#ffffff" opacity="1.00" d=" M 514.75 83.60 C 523.58 80.98 532.73 78.99 542.01 79.41 C 555.47 78.79 568.99 81.96 580.99 88.02 C 598.38 97.96 611.60 115.08 616.46 134.55 C 617.40 140.05 619.36 145.39 619.47 151.02 C 619.70 156.07 619.07 161.17 619.96 166.18 C 621.35 175.07 619.57 184.15 621.22 193.02 C 622.11 201.74 620.68 210.60 622.25 219.27 C 623.06 227.47 621.76 235.79 623.21 243.94 C 623.93 251.60 623.18 259.32 623.68 266.99 C 625.33 276.22 623.96 285.64 624.80 294.93 C 626.41 303.86 624.64 313.01 626.21 321.94 C 627.29 331.29 625.29 340.92 627.79 350.11 C 629.21 356.84 627.96 363.77 628.75 370.54 C 630.36 375.54 631.66 380.71 631.50 386.01 C 631.32 394.43 632.35 403.14 629.41 411.23 C 625.16 423.09 618.73 433.98 613.30 445.31 C 610.75 450.62 607.71 455.68 604.71 460.75 C 601.06 465.53 599.73 471.53 596.60 476.63 C 592.12 483.72 589.08 491.60 584.79 498.81 C 582.37 504.24 579.87 509.65 576.61 514.65 C 573.35 519.59 571.11 525.10 568.24 530.27 C 565.89 534.05 563.82 538.01 562.00 542.08 C 580.21 563.46 599.07 584.27 617.78 605.20 C 621.97 609.73 625.84 614.55 630.28 618.87 C 633.59 613.86 636.94 608.87 639.34 603.35 C 642.12 597.84 645.47 592.64 648.04 587.02 C 654.35 576.53 660.28 565.84 666.13 555.10 C 670.45 548.17 673.36 540.49 677.51 533.46 C 681.50 527.63 684.58 521.23 688.28 515.22 C 694.17 507.29 700.60 499.43 709.03 494.07 C 712.08 492.08 715.23 490.24 718.36 488.38 C 727.00 483.72 736.88 482.54 746.01 479.20 C 752.31 477.82 758.48 475.45 765.02 475.51 C 770.77 475.51 776.59 475.19 782.26 476.45 C 791.73 478.56 801.51 476.51 811.02 478.19 C 818.15 478.92 825.37 478.00 832.50 478.84 C 841.28 480.34 850.28 478.60 859.06 480.21 C 867.36 481.04 875.80 479.74 884.06 481.21 C 890.84 481.97 897.72 480.98 904.51 481.85 C 911.92 483.23 919.51 481.93 926.98 482.78 C 936.33 484.53 945.96 482.39 955.28 484.45 C 967.14 486.12 978.93 489.50 989.15 495.88 C 999.98 503.20 1009.69 512.73 1015.32 524.68 C 1020.04 533.29 1022.69 543.11 1022.56 552.95 C 1022.61 560.28 1022.88 567.64 1022.13 574.94 C 1020.07 586.79 1015.77 598.62 1007.82 607.82 C 1003.82 613.43 998.34 617.67 993.81 622.81 C 985.50 631.71 975.39 639.19 963.70 642.93 C 958.29 644.86 952.69 646.55 946.89 646.50 C 910.93 646.59 874.96 646.48 839.00 646.50 C 834.33 646.41 829.63 646.78 825.00 646.08 C 819.11 645.09 813.12 645.67 807.19 645.54 C 802.82 653.51 799.34 661.92 794.41 669.60 C 807.14 668.73 820.09 671.62 831.32 677.68 C 838.96 681.25 845.27 686.97 851.75 692.25 C 861.16 701.50 870.39 710.95 879.85 720.16 C 885.16 724.13 889.48 729.17 894.29 733.70 C 904.27 743.72 914.31 753.69 924.31 763.70 C 940.02 776.91 953.08 792.99 968.78 806.21 C 974.84 812.49 981.61 818.16 986.63 825.37 C 993.84 834.68 998.88 845.72 1000.65 857.40 C 1002.39 864.13 1002.74 871.07 1002.52 878.00 C 1002.95 887.99 1000.99 898.02 997.25 907.27 C 990.76 921.70 979.74 933.87 966.54 942.51 C 954.74 949.70 940.78 953.15 927.00 952.53 C 908.91 953.38 890.59 946.99 876.98 935.07 C 871.40 930.66 867.04 924.93 861.33 920.69 C 853.79 913.57 846.63 906.03 839.13 898.86 C 831.35 892.70 824.86 885.12 817.66 878.32 C 809.72 871.82 802.69 864.30 795.53 856.97 C 791.41 859.67 786.68 861.09 782.31 863.29 C 776.61 865.70 771.70 869.58 765.99 871.98 C 759.29 874.67 753.29 878.78 746.60 881.51 C 739.53 884.03 733.54 888.72 726.64 891.62 C 718.70 894.73 711.35 899.12 703.46 902.34 C 694.04 908.46 683.08 911.55 673.63 917.60 C 669.22 919.89 664.74 922.05 660.31 924.32 C 653.23 928.06 645.67 930.77 638.65 934.65 C 629.63 939.67 619.38 942.80 609.00 942.51 C 601.16 942.41 593.15 943.11 585.55 940.75 C 578.90 939.41 573.02 935.94 567.01 932.97 C 559.21 928.76 552.98 922.36 546.14 916.84 C 540.39 912.31 535.15 907.13 530.60 901.39 C 524.46 894.53 517.45 888.52 511.31 881.67 C 505.67 874.35 498.28 868.64 492.39 861.57 C 489.23 857.43 485.15 854.11 482.05 849.93 C 474.05 840.96 464.66 833.27 457.14 823.86 C 453.50 819.83 449.31 816.31 445.84 812.12 C 440.04 804.65 432.32 798.93 426.60 791.39 C 419.29 783.70 411.67 776.32 404.25 768.75 C 400.27 763.75 395.66 759.32 391.67 754.34 C 384.37 746.97 377.11 739.56 369.70 732.30 C 366.16 728.88 363.71 724.29 359.55 721.56 C 353.67 721.71 347.88 720.43 342.01 720.69 C 309.32 720.64 276.64 720.53 243.95 720.49 C 240.60 720.53 237.32 719.67 233.98 719.66 C 201.99 719.62 170.00 719.52 138.01 719.50 C 133.99 719.64 130.05 718.54 126.04 718.62 C 108.36 718.61 90.68 718.60 73.00 718.53 C 61.99 718.87 51.07 715.66 41.34 710.66 C 19.91 700.54 4.81 678.53 2.58 655.00 C 2.27 646.34 2.03 637.62 2.86 628.99 C 5.25 615.99 9.73 602.81 19.20 593.20 C 24.63 587.98 29.51 581.98 36.07 578.11 C 42.80 574.40 49.79 570.93 57.36 569.36 C 63.23 568.29 68.97 566.25 75.02 566.50 C 83.69 566.74 92.45 565.86 101.04 567.35 C 111.69 567.96 122.44 566.68 133.02 568.41 C 165.31 568.52 197.60 568.45 229.88 568.51 C 233.63 568.45 237.27 569.53 241.02 569.48 C 270.63 569.43 300.25 569.54 329.86 569.47 C 335.27 564.23 340.42 558.72 346.03 553.69 C 340.52 553.43 334.98 553.80 329.49 553.18 C 317.18 551.05 304.62 548.68 293.68 542.31 C 283.86 538.08 275.18 531.81 266.86 525.16 C 255.11 516.48 246.24 504.45 239.21 491.78 C 229.81 480.28 227.54 465.18 223.50 451.34 C 220.54 436.15 220.85 420.44 223.18 405.19 C 223.83 401.15 225.64 397.43 226.54 393.46 C 228.68 384.41 231.60 375.43 236.50 367.47 C 240.81 361.11 244.36 354.22 249.29 348.29 C 258.29 336.62 269.67 326.84 282.37 319.38 C 285.63 317.67 289.04 316.21 292.10 314.13 C 301.40 308.38 312.15 305.85 322.74 303.67 C 339.98 300.49 357.77 300.75 375.00 303.89 C 384.83 305.88 394.92 308.11 403.53 313.50 C 410.00 317.87 417.89 319.86 423.69 325.29 C 432.25 331.61 440.37 338.68 446.78 347.23 C 450.20 351.55 452.90 356.36 456.11 360.84 C 462.33 369.79 466.25 380.04 469.95 390.23 C 471.97 386.04 474.06 381.90 476.35 377.87 C 476.70 372.94 476.64 367.94 475.79 363.06 C 474.85 353.13 476.38 343.06 474.69 333.18 C 474.18 324.13 474.76 315.04 474.31 305.99 C 472.79 297.06 473.83 287.97 473.31 278.98 C 472.96 275.96 472.09 273.03 471.77 270.02 C 470.95 262.54 472.23 254.94 470.85 247.51 C 470.03 240.37 470.85 233.16 470.33 226.00 C 468.69 217.10 470.04 208.02 469.21 199.06 C 467.55 189.62 469.41 179.95 467.72 170.52 C 467.27 162.70 467.50 154.85 467.53 147.02 C 469.47 119.26 488.39 93.06 514.75 83.60 M 526.67 124.38 C 518.74 128.91 512.35 136.52 510.10 145.47 C 507.69 153.09 508.76 161.17 508.87 169.02 C 510.11 178.13 509.16 187.38 510.29 196.50 C 510.84 203.30 510.43 210.15 511.05 216.95 C 512.08 225.15 511.22 233.46 512.25 241.67 C 513.00 248.65 512.26 255.71 513.21 262.67 C 514.09 269.92 513.22 277.27 514.25 284.50 C 514.97 292.09 514.27 299.75 515.30 307.32 C 515.78 313.85 515.46 320.42 515.98 326.95 C 516.95 334.58 516.31 342.30 517.00 349.95 C 517.75 355.60 517.51 361.30 517.69 366.98 C 517.58 373.53 519.27 380.05 518.39 386.59 C 517.16 390.64 514.83 394.24 512.83 397.93 C 495.33 431.09 477.72 464.19 460.19 497.33 C 457.41 502.01 455.18 506.99 452.83 511.88 C 448.92 514.22 444.50 515.82 441.09 518.97 C 434.47 525.01 428.40 531.64 421.65 537.55 C 407.50 551.44 393.51 565.48 379.34 579.34 C 370.10 587.80 361.26 596.70 352.50 605.65 C 350.17 607.78 348.82 612.13 345.03 611.59 C 328.36 611.29 311.65 612.00 295.02 610.74 C 278.35 610.69 261.67 610.60 245.00 610.55 C 231.35 610.27 217.65 610.98 204.04 609.79 C 181.03 609.66 158.01 609.56 135.00 609.47 C 128.01 609.39 121.00 609.67 114.05 608.86 C 102.35 608.70 90.65 608.72 78.95 608.65 C 72.35 609.07 65.62 610.31 59.81 613.63 C 51.10 618.57 44.91 627.50 42.98 637.29 C 39.96 652.85 49.71 669.33 64.45 674.82 C 72.22 678.23 80.80 677.50 89.06 677.58 C 107.00 678.84 125.02 678.05 143.00 678.38 C 159.32 678.69 175.69 678.00 191.98 679.21 C 218.00 679.32 244.03 679.42 270.05 679.56 C 305.69 681.08 341.41 679.74 377.05 681.09 C 378.36 681.11 379.77 681.28 380.60 682.44 C 387.32 689.34 394.18 696.11 400.51 703.39 C 410.67 713.61 420.19 724.43 430.37 734.63 C 436.42 741.57 443.03 747.98 449.31 754.70 C 455.43 761.86 462.51 768.13 468.57 775.34 C 475.23 782.35 482.17 789.08 488.51 796.39 C 497.73 805.56 506.19 815.44 515.44 824.58 C 521.74 831.91 528.75 838.59 535.34 845.66 C 541.88 853.41 549.56 860.10 556.09 867.87 C 562.45 874.23 568.25 881.28 575.69 886.45 C 579.53 889.26 582.61 893.02 586.76 895.43 C 591.95 898.48 597.89 900.70 603.99 900.53 C 612.09 900.88 619.75 897.60 626.83 894.00 C 682.56 866.37 738.33 838.81 794.03 811.12 C 796.69 809.82 799.21 808.06 802.12 807.36 C 804.17 807.03 805.42 809.02 806.85 810.14 C 823.16 826.17 839.67 842.00 856.40 857.59 C 862.54 863.44 868.39 869.62 874.77 875.23 C 883.95 883.67 892.45 892.83 901.83 901.07 C 906.90 905.67 913.04 909.22 919.80 910.60 C 934.64 914.25 950.85 905.62 957.31 892.01 C 962.40 881.73 961.24 869.42 957.34 858.95 C 954.63 851.57 949.18 845.74 943.53 840.48 C 927.63 824.71 911.24 809.45 895.48 793.54 C 882.19 781.17 869.38 768.30 856.46 755.54 C 848.26 748.09 840.43 740.24 832.52 732.48 C 826.73 726.85 821.27 720.74 814.39 716.39 C 803.92 709.79 789.74 709.57 779.14 715.99 C 776.04 717.88 773.16 720.14 769.85 721.69 C 748.16 732.01 726.45 742.31 704.75 752.64 C 706.39 748.71 708.41 744.96 710.37 741.18 C 733.93 695.53 757.98 650.13 781.32 604.37 C 812.20 604.28 843.08 604.51 873.95 604.65 C 881.60 605.57 889.31 605.24 897.00 605.32 C 910.01 605.36 923.02 605.43 936.03 605.44 C 945.24 605.18 954.76 602.22 961.45 595.64 C 965.19 591.98 968.21 587.65 972.13 584.14 C 980.65 575.96 984.51 562.83 980.93 551.46 C 977.64 538.61 966.03 528.69 953.04 526.60 C 946.43 525.06 939.61 526.00 932.95 524.91 C 926.82 524.40 920.63 524.86 914.51 524.22 C 907.50 523.16 900.37 523.92 893.33 523.29 C 884.93 521.92 876.35 523.19 867.96 521.83 C 860.97 521.23 853.90 521.94 846.95 520.84 C 841.09 520.35 835.19 520.70 829.34 520.25 C 821.59 519.09 813.71 520.00 805.96 518.88 C 798.98 518.40 791.96 518.81 785.02 517.82 C 774.92 517.74 764.29 516.15 754.79 520.53 C 748.43 523.64 740.98 523.83 734.95 527.70 C 729.05 531.47 724.17 536.78 720.68 542.83 C 695.10 588.93 669.67 635.10 644.11 681.21 C 642.22 684.62 640.53 688.16 638.13 691.26 C 626.12 678.12 614.54 664.58 602.58 651.40 C 572.24 616.86 541.41 582.75 511.22 548.10 C 535.46 502.33 559.81 456.62 584.04 410.85 C 586.90 405.31 588.82 399.25 589.36 393.02 C 589.80 387.25 587.69 381.70 587.37 375.98 C 587.35 366.29 585.96 356.67 586.19 346.96 C 585.01 337.96 585.80 328.84 584.68 319.83 C 584.33 313.91 584.56 307.96 584.12 302.04 C 582.93 293.63 584.02 285.07 582.75 276.67 C 582.15 269.01 582.91 261.28 581.74 253.67 C 581.11 246.01 581.92 238.28 580.74 230.67 C 580.07 223.01 580.89 215.28 579.74 207.67 C 579.19 200.81 579.59 193.90 579.10 187.04 C 577.85 178.64 578.91 170.08 577.71 161.67 C 577.39 157.37 577.66 153.01 576.58 148.80 C 574.61 137.42 566.63 127.26 555.96 122.80 C 546.64 118.82 535.49 119.34 526.67 124.38 M 337.33 343.07 C 322.83 344.82 308.97 350.47 297.41 359.38 C 284.77 368.28 275.47 381.33 269.20 395.33 C 263.65 410.54 260.54 427.30 264.43 443.30 C 270.28 478.74 301.27 508.24 336.93 512.45 C 348.43 514.45 360.24 513.03 371.47 510.17 C 404.95 501.13 431.24 469.87 433.61 435.14 C 435.06 427.09 433.57 418.94 432.31 410.97 C 429.36 394.30 420.33 379.31 408.82 367.13 C 400.48 359.45 391.02 352.92 380.61 348.37 C 366.86 343.24 351.92 341.21 337.33 343.07 Z" />
</g>
<g id="#88001bff">
<path fill="#88001b" opacity="1.00" d=" M 526.67 124.38 C 535.49 119.34 546.64 118.82 555.96 122.80 C 566.63 127.26 574.61 137.42 576.58 148.80 C 577.66 153.01 577.39 157.37 577.71 161.67 C 578.91 170.08 577.85 178.64 579.10 187.04 C 579.59 193.90 579.19 200.81 579.74 207.67 C 580.89 215.28 580.07 223.01 580.74 230.67 C 581.92 238.28 581.11 246.01 581.74 253.67 C 582.91 261.28 582.15 269.01 582.75 276.67 C 584.02 285.07 582.93 293.63 584.12 302.04 C 584.56 307.96 584.33 313.91 584.68 319.83 C 585.80 328.84 585.01 337.96 586.19 346.96 C 585.96 356.67 587.35 366.29 587.37 375.98 C 587.69 381.70 589.80 387.25 589.36 393.02 C 588.82 399.25 586.90 405.31 584.04 410.85 C 559.81 456.62 535.46 502.33 511.22 548.10 C 541.41 582.75 572.24 616.86 602.58 651.40 C 614.54 664.58 626.12 678.12 638.13 691.26 C 640.53 688.16 642.22 684.62 644.11 681.21 C 669.67 635.10 695.10 588.93 720.68 542.83 C 724.17 536.78 729.05 531.47 734.95 527.70 C 740.98 523.83 748.43 523.64 754.79 520.53 C 764.29 516.15 774.92 517.74 785.02 517.82 C 791.96 518.81 798.98 518.40 805.96 518.88 C 813.71 520.00 821.59 519.09 829.34 520.25 C 835.19 520.70 841.09 520.35 846.95 520.84 C 853.90 521.94 860.97 521.23 867.96 521.83 C 876.35 523.19 884.93 521.92 893.33 523.29 C 900.37 523.92 907.50 523.16 914.51 524.22 C 920.63 524.86 926.82 524.40 932.95 524.91 C 939.61 526.00 946.43 525.06 953.04 526.60 C 966.03 528.69 977.64 538.61 980.93 551.46 C 984.51 562.83 980.65 575.96 972.13 584.14 C 968.21 587.65 965.19 591.98 961.45 595.64 C 954.76 602.22 945.24 605.18 936.03 605.44 C 923.02 605.43 910.01 605.36 897.00 605.32 C 889.31 605.24 881.60 605.57 873.95 604.65 C 843.08 604.51 812.20 604.28 781.32 604.37 C 757.98 650.13 733.93 695.53 710.37 741.18 C 708.41 744.96 706.39 748.71 704.75 752.64 C 726.45 742.31 748.16 732.01 769.85 721.69 C 773.16 720.14 776.04 717.88 779.14 715.99 C 789.74 709.57 803.92 709.79 814.39 716.39 C 821.27 720.74 826.73 726.85 832.52 732.48 C 840.43 740.24 848.26 748.09 856.46 755.54 C 869.38 768.30 882.19 781.17 895.48 793.54 C 911.24 809.45 927.63 824.71 943.53 840.48 C 949.18 845.74 954.63 851.57 957.34 858.95 C 961.24 869.42 962.40 881.73 957.31 892.01 C 950.85 905.62 934.64 914.25 919.80 910.60 C 913.04 909.22 906.90 905.67 901.83 901.07 C 892.45 892.83 883.95 883.67 874.77 875.23 C 868.39 869.62 862.54 863.44 856.40 857.59 C 839.67 842.00 823.16 826.17 806.85 810.14 C 805.42 809.02 804.17 807.03 802.12 807.36 C 799.21 808.06 796.69 809.82 794.03 811.12 C 738.33 838.81 682.56 866.37 626.83 894.00 C 619.75 897.60 612.09 900.88 603.99 900.53 C 597.89 900.70 591.95 898.48 586.76 895.43 C 582.61 893.02 579.53 889.26 575.69 886.45 C 568.25 881.28 562.45 874.23 556.09 867.87 C 549.56 860.10 541.88 853.41 535.34 845.66 C 528.75 838.59 521.74 831.91 515.44 824.58 C 506.19 815.44 497.73 805.56 488.51 796.39 C 482.17 789.08 475.23 782.35 468.57 775.34 C 462.51 768.13 455.43 761.86 449.31 754.70 C 443.03 747.98 436.42 741.57 430.37 734.63 C 420.19 724.43 410.67 713.61 400.51 703.39 C 394.18 696.11 387.32 689.34 380.60 682.44 C 379.77 681.28 378.36 681.11 377.05 681.09 C 341.41 679.74 305.69 681.08 270.05 679.56 C 244.03 679.42 218.00 679.32 191.98 679.21 C 175.69 678.00 159.32 678.69 143.00 678.38 C 125.02 678.05 107.00 678.84 89.06 677.58 C 80.80 677.50 72.22 678.23 64.45 674.82 C 49.71 669.33 39.96 652.85 42.98 637.29 C 44.91 627.50 51.10 618.57 59.81 613.63 C 65.62 610.31 72.35 609.07 78.95 608.65 C 90.65 608.72 102.35 608.70 114.05 608.86 C 121.00 609.67 128.01 609.39 135.00 609.47 C 158.01 609.56 181.03 609.66 204.04 609.79 C 217.65 610.98 231.35 610.27 245.00 610.55 C 261.67 610.60 278.35 610.69 295.02 610.74 C 311.65 612.00 328.36 611.29 345.03 611.59 C 348.82 612.13 350.17 607.78 352.50 605.65 C 361.26 596.70 370.10 587.80 379.34 579.34 C 393.51 565.48 407.50 551.44 421.65 537.55 C 428.40 531.64 434.47 525.01 441.09 518.97 C 444.50 515.82 448.92 514.22 452.83 511.88 C 455.18 506.99 457.41 502.01 460.19 497.33 C 477.72 464.19 495.33 431.09 512.83 397.93 C 514.83 394.24 517.16 390.64 518.39 386.59 C 519.27 380.05 517.58 373.53 517.69 366.98 C 517.51 361.30 517.75 355.60 517.00 349.95 C 516.31 342.30 516.95 334.58 515.98 326.95 C 515.46 320.42 515.78 313.85 515.30 307.32 C 514.27 299.75 514.97 292.09 514.25 284.50 C 513.22 277.27 514.09 269.92 513.21 262.67 C 512.26 255.71 513.00 248.65 512.25 241.67 C 511.22 233.46 512.08 225.15 511.05 216.95 C 510.43 210.15 510.84 203.30 510.29 196.50 C 509.16 187.38 510.11 178.13 508.87 169.02 C 508.76 161.17 507.69 153.09 510.10 145.47 C 512.35 136.52 518.74 128.91 526.67 124.38 Z" />
<path fill="#88001b" opacity="1.00" d=" M 337.33 343.07 C 351.92 341.21 366.86 343.24 380.61 348.37 C 391.02 352.92 400.48 359.45 408.82 367.13 C 420.33 379.31 429.36 394.30 432.31 410.97 C 433.57 418.94 435.06 427.09 433.61 435.14 C 431.24 469.87 404.95 501.13 371.47 510.17 C 360.24 513.03 348.43 514.45 336.93 512.45 C 301.27 508.24 270.28 478.74 264.43 443.30 C 260.54 427.30 263.65 410.54 269.20 395.33 C 275.47 381.33 284.77 368.28 297.41 359.38 C 308.97 350.47 322.83 344.82 337.33 343.07 Z" />
</g>
</svg>
