<?xml version="1.0" encoding="UTF-8" ?>
<!DOCTYPE svg PUBLIC "-//W3C//DTD SVG 1.1//EN" "http://www.w3.org/Graphics/SVG/1.1/DTD/svg11.dtd">
<svg width="1024pt" height="1024pt" viewBox="0 0 1024 1024" version="1.1" xmlns="http://www.w3.org/2000/svg">
<g id="#ffffffff">
<path fill="#ffffff" opacity="1.00" d=" M 500.83 14.82 C 508.72 8.43 518.76 4.35 529.01 4.49 C 538.32 4.59 547.65 4.28 556.96 4.67 C 564.99 6.23 573.23 4.75 581.25 6.37 C 596.17 6.58 610.88 9.52 625.45 12.54 C 636.07 15.01 646.36 18.64 656.70 22.08 C 665.84 24.82 674.20 29.62 683.26 32.61 C 689.34 34.58 694.82 38.17 699.29 42.73 C 700.67 44.00 701.94 45.85 704.07 45.68 C 712.86 46.14 720.55 50.64 727.77 55.26 C 743.72 63.89 758.38 74.60 773.55 84.48 C 780.61 88.95 786.93 94.47 793.89 99.10 C 798.95 103.12 804.72 106.15 809.70 110.28 C 822.70 121.00 836.88 130.27 849.29 141.71 C 855.05 147.66 862.13 152.15 867.81 158.19 C 874.02 164.66 880.97 170.51 886.07 177.97 C 892.39 185.71 898.44 193.68 903.93 202.04 C 912.70 214.09 921.24 226.34 928.74 239.23 C 940.24 258.12 951.58 277.33 958.90 298.29 C 961.97 309.96 961.05 323.17 954.51 333.54 C 947.72 344.44 938.34 353.33 929.29 362.31 C 926.77 363.97 929.01 366.73 929.31 368.95 C 930.80 376.09 933.81 382.80 935.32 389.94 C 939.30 407.96 940.78 426.62 938.39 444.96 C 935.78 466.16 929.15 486.98 918.50 505.53 C 914.91 510.73 911.96 516.33 908.73 521.74 C 905.01 526.66 901.60 531.86 897.29 536.29 C 886.98 547.61 876.89 559.83 863.29 567.34 C 861.23 573.82 859.90 580.60 856.66 586.65 C 853.94 591.48 852.05 596.68 849.61 601.63 C 846.03 607.18 843.70 613.45 839.72 618.76 C 831.34 632.31 819.42 643.06 808.31 654.31 C 804.63 658.06 800.35 661.14 796.25 664.41 C 795.04 671.45 792.72 678.24 791.51 685.28 C 788.66 699.12 786.15 713.03 783.00 726.80 C 780.53 738.01 778.85 749.39 775.72 760.45 C 773.80 769.52 770.52 778.20 768.54 787.25 C 767.30 793.12 764.26 798.33 761.65 803.65 C 757.32 812.78 749.27 819.27 742.07 826.05 C 736.28 832.97 731.16 840.44 725.28 847.28 C 715.52 856.58 708.42 868.34 698.20 877.21 C 693.58 880.94 690.33 886.00 686.40 890.39 C 680.98 897.58 673.65 903.01 668.15 910.12 C 664.15 914.77 659.58 918.90 655.30 923.30 C 651.15 927.17 648.03 931.99 643.80 935.79 C 639.89 939.26 637.09 943.73 633.25 947.25 C 625.58 954.90 618.20 962.88 609.98 969.94 C 604.79 976.77 597.77 981.79 591.47 987.51 C 583.83 994.40 576.02 1001.47 566.27 1005.25 C 544.50 1013.20 522.04 1019.59 498.99 1022.42 C 491.77 1022.45 484.48 1022.96 477.32 1021.84 C 454.02 1019.97 430.86 1016.55 407.70 1013.44 C 393.65 1011.38 379.63 1009.12 365.72 1006.31 C 353.83 1004.54 343.56 997.76 333.84 991.12 C 326.03 986.14 318.59 980.52 312.19 973.81 C 306.94 968.39 300.95 963.43 297.39 956.64 C 295.39 952.82 293.44 948.98 291.77 945.01 C 285.34 948.59 278.33 951.31 271.01 952.24 C 265.35 952.65 259.65 952.65 253.99 952.24 C 235.11 949.64 218.91 938.76 201.03 933.01 C 190.92 931.00 180.91 927.56 172.49 921.49 C 165.48 915.79 158.97 909.06 155.35 900.65 C 152.09 892.96 146.93 886.01 145.34 877.67 C 144.06 870.94 144.39 864.01 144.81 857.21 C 135.83 850.71 127.23 843.24 121.11 833.92 C 118.07 827.19 113.28 821.47 110.37 814.67 C 107.55 808.91 106.45 802.49 106.44 796.13 C 103.95 778.42 105.79 759.43 115.17 743.85 C 105.95 735.47 100.06 724.20 95.37 712.82 C 86.57 691.42 84.24 667.94 85.66 644.99 C 86.83 635.16 88.35 625.07 93.34 616.35 C 96.01 610.14 100.30 604.86 105.11 600.19 C 101.89 591.79 99.28 582.98 98.54 573.99 C 98.72 565.50 97.80 556.90 99.32 548.50 C 101.06 542.45 101.45 536.00 104.37 530.33 C 106.99 525.22 110.22 520.36 114.22 516.22 C 119.41 511.27 122.73 504.79 127.28 499.30 C 130.81 494.79 134.66 490.52 137.70 485.64 C 145.51 473.78 153.78 462.22 161.01 449.98 C 167.85 438.47 175.88 427.63 181.35 415.35 C 187.78 401.74 195.67 388.76 200.47 374.44 C 204.53 363.50 210.56 353.46 216.51 343.47 C 221.78 335.52 226.12 326.77 233.19 320.20 C 239.66 314.01 245.42 306.79 253.54 302.67 C 252.95 290.91 253.98 279.05 257.59 267.79 C 260.28 259.83 262.67 251.74 266.07 244.04 C 271.51 232.91 276.68 221.36 285.21 212.19 C 293.17 202.53 302.22 193.66 312.50 186.50 C 313.99 170.64 319.17 155.15 327.75 141.71 C 330.64 136.19 335.59 132.27 339.39 127.44 C 347.90 117.51 357.86 108.87 368.92 101.90 C 375.96 96.67 383.70 92.58 391.35 88.37 C 402.76 83.48 414.67 79.53 426.99 77.76 C 432.31 77.25 437.66 77.60 443.00 77.49 C 449.65 77.60 456.38 77.07 462.97 78.33 C 466.96 72.10 470.28 65.47 474.30 59.25 C 479.04 52.79 481.06 44.91 485.02 38.01 C 489.08 29.56 493.19 20.70 500.83 14.82 M 525.92 49.11 C 522.65 55.85 519.19 62.49 516.11 69.32 C 510.34 83.25 500.53 95.07 494.74 108.98 C 493.42 114.33 490.47 118.99 487.25 123.38 C 483.54 124.30 479.68 123.12 475.96 122.76 C 468.89 122.18 461.86 121.26 454.94 119.73 C 442.90 119.15 430.50 118.73 418.92 122.63 C 397.96 129.41 380.49 143.93 366.14 160.25 C 358.38 169.87 354.84 182.31 354.25 194.50 C 353.27 199.79 355.00 205.05 354.63 210.37 C 344.56 214.66 335.09 220.56 327.42 228.43 C 308.85 245.72 296.90 270.15 295.23 295.51 C 293.51 306.17 296.54 316.77 296.75 327.41 C 290.43 330.36 284.17 333.45 278.10 336.89 C 271.10 340.26 266.64 346.91 260.94 351.94 C 256.31 355.75 254.27 361.49 251.44 366.58 C 247.30 375.07 241.91 382.95 238.63 391.85 C 229.43 414.91 217.99 437.02 205.15 458.26 C 186.95 488.96 166.95 518.69 144.01 546.07 C 142.61 547.47 142.48 549.51 142.07 551.34 C 136.92 570.23 143.19 593.03 159.88 604.26 C 172.09 611.81 186.95 613.48 201.01 613.61 C 206.02 614.05 210.47 611.37 215.31 610.65 C 224.58 609.17 233.15 604.32 239.52 597.48 C 244.06 592.79 246.99 586.90 250.55 581.50 C 270.11 553.34 290.02 525.41 308.83 496.72 C 318.44 481.55 327.77 466.19 336.75 450.63 C 345.50 436.16 353.56 421.20 363.81 407.71 C 365.95 404.54 369.36 402.67 372.19 400.21 C 378.41 394.84 385.22 390.12 392.61 386.50 C 413.29 375.85 436.02 370.34 458.02 363.21 C 462.14 361.68 466.74 361.70 470.82 363.36 C 483.23 367.50 495.63 371.68 507.86 376.36 C 499.18 380.35 489.93 382.97 480.75 385.55 C 457.82 391.20 434.80 396.56 412.06 402.95 C 404.96 405.51 397.74 408.88 392.93 414.90 C 388.58 420.28 384.69 426.01 380.47 431.48 C 375.84 437.26 374.16 444.64 370.85 451.14 C 352.13 487.70 330.34 522.74 305.33 555.34 C 295.55 568.48 284.66 580.73 274.22 593.32 C 269.33 598.86 266.50 605.82 264.48 612.84 C 263.14 617.08 263.27 621.60 263.60 625.98 C 265.34 636.73 272.94 645.37 281.42 651.66 C 294.39 661.03 308.93 669.13 325.03 671.21 C 339.98 673.73 355.37 670.24 369.12 664.28 C 388.28 655.36 404.38 640.99 418.03 625.06 C 426.42 615.90 433.72 605.81 441.37 596.04 C 443.45 597.96 444.51 600.63 445.66 603.16 C 448.94 610.68 451.40 618.54 453.35 626.50 C 453.75 628.17 454.08 630.30 452.48 631.49 C 438.15 645.82 423.81 660.14 409.55 674.54 C 399.85 684.82 390.27 695.31 379.38 704.35 C 376.87 704.93 374.28 704.35 371.78 703.99 C 355.74 701.85 339.85 698.07 324.86 691.93 C 320.03 689.77 315.11 687.68 309.88 686.72 C 304.83 686.10 299.70 686.89 294.66 686.02 C 279.10 684.99 263.98 696.73 260.57 711.86 C 256.19 733.03 259.69 756.98 274.43 773.55 C 286.03 787.05 302.18 795.62 318.77 801.42 C 325.68 803.62 331.01 808.88 337.71 811.56 C 357.80 820.01 379.82 821.68 401.13 824.95 C 404.16 828.52 405.28 833.33 406.89 837.65 C 388.96 835.48 371.15 832.32 353.31 829.49 C 344.55 827.95 335.73 826.72 327.04 824.78 C 320.04 823.27 313.42 820.23 306.29 819.31 C 303.26 818.70 300.82 816.60 297.92 815.65 C 295.32 815.23 292.65 815.24 290.05 815.60 C 284.71 817.28 281.04 822.05 278.80 826.97 C 276.83 831.30 277.40 836.24 277.96 840.83 C 281.25 856.35 290.32 870.53 302.77 880.32 C 309.15 885.28 316.93 887.84 324.73 889.53 C 333.56 892.44 342.49 895.11 351.69 896.57 C 359.12 897.93 366.67 898.56 374.05 900.22 C 390.96 904.09 408.11 906.88 425.34 908.88 C 429.36 909.71 433.62 908.98 437.51 910.47 C 440.47 915.24 442.71 920.48 444.99 925.63 C 427.65 925.66 410.41 923.09 393.30 920.39 C 379.27 917.71 365.13 915.02 351.70 910.00 C 347.09 908.99 341.72 908.63 337.65 911.45 C 334.23 913.64 331.74 917.15 330.72 921.08 C 329.54 928.41 332.66 936.00 337.98 941.04 C 345.04 948.12 353.24 953.95 361.46 959.61 C 364.40 961.51 367.25 963.88 370.83 964.39 C 409.68 971.68 448.94 976.47 488.08 981.82 C 490.27 982.02 492.50 982.07 494.67 981.66 C 509.82 978.53 524.80 974.60 539.50 969.79 C 544.67 968.06 550.20 967.01 554.78 963.91 C 558.04 961.48 561.13 958.85 564.03 956.01 C 582.78 939.14 600.20 920.85 617.54 902.56 C 624.48 895.81 630.54 888.24 637.48 881.49 C 646.12 872.14 654.58 862.62 663.44 853.47 C 678.44 836.43 693.97 819.83 707.97 801.93 C 710.89 798.26 713.36 794.12 717.27 791.39 C 722.87 787.20 726.73 780.97 728.53 774.26 C 740.60 731.11 749.10 687.07 757.40 643.07 C 757.62 641.17 758.47 639.28 760.25 638.39 C 779.34 626.22 795.82 609.92 807.80 590.68 C 815.95 577.99 821.47 563.65 824.05 548.80 C 824.47 545.74 824.60 542.63 825.44 539.65 C 831.21 538.57 836.57 535.89 841.14 532.23 C 858.93 518.54 873.90 501.07 884.29 481.15 C 892.69 463.72 898.23 444.48 897.53 425.00 C 897.78 412.75 895.38 400.54 891.34 389.00 C 889.33 382.76 888.00 376.22 884.69 370.49 C 881.90 365.62 879.19 360.70 876.25 355.92 C 877.61 354.07 878.91 352.16 880.55 350.54 C 888.04 344.03 895.42 337.36 902.47 330.37 C 908.07 323.81 914.55 318.02 919.67 311.05 C 918.27 306.82 916.07 302.93 914.17 298.92 C 906.33 283.67 898.26 268.52 889.05 254.03 C 876.87 234.86 863.47 216.48 849.22 198.79 C 843.15 191.19 835.36 185.30 828.39 178.60 C 797.26 151.86 763.76 127.99 729.57 105.34 C 719.47 98.77 709.45 92.03 698.88 86.26 C 686.72 105.90 675.92 126.50 661.69 144.80 C 656.82 151.27 649.74 155.79 645.46 162.74 C 643.68 162.56 641.94 162.14 640.29 161.46 C 632.66 158.42 624.91 155.66 617.11 153.11 C 618.81 149.91 621.67 147.59 623.82 144.72 C 640.03 123.77 654.43 101.47 667.59 78.50 C 668.65 76.70 669.42 74.75 670.04 72.75 C 663.07 68.90 655.44 66.48 647.98 63.79 C 629.30 57.36 610.44 50.87 590.76 48.32 C 570.66 45.75 550.36 44.86 530.10 45.18 C 527.77 45.06 526.79 47.39 525.92 49.11 M 151.34 621.19 C 142.79 621.58 135.96 627.71 131.20 634.32 C 125.40 643.30 124.43 654.64 125.85 665.02 C 126.97 678.48 131.50 691.42 137.38 703.50 C 141.25 710.93 146.51 717.79 153.48 722.58 C 165.81 731.12 178.12 739.83 191.50 746.68 C 197.03 749.65 203.31 751.01 208.49 754.67 C 215.50 759.09 225.20 757.85 231.04 752.05 C 236.74 746.86 238.33 738.85 238.77 731.49 C 240.06 724.67 238.43 717.84 238.24 711.01 C 237.09 702.80 235.91 694.41 232.32 686.85 C 230.51 682.82 229.62 678.45 227.67 674.49 C 225.27 669.15 221.20 664.78 218.82 659.43 C 217.47 656.22 215.06 653.62 212.17 651.74 C 203.68 646.09 195.27 640.25 186.11 635.73 C 181.01 633.48 176.01 631.02 170.83 628.97 C 164.27 626.49 158.94 620.22 151.34 621.19 M 161.28 760.01 C 157.05 760.83 152.88 762.97 150.57 766.74 C 148.11 770.60 148.32 775.35 147.42 779.69 C 146.46 783.45 147.66 787.21 147.73 790.99 C 147.83 795.32 148.85 799.79 151.79 803.11 C 154.93 806.83 156.41 811.66 159.83 815.16 C 163.80 819.29 168.40 822.77 173.19 825.91 C 190.87 836.94 210.04 845.81 230.34 850.78 C 235.43 851.67 240.92 852.00 245.81 850.05 C 251.11 847.88 254.86 842.59 255.48 836.94 C 256.59 827.99 254.82 819.05 253.91 810.17 C 253.27 804.08 249.31 798.28 243.35 796.36 C 235.60 793.70 227.93 790.80 220.53 787.24 C 206.15 780.17 190.89 774.93 176.99 766.88 C 172.34 763.56 167.39 759.31 161.28 760.01 M 197.24 851.94 C 191.48 853.67 187.05 859.02 186.58 865.03 C 186.27 868.66 188.00 872.04 189.83 875.05 C 191.97 878.38 192.61 882.58 195.44 885.49 C 198.17 888.49 202.02 890.10 205.78 891.39 C 214.97 894.43 224.25 897.24 233.19 900.99 C 241.70 904.36 250.09 908.26 259.04 910.32 C 266.87 911.88 275.59 906.89 277.18 898.87 C 277.51 893.92 279.19 889.04 278.41 884.06 C 277.03 878.58 272.37 874.32 267.01 872.81 C 256.73 869.98 246.45 867.09 236.46 863.36 C 229.22 860.69 221.43 859.43 214.70 855.50 C 209.29 853.09 203.26 850.42 197.24 851.94 Z" />
<path fill="#ffffff" opacity="1.00" d=" M 419.09 178.15 C 425.54 173.68 432.77 168.94 440.95 169.27 C 445.09 169.29 449.29 169.04 453.36 169.98 C 461.46 171.75 469.77 172.04 477.95 173.27 C 519.65 178.56 561.06 187.03 601.03 200.20 C 641.14 213.48 679.82 231.49 714.88 255.18 C 741.52 273.25 766.23 294.32 787.54 318.49 C 805.61 338.52 821.27 360.64 835.03 383.83 C 839.65 391.78 842.76 400.49 845.59 409.21 C 848.12 416.87 847.81 425.02 847.57 432.98 C 845.85 448.78 838.68 463.58 828.64 475.76 C 826.29 478.33 824.40 481.92 820.82 482.88 C 803.16 437.19 777.73 394.43 745.45 357.54 C 736.81 348.53 728.77 338.89 719.20 330.80 C 696.43 309.24 670.67 290.93 643.36 275.56 C 575.55 237.78 498.44 219.41 421.51 213.23 C 416.96 212.00 411.83 213.63 407.60 211.44 C 405.63 207.84 402.97 203.19 405.40 199.19 C 407.46 195.52 408.26 191.38 409.57 187.43 C 411.46 183.26 415.79 181.06 419.09 178.15 Z" />
<path fill="#ffffff" opacity="1.00" d=" M 365.12 261.26 C 366.75 259.85 369.01 260.35 370.97 260.31 C 398.51 261.34 426.05 262.89 453.37 266.82 C 496.22 272.78 538.71 282.87 578.74 299.49 C 610.95 312.87 641.57 330.38 668.64 352.44 C 714.13 389.00 748.51 438.26 770.88 491.94 C 772.53 496.21 774.93 500.34 775.42 504.96 C 774.84 515.87 776.27 526.80 775.37 537.71 C 774.25 545.11 772.24 552.46 768.61 559.04 C 763.13 546.40 758.45 533.38 752.03 521.15 C 731.69 480.17 702.74 443.62 668.23 413.66 C 640.80 389.68 609.97 369.71 577.55 353.17 C 518.40 323.16 454.28 304.08 389.34 291.35 C 381.34 289.39 372.33 290.39 365.70 295.56 C 362.73 297.57 361.09 300.92 358.37 303.17 C 354.10 304.96 349.58 306.06 345.25 307.69 C 343.30 290.14 351.23 272.05 365.12 261.26 Z" />
</g>
<g id="#88001bff">
<path fill="#88001b" opacity="1.00" d=" M 525.92 49.11 C 526.79 47.39 527.77 45.06 530.10 45.18 C 550.36 44.86 570.66 45.75 590.76 48.32 C 610.44 50.87 629.30 57.36 647.98 63.79 C 655.44 66.48 663.07 68.90 670.04 72.75 C 669.42 74.75 668.65 76.70 667.59 78.50 C 654.43 101.47 640.03 123.77 623.82 144.72 C 621.67 147.59 618.81 149.91 617.11 153.11 C 624.91 155.66 632.66 158.42 640.29 161.46 C 641.94 162.14 643.68 162.56 645.46 162.74 C 649.74 155.79 656.82 151.27 661.69 144.80 C 675.92 126.50 686.72 105.90 698.88 86.26 C 709.45 92.03 719.47 98.77 729.57 105.34 C 763.76 127.99 797.26 151.86 828.39 178.60 C 835.36 185.30 843.15 191.19 849.22 198.79 C 863.47 216.48 876.87 234.86 889.05 254.03 C 898.26 268.52 906.33 283.67 914.17 298.92 C 916.07 302.93 918.27 306.82 919.67 311.05 C 914.55 318.02 908.07 323.81 902.47 330.37 C 895.42 337.36 888.04 344.03 880.55 350.54 C 878.91 352.16 877.61 354.07 876.25 355.92 C 879.19 360.70 881.90 365.62 884.69 370.49 C 888.00 376.22 889.33 382.76 891.34 389.00 C 895.38 400.54 897.78 412.75 897.53 425.00 C 898.23 444.48 892.69 463.72 884.29 481.15 C 873.90 501.07 858.93 518.54 841.14 532.23 C 836.57 535.89 831.21 538.57 825.44 539.65 C 824.60 542.63 824.47 545.74 824.05 548.80 C 821.47 563.65 815.95 577.99 807.80 590.68 C 795.82 609.92 779.34 626.22 760.25 638.39 C 758.47 639.28 757.62 641.17 757.40 643.07 C 749.10 687.07 740.60 731.11 728.53 774.26 C 726.73 780.97 722.87 787.20 717.27 791.39 C 713.36 794.12 710.89 798.26 707.97 801.93 C 693.97 819.83 678.44 836.43 663.44 853.47 C 654.58 862.62 646.12 872.14 637.48 881.49 C 630.54 888.24 624.48 895.81 617.54 902.56 C 600.20 920.85 582.78 939.14 564.03 956.01 C 561.13 958.85 558.04 961.48 554.78 963.91 C 550.20 967.01 544.67 968.06 539.50 969.79 C 524.80 974.60 509.82 978.53 494.67 981.66 C 492.50 982.07 490.27 982.02 488.08 981.82 C 448.94 976.47 409.68 971.68 370.83 964.39 C 367.25 963.88 364.40 961.51 361.46 959.61 C 353.24 953.95 345.04 948.12 337.98 941.04 C 332.66 936.00 329.54 928.41 330.72 921.08 C 331.74 917.15 334.23 913.64 337.65 911.45 C 341.72 908.63 347.09 908.99 351.70 910.00 C 365.13 915.02 379.27 917.71 393.30 920.39 C 410.41 923.09 427.65 925.66 444.99 925.63 C 442.71 920.48 440.47 915.24 437.51 910.47 C 433.62 908.98 429.36 909.71 425.34 908.88 C 408.11 906.88 390.96 904.09 374.05 900.22 C 366.67 898.56 359.12 897.93 351.69 896.57 C 342.49 895.11 333.56 892.44 324.73 889.53 C 316.93 887.84 309.15 885.28 302.77 880.32 C 290.32 870.53 281.25 856.35 277.96 840.83 C 277.40 836.24 276.83 831.30 278.80 826.97 C 281.04 822.05 284.71 817.28 290.05 815.60 C 292.65 815.24 295.32 815.23 297.92 815.65 C 300.82 816.60 303.26 818.70 306.29 819.31 C 313.42 820.23 320.04 823.27 327.04 824.78 C 335.73 826.72 344.55 827.95 353.31 829.49 C 371.15 832.32 388.96 835.48 406.89 837.65 C 405.28 833.33 404.16 828.52 401.13 824.95 C 379.82 821.68 357.80 820.01 337.71 811.56 C 331.01 808.88 325.68 803.62 318.77 801.42 C 302.18 795.62 286.03 787.05 274.43 773.55 C 259.69 756.98 256.19 733.03 260.57 711.86 C 263.98 696.73 279.10 684.99 294.66 686.02 C 299.70 686.89 304.83 686.10 309.88 686.72 C 315.11 687.68 320.03 689.77 324.86 691.93 C 339.85 698.07 355.74 701.85 371.78 703.99 C 374.28 704.35 376.87 704.93 379.38 704.35 C 390.27 695.31 399.85 684.82 409.55 674.54 C 423.81 660.14 438.15 645.82 452.48 631.49 C 454.08 630.30 453.75 628.17 453.35 626.50 C 451.40 618.54 448.94 610.68 445.66 603.16 C 444.51 600.63 443.45 597.96 441.37 596.04 C 433.72 605.81 426.42 615.90 418.03 625.06 C 404.38 640.99 388.28 655.36 369.12 664.28 C 355.37 670.24 339.98 673.73 325.03 671.21 C 308.93 669.13 294.39 661.03 281.42 651.66 C 272.94 645.37 265.34 636.73 263.60 625.98 C 263.27 621.60 263.14 617.08 264.48 612.84 C 266.50 605.82 269.33 598.86 274.22 593.32 C 284.66 580.73 295.55 568.48 305.33 555.34 C 330.34 522.74 352.13 487.70 370.85 451.14 C 374.16 444.64 375.84 437.26 380.47 431.48 C 384.69 426.01 388.58 420.28 392.93 414.90 C 397.74 408.88 404.96 405.51 412.06 402.95 C 434.80 396.56 457.82 391.20 480.75 385.55 C 489.93 382.97 499.18 380.35 507.86 376.36 C 495.63 371.68 483.23 367.50 470.82 363.36 C 466.74 361.70 462.14 361.68 458.02 363.21 C 436.02 370.34 413.29 375.85 392.61 386.50 C 385.22 390.12 378.41 394.84 372.19 400.21 C 369.36 402.67 365.95 404.54 363.81 407.71 C 353.56 421.20 345.50 436.16 336.75 450.63 C 327.77 466.19 318.44 481.55 308.83 496.72 C 290.02 525.41 270.11 553.34 250.55 581.50 C 246.99 586.90 244.06 592.79 239.52 597.48 C 233.15 604.32 224.58 609.17 215.31 610.65 C 210.47 611.37 206.02 614.05 201.01 613.61 C 186.95 613.48 172.09 611.81 159.88 604.26 C 143.19 593.03 136.92 570.23 142.07 551.34 C 142.48 549.51 142.61 547.47 144.01 546.07 C 166.95 518.69 186.95 488.96 205.15 458.26 C 217.99 437.02 229.43 414.91 238.63 391.85 C 241.91 382.95 247.30 375.07 251.44 366.58 C 254.27 361.49 256.31 355.75 260.94 351.94 C 266.64 346.91 271.10 340.26 278.10 336.89 C 284.17 333.45 290.43 330.36 296.75 327.41 C 296.54 316.77 293.51 306.17 295.23 295.51 C 296.90 270.15 308.85 245.72 327.42 228.43 C 335.09 220.56 344.56 214.66 354.63 210.37 C 355.00 205.05 353.27 199.79 354.25 194.50 C 354.84 182.31 358.38 169.87 366.14 160.25 C 380.49 143.93 397.96 129.41 418.92 122.63 C 430.50 118.73 442.90 119.15 454.94 119.73 C 461.86 121.26 468.89 122.18 475.96 122.76 C 479.68 123.12 483.54 124.30 487.25 123.38 C 490.47 118.99 493.42 114.33 494.74 108.98 C 500.53 95.07 510.34 83.25 516.11 69.32 C 519.19 62.49 522.65 55.85 525.92 49.11 M 419.09 178.15 C 415.79 181.06 411.46 183.26 409.57 187.43 C 408.26 191.38 407.46 195.52 405.40 199.19 C 402.97 203.19 405.63 207.84 407.60 211.44 C 411.83 213.63 416.96 212.00 421.51 213.23 C 498.44 219.41 575.55 237.78 643.36 275.56 C 670.67 290.93 696.43 309.24 719.20 330.80 C 728.77 338.89 736.81 348.53 745.45 357.54 C 777.73 394.43 803.16 437.19 820.82 482.88 C 824.40 481.92 826.29 478.33 828.64 475.76 C 838.68 463.58 845.85 448.78 847.57 432.98 C 847.81 425.02 848.12 416.87 845.59 409.21 C 842.76 400.49 839.65 391.78 835.03 383.83 C 821.27 360.64 805.61 338.52 787.54 318.49 C 766.23 294.32 741.52 273.25 714.88 255.18 C 679.82 231.49 641.14 213.48 601.03 200.20 C 561.06 187.03 519.65 178.56 477.95 173.27 C 469.77 172.04 461.46 171.75 453.36 169.98 C 449.29 169.04 445.09 169.29 440.95 169.27 C 432.77 168.94 425.54 173.68 419.09 178.15 M 365.12 261.26 C 351.23 272.05 343.30 290.14 345.25 307.69 C 349.58 306.06 354.10 304.96 358.37 303.17 C 361.09 300.92 362.73 297.57 365.70 295.56 C 372.33 290.39 381.34 289.39 389.34 291.35 C 454.28 304.08 518.40 323.16 577.55 353.17 C 609.97 369.71 640.80 389.68 668.23 413.66 C 702.74 443.62 731.69 480.17 752.03 521.15 C 758.45 533.38 763.13 546.40 768.61 559.04 C 772.24 552.46 774.25 545.11 775.37 537.71 C 776.27 526.80 774.84 515.87 775.42 504.96 C 774.93 500.34 772.53 496.21 770.88 491.94 C 748.51 438.26 714.13 389.00 668.64 352.44 C 641.57 330.38 610.95 312.87 578.74 299.49 C 538.71 282.87 496.22 272.78 453.37 266.82 C 426.05 262.89 398.51 261.34 370.97 260.31 C 369.01 260.35 366.75 259.85 365.12 261.26 Z" />
<path fill="#88001b" opacity="1.00" d=" M 151.34 621.19 C 158.94 620.22 164.27 626.49 170.83 628.97 C 176.01 631.02 181.01 633.48 186.11 635.73 C 195.27 640.25 203.68 646.09 212.17 651.74 C 215.06 653.62 217.47 656.22 218.82 659.43 C 221.20 664.78 225.27 669.15 227.67 674.49 C 229.62 678.45 230.51 682.82 232.32 686.85 C 235.91 694.41 237.09 702.80 238.24 711.01 C 238.43 717.84 240.06 724.67 238.77 731.49 C 238.33 738.85 236.74 746.86 231.04 752.05 C 225.20 757.85 215.50 759.09 208.49 754.67 C 203.31 751.01 197.03 749.65 191.50 746.68 C 178.12 739.83 165.81 731.12 153.48 722.58 C 146.51 717.79 141.25 710.93 137.38 703.50 C 131.50 691.42 126.97 678.48 125.85 665.02 C 124.43 654.64 125.40 643.30 131.20 634.32 C 135.96 627.71 142.79 621.58 151.34 621.19 Z" />
<path fill="#88001b" opacity="1.00" d=" M 161.28 760.01 C 167.39 759.31 172.34 763.56 176.99 766.88 C 190.89 774.93 206.15 780.17 220.53 787.24 C 227.93 790.80 235.60 793.70 243.35 796.36 C 249.31 798.28 253.27 804.08 253.91 810.17 C 254.82 819.05 256.59 827.99 255.48 836.94 C 254.86 842.59 251.11 847.88 245.81 850.05 C 240.92 852.00 235.43 851.67 230.34 850.78 C 210.04 845.81 190.87 836.94 173.19 825.91 C 168.40 822.77 163.80 819.29 159.83 815.16 C 156.41 811.66 154.93 806.83 151.79 803.11 C 148.85 799.79 147.83 795.32 147.73 790.99 C 147.66 787.21 146.46 783.45 147.42 779.69 C 148.32 775.35 148.11 770.60 150.57 766.74 C 152.88 762.97 157.05 760.83 161.28 760.01 Z" />
<path fill="#88001b" opacity="1.00" d=" M 197.24 851.94 C 203.26 850.42 209.29 853.09 214.70 855.50 C 221.43 859.43 229.22 860.69 236.46 863.36 C 246.45 867.09 256.73 869.98 267.01 872.81 C 272.37 874.32 277.03 878.58 278.41 884.06 C 279.19 889.04 277.51 893.92 277.18 898.87 C 275.59 906.89 266.87 911.88 259.04 910.32 C 250.09 908.26 241.70 904.36 233.19 900.99 C 224.25 897.24 214.97 894.43 205.78 891.39 C 202.02 890.10 198.17 888.49 195.44 885.49 C 192.61 882.58 191.97 878.38 189.83 875.05 C 188.00 872.04 186.27 868.66 186.58 865.03 C 187.05 859.02 191.48 853.67 197.24 851.94 Z" />
</g>
</svg>
