<?xml version="1.0" encoding="UTF-8" standalone="no"?>
<!DOCTYPE svg PUBLIC "-//W3C//DTD SVG 1.1//EN" "http://www.w3.org/Graphics/SVG/1.1/DTD/svg11.dtd">
<svg width="100%" height="100%" viewBox="0 0 1024 1024" version="1.1" xmlns="http://www.w3.org/2000/svg" xmlns:xlink="http://www.w3.org/1999/xlink" xml:space="preserve" xmlns:serif="http://www.serif.com/" style="fill-rule:evenodd;clip-rule:evenodd;stroke-linejoin:round;stroke-miterlimit:2;">
    <g id="_-ffffffff" serif:id="#ffffffff">
        <path d="M209.77,71.76C218.66,63.71 230.26,59.45 241.98,57.72C260.11,56.19 280.02,57.54 294.94,69.1C303.35,76 311.29,83.9 316.31,93.68C321.93,105.35 328.72,116.41 335.61,127.36C341.02,138.4 348.01,148.52 353.68,159.42C370.61,161.09 387.47,163.56 404.2,166.71C411.23,168.79 418.52,170.38 424.98,174.02C437.97,181.23 448.77,192.71 454.55,206.45C457.33,213.99 459.69,221.89 459.52,230.01C459.53,237.13 459.88,244.46 457.4,251.27C454.96,258.18 453.07,265.3 450.07,272C458.12,269.06 465.82,265.13 474.16,263.06C479.35,261.44 484.56,259.82 489.47,257.46C501.02,253.2 512.89,249.91 524.69,246.44C542.52,239.69 561.44,236.63 579.8,231.71C591.43,228.94 603.39,228.23 615.13,226.05C622.58,224.75 630.21,224.53 637.53,222.54C646,220.72 654.81,221.02 663.23,219.13C672.66,211.94 684.12,207.24 696.01,206.53C702.94,206.5 710.05,206.02 716.77,208.13C722.83,210.09 729.13,211.83 734.33,215.68C736.45,217.07 738.23,219.37 741,219.39C751.33,219.41 761.6,220.71 771.81,222.2C787.36,226.3 803.53,227.61 819.03,231.93C834.06,236.93 849.67,240.71 863.61,248.47C870.08,251.59 876.6,254.66 882.91,258.12C890.61,263.11 898.55,267.74 906.14,272.9C913.65,277.51 920.16,283.47 926.79,289.21C931.94,294.4 937.39,299.33 941.83,305.16C947.74,311.31 953.36,317.81 957.94,325.02C966.6,335.14 971.54,347.66 977.65,359.34C982.74,369.09 983.91,380.2 987.9,390.35C990.3,399.51 992.09,408.86 993.35,418.25C993.3,423.52 994.67,428.68 994.52,433.96C994.54,442.22 994.58,450.48 994.47,458.75C992.87,476.32 991.87,494.24 986.19,511.11C984.19,522.84 980.32,534.12 976.25,545.26C973.41,550.69 971.68,556.58 969.13,562.14C967.14,568.95 963.12,574.86 960.3,581.31C959.22,583.54 958.13,585.77 956.87,587.9C953.75,592.73 951.8,598.22 948.32,602.84C952.28,606.84 957,610.02 960.81,614.19C964.16,617.86 968.49,620.48 971.76,624.24C977.44,631.2 984.02,637.43 988.93,645.02C996.69,653.68 1002.18,664.01 1007.96,674.02C1013.79,684.77 1017.22,696.61 1019.49,708.57C1020.93,714.62 1020.36,720.86 1020.68,727.01C1020.65,729.68 1021.54,732.32 1021.13,735C1019.98,742.76 1021.32,750.74 1019.48,758.42C1017.7,765.63 1016.13,773.02 1012.65,779.66C1009.91,784.84 1007.75,790.4 1004.07,795.03C1000.14,799.88 997.81,805.88 993.28,810.28C987.56,815.9 982.11,821.83 976.13,827.18C969.56,832 963.28,837.23 955.98,840.96C947.72,844.89 940.06,849.99 931.6,853.51C922.7,857.17 913.88,861.04 904.7,863.93C891.83,868.46 878.21,870.2 865.22,874.28C849.89,877.62 834.28,879.42 818.69,880.84C811.5,882.24 804.13,880.77 796.95,882.11C791.37,882.81 785.74,882.4 780.14,882.69C768.83,884.15 757.38,883.4 746.01,883.66C732,883.6 717.98,883.72 703.98,883.35C695.72,882.05 687.32,882.96 679.02,882.24C671.72,881.04 664.29,881.71 656.94,881.46C645.94,880.28 634.89,879.82 623.91,878.51C618.91,879.95 614.62,883.05 609.69,884.7C603.63,887.87 596.98,889.72 590.97,892.98C586.18,895.36 581.06,896.97 576.11,898.96C570.81,901.65 564.84,902.69 559.64,905.62C550.3,909.54 540.43,912.05 530.74,914.93C517.36,920.33 502.93,922.49 489.46,927.65C474.94,931.4 460.43,935.35 445.59,937.67C439.73,938.53 434.12,940.53 428.28,941.51C412.18,944.31 395.95,946.36 379.69,947.84C373.62,948.87 367.44,948.17 361.39,949.38C340.25,949.68 319.1,949.46 297.96,949.51C292.27,949.67 286.72,948.03 281.02,948.49C263.51,946.99 246.04,944.48 228.95,940.33C217.68,936.64 205.97,934.44 194.8,930.42C185.9,927.75 177.6,923.53 169.19,919.65C160.6,916.41 153.1,910.96 144.68,907.31C128.54,897.68 113.23,886.41 100.19,872.81C94.08,866.88 88.1,860.81 83.08,853.91C77.82,846.77 71.6,840.22 67.98,832.02C60.75,822.47 56.05,811.3 52.08,800.08C42.78,778.68 39.3,755.2 39.3,732.01C39.27,721.1 39.14,710.18 39.72,699.29C40.59,694.98 40.46,690.6 40.64,686.25C41.91,676.14 43.56,666.07 46.03,656.19C39.62,647.92 32.74,639.84 27.07,630.97C21.71,622.44 16.45,613.81 12.45,604.55C7.75,592.24 4.88,579.22 4.44,566.04C4.56,560.35 2.96,554.68 4.18,549.01C4.33,532.39 7.89,515.62 16.01,501.01C23.8,486.85 33.96,473.8 46.64,463.68C53.12,457.26 60.95,452.49 68.51,447.48C71.88,444.95 75.72,443.19 79.43,441.25C78.62,435.53 77.07,429.84 77.58,424.02C78.58,415.45 79.48,406.8 82.23,398.57C85.55,380.22 88.72,361.83 92.32,343.53C93.5,338.79 95.05,334.14 95.75,329.29C90.11,321.26 84.06,313.52 78.71,305.31C74.03,300.73 71.82,294.36 67.31,289.66C62.94,284.59 59.46,278.86 55.64,273.4C51.63,268.56 48,263.37 45.35,257.65C42.52,251.63 38.86,245.89 37.48,239.3C36,232.97 36.62,226.43 36.48,220C36.38,214.47 36.56,208.83 38.33,203.54C41.24,195.69 43.89,187.63 48.66,180.66C55.46,171.37 64.86,164.3 75,159.01C87.12,152.82 101.03,152.89 114.2,151.03C129.73,148.8 145.45,147.93 160.83,144.77C165.1,139.17 168.37,132.92 171.89,126.85C177.83,118.29 182.83,109.16 188.35,100.34C193.38,89.45 200.98,79.86 209.77,71.76M252.37,97.27C242.52,97.66 234.5,104.61 229.39,112.53C215.96,134.46 202.62,156.44 189.34,178.46C188.03,180.31 187.24,183.16 184.6,183.43C156.81,187.12 128.97,190.4 101.19,194.13C91.78,195.56 83.31,202.01 79.59,210.78C76,218.57 76.52,227.89 80.31,235.51C83.53,242.05 88.4,247.57 92.48,253.56C107.58,274.72 122.77,295.82 137.95,316.92C139.41,318.87 138.73,321.5 138.52,323.74C132.8,353.05 127.26,382.4 121.64,411.73C120.74,416.46 119.44,421.16 119.61,426.02C119.35,436.2 125.98,445.69 134.89,450.2C140.14,452.72 146.18,452.99 151.84,452.07C159.17,450.24 165.26,445.51 171.79,441.93C195.71,427.44 219.9,413.38 243.82,398.89C245.08,397.98 246.83,398 248.01,399.03C265.96,411.47 284.28,423.39 302.35,435.64C310.75,441.56 319.38,447.37 328.97,451.19C342.34,456.07 357.97,446.6 361.38,433.14C363.08,427.53 362.34,421.61 361.3,415.96C356.96,389.66 352.47,363.39 348.08,337.1C347.87,335.27 347.1,333.39 347.6,331.57C349.16,329.21 351.05,327.07 352.91,324.94C370.19,304.51 387.5,284.12 404.81,263.71C407.85,259.98 411.16,256.32 412.93,251.75C415.2,246 417.77,240.21 418.32,233.98C418.13,226.91 415.42,219.71 410.07,214.93C403.54,208.33 393.92,206.92 385.15,205.69C366.57,202.58 347.95,199.66 329.37,196.52C325.78,196.31 324.87,192.45 323.24,189.92C309.94,166.56 296.58,143.24 283.24,119.91C279.98,114.28 277.02,108.2 271.85,104.03C266.52,99.42 259.41,96.85 252.37,97.27M689.35,252.26C684.32,256.59 678.37,260.1 674.71,265.78C669.51,274.45 665.1,283.54 660.44,292.5C656.35,300.64 651.81,308.55 647.8,316.73C647.1,319.1 644.33,318.81 642.4,319.26C628.6,320.69 614.82,322.19 601.02,323.68C594.45,324 587.48,325.91 582.94,330.95C579,335.4 573.26,338 570.08,343.17C566.03,350.01 566.63,359.21 571.31,365.61C575.69,371.81 581.03,377.25 585.67,383.26C594.7,393.57 603.01,404.52 612.36,414.54C613.33,416.13 612.68,418.19 612.7,419.96C610.87,432.72 609.03,445.48 607.15,458.24C606.17,464.67 604.52,471.45 606.94,477.78C608.59,483.85 613.88,487.65 617.99,492.02C620.59,494.78 624.04,496.59 627.69,497.55C634.16,499.7 640.96,496.86 646.54,493.63C661.01,484.73 675.7,476.19 690.13,467.23C691.36,466.45 693.03,465.58 694.39,466.64C707.47,476.24 720.52,485.9 733.65,495.43C739.85,500.01 747.82,499.75 755.04,501.25C762.55,502.45 769.72,497.88 774.05,492.05C777.94,486.97 777.89,480.14 777.03,474.1C773.8,458.36 770.44,442.64 767.27,426.89C766.89,424.18 765.52,421.22 766.59,418.57C774.58,409.23 782.76,400.04 790.63,390.58C795.49,384.92 801.37,379.52 803.34,372.07C804.54,367.04 808.26,363.02 809.14,357.88C810.2,351.18 807.39,344.14 802.21,339.8C796.74,334.24 788.59,333.53 781.29,332.48C768.41,330.39 755.5,328.44 742.61,326.39C741.03,322.53 739.76,318.55 738.46,314.59C732.98,297.59 727.1,280.72 721.43,263.78C719.11,256.97 713.65,251.22 706.74,249.02C700.84,247.62 694.14,248.23 689.35,252.26M764.79,263.18C767.79,272.26 771.33,281.19 773.65,290.48C784.76,292.44 796.13,292.95 807.05,295.94C819.16,299.16 829.67,306.84 837.52,316.5C843.4,323.21 846.41,331.8 848.86,340.24C850.9,346.9 849.8,353.94 850.17,360.79C857.81,367.1 864.9,374.2 870.81,382.19C881.29,395.7 887.14,412.28 889.73,429.05C891.26,437.29 890.66,445.71 890.62,454.04C889.48,467.92 887.51,481.85 883.04,495.09C873.5,525.22 858.64,553.52 840.12,579.08C839.85,579.24 839.3,579.56 839.03,579.72C814.42,566.35 788.9,554.67 763.11,543.74C756.76,540.7 749.54,543.06 742.9,541.34C729.08,540.46 715.81,534.61 705.24,525.78C700.04,522.18 695.17,517.84 689.08,515.85C683.09,520.11 676.64,523.62 670.3,527.29C663.9,532.23 656.46,535.55 648.77,537.87C642.36,539.82 635.59,538.87 629.01,539.11C618.29,539.77 607.72,535.9 598.84,530.12C592.55,525.13 586.17,520.13 580.84,514.1C573.45,505.58 567.99,495.27 565.57,484.24C565.14,482.83 565,481.27 564.1,480.07C555.68,477.84 547.13,476.16 538.63,474.24C494.95,464.91 450.9,457.13 406.49,452.26C403.86,452.11 400.75,450.83 398.39,452.15C395.12,459.78 390.91,467.07 385.22,473.17C375.34,483.03 362.75,490.56 348.87,492.91C340.63,493.24 332.37,493.23 324.14,492.91C308.99,490.56 296.57,481 284.04,472.91C279.37,469.04 273.7,466.72 268.87,463.1C261.05,457.13 252.4,452.35 244.68,446.24C239.71,448.52 235.58,452.19 230.81,454.81C225.87,457.88 220.71,460.58 215.94,463.9C211,467.12 205.23,468.88 200.54,472.5C194.46,476.97 187.48,479.96 181.32,484.29C174.4,488.39 166.84,491.61 158.86,492.91C151.91,493.28 144.93,493.09 137.97,493.09C131.75,493.27 125.91,490.8 120.11,488.89C112.81,486.48 107.14,481.09 100.84,476.93C85.89,484.81 71.27,494.37 61,508.05C51.2,520.56 44.54,535.92 44.05,551.93C43.63,569.75 48.92,587.5 58.28,602.61C67.3,617.76 78.81,631.32 91.61,643.4C93.99,645.16 91.93,648.1 91.43,650.3C83.57,672.34 80.12,695.72 79.18,719.04C78.54,749.08 85.76,779.34 100.1,805.77C110.29,823.61 123.88,839.31 139.25,852.87C162.85,871.95 190.33,886.34 219.53,894.68C253.34,904.93 288.74,909.12 324,909.1C359.18,909.51 394.24,905.33 428.79,898.94C462.83,892.74 496.23,883.35 528.95,872.15C558.08,862.42 586.37,850.33 614.17,837.31C619.52,834.78 625.41,837.38 630.99,837.38C667.84,841.48 704.91,843.55 742,843.38C769.56,843.6 797.11,841.94 824.46,838.61C845.04,836.31 865.33,831.96 885.27,826.44C905.68,820.65 925.54,812.25 942.91,799.95C959.98,788.23 973.45,770.78 978.85,750.65C982.13,737.76 981.18,724.12 977.83,711.35C973.13,693.55 962.71,677.93 951.23,663.8C935.21,645.08 916.16,629.22 896.19,614.87C895.02,614.24 894.45,613.07 893.91,611.96C894.23,611.66 894.86,611.08 895.18,610.78L894.69,610.13C917.32,578.44 934.69,542.86 945.53,505.42C952.47,480.3 954.76,454.03 953.03,428.06C951.17,411.11 947.02,394.4 940.51,378.63C935.13,364.95 927.13,352.46 918.09,340.94C908,328.09 896.15,316.63 882.83,307.16C863.9,293.76 842.96,283.21 820.94,275.94C802.59,270.27 783.86,265.57 764.79,263.18M506.36,295.31C468.78,308.04 432.33,323.96 396.87,341.74C394.93,342.83 392.47,343.39 391.09,345.25C393.12,358.75 395.59,372.18 397.46,385.72C399.05,393.89 399.51,402.28 401.76,410.33C441.57,388 483.57,369.7 526.6,354.57C527.27,349.08 526.29,343.43 527.92,338.07C529.52,331.56 532.32,325.43 535.69,319.66C539.86,313.02 545.71,307.69 551.73,302.75C560.67,294.17 571.35,286.96 583.7,284.54C595.89,282.85 608.27,282.36 620.41,280.45C622.25,275.12 625.87,270.69 627.94,265.51C586.5,271.16 546.01,282.23 506.36,295.31" style="fill:white;fill-rule:nonzero;"/>
        <path d="M253.46,173.04C262.6,188.47 271.27,204.17 280.24,219.7C283.79,225.32 284.83,232.46 289.92,237.08C295.66,243.46 304.32,245.72 312.53,246.71C323.69,248.84 335.1,249.81 346.1,252.67C333.92,266.64 322.1,280.93 310.07,295.04C305.42,300.46 298.71,304.28 295.87,311.1C292.15,318.53 293.39,327.16 294.8,335.02C296.74,347.29 298.93,359.52 300.96,371.78C292.4,366.47 284.29,360.5 275.79,355.12C267.75,349.96 260.33,343.24 250.86,340.87C245.75,340.17 240.31,340.14 235.55,342.37C230.55,344.41 226.81,348.48 222.19,351.14C208.87,359.15 195.46,367.02 182.14,375.02C184.43,359.45 188.05,344.1 190.76,328.6C192.38,321.91 193.14,314.97 192.24,308.12C190.85,302.16 187.18,297.16 184.01,292.06C172.3,275.19 160.1,258.65 148.21,241.91C148.32,241.62 148.54,241.03 148.65,240.74C161.64,239.06 174.65,237.46 187.65,235.77C195.74,234.6 204.31,234.57 211.78,230.86C221.55,225.75 227.36,215.98 232.98,206.93C239.7,195.57 246.79,184.43 253.46,173.04Z" style="fill:white;fill-rule:nonzero;"/>
        <path d="M694.26,317.35C694.56,317.33 695.14,317.28 695.43,317.26C698.6,326.78 701.59,336.38 705.14,345.77C709.19,354.14 714.96,363.39 724.72,365.51C734.11,367.7 743.76,368.46 753.2,370.44C747.47,377.29 741.62,384.05 735.7,390.73C731.16,396 726.16,401.73 725.68,409.02C725.72,413.39 724.36,417.62 724.48,421.99C724.28,427.77 726.2,433.3 727.07,438.95C718.73,433.62 711.51,426.46 702.45,422.34C694.63,418.77 685.93,421.79 678.85,425.66C669.75,430.76 660.94,436.37 652.04,441.82C652.63,432.63 654.51,423.59 655.67,414.48C656.93,408.86 656.12,402.82 653.32,397.79C650.6,393.24 645.77,390.6 642.51,386.52C636.28,378.64 629.55,371.17 623.24,363.36C633.41,362.01 643.62,361.07 653.81,359.88C659.69,359 665.98,358.6 671.07,355.18C676.54,351.75 679.47,345.75 682.33,340.2C686.55,332.71 690.23,324.93 694.26,317.35Z" style="fill:white;fill-rule:nonzero;"/>
        <path d="M277.34,497.41C290.83,496.88 304.37,497.37 317.88,497.5C326.23,498.57 334.69,497.93 343.05,498.9C376.07,500.89 408.96,504.84 441.71,509.51C484.26,516.09 526.59,524.29 568.36,534.81C610.05,545.42 651.5,557.23 691.88,572.15C726.49,584.3 760.37,598.57 793.26,614.8C797.59,617.09 802.22,618.89 806.21,621.79C786.53,643.59 765.19,663.88 742.49,682.5C718.41,702.09 693.46,720.69 666.93,736.86C642.58,752.08 617.59,766.35 591.59,778.55C588.06,779.91 584.19,778.85 580.59,778.37C532.18,770.56 483.98,761.13 436.64,748.26C395.28,737.46 354.53,724.36 314.48,709.39C262.56,689.37 211.4,666.29 165.1,635.14C173.29,618.27 183.48,602.47 194.24,587.15C209.29,565.29 227.18,545.62 245.57,526.57C251.25,520.57 257.66,515.34 263.44,509.45C267.82,505.17 272.27,500.84 277.34,497.41" style="fill:white;fill-rule:nonzero;"/>
        <path d="M113.68,529.75C133.13,516.64 156.27,510.88 178.9,505.98C164.7,522.28 150.99,539.04 138.89,556.97C130.69,568.71 123.36,581.01 116.01,593.28C110.63,588.1 106.66,581.69 102.66,575.44C98.58,568.21 95.53,559.82 96.58,551.41C98.64,542.1 105.87,534.76 113.68,529.75Z" style="fill:white;fill-rule:nonzero;"/>
        <path d="M858.35,657.29C859.45,656.29 860.07,654.32 861.81,654.38C871.01,660.67 879.86,667.48 888.38,674.66C896.13,681.53 904.16,688.22 910.59,696.42C918.68,706.35 926.82,717.36 928.41,730.45C929.81,738.52 925.09,746.13 919.77,751.76C910.86,760.17 899.66,765.56 888.52,770.33C866.71,778.5 843.79,783.46 820.73,786.46C799.22,788.81 777.66,791.06 756,790.85C750.28,790.76 744.59,791.45 738.87,791.25C725.92,790.51 712.93,790.95 699.96,790.55C707.99,784.61 716.75,779.74 724.93,774.01C754.14,753.97 781.96,731.94 808.43,708.41C825.59,691.89 842.63,675.2 858.35,657.29" style="fill:white;fill-rule:nonzero;"/>
        <path d="M146.46,685.34C164.2,696.33 182.18,706.96 200.85,716.32C238.28,735.24 276.95,751.72 316.51,765.65C375.35,786.91 435.89,803.18 496.99,816.48C455.59,830.5 412.55,839.64 369.08,844.18C351.15,846.4 333.05,846.19 315.01,846.06C284.84,845.84 254.72,840.61 226.15,830.93C211.3,825.41 197.13,817.96 184.32,808.63C174.59,801.5 166.38,792.5 159.51,782.62C149.69,768.47 144.69,751.49 142.53,734.55C141.03,718.05 143.15,701.49 146.46,685.34" style="fill:white;fill-rule:nonzero;"/>
    </g>
    <g id="_-88001bff" serif:id="#88001bff">
        <path d="M252.37,97.27C259.41,96.85 266.52,99.42 271.85,104.03C277.02,108.2 279.98,114.28 283.24,119.91C296.58,143.24 309.94,166.56 323.24,189.92C324.87,192.45 325.78,196.31 329.37,196.52C347.95,199.66 366.57,202.58 385.15,205.69C393.92,206.92 403.54,208.33 410.07,214.93C415.42,219.71 418.13,226.91 418.32,233.98C417.77,240.21 415.2,246 412.93,251.75C411.16,256.32 407.85,259.98 404.81,263.71C387.5,284.12 370.19,304.51 352.91,324.94C351.05,327.07 349.16,329.21 347.6,331.57C347.1,333.39 347.87,335.27 348.08,337.1C352.47,363.39 356.96,389.66 361.3,415.96C362.34,421.61 363.08,427.53 361.38,433.14C357.97,446.6 342.34,456.07 328.97,451.19C319.38,447.37 310.75,441.56 302.35,435.64C284.28,423.39 265.96,411.47 248.01,399.03C246.83,398 245.08,397.98 243.82,398.89C219.9,413.38 195.71,427.44 171.79,441.93C165.26,445.51 159.17,450.24 151.84,452.07C146.18,452.99 140.14,452.72 134.89,450.2C125.98,445.69 119.35,436.2 119.61,426.02C119.44,421.16 120.74,416.46 121.64,411.73C127.26,382.4 132.8,353.05 138.52,323.74C138.73,321.5 139.41,318.87 137.95,316.92C122.77,295.82 107.58,274.72 92.48,253.56C88.4,247.57 83.53,242.05 80.31,235.51C76.52,227.89 76,218.57 79.59,210.78C83.31,202.01 91.78,195.56 101.19,194.13C128.97,190.4 156.81,187.12 184.6,183.43C187.24,183.16 188.03,180.31 189.34,178.46C202.62,156.44 215.96,134.46 229.39,112.53C234.5,104.61 242.52,97.66 252.37,97.27M253.46,173.04C246.79,184.43 239.7,195.57 232.98,206.93C227.36,215.98 221.55,225.75 211.78,230.86C204.31,234.57 195.74,234.6 187.65,235.77C174.65,237.46 161.64,239.06 148.65,240.74C148.54,241.03 148.32,241.62 148.21,241.91C160.1,258.65 172.3,275.19 184.01,292.06C187.18,297.16 190.85,302.16 192.24,308.12C193.14,314.97 192.38,321.91 190.76,328.6C188.05,344.1 184.43,359.45 182.14,375.02C195.46,367.02 208.87,359.15 222.19,351.14C226.81,348.48 230.55,344.41 235.55,342.37C240.31,340.14 245.75,340.17 250.86,340.87C260.33,343.24 267.75,349.96 275.79,355.12C284.29,360.5 292.4,366.47 300.96,371.78C298.93,359.52 296.74,347.29 294.8,335.02C293.39,327.16 292.15,318.53 295.87,311.1C298.71,304.28 305.42,300.46 310.07,295.04C322.1,280.93 333.92,266.64 346.1,252.67C335.1,249.81 323.69,248.84 312.53,246.71C304.32,245.72 295.66,243.46 289.92,237.08C284.83,232.46 283.79,225.32 280.24,219.7C271.27,204.17 262.6,188.47 253.46,173.04Z" style="fill:rgb(136,0,27);fill-rule:nonzero;"/>
        <path d="M689.35,252.26C694.14,248.23 700.84,247.62 706.74,249.02C713.65,251.22 719.11,256.97 721.43,263.78C727.1,280.72 732.98,297.59 738.46,314.59C739.76,318.55 741.03,322.53 742.61,326.39C755.5,328.44 768.41,330.39 781.29,332.48C788.59,333.53 796.74,334.24 802.21,339.8C807.39,344.14 810.2,351.18 809.14,357.88C808.26,363.02 804.54,367.04 803.34,372.07C801.37,379.52 795.49,384.92 790.63,390.58C782.76,400.04 774.58,409.23 766.59,418.57C765.52,421.22 766.89,424.18 767.27,426.89C770.44,442.64 773.8,458.36 777.03,474.1C777.89,480.14 777.94,486.97 774.05,492.05C769.72,497.88 762.55,502.45 755.04,501.25C747.82,499.75 739.85,500.01 733.65,495.43C720.52,485.9 707.47,476.24 694.39,466.64C693.03,465.58 691.36,466.45 690.13,467.23C675.7,476.19 661.01,484.73 646.54,493.63C640.96,496.86 634.16,499.7 627.69,497.55C624.04,496.59 620.59,494.78 617.99,492.02C613.88,487.65 608.59,483.85 606.94,477.78C604.52,471.45 606.17,464.67 607.15,458.24C609.03,445.48 610.87,432.72 612.7,419.96C612.68,418.19 613.33,416.13 612.36,414.54C603.01,404.52 594.7,393.57 585.67,383.26C581.03,377.25 575.69,371.81 571.31,365.61C566.63,359.21 566.03,350.01 570.08,343.17C573.26,338 579,335.4 582.94,330.95C587.48,325.91 594.45,324 601.02,323.68C614.82,322.19 628.6,320.69 642.4,319.26C644.33,318.81 647.1,319.1 647.8,316.73C651.81,308.55 656.35,300.64 660.44,292.5C665.1,283.54 669.51,274.45 674.71,265.78C678.37,260.1 684.32,256.59 689.35,252.26M694.26,317.35C690.23,324.93 686.55,332.71 682.33,340.2C679.47,345.75 676.54,351.75 671.07,355.18C665.98,358.6 659.69,359 653.81,359.88C643.62,361.07 633.41,362.01 623.24,363.36C629.55,371.17 636.28,378.64 642.51,386.52C645.77,390.6 650.6,393.24 653.32,397.79C656.12,402.82 656.93,408.86 655.67,414.48C654.51,423.59 652.63,432.63 652.04,441.82C660.94,436.37 669.75,430.76 678.85,425.66C685.93,421.79 694.63,418.77 702.45,422.34C711.51,426.46 718.73,433.62 727.07,438.95C726.2,433.3 724.28,427.77 724.48,421.99C724.36,417.62 725.72,413.39 725.68,409.02C726.16,401.73 731.16,396 735.7,390.73C741.62,384.05 747.47,377.29 753.2,370.44C743.76,368.46 734.11,367.7 724.72,365.51C714.96,363.39 709.19,354.14 705.14,345.77C701.59,336.38 698.6,326.78 695.43,317.26C695.14,317.28 694.56,317.33 694.26,317.35Z" style="fill:rgb(136,0,27);fill-rule:nonzero;"/>
        <path d="M764.79,263.18C783.86,265.57 802.59,270.27 820.94,275.94C842.96,283.21 863.9,293.76 882.83,307.16C896.15,316.63 908,328.09 918.09,340.94C927.13,352.46 935.13,364.95 940.51,378.63C947.02,394.4 951.17,411.11 953.03,428.06C954.76,454.03 952.47,480.3 945.53,505.42C934.69,542.86 917.32,578.44 894.69,610.13C894.41,610.43 893.84,611.01 893.56,611.3L893.91,611.96C894.45,613.07 895.02,614.24 896.19,614.87C916.16,629.22 935.21,645.08 951.23,663.8C962.71,677.93 973.13,693.55 977.83,711.35C981.18,724.12 982.13,737.76 978.85,750.65C973.45,770.78 959.98,788.23 942.91,799.95C925.54,812.25 905.68,820.65 885.27,826.44C865.33,831.96 845.04,836.31 824.46,838.61C797.11,841.94 769.56,843.6 742,843.38C704.91,843.55 667.84,841.48 630.99,837.38C625.41,837.38 619.52,834.78 614.17,837.31C586.37,850.33 558.08,862.42 528.95,872.15C496.23,883.35 462.83,892.74 428.79,898.94C394.24,905.33 359.18,909.51 324,909.1C288.74,909.12 253.34,904.93 219.53,894.68C190.33,886.34 162.85,871.95 139.25,852.87C123.88,839.31 110.29,823.61 100.1,805.77C85.76,779.34 78.54,749.08 79.18,719.04C80.12,695.72 83.57,672.34 91.43,650.3C91.93,648.1 93.99,645.16 91.61,643.4C78.81,631.32 67.3,617.76 58.28,602.61C48.92,587.5 43.63,569.75 44.05,551.93C44.54,535.92 51.2,520.56 61,508.05C71.27,494.37 85.89,484.81 100.84,476.93C107.14,481.09 112.81,486.48 120.11,488.89C125.91,490.8 131.75,493.27 137.97,493.09C144.93,493.09 151.91,493.28 158.86,492.91C166.84,491.61 174.4,488.39 181.32,484.29C187.48,479.96 194.46,476.97 200.54,472.5C205.23,468.88 211,467.12 215.94,463.9C220.71,460.58 225.87,457.88 230.81,454.81C235.58,452.19 239.71,448.52 244.68,446.24C252.4,452.35 261.05,457.13 268.87,463.1C273.7,466.72 279.37,469.04 284.04,472.91C296.57,481 308.99,490.56 324.14,492.91C332.37,493.23 340.63,493.24 348.87,492.91C362.75,490.56 375.34,483.03 385.22,473.17C390.91,467.07 395.12,459.78 398.39,452.15C400.75,450.83 403.86,452.11 406.49,452.26C450.9,457.13 494.95,464.91 538.63,474.24C547.13,476.16 555.68,477.84 564.1,480.07C565,481.27 565.14,482.83 565.57,484.24C567.99,495.27 573.45,505.58 580.84,514.1C586.17,520.13 592.55,525.13 598.84,530.12C607.72,535.9 618.29,539.77 629.01,539.11C635.59,538.87 642.36,539.82 648.77,537.87C656.46,535.55 663.9,532.23 670.3,527.29C676.64,523.62 683.09,520.11 689.08,515.85C695.17,517.84 700.04,522.18 705.24,525.78C715.81,534.61 729.08,540.46 742.9,541.34C749.54,543.06 756.76,540.7 763.11,543.74C788.9,554.67 814.42,566.35 839.03,579.72C839.3,579.56 839.85,579.24 840.12,579.08C858.64,553.52 873.5,525.22 883.04,495.09C887.51,481.85 889.48,467.92 890.62,454.04C890.66,445.71 891.26,437.29 889.73,429.05C887.14,412.28 881.29,395.7 870.81,382.19C864.9,374.2 857.81,367.1 850.17,360.79C849.8,353.94 850.9,346.9 848.86,340.24C846.41,331.8 843.4,323.21 837.52,316.5C829.67,306.84 819.16,299.16 807.05,295.94C796.13,292.95 784.76,292.44 773.65,290.48C771.33,281.19 767.79,272.26 764.79,263.18M277.34,497.41C272.27,500.84 267.82,505.17 263.44,509.45C257.66,515.34 251.25,520.57 245.57,526.57C227.18,545.62 209.29,565.29 194.24,587.15C183.48,602.47 173.29,618.27 165.1,635.14C211.4,666.29 262.56,689.37 314.48,709.39C354.53,724.36 395.28,737.46 436.64,748.26C483.98,761.13 532.18,770.56 580.59,778.37C584.19,778.85 588.06,779.91 591.59,778.55C617.59,766.35 642.58,752.08 666.93,736.86C693.46,720.69 718.41,702.09 742.49,682.5C765.19,663.88 786.53,643.59 806.21,621.79C802.22,618.89 797.59,617.09 793.26,614.8C760.37,598.57 726.49,584.3 691.88,572.15C651.5,557.23 610.05,545.42 568.36,534.81C526.59,524.29 484.26,516.09 441.71,509.51C408.96,504.84 376.07,500.89 343.05,498.9C334.69,497.93 326.23,498.57 317.88,497.5C304.37,497.37 290.83,496.88 277.34,497.41M113.68,529.75C105.87,534.76 98.64,542.1 96.58,551.41C95.53,559.82 98.58,568.21 102.66,575.44C106.66,581.69 110.63,588.1 116.01,593.28C123.36,581.01 130.69,568.71 138.89,556.97C150.99,539.04 164.7,522.28 178.9,505.98C156.27,510.88 133.13,516.64 113.68,529.75M858.35,657.29C842.63,675.2 825.59,691.89 808.43,708.41C781.96,731.94 754.14,753.97 724.93,774.01C716.75,779.74 707.99,784.61 699.96,790.55C712.93,790.95 725.92,790.51 738.87,791.25C744.59,791.45 750.28,790.76 756,790.85C777.66,791.06 799.22,788.81 820.73,786.46C843.79,783.46 866.71,778.5 888.52,770.33C899.66,765.56 910.86,760.17 919.77,751.76C925.09,746.13 929.81,738.52 928.41,730.45C926.82,717.36 918.68,706.35 910.59,696.42C904.16,688.22 896.13,681.53 888.38,674.66C879.86,667.48 871.01,660.67 861.81,654.38C860.07,654.32 859.45,656.29 858.35,657.29M146.46,685.34C143.15,701.49 141.03,718.05 142.53,734.55C144.69,751.49 149.69,768.47 159.51,782.62C166.38,792.5 174.59,801.5 184.32,808.63C197.13,817.96 211.3,825.41 226.15,830.93C254.72,840.61 284.84,845.84 315.01,846.06C333.05,846.19 351.15,846.4 369.08,844.18C412.55,839.64 455.59,830.5 496.99,816.48C435.89,803.18 375.35,786.91 316.51,765.65C276.95,751.72 238.28,735.24 200.85,716.32C182.18,706.96 164.2,696.33 146.46,685.34Z" style="fill:rgb(136,0,27);fill-rule:nonzero;"/>
        <path d="M506.36,295.31C546.01,282.23 586.5,271.16 627.94,265.51C625.87,270.69 622.25,275.12 620.41,280.45C608.27,282.36 595.89,282.85 583.7,284.54C571.35,286.96 560.67,294.17 551.73,302.75C545.71,307.69 539.86,313.02 535.69,319.66C532.32,325.43 529.52,331.56 527.92,338.07C526.29,343.43 527.27,349.08 526.6,354.57C483.57,369.7 441.57,388 401.76,410.33C399.51,402.28 399.05,393.89 397.46,385.72C395.59,372.18 393.12,358.75 391.09,345.25C392.47,343.39 394.93,342.83 396.87,341.74C432.33,323.96 468.78,308.04 506.36,295.31Z" style="fill:rgb(136,0,27);fill-rule:nonzero;"/>
    </g>
    <g id="_-b9adaf6c" serif:id="#b9adaf6c">
        <path d="M893.56,611.3C893.84,611.01 894.41,610.43 894.69,610.13L895.18,610.78C894.86,611.08 894.23,611.66 893.91,611.96L893.56,611.3Z" style="fill:rgb(185,173,175);fill-opacity:0.42;fill-rule:nonzero;"/>
    </g>
</svg>
