<?xml version="1.0" encoding="UTF-8" ?>
<!DOCTYPE svg PUBLIC "-//W3C//DTD SVG 1.1//EN" "http://www.w3.org/Graphics/SVG/1.1/DTD/svg11.dtd">
<svg width="1024pt" height="1024pt" viewBox="0 0 1024 1024" version="1.1" xmlns="http://www.w3.org/2000/svg">
<g id="#ffffffff">
<path fill="#ffffff" opacity="1.00" d=" M 376.98 5.39 C 380.66 5.34 384.28 4.46 387.97 4.50 C 429.64 4.43 471.32 4.47 513.00 4.38 C 517.66 4.29 522.35 4.67 526.99 3.97 C 541.46 2.19 556.70 4.92 568.95 13.05 C 582.90 21.86 592.73 36.75 595.60 52.97 C 597.70 66.19 596.35 80.24 590.20 92.26 C 585.44 101.90 577.98 110.06 569.18 116.19 C 563.13 121.18 557.14 126.27 550.61 130.63 C 540.17 139.60 528.94 147.60 518.59 156.65 C 508.82 163.40 500.01 171.41 490.59 178.62 C 486.74 182.14 482.70 185.44 478.45 188.46 C 478.45 188.75 478.46 189.31 478.46 189.59 C 486.64 197.23 493.96 205.87 499.31 215.74 L 499.87 216.20 C 510.31 211.69 520.28 206.16 530.75 201.72 C 536.44 199.46 542.24 197.41 547.86 194.93 C 556.35 191.57 565.16 189.19 574.01 187.01 C 588.54 181.99 603.94 180.65 619.06 178.54 C 627.09 178.98 634.98 177.18 643.00 177.46 C 656.98 177.41 670.97 177.39 684.95 177.50 C 689.32 177.45 693.58 178.74 697.96 178.54 C 706.42 178.13 714.69 180.19 723.05 181.09 C 733.41 182.96 743.72 185.19 753.76 188.39 C 761.13 190.40 768.68 192.04 775.58 195.44 C 788.17 200.18 800.63 205.30 812.61 211.45 C 819.75 215.22 827.38 218.22 833.90 223.09 C 837.39 225.69 841.47 227.36 844.90 230.08 C 850.11 234.30 856.18 237.34 861.28 241.72 C 868.23 246.65 874.77 252.13 881.02 257.92 C 886.68 262.21 891.32 267.66 896.44 272.56 C 901.49 277.20 905.31 282.96 910.41 287.57 C 918.11 296.95 925.81 306.38 932.35 316.62 C 936.00 321.41 939.30 326.44 942.34 331.63 C 949.99 342.32 954.92 354.59 960.52 366.39 C 964.08 372.70 965.42 379.91 968.57 386.40 C 972.04 393.87 974.07 401.88 976.38 409.76 C 978.16 417.54 981.21 424.98 982.33 432.93 C 983.47 436.57 982.67 441.40 986.38 443.66 C 993.12 450.24 1000.31 456.57 1005.36 464.63 C 1012.59 474.91 1018.42 486.48 1020.14 499.07 C 1023.46 512.39 1022.49 526.18 1022.41 539.76 C 1021.65 544.52 1021.33 549.31 1020.92 554.10 C 1018.69 565.47 1016.60 576.91 1013.18 588.01 C 1011.22 598.83 1007.79 609.27 1004.61 619.76 C 1001.51 631.97 997.32 643.86 994.15 656.05 C 990.90 665.59 988.60 675.44 984.80 684.79 C 981.33 692.37 979.24 700.61 974.74 707.71 C 969.19 717.25 962.65 726.17 956.07 735.02 C 951.01 741.97 944.04 747.11 937.47 752.51 C 934.29 755.18 930.32 756.74 927.05 759.20 C 920.33 773.14 915.62 787.98 908.57 801.78 C 905.98 809.96 901.10 817.10 898.23 825.16 C 894.49 832.49 890.70 839.80 887.37 847.34 C 883.84 856.42 878.29 864.48 874.21 873.28 C 865.75 888.65 856.41 903.47 847.73 918.70 C 842.05 928.26 835.95 937.55 829.74 946.77 C 818.76 964.32 803.14 978.32 786.91 990.90 C 779.49 996.80 771.23 1001.51 762.86 1005.90 C 746.20 1013.36 727.68 1014.72 709.71 1015.75 C 703.53 1016.88 697.24 1016.43 691.00 1016.55 C 673.00 1016.60 655.00 1016.60 637.00 1016.56 C 628.31 1016.42 619.57 1016.98 610.96 1015.55 C 601.51 1015.84 592.24 1013.71 582.89 1012.77 C 576.34 1011.42 569.66 1010.33 563.54 1007.53 C 553.85 1002.98 544.25 997.92 536.06 990.94 C 526.79 983.98 518.01 976.36 509.56 968.45 C 495.87 952.66 484.49 935.04 473.89 917.07 C 470.05 910.31 465.48 903.98 462.02 897.00 C 457.63 890.80 454.89 883.65 450.50 877.45 C 442.25 861.58 434.47 845.47 426.47 829.48 C 423.26 820.43 418.42 812.11 414.78 803.25 C 409.28 793.35 406.23 782.14 401.23 772.17 C 402.41 782.41 400.22 792.65 397.14 802.38 C 393.11 812.99 387.39 823.20 378.95 830.94 C 368.72 842.04 354.77 849.61 340.02 852.61 C 330.87 854.29 321.47 852.84 312.35 854.38 C 293.90 854.68 275.45 854.56 257.00 854.71 C 234.05 856.26 211.00 855.31 188.00 855.67 C 181.64 855.31 175.36 856.68 169.01 856.49 C 150.59 856.47 132.44 847.35 121.51 832.52 C 104.94 810.85 105.45 777.91 122.79 756.82 C 127.82 750.87 133.47 745.45 139.53 740.55 C 143.75 736.22 148.22 732.04 152.64 728.02 C 146.52 718.70 141.11 708.58 139.34 697.44 C 135.33 680.83 138.15 663.13 145.07 647.70 C 134.06 647.40 123.03 647.69 112.02 647.71 C 98.43 649.33 84.69 648.07 71.05 648.81 C 59.66 650.40 47.74 649.46 37.14 644.81 C 18.60 637.17 4.62 619.60 1.35 599.82 C -0.32 589.12 0.17 577.92 3.81 567.65 C 8.12 555.37 16.50 544.55 27.40 537.42 C 37.36 529.73 47.06 521.71 56.94 513.92 C 66.82 504.30 78.65 496.99 88.97 487.86 C 81.89 475.99 76.62 462.67 75.55 448.77 C 75.45 440.49 75.07 432.16 75.94 423.91 C 78.95 405.68 87.21 387.91 100.91 375.27 C 96.57 375.72 92.20 375.11 87.89 375.87 C 75.20 377.79 61.99 375.29 50.72 369.21 C 34.65 361.28 22.57 345.81 18.88 328.27 C 15.58 312.85 18.09 296.02 26.63 282.66 C 34.04 270.60 45.90 262.48 56.56 253.58 C 62.76 248.02 69.99 243.77 76.17 238.20 C 93.50 224.41 110.70 210.45 128.16 196.81 L 128.25 196.06 C 123.37 192.57 119.29 188.15 115.06 183.94 C 99.72 169.59 91.53 149.37 86.87 129.27 C 84.96 121.33 85.64 113.10 85.52 105.00 C 85.45 97.62 87.12 90.37 89.58 83.44 C 93.10 69.91 99.11 56.89 108.19 46.16 C 117.72 33.17 131.44 24.05 145.43 16.46 C 154.57 11.18 165.04 9.13 175.30 7.22 C 178.82 6.65 182.39 6.43 185.95 6.47 C 206.96 6.41 227.97 6.42 248.98 6.41 C 252.98 6.30 256.93 5.37 260.94 5.48 C 299.62 5.47 338.30 5.41 376.98 5.39 M 438.00 65.61 C 399.66 65.70 361.32 65.56 322.99 66.06 C 318.99 66.12 315.01 66.82 311.00 66.60 C 278.00 66.67 245.00 66.76 212.00 66.89 C 204.31 66.76 196.66 67.71 188.98 67.63 C 180.28 68.23 171.94 71.75 164.89 76.83 C 158.46 81.25 154.17 88.13 150.83 95.03 C 144.39 110.25 147.86 128.77 159.46 140.55 C 168.79 151.04 183.26 155.69 196.99 155.22 C 210.67 155.21 224.34 154.92 238.01 154.92 C 252.29 153.97 266.61 154.66 280.91 154.31 C 252.56 177.20 223.81 199.60 195.29 222.20 C 168.64 243.24 142.14 264.42 115.52 285.50 C 103.65 294.93 91.60 304.19 79.99 313.94 C 84.98 314.41 90.02 313.99 95.03 314.33 C 125.01 314.00 155.01 314.21 185.00 313.86 C 196.32 313.58 207.67 314.36 218.97 313.34 C 244.65 313.25 270.32 313.00 296.00 312.89 C 302.66 312.82 309.33 313.01 315.98 312.40 C 345.00 312.33 374.03 312.14 403.05 311.89 C 406.88 311.44 410.76 311.56 414.54 310.78 C 423.66 309.15 432.35 304.49 438.56 297.56 C 444.95 291.71 448.91 283.44 450.25 274.99 C 451.22 270.96 451.87 266.78 450.57 262.75 C 449.82 253.93 445.31 245.93 439.96 239.06 C 432.04 231.10 421.60 224.59 410.06 224.55 C 404.78 223.38 399.37 223.88 394.00 223.83 C 388.62 223.90 383.23 223.56 377.92 224.52 C 362.99 224.61 348.05 224.57 333.13 224.69 C 384.03 184.40 434.94 144.26 485.71 103.80 C 500.23 91.94 515.31 80.86 529.61 68.73 C 530.50 67.74 532.15 67.36 532.48 65.95 C 532.08 65.70 531.29 65.20 530.90 64.95 C 526.29 64.45 521.63 64.84 517.00 64.70 C 490.66 64.90 464.31 64.74 438.00 65.61 M 619.92 240.35 C 589.54 244.50 560.06 254.62 532.96 268.92 C 526.75 271.83 521.05 275.65 515.23 279.25 C 498.09 290.72 481.83 303.63 467.63 318.63 C 465.56 320.97 462.81 322.94 461.71 325.97 C 461.09 326.61 460.56 327.33 460.11 328.11 C 457.89 328.39 456.91 330.97 455.47 332.44 C 446.06 343.60 437.85 355.69 430.15 368.08 C 418.32 389.67 408.73 412.56 402.56 436.42 C 399.06 450.70 397.27 465.33 395.71 479.93 C 395.74 483.00 392.08 483.21 389.90 483.97 C 380.64 486.32 372.92 492.79 367.60 500.55 C 362.36 508.31 361.29 517.89 360.84 527.00 C 361.65 545.92 367.15 564.16 371.69 582.42 C 377.61 603.92 383.85 625.33 390.50 646.61 C 392.96 655.18 395.68 663.68 399.18 671.89 C 402.04 679.43 407.33 685.64 411.83 692.23 C 417.60 701.22 427.41 707.52 437.98 709.05 C 439.94 709.42 442.53 709.55 443.17 711.88 C 454.13 737.85 464.53 764.06 476.33 789.66 C 485.41 809.33 494.77 828.88 505.12 847.93 C 519.65 874.15 535.05 900.00 552.85 924.15 C 563.14 933.61 573.66 943.19 586.01 949.93 C 595.87 953.34 606.52 953.39 616.72 955.21 C 620.09 955.96 623.55 955.32 626.96 955.71 C 630.09 955.83 633.33 956.75 636.39 955.67 C 637.76 956.49 639.46 956.02 640.99 956.17 C 650.99 956.25 660.99 956.16 671.00 956.22 C 676.18 955.95 681.52 956.65 686.62 955.76 C 689.03 956.47 691.56 956.06 694.03 955.84 C 698.36 955.31 702.78 955.99 707.06 954.94 C 716.07 953.89 725.12 952.83 734.01 950.94 C 739.85 949.07 744.56 944.89 749.57 941.50 C 757.29 935.32 765.23 929.21 771.69 921.69 C 780.86 908.74 789.63 895.50 797.82 881.91 C 820.60 845.19 839.24 806.13 856.62 766.63 C 863.99 748.71 871.62 730.90 878.95 712.96 C 879.58 711.74 879.90 709.81 881.57 709.62 C 886.61 708.70 891.77 707.79 896.33 705.31 C 904.05 701.34 909.64 694.38 914.27 687.23 C 922.06 677.80 925.88 666.03 929.72 654.63 C 936.45 632.55 943.18 610.45 949.31 588.21 C 953.32 577.94 954.53 567.00 957.41 556.38 C 959.19 549.59 960.12 542.63 961.49 535.75 C 961.71 530.20 961.54 524.62 961.57 519.06 C 960.13 509.66 956.44 500.25 949.38 493.63 C 943.53 487.56 935.45 484.28 927.35 482.58 C 926.64 481.15 927.38 479.05 926.04 478.02 L 925.70 477.39 C 926.80 474.69 925.89 471.79 925.67 469.03 C 923.70 451.01 919.88 433.18 913.91 416.06 C 906.17 394.21 896.45 372.90 883.24 353.79 C 873.23 339.38 862.26 325.57 849.82 313.18 C 826.95 291.43 800.92 272.49 771.67 260.30 C 754.51 252.56 736.50 246.66 718.02 243.00 C 707.84 240.23 697.30 239.89 686.91 238.45 C 679.26 238.58 671.66 237.41 664.00 237.76 C 654.07 237.41 644.19 238.38 634.28 238.52 C 629.54 239.59 624.67 239.35 619.92 240.35 M 136.88 432.16 C 134.68 441.92 137.84 452.89 145.45 459.54 C 148.96 463.41 153.52 466.40 158.69 467.44 C 171.40 470.24 184.52 468.49 197.39 469.52 C 201.27 469.91 205.17 469.66 209.04 470.02 C 208.31 471.54 206.87 472.55 205.56 473.55 C 180.51 493.16 155.75 513.16 130.59 532.63 C 110.98 548.73 90.86 564.21 71.12 580.16 C 68.74 582.63 65.34 584.08 63.52 587.06 C 63.90 587.34 64.64 587.90 65.01 588.17 C 84.98 588.69 104.96 587.40 124.93 587.42 C 136.28 586.89 147.66 587.52 158.98 586.37 C 171.98 586.24 185.00 586.39 197.97 585.38 C 211.97 585.26 225.98 585.39 239.95 584.35 C 256.23 584.53 272.51 583.76 288.78 583.40 C 291.03 583.09 293.04 581.97 295.23 581.41 C 304.72 578.42 312.37 570.29 314.89 560.67 C 318.40 549.54 313.46 536.53 304.06 529.86 C 297.85 524.23 289.02 523.37 280.99 523.15 C 273.36 523.97 265.67 523.53 258.01 523.80 C 251.69 523.77 245.35 524.46 239.04 523.93 C 240.61 521.86 242.95 520.57 244.98 519.01 C 276.88 493.52 309.08 468.45 340.93 442.89 C 352.00 433.80 363.62 425.39 374.31 415.84 L 374.49 414.94 C 369.22 413.13 363.40 414.48 357.92 413.92 C 343.67 412.51 329.32 413.63 315.07 412.30 C 293.68 412.01 272.33 411.15 250.95 410.82 C 235.68 409.60 220.33 410.52 205.07 409.32 C 192.38 409.05 179.70 408.92 167.01 408.68 C 153.09 408.11 139.97 418.75 136.88 432.16 M 200.30 676.48 C 197.17 686.24 204.45 696.89 214.14 699.08 C 220.65 700.61 227.37 699.98 234.00 700.10 C 247.32 700.15 260.64 700.00 273.95 700.17 C 269.18 705.69 263.09 709.82 258.07 715.09 C 245.94 725.93 233.92 736.90 221.94 747.90 C 216.89 751.83 212.77 756.81 207.62 760.65 C 201.73 766.78 194.99 771.98 189.04 778.05 C 183.32 783.13 177.34 788.10 172.52 794.05 C 172.89 794.33 173.64 794.89 174.01 795.17 C 197.66 795.65 221.34 795.13 245.01 794.89 C 250.67 794.88 256.33 794.92 261.97 794.40 C 276.65 794.34 291.32 794.14 306.00 793.92 C 312.90 793.76 319.92 794.30 326.71 792.81 C 331.41 790.91 336.31 788.08 338.34 783.16 C 340.66 779.56 340.77 775.20 340.18 771.09 C 338.74 766.03 334.83 762.26 330.81 759.14 C 324.78 755.63 317.62 757.10 311.01 756.89 C 296.35 756.76 281.68 757.43 267.03 757.06 C 268.56 754.93 270.59 753.26 272.59 751.60 C 278.22 747.26 282.67 741.61 288.41 737.40 C 293.08 732.72 298.37 728.71 302.95 723.93 C 308.73 719.41 313.53 713.82 319.36 709.36 C 325.27 703.23 332.08 698.10 338.07 692.06 C 343.42 687.77 347.88 682.51 353.28 678.29 C 358.64 673.45 363.46 668.03 368.94 663.34 C 319.64 662.30 270.31 662.96 221.00 662.75 C 212.18 662.28 202.64 667.58 200.30 676.48 Z" />
<path fill="#ffffff" opacity="1.00" d=" M 700.42 578.66 C 703.16 578.11 706.02 578.23 708.80 578.49 C 715.26 579.88 720.44 584.35 726.53 586.69 C 742.91 594.22 760.86 599.04 778.99 598.28 C 796.70 597.28 814.00 591.48 829.08 582.19 C 834.71 578.92 842.01 578.09 847.85 581.33 C 854.70 585.51 857.78 594.97 854.07 602.23 C 850.98 610.35 841.85 612.74 835.22 617.09 C 822.38 622.89 809.04 627.96 795.05 629.87 C 763.91 634.86 731.75 627.56 704.09 612.83 C 699.69 610.86 695.53 608.34 692.05 605.01 C 690.38 602.51 689.12 599.70 688.53 596.76 C 687.44 588.93 692.37 580.27 700.42 578.66 Z" />
<path fill="#ffffff" opacity="1.00" d=" M 467.41 581.65 C 471.26 581.17 475.34 580.88 479.08 582.09 C 484.46 584.23 489.40 587.30 494.80 589.41 C 505.57 593.65 516.61 597.48 528.14 598.93 C 535.53 599.80 543.06 600.93 550.49 599.65 C 565.41 598.85 579.80 593.41 592.42 585.56 C 597.17 582.98 602.94 582.62 608.08 584.11 C 615.00 586.24 618.71 593.89 618.49 600.70 C 617.66 608.54 610.89 613.78 604.45 617.37 C 588.00 626.26 569.73 632.16 550.99 632.86 C 545.77 633.96 540.24 633.92 535.01 632.88 C 514.10 632.06 493.81 625.52 474.76 617.14 C 468.69 613.94 461.41 611.67 457.97 605.22 C 455.38 599.56 455.42 592.24 459.22 587.12 C 461.21 584.41 464.23 582.60 467.41 581.65 Z" />
</g>
<g id="#88001bff">
<path fill="#88001b" opacity="1.00" d=" M 438.00 65.61 C 464.31 64.74 490.66 64.90 517.00 64.70 C 521.63 64.84 526.29 64.45 530.90 64.95 C 531.29 65.20 532.08 65.70 532.48 65.95 C 532.15 67.36 530.50 67.74 529.61 68.73 C 515.31 80.86 500.23 91.94 485.71 103.80 C 434.94 144.26 384.03 184.40 333.13 224.69 C 348.05 224.57 362.99 224.61 377.92 224.52 C 383.23 223.56 388.62 223.90 394.00 223.83 C 399.37 223.88 404.78 223.38 410.06 224.55 C 421.60 224.59 432.04 231.10 439.96 239.06 C 445.31 245.93 449.82 253.93 450.57 262.75 C 451.87 266.78 451.22 270.96 450.25 274.99 C 448.91 283.44 444.95 291.71 438.56 297.56 C 432.35 304.49 423.66 309.15 414.54 310.78 C 410.76 311.56 406.88 311.44 403.05 311.89 C 374.03 312.14 345.00 312.33 315.98 312.40 C 309.33 313.01 302.66 312.82 296.00 312.89 C 270.32 313.00 244.65 313.25 218.97 313.34 C 207.67 314.36 196.32 313.58 185.00 313.86 C 155.01 314.21 125.01 314.00 95.03 314.33 C 90.02 313.99 84.98 314.41 79.99 313.94 C 91.60 304.19 103.65 294.93 115.52 285.50 C 142.14 264.42 168.64 243.24 195.29 222.20 C 223.81 199.60 252.56 177.20 280.91 154.31 C 266.61 154.66 252.29 153.97 238.01 154.92 C 224.34 154.92 210.67 155.21 196.99 155.22 C 183.26 155.69 168.79 151.04 159.46 140.55 C 147.86 128.77 144.39 110.25 150.83 95.03 C 154.17 88.13 158.46 81.25 164.89 76.83 C 171.94 71.75 180.28 68.23 188.98 67.63 C 196.66 67.71 204.31 66.76 212.00 66.89 C 245.00 66.76 278.00 66.67 311.00 66.60 C 315.01 66.82 318.99 66.12 322.99 66.06 C 361.32 65.56 399.66 65.70 438.00 65.61 Z" />
<path fill="#88001b" opacity="1.00" d=" M 609.38 243.19 C 630.00 239.49 651.01 238.02 671.98 238.65 C 699.76 240.10 727.68 244.09 753.81 254.04 C 773.14 261.33 792.04 270.12 809.16 281.75 C 824.97 292.71 840.10 304.68 853.50 318.51 C 867.58 333.73 880.47 350.16 891.02 368.04 C 901.86 387.34 910.92 407.74 917.06 429.04 C 921.75 444.72 924.20 461.46 925.70 477.39 L 926.04 478.02 C 926.21 479.84 926.15 481.70 926.43 483.53 C 941.51 485.95 955.26 497.24 958.85 512.35 C 960.81 517.68 960.47 523.41 960.46 528.99 C 960.78 537.40 958.52 545.60 956.99 553.80 C 948.63 588.79 938.19 623.23 927.68 657.61 C 924.50 666.58 921.55 675.94 915.49 683.47 C 910.00 691.45 904.24 699.88 895.47 704.56 C 890.73 707.27 885.22 707.75 880.03 709.07 C 877.26 712.89 876.23 717.72 874.10 721.93 C 860.40 755.12 846.39 788.19 830.56 820.44 C 827.21 827.88 822.72 834.71 819.27 842.09 C 806.31 867.13 791.35 891.08 775.44 914.35 C 770.89 922.22 763.96 928.29 756.94 933.91 C 752.04 938.12 746.97 942.11 741.56 945.66 C 738.65 947.55 735.84 949.89 732.31 950.46 C 717.22 953.23 701.86 954.81 686.62 955.76 C 681.52 956.65 676.18 955.95 671.00 956.22 C 660.99 956.16 650.99 956.25 640.99 956.17 C 639.46 956.02 637.76 956.49 636.39 955.67 C 621.90 954.95 606.85 953.49 592.34 950.83 C 584.08 949.51 578.05 943.19 571.37 938.72 C 565.38 933.69 559.30 928.71 553.54 923.43 C 535.06 897.29 518.05 870.09 503.07 841.78 C 500.13 835.17 495.90 829.24 493.39 822.45 C 489.56 816.59 487.31 809.95 484.08 803.79 C 469.91 773.76 457.15 743.11 444.49 712.40 C 443.86 710.93 443.08 709.09 441.28 708.86 C 434.65 707.61 427.90 705.72 422.49 701.52 C 415.95 697.30 412.37 690.16 407.68 684.21 C 399.04 672.89 395.30 658.90 391.37 645.44 C 387.12 633.28 384.14 620.74 380.21 608.48 C 373.72 584.24 365.90 560.21 362.33 535.32 C 360.60 523.37 362.46 510.55 369.29 500.39 C 374.74 492.77 382.75 486.77 391.99 484.72 C 393.76 484.25 396.23 483.92 396.43 481.63 C 397.65 466.74 400.17 451.98 403.24 437.37 C 409.58 413.27 419.24 390.13 431.23 368.30 C 437.75 357.95 444.45 347.68 452.18 338.19 C 454.80 334.81 457.83 331.75 460.11 328.11 C 460.56 327.33 461.09 326.61 461.71 325.97 C 469.02 319.56 475.38 312.11 482.61 305.60 C 490.31 299.24 497.80 292.60 506.08 286.98 C 523.68 273.76 543.61 264.11 563.91 255.78 C 578.69 250.42 593.76 245.45 609.38 243.19 M 700.42 578.66 C 692.37 580.27 687.44 588.93 688.53 596.76 C 689.12 599.70 690.38 602.51 692.05 605.01 C 695.53 608.34 699.69 610.86 704.09 612.83 C 731.75 627.56 763.91 634.86 795.05 629.87 C 809.04 627.96 822.38 622.89 835.22 617.09 C 841.85 612.74 850.98 610.35 854.07 602.23 C 857.78 594.97 854.70 585.51 847.85 581.33 C 842.01 578.09 834.71 578.92 829.08 582.19 C 814.00 591.48 796.70 597.28 778.99 598.28 C 760.86 599.04 742.91 594.22 726.53 586.69 C 720.44 584.35 715.26 579.88 708.80 578.49 C 706.02 578.23 703.16 578.11 700.42 578.66 M 467.41 581.65 C 464.23 582.60 461.21 584.41 459.22 587.12 C 455.42 592.24 455.38 599.56 457.97 605.22 C 461.41 611.67 468.69 613.94 474.76 617.14 C 493.81 625.52 514.10 632.06 535.01 632.88 C 540.24 633.92 545.77 633.96 550.99 632.86 C 569.73 632.16 588.00 626.26 604.45 617.37 C 610.89 613.78 617.66 608.54 618.49 600.70 C 618.71 593.89 615.00 586.24 608.08 584.11 C 602.94 582.62 597.17 582.98 592.42 585.56 C 579.80 593.41 565.41 598.85 550.49 599.65 C 543.06 600.93 535.53 599.80 528.14 598.93 C 516.61 597.48 505.57 593.65 494.80 589.41 C 489.40 587.30 484.46 584.23 479.08 582.09 C 475.34 580.88 471.26 581.17 467.41 581.65 Z" />
<path fill="#88001b" opacity="1.00" d=" M 136.88 432.16 C 139.97 418.75 153.09 408.11 167.01 408.68 C 179.70 408.92 192.38 409.05 205.07 409.32 C 220.33 410.52 235.68 409.60 250.95 410.82 C 272.33 411.15 293.68 412.01 315.07 412.30 C 329.32 413.63 343.67 412.51 357.92 413.92 C 363.40 414.48 369.22 413.13 374.49 414.94 L 374.31 415.84 C 363.62 425.39 352.00 433.80 340.93 442.89 C 309.08 468.45 276.88 493.52 244.98 519.01 C 242.95 520.57 240.61 521.86 239.04 523.93 C 245.35 524.46 251.69 523.77 258.01 523.80 C 265.67 523.53 273.36 523.97 280.99 523.15 C 289.02 523.37 297.85 524.23 304.06 529.86 C 313.46 536.53 318.40 549.54 314.89 560.67 C 312.37 570.29 304.72 578.42 295.23 581.41 C 293.04 581.97 291.03 583.09 288.78 583.40 C 272.51 583.76 256.23 584.53 239.95 584.35 C 225.98 585.39 211.97 585.26 197.97 585.38 C 185.00 586.39 171.98 586.24 158.98 586.37 C 147.66 587.52 136.28 586.89 124.93 587.42 C 104.96 587.40 84.98 588.69 65.01 588.17 C 64.64 587.90 63.90 587.34 63.52 587.06 C 65.34 584.08 68.74 582.63 71.12 580.16 C 90.86 564.21 110.98 548.73 130.59 532.63 C 155.75 513.16 180.51 493.16 205.56 473.55 C 206.87 472.55 208.31 471.54 209.04 470.02 C 205.17 469.66 201.27 469.91 197.39 469.52 C 184.52 468.49 171.40 470.24 158.69 467.44 C 153.52 466.40 148.96 463.41 145.45 459.54 C 137.84 452.89 134.68 441.92 136.88 432.16 Z" />
<path fill="#88001b" opacity="1.00" d=" M 200.30 676.48 C 202.64 667.58 212.18 662.28 221.00 662.75 C 270.31 662.96 319.64 662.30 368.94 663.34 C 363.46 668.03 358.64 673.45 353.28 678.29 C 347.88 682.51 343.42 687.77 338.07 692.06 C 332.08 698.10 325.27 703.23 319.36 709.36 C 313.53 713.82 308.73 719.41 302.95 723.93 C 298.37 728.71 293.08 732.72 288.41 737.40 C 282.67 741.61 278.22 747.26 272.59 751.60 C 270.59 753.26 268.56 754.93 267.03 757.06 C 281.68 757.43 296.35 756.76 311.01 756.89 C 317.62 757.10 324.78 755.63 330.81 759.14 C 334.83 762.26 338.74 766.03 340.18 771.09 C 340.77 775.20 340.66 779.56 338.34 783.16 C 336.31 788.08 331.41 790.91 326.71 792.81 C 319.92 794.30 312.90 793.76 306.00 793.92 C 291.32 794.14 276.65 794.34 261.97 794.40 C 256.33 794.92 250.67 794.88 245.01 794.89 C 221.34 795.13 197.66 795.65 174.01 795.17 C 173.64 794.89 172.89 794.33 172.52 794.05 C 177.34 788.10 183.32 783.13 189.04 778.05 C 194.99 771.98 201.73 766.78 207.62 760.65 C 212.77 756.81 216.89 751.83 221.94 747.90 C 233.92 736.90 245.94 725.93 258.07 715.09 C 263.09 709.82 269.18 705.69 273.95 700.17 C 260.64 700.00 247.32 700.15 234.00 700.10 C 227.37 699.98 220.65 700.61 214.14 699.08 C 204.45 696.89 197.17 686.24 200.30 676.48 Z" />
</g>
<g id="#b7afb15d">
<path fill="#b7afb1" opacity="0.36" d=" M 619.92 240.35 C 624.67 239.35 629.54 239.59 634.28 238.52 C 644.19 238.38 654.07 237.41 664.00 237.76 C 671.66 237.41 679.26 238.58 686.91 238.45 C 697.30 239.89 707.84 240.23 718.02 243.00 C 736.50 246.66 754.51 252.56 771.67 260.30 C 800.92 272.49 826.95 291.43 849.82 313.18 C 862.26 325.57 873.23 339.38 883.24 353.79 C 896.45 372.90 906.17 394.21 913.91 416.06 C 919.88 433.18 923.70 451.01 925.67 469.03 C 925.89 471.79 926.80 474.69 925.70 477.39 C 924.20 461.46 921.75 444.72 917.06 429.04 C 910.92 407.74 901.86 387.34 891.02 368.04 C 880.47 350.16 867.58 333.73 853.50 318.51 C 840.10 304.68 824.97 292.71 809.16 281.75 C 792.04 270.12 773.14 261.33 753.81 254.04 C 727.68 244.09 699.76 240.10 671.98 238.65 C 651.01 238.02 630.00 239.49 609.38 243.19 C 593.76 245.45 578.69 250.42 563.91 255.78 C 543.61 264.11 523.68 273.76 506.08 286.98 C 497.80 292.60 490.31 299.24 482.61 305.60 C 475.38 312.11 469.02 319.56 461.71 325.97 C 462.81 322.94 465.56 320.97 467.63 318.63 C 481.83 303.63 498.09 290.72 515.23 279.25 C 521.05 275.65 526.75 271.83 532.96 268.92 C 560.06 254.62 589.54 244.50 619.92 240.35 Z" />
<path fill="#b7afb1" opacity="0.36" d=" M 455.47 332.44 C 456.91 330.97 457.89 328.39 460.11 328.11 C 457.83 331.75 454.80 334.81 452.18 338.19 C 444.45 347.68 437.75 357.95 431.23 368.30 C 419.24 390.13 409.58 413.27 403.24 437.37 C 400.17 451.98 397.65 466.74 396.43 481.63 C 396.23 483.92 393.76 484.25 391.99 484.72 C 382.75 486.77 374.74 492.77 369.29 500.39 C 362.46 510.55 360.60 523.37 362.33 535.32 C 365.90 560.21 373.72 584.24 380.21 608.48 C 384.14 620.74 387.12 633.28 391.37 645.44 C 395.30 658.90 399.04 672.89 407.68 684.21 C 412.37 690.16 415.95 697.30 422.49 701.52 C 427.90 705.72 434.65 707.61 441.28 708.86 C 443.08 709.09 443.86 710.93 444.49 712.40 C 457.15 743.11 469.91 773.76 484.08 803.79 C 487.31 809.95 489.56 816.59 493.39 822.45 C 495.90 829.24 500.13 835.17 503.07 841.78 C 518.05 870.09 535.06 897.29 553.54 923.43 C 559.30 928.71 565.38 933.69 571.37 938.72 C 578.05 943.19 584.08 949.51 592.34 950.83 C 606.85 953.49 621.90 954.95 636.39 955.67 C 633.33 956.75 630.09 955.83 626.96 955.71 C 623.55 955.32 620.09 955.96 616.72 955.21 C 606.52 953.39 595.87 953.34 586.01 949.93 C 573.66 943.19 563.14 933.61 552.85 924.15 C 535.05 900.00 519.65 874.15 505.12 847.93 C 494.77 828.88 485.41 809.33 476.33 789.66 C 464.53 764.06 454.13 737.85 443.17 711.88 C 442.53 709.55 439.94 709.42 437.98 709.05 C 427.41 707.52 417.60 701.22 411.83 692.23 C 407.33 685.64 402.04 679.43 399.18 671.89 C 395.68 663.68 392.96 655.18 390.50 646.61 C 383.85 625.33 377.61 603.92 371.69 582.42 C 367.15 564.16 361.65 545.92 360.84 527.00 C 361.29 517.89 362.36 508.31 367.60 500.55 C 372.92 492.79 380.64 486.32 389.90 483.97 C 392.08 483.21 395.74 483.00 395.71 479.93 C 397.27 465.33 399.06 450.70 402.56 436.42 C 408.73 412.56 418.32 389.67 430.15 368.08 C 437.85 355.69 446.06 343.60 455.47 332.44 Z" />
<path fill="#b7afb1" opacity="0.36" d=" M 926.04 478.02 C 927.38 479.05 926.64 481.15 927.35 482.58 C 935.45 484.28 943.53 487.56 949.38 493.63 C 956.44 500.25 960.13 509.66 961.57 519.06 C 961.54 524.62 961.71 530.20 961.49 535.75 C 960.12 542.63 959.19 549.59 957.41 556.38 C 954.53 567.00 953.32 577.94 949.31 588.21 C 943.18 610.45 936.45 632.55 929.72 654.63 C 925.88 666.03 922.06 677.80 914.27 687.23 C 909.64 694.38 904.05 701.34 896.33 705.31 C 891.77 707.79 886.61 708.70 881.57 709.62 C 879.90 709.81 879.58 711.74 878.95 712.96 C 871.62 730.90 863.99 748.71 856.62 766.63 C 839.24 806.13 820.60 845.19 797.82 881.91 C 789.63 895.50 780.86 908.74 771.69 921.69 C 765.23 929.21 757.29 935.32 749.57 941.50 C 744.56 944.89 739.85 949.07 734.01 950.94 C 725.12 952.83 716.07 953.89 707.06 954.94 C 702.78 955.99 698.36 955.31 694.03 955.84 C 691.56 956.06 689.03 956.47 686.62 955.76 C 701.86 954.81 717.22 953.23 732.31 950.46 C 735.84 949.89 738.65 947.55 741.56 945.66 C 746.97 942.11 752.04 938.12 756.94 933.91 C 763.96 928.29 770.89 922.22 775.44 914.35 C 791.35 891.08 806.31 867.13 819.27 842.09 C 822.72 834.71 827.21 827.88 830.56 820.44 C 846.39 788.19 860.40 755.12 874.10 721.93 C 876.23 717.72 877.26 712.89 880.03 709.07 C 885.22 707.75 890.73 707.27 895.47 704.56 C 904.24 699.88 910.00 691.45 915.49 683.47 C 921.55 675.94 924.50 666.58 927.68 657.61 C 938.19 623.23 948.63 588.79 956.99 553.80 C 958.52 545.60 960.78 537.40 960.46 528.99 C 960.47 523.41 960.81 517.68 958.85 512.35 C 955.26 497.24 941.51 485.95 926.43 483.53 C 926.15 481.70 926.21 479.84 926.04 478.02 Z" />
</g>
</svg>
