<?xml version="1.0" encoding="UTF-8" standalone="no"?>
<!DOCTYPE svg PUBLIC "-//W3C//DTD SVG 1.1//EN" "http://www.w3.org/Graphics/SVG/1.1/DTD/svg11.dtd">
<svg width="100%" height="100%" viewBox="0 0 1024 1024" version="1.1" xmlns="http://www.w3.org/2000/svg" xmlns:xlink="http://www.w3.org/1999/xlink" xml:space="preserve" xmlns:serif="http://www.serif.com/" style="fill-rule:evenodd;clip-rule:evenodd;stroke-linejoin:round;stroke-miterlimit:2;">
    <g id="_-ffffffff" serif:id="#ffffffff">
        <path d="M736.5,7.31C755.16,-1.83 778.51,-0.23 795.72,11.42C801.96,15.33 806.78,20.96 812.03,26.03C812.67,26.82 813.31,27.61 813.96,28.41L814.79,28.48L814.49,29.68L815.31,29.38C815.67,29.76 816.39,30.52 816.75,30.89L816.43,31.69L817.77,31.39L817.47,32.7L818.75,32.34L818.41,33.66L819.19,33.35C819.55,33.71 820.28,34.45 820.65,34.81L820.32,35.02C820.71,35.38 821.48,36.11 821.87,36.47L822.16,36.28C823.99,38.14 825.85,39.98 827.71,41.82L827.53,42.75L828.85,42.38L828.35,43.74L829.1,43.35C829.47,43.73 830.21,44.49 830.58,44.87L830.17,45.47L830.94,45.63C836.9,52.4 843.73,58.36 849.68,65.14C849.93,65.52 850.42,66.29 850.66,66.67L851.53,66.5L851.41,67.7L852.02,67.73C853.3,69.18 854.64,70.58 856.01,71.96C861.64,77.7 867.35,83.36 872.94,89.14C881.85,99.79 892.61,108.74 901.53,119.38C908.55,126.86 916.21,133.74 922.9,141.53L923.05,141.41C923.39,141.79 924.07,142.55 924.41,142.93L924.35,143.23C933.98,153.07 943.88,162.65 953.02,172.95C959.52,179.79 966.56,186.15 972.7,193.32C974.69,195.63 976.86,197.79 979.01,199.96C984.9,206.09 991.13,211.91 996.78,218.27C996.99,218.61 997.4,219.29 997.61,219.63L998.51,219.39L998.34,220.37C999.34,221.24 1000.35,222.1 1001.39,222.94L1001.4,223.68L1002.61,223.44L1002.31,224.2C1002.67,224.55 1003.38,225.25 1003.74,225.61L1004.03,225.67C1004.68,226.44 1005.34,227.21 1006.03,227.97C1007.01,229.1 1007.96,230.27 1008.87,231.47L1009.09,231.59C1023.13,249.99 1025.6,276.36 1014.88,296.92C1004.21,316.26 988.34,331.95 976.11,350.22C967.51,363.03 954.08,372.36 939.13,376.13C937.42,376.42 935.73,376.69 934.11,377.27C927.58,377.91 921.01,377.84 914.46,377.56C914.67,397.95 914.72,418.34 914.75,438.72L915.35,438.24C915.56,464.44 915.68,490.65 915.71,516.85L916.31,516.15C916.44,542.69 916.67,569.24 916.7,595.79L917.31,595.19C917.31,608.04 917.27,620.9 917.32,633.76L916.75,633.26C916.99,637.76 916,642.15 915.21,646.54L914.88,646.46C914.46,648.4 913.85,650.3 913.23,652.2C912.8,653.29 912.41,654.4 912.07,655.53L911.3,655.58C911.36,655.96 911.47,656.71 911.52,657.09C910.8,658.04 910.09,659.01 909.4,659.98C909.44,660.34 909.53,661.05 909.57,661.41L908.87,661.39C907.71,663.46 906.37,665.42 905.14,667.45L904.88,667.53C903.63,669.2 902.29,670.78 901.03,672.43L900.19,672.5L900.55,673.69L899.2,673.27L899.63,674.03C899.25,674.4 898.51,675.13 898.13,675.49L897.51,675.14L897.44,676.02C895.77,677.3 894.17,678.65 892.48,679.9L892.6,680.53L891.82,680.4C891.28,680.76 890.21,681.47 889.67,681.83L889.51,682.25C888.45,682.74 887.4,683.25 886.36,683.76L886.45,684.56C886.09,684.52 885.37,684.43 885.01,684.38C884.52,684.77 883.53,685.56 883.04,685.96C882.41,686.13 881.16,686.48 880.53,686.66L880.49,687.02C879.17,687.51 877.93,688.1 876.67,688.68C876.67,703.45 876.69,718.22 876.73,732.99C876.35,743.24 877.46,753.74 874.39,763.7C870.39,778.44 860.36,791.17 847.51,799.3C828.95,811.06 809.59,821.47 790.56,832.4C771.48,843.31 752.34,854.07 733.27,864.98C717.75,874.04 702.32,883.29 686.21,891.28C663.92,903.96 641.49,916.43 619.47,929.57C599.33,941.09 579.19,952.58 558.99,963.97C539.97,975.01 520.62,985.45 501.8,996.84C493.94,1000.84 486.69,1005.93 478.61,1009.53C469.67,1014.68 460.44,1019.91 450.1,1021.57C440.71,1023.19 430.92,1022.79 421.76,1020.13C413.95,1017.94 407,1013.65 399.73,1010.2C394.81,1007.93 390.2,1005.09 385.58,1002.29C374.39,996.26 363.6,989.52 352.53,983.28C329.16,970.13 305.88,956.82 282.57,943.59C263.17,932.74 244.22,921.13 224.83,910.28C215.23,904.92 205.73,899.39 196.17,893.96C180.75,886.3 165.91,877.57 151.01,868.97C120.3,851.22 89.36,833.87 58.56,816.29C51,811.93 43.28,807.81 36,802.98C29.84,799.29 23.64,795.52 18.52,790.44C7.47,779.63 0.8,764.45 0.51,748.98C0.48,605 0.47,461 0.51,317.02C0.53,301.43 7.06,286.06 18.03,275.02C25.24,267.28 34.82,262.5 43.53,256.74C74.4,239.21 105.26,221.67 136.12,204.13C153.47,194.42 170.34,183.81 188.2,175.04C208.27,163.52 228.45,152.21 248.52,140.69C255.76,135.74 263.72,132.02 271.13,127.36C312.23,104.15 353.29,80.86 394.14,57.19C400.28,53.93 406.54,50.89 412.78,47.82C428.2,40.91 446.5,40.59 462.17,46.9C484.37,57.01 505.21,69.74 526.25,82C553.75,97.37 581.04,113.14 608.54,128.53C613.24,124.08 617.51,119.16 622.56,115.08L622.45,114.88C622.81,114.52 623.54,113.8 623.91,113.43L624.65,113.7L624.4,112.41L625.64,112.7L625.39,111.43L626.65,111.69L626.33,110.43L627.13,110.67C627.5,110.32 628.25,109.61 628.62,109.26L628.37,108.48L629.66,108.7L629.44,107.96C629.81,107.6 630.54,106.88 630.91,106.52L631.61,106.74L631.46,105.48L632.66,105.66L632.49,104.44L633.74,104.66L633.49,103.95C633.85,103.59 634.56,102.89 634.92,102.53L635.61,102.82L635.43,101.52L636.2,101.69C636.56,101.34 637.28,100.63 637.64,100.28L637.48,99.49L638.25,99.67C638.59,99.32 639.29,98.61 639.63,98.26L639.73,97.99C645.94,92.12 651.87,85.96 657.97,79.97C671.82,66.14 685.74,52.39 699.51,38.49C702.12,35.94 704.63,33.26 707.53,31.02L707.38,30.29L708.66,30.61L708.34,29.33L709.67,29.72L709.34,28.93C709.72,28.57 710.48,27.84 710.86,27.48L711.62,27.8L711.33,26.49L712.58,26.74L712.41,25.48L713.18,25.66C713.53,25.32 714.25,24.62 714.6,24.27L714.44,23.56L715.23,23.6C721.48,17.19 728.28,11.09 736.5,7.31M762.51,60.09C758.6,64.01 754.66,67.9 750.35,71.38C723.61,98.29 696.51,124.83 669.78,151.76C667.3,154.31 664.27,156.23 661.85,158.85C629.48,191.48 596.68,223.68 564.26,256.26C555.98,263.28 548.45,271.17 540.96,279.01C541.15,281.27 543.35,282.72 544.52,284.55C554.53,296.14 563.68,308.45 573.68,320.03C580.45,319.93 587.23,320.03 594.01,319.96C596.58,319.97 599.22,319.82 601.72,320.6C623.56,320.82 645.41,320.78 667.25,320.99C667.33,327.75 667.08,334.52 667.4,341.29C668.64,346.42 667.76,351.77 668.01,357C668.51,380.42 668.01,403.87 668.4,427.3C669.64,432.43 668.76,437.79 669.01,443.02C669.4,464.35 669.23,485.68 669.23,507.01C669.22,508.57 669.41,510.14 669.77,511.67C669.63,511.94 669.34,512.48 669.2,512.74C670.83,517.99 669.68,523.61 670,529.02C670.6,553.1 669.95,577.2 670.4,601.28C670.97,603.12 671.04,605.06 671.03,606.99C670.92,613.18 671.44,619.37 671.22,625.56C671.94,626.28 672.68,627 673.42,627.73C676.19,627.87 679.01,627.85 681.71,628.6C690.48,628.78 699.26,628.98 708.04,629C709.28,629.04 710.51,629.24 711.71,629.6C723.02,630.22 734.49,628.97 745.71,630.6C757.35,631.2 769.15,630.01 780.7,631.6C792.35,632.18 804.15,631.06 815.71,632.6C829.34,632.77 842.97,633 856.61,633C857.32,632.18 858.05,631.37 858.78,630.57C858.61,618.95 858.96,607.33 858.6,595.72C857.27,589.24 858.3,582.54 858,575.98C857.42,553.56 858.03,531.13 857.6,508.72C856.22,501.26 857.36,493.57 856.99,486.03C856.36,464.6 857.08,443.14 856.6,421.72C855.27,415.25 856.3,408.56 856,402.01C855.4,379.92 856.05,357.81 855.6,335.72C854.27,329.63 855.33,323.32 854.96,317.14C866.09,318.78 877.59,316.74 888.72,318.6C899.03,319.18 909.46,318.04 919.7,319.55C920.97,319.66 922.26,319.76 923.56,319.86C928.13,315.52 931.12,309.9 935.09,305.05C943.94,292.53 954.56,281.34 962.9,268.45C960.71,266.19 958.43,264.01 956.24,261.74C947.53,251.21 936.81,242.51 928.15,231.92C919.12,222.6 909.58,213.72 901.14,203.86C894.9,197.78 888.92,191.44 882.76,185.28C874.8,175.92 865.7,167.6 857.22,158.72C848.51,148.2 837.84,139.46 829.15,128.92C820.94,120.43 812.22,112.39 804.61,103.35C798.55,97.09 792,91.26 786.58,84.41C778.68,76.18 770.36,68.36 762.51,60.09M425.48,107.91C416.62,113.32 407.73,118.69 398.51,123.47C396.6,124.79 394.55,125.87 392.5,126.94C384.86,131.32 377.32,135.87 369.5,139.91C342.52,155.53 315.36,170.83 288.26,186.25C268.87,196.91 249.93,208.39 230.47,218.92C228.23,220.39 225.9,221.72 223.51,222.94C201.22,235.69 179.02,248.61 156.49,260.91C125.65,278.87 94.45,296.22 63.43,313.87C61.94,314.91 60.56,316.11 59.2,317.31C59.29,460.43 59.29,603.57 59.19,746.69C64.91,752.56 72.84,755.48 79.5,760.1C92.33,766.4 104.39,774.13 116.95,780.95C127.35,787.19 138.18,792.7 148.49,799.09C168.65,810.11 188.59,821.56 208.48,833.08C228,843.76 247.21,855.04 266.53,866.09C278.5,872.4 289.99,879.59 301.93,885.96C321.7,897.49 341.78,908.49 361.51,920.1C369.32,924.14 376.88,928.66 384.49,933.08C394.67,938.42 404.48,944.42 414.52,950.02C415.86,950.81 417.19,951.64 418.49,952.53C421.22,953.92 423.92,955.39 426.48,957.09C430.24,959.1 434.22,960.73 437.79,963.1C440.49,962.95 442.85,961.57 445.07,960.15C448.38,957.97 452.05,956.43 455.52,954.53C466.67,947.75 478.02,941.28 489.5,935.1C499.33,929.12 509.41,923.57 519.52,918.09C534.73,909.03 550.31,900.62 565.58,891.67C601.33,871.65 636.74,851.03 672.53,831.08C674.78,829.61 677.11,828.27 679.51,827.06C687.79,822.16 696.24,817.54 704.54,812.67C738.65,793.68 772.37,773.99 806.51,755.06C808.16,754.04 809.8,753.01 811.51,752.08C813.81,750.73 816.04,749.24 817.99,747.4C818.13,742.7 817.44,737.89 818.6,733.28C818.82,729.76 818.82,726.23 818.6,722.71C817.47,718.56 818.15,714.21 817.99,709.97C818,694.64 817.96,679.3 818.02,663.96C817.87,662.33 818.37,660.23 816.65,659.3C811.26,658.31 805.62,659.87 800.29,658.4C794.19,658.13 788.09,658.33 782,658.01C776.77,657.72 771.42,658.67 766.29,657.4C760.15,657.14 754,657.26 747.86,657.15C747.29,658.71 746.88,660.34 746.98,662.03C746.99,668.4 747.01,674.77 747,681.14C745.16,681.24 743.33,681.35 741.51,681.56C737.86,681.08 734.16,681.12 730.51,681.53C728.5,681.26 726.47,681.26 724.48,681.53C720.85,681.12 717.18,681.11 713.57,681.53C711.54,681.26 709.5,681.28 707.48,681.49C705.78,681.3 704.07,681.31 702.4,681.64C701.62,681.45 700.85,681.28 700.1,681.12C700.66,678.56 700.9,675.93 701.51,673.38C702.28,669.71 702.69,665.97 703.61,662.34C703.77,660.87 703.95,659.4 703.96,657.93C702.66,654.99 698.79,656.43 696.32,655.4C689.38,655.11 682.42,655.35 675.5,654.72C674.1,654.84 672.69,654.83 671.33,654.55C669.31,654.26 667.3,654.02 665.32,653.56C662.07,652.44 658.73,651.35 656,649.18C651.08,646.08 648.66,640.58 646.15,635.58C644.55,630.4 638.01,624.1 637.87,625.91C606.12,562.45 574.3,499.01 542.71,435.47C541.63,433.5 540.63,431.5 539.71,429.47C537.93,426.19 536.26,422.85 534.71,419.47C533.63,417.5 532.63,415.5 531.7,413.48C531,412.15 530.34,410.81 529.7,409.46C527.92,406.26 526.28,402.97 525.06,399.52C524.56,398.49 524.05,397.46 523.55,396.44C522.86,395.11 522.18,393.77 521.51,392.43C521.28,391.93 520.81,390.91 520.58,390.4C519.57,388.47 518.52,386.56 517.34,384.74C518.38,384.63 519.43,384.53 520.48,384.42C526.95,385.11 533.47,384.59 539.97,384.75C548.14,384.58 556.35,385.11 564.51,384.45C568.15,384.91 571.84,384.87 575.49,384.47C577.48,384.73 579.5,384.72 581.5,384.5C583.15,384.66 584.82,384.67 586.48,384.5C588.48,384.72 590.49,384.73 592.5,384.51C594.16,384.64 595.83,384.64 597.5,384.51C599.49,384.72 601.51,384.73 603.51,384.48C607.15,384.88 610.84,384.88 614.49,384.47C616.48,384.75 618.5,384.74 620.5,384.47C624.15,384.87 627.85,384.91 631.49,384.44C633.5,384.67 635.52,384.76 637.55,384.89C639.37,383.85 640.85,382.36 641.92,380.55C641.77,379.59 641.63,378.64 641.49,377.7C641.36,376.63 641.28,375.57 641.26,374.5C640.69,366.2 641.07,357.87 641.05,349.57C639.89,348.75 638.71,347.97 637.53,347.21C620.35,347.44 603.17,346.81 585.99,347.01C581.44,346.87 576.81,347.46 572.33,346.49C568.23,346.38 564.2,345.45 560.57,343.55C556.74,341.46 552.45,339.67 549.86,336C544.46,329.11 538.91,322.35 533.52,315.46C532.5,314.04 531.01,313.1 529.58,312.17C526.55,312.24 523.52,312.21 520.5,312.52C518.51,312.25 516.49,312.27 514.5,312.49C512.83,312.34 511.16,312.34 509.5,312.49C507.5,312.27 505.48,312.25 503.5,312.53C499.84,312.12 496.15,312.09 492.51,312.55C488.85,312.1 485.15,312.11 481.51,312.54C479.38,312.19 477.2,312.16 475.13,312.82C474.77,312.49 474.05,311.83 473.7,311.5C473.75,275.11 473.85,238.72 473.65,202.33C483.87,208.35 494.28,214.05 504.51,220.06C506.9,221.29 509.23,222.63 511.51,224.06C513.55,225.13 515.6,226.2 517.5,227.52C525.55,231.28 532.69,236.87 540.98,240.08C558.31,223.23 575.23,205.93 592.37,188.88C584.74,182.81 575.67,178.83 567.36,173.8C548.79,163.09 530.08,152.67 511.52,141.95C509.11,140.72 506.77,139.39 504.52,137.92C497.02,134.07 489.79,129.72 482.51,125.48C473.38,120.53 464.21,115.59 455.54,109.88C449.8,107.35 444.64,103.78 439.01,101.06C434.53,103.41 429.97,105.58 425.48,107.91Z" style="fill:white;fill-rule:nonzero;"/>
        <path d="M733.14,175.13C742.6,165.67 752.06,156.2 761.53,146.74C766.04,153.06 772.04,158.03 777.34,163.64C781.79,168.54 786.85,172.86 790.9,178.13C797.4,184.6 803.75,191.24 810.25,197.72C818.31,207.31 827.75,215.63 836.2,224.88C840.68,230.62 846.36,235.26 851.27,240.62C854.9,244.71 859.21,248.16 862.51,252.54C863.41,253.8 864.65,254.75 865.95,255.58C858.43,254.7 850.74,255.83 843.29,254.4C833.53,254.24 823.77,253.94 814.01,254.03C812.4,254.03 810.8,253.86 809.27,253.4C804.63,253.12 799.99,253.31 795.35,253.21C794.29,254.25 793.24,255.3 792.21,256.36C792.41,270.66 792.03,284.97 792.4,299.27C793.72,305.41 792.7,311.78 793,318.02C793.58,340.43 792.97,362.86 793.4,385.27C794.72,391.75 793.69,398.45 794,405.02C794.57,427.44 793.97,449.87 794.4,472.29C795.71,478.42 794.7,484.78 795,491.01C795.58,513.76 794.96,536.53 795.4,559.28C796.36,562.51 795.95,565.92 796.01,569.25C786.45,569.06 776.75,569.72 767.29,568.4C758.9,568 750.5,568.49 742.11,568.11C738.95,567.92 735.67,568.39 732.67,567.17C732.75,560.02 732.88,552.86 732.6,545.72C731.32,540.25 732.26,534.55 731.99,529C731.6,507.99 731.77,486.98 731.77,465.98C731.76,464.38 731.57,462.79 731.24,461.25C731.38,461 731.66,460.52 731.8,460.28C730.17,455.04 731.31,449.45 731,444.07C730.4,421.96 731.05,399.83 730.6,377.72C729.28,371.58 730.29,365.21 730,358.99C729.41,334.91 730.04,310.8 729.6,286.72C728.43,279.04 728.93,271.13 728.8,263.35C727.76,262.3 726.72,261.26 725.68,260.23C719.56,259.94 713.31,260.57 707.28,259.4C687.62,259.09 667.94,259.39 648.28,259.01C671.2,236.03 694.37,213.29 717.24,190.25C722.99,185.7 727.92,180.26 733.14,175.13Z" style="fill:white;fill-rule:nonzero;"/>
        <path d="M376.5,218.06C385.03,212.98 393.8,208.32 402.28,203.18C402.24,239.51 402.21,275.84 402.3,312.17C401.02,312.28 399.77,312.41 398.51,312.57C396.54,312.24 394.53,312.26 392.55,312.49C390.85,312.35 389.14,312.35 387.44,312.49C385.46,312.27 383.46,312.26 381.49,312.53C377.88,312.12 374.22,312.11 370.61,312.52C368.57,312.26 366.52,312.25 364.49,312.53C360.84,312.12 357.14,312.09 353.5,312.55C349.85,312.09 346.15,312.11 342.5,312.54C337.19,312.07 331.81,312.07 326.5,312.54C320.85,312.08 315.15,312.06 309.5,312.54C305.85,312.1 302.15,312.11 298.5,312.53C296.51,312.26 294.49,312.27 292.5,312.49C290.83,312.34 289.15,312.34 287.49,312.49C285.5,312.28 283.49,312.28 281.5,312.49C279.82,312.35 278.14,312.35 276.47,312.49C274.48,312.26 272.48,312.25 270.49,312.53C266.85,312.11 263.15,312.12 259.51,312.53C257.51,312.25 255.49,312.26 253.49,312.53C249.84,312.11 246.14,312.1 242.5,312.55C238.85,312.1 235.15,312.1 231.51,312.55C226.2,312.05 220.84,312.13 215.53,312.49C213.27,312.23 210.99,312.28 208.76,312.65C212.76,311.31 216.42,309.19 219.99,306.98C272.16,277.32 324.28,247.61 376.5,218.06Z" style="fill:white;fill-rule:nonzero;"/>
        <path d="M192.47,384.78C194.48,384.73 196.5,384.67 198.5,384.47C205.97,385.08 213.48,384.6 220.97,384.75C228.14,384.6 235.35,385.08 242.51,384.46C248.13,384.93 253.82,384.93 259.45,384.46C263.12,384.9 266.83,384.87 270.49,384.47C272.48,384.73 274.49,384.72 276.49,384.51C278.15,384.65 279.83,384.65 281.5,384.51C283.49,384.73 285.5,384.73 287.5,384.51C289.16,384.65 290.83,384.65 292.5,384.51C294.49,384.73 296.51,384.73 298.5,384.47C302.15,384.88 305.85,384.9 309.5,384.46C317.31,385.1 325.16,384.58 332.99,384.75C339.82,384.61 346.68,385.07 353.5,384.47C356.14,384.8 358.81,384.77 361.47,384.66C351.14,404.43 341.48,424.55 331.39,444.44C329.62,447.72 328.29,451.21 326.6,454.53C318.44,472.05 309.33,489.13 300.89,506.53C299.88,508.5 298.91,510.5 297.95,512.5C297.11,514.13 296.29,515.78 295.47,517.43C295.2,517.93 294.68,518.92 294.41,519.42C292.36,525.04 289.41,530.28 286.79,535.65C278.18,552.94 269.47,570.17 260.92,587.49C260.08,589.12 259.28,590.78 258.47,592.43C258.21,592.92 257.7,593.88 257.44,594.36C256.42,596.46 255.45,598.59 254.75,600.81C254.44,601.2 253.83,601.96 253.53,602.34C248.6,614.41 241.72,625.61 236.61,637.62C236.17,635.29 235.84,632.95 235.52,630.62C235.08,628.64 234.81,626.63 234.51,624.64C234.07,622.65 233.82,620.62 233.54,618.62C232.75,614.97 232,611.32 231.51,607.63C231.08,605.64 230.82,603.63 230.54,601.62C229.75,597.98 229,594.33 228.51,590.64C228.08,588.65 227.82,586.63 227.54,584.63C226.75,580.98 226,577.32 225.51,573.62C225.08,571.64 224.81,569.64 224.51,567.64C224.07,565.64 223.82,563.62 223.54,561.61C222.75,557.97 222,554.32 221.51,550.63C221.08,548.64 220.82,546.63 220.54,544.62C219.75,540.98 219,537.33 218.51,533.64C218.08,531.65 217.82,529.63 217.54,527.62C216.75,523.98 216,520.32 215.51,516.63C215.08,514.64 214.81,512.63 214.5,510.63C214.07,508.64 213.82,506.63 213.54,504.62C212.75,500.98 212,497.33 211.51,493.64C211.08,491.65 210.82,489.63 210.54,487.62C209.75,483.98 209,480.33 208.51,476.64C208.08,474.65 207.81,472.64 207.51,470.64C207.08,468.65 206.82,466.65 206.53,464.66C206.12,462.98 205.79,461.3 205.48,459.62C205.07,457.63 204.81,455.63 204.52,453.64C204.08,451.66 203.81,449.65 203.51,447.66C202.76,443.99 202.26,440.27 201.5,436.6C201.08,434.63 200.81,432.63 200.51,430.64C200.08,428.66 199.82,426.65 199.53,424.65C199.11,422.98 198.79,421.3 198.48,419.62C198.07,417.63 197.81,415.63 197.51,413.64C197.08,411.65 196.81,409.65 196.51,407.65C195.75,403.98 195.26,400.26 194.5,396.6C194.08,394.63 193.81,392.64 193.51,390.66C193.04,388.72 192.75,386.75 192.47,384.78" style="fill:white;fill-rule:nonzero;"/>
        <path d="M424.89,415.95C429.77,406.43 434.33,396.73 439.38,387.3C449.52,408.49 460.67,429.2 470.57,450.49C471.88,452.39 472.91,454.47 473.53,456.71C473.88,457.09 474.59,457.84 474.94,458.22C475.06,458.78 475.28,459.89 475.4,460.44C476.86,462.29 477.93,464.42 478.52,466.71C478.88,467.08 479.59,467.84 479.94,468.21C480.05,468.77 480.28,469.88 480.4,470.44C481.86,472.28 482.93,474.42 483.52,476.71C483.88,477.08 484.59,477.84 484.94,478.22C485.05,478.77 485.28,479.88 485.4,480.44C487.62,483.49 489.08,486.99 490.79,490.34C500.46,509.67 510.1,529.02 519.79,548.34C520.46,549.73 521.03,551.18 521.52,552.66C521.83,553.04 522.45,553.82 522.75,554.2C523.46,556.41 524.41,558.53 525.37,560.65C526.14,561.88 526.93,563.11 527.77,564.33C528.27,565.77 528.82,567.2 529.39,568.63C529.66,569.12 530.21,570.1 530.48,570.59C533.06,575.14 535.12,579.95 537.66,584.52C538.4,586.64 539.41,588.65 540.67,590.51C546.89,604.34 554.16,617.7 560.79,631.36C568.86,647.43 576.83,663.56 584.97,679.61C585.31,680.2 585.99,681.39 586.34,681.99C584.43,681.4 582.46,681.18 580.49,681.44C578.49,681.27 576.48,681.28 574.49,681.53C570.84,681.11 567.14,681.1 563.5,681.55C552.52,681.06 541.47,681.06 530.5,681.55C526.85,681.1 523.15,681.11 519.51,681.53C517.51,681.26 515.49,681.26 513.5,681.49C511.83,681.34 510.15,681.34 508.48,681.49C506.49,681.27 504.48,681.25 502.49,681.53C498.84,681.12 495.14,681.09 491.5,681.55C487.85,681.09 484.15,681.12 480.5,681.53C478.5,681.26 476.48,681.26 474.49,681.53C470.84,681.11 467.14,681.09 463.5,681.55C459.85,681.1 456.15,681.1 452.5,681.55C441.52,681.05 430.47,681.06 419.5,681.54C415.85,681.09 412.15,681.12 408.5,681.53C406.51,681.26 404.49,681.26 402.5,681.49C400.83,681.34 399.15,681.33 397.49,681.49C395.5,681.28 393.5,681.28 391.52,681.49C389.84,681.33 388.17,681.34 386.5,681.49C384.5,681.27 382.48,681.26 380.49,681.53C376.84,681.11 373.15,681.11 369.51,681.53C367.51,681.26 365.49,681.25 363.49,681.53C359.84,681.11 356.14,681.1 352.5,681.55C348.85,681.09 345.15,681.1 341.5,681.55C336.2,681.07 330.84,681.07 325.54,681.54C319.87,681.07 314.15,681.06 308.49,681.55C304.83,681.11 301.11,681.05 297.46,681.61C296.42,681.44 295.38,681.29 294.34,681.16C299.71,670.25 305.2,659.41 310.62,648.52C312.72,644.24 315.07,640.06 316.7,635.56C327.37,613.81 338.32,592.19 349.15,570.51C349.5,569.41 349.84,568.3 350.18,567.2C350.5,566.82 351.16,566.05 351.48,565.67C352.71,561.75 354.84,558.21 356.62,554.54C363.43,540.86 370.33,527.23 377.08,513.53C377.91,511.88 378.72,510.22 379.54,508.57C379.78,508.08 380.27,507.1 380.51,506.61C381.17,505.26 381.84,503.93 382.52,502.6C383.18,501.25 383.84,499.9 384.51,498.57C385.19,497.22 385.89,495.9 386.62,494.59C387.18,493.13 387.73,491.66 388.23,490.19C388.54,489.8 389.16,489.04 389.48,488.66C390.54,485.24 392.34,482.11 393.92,478.92C402.36,462.07 410.77,445.2 419.22,428.35C421.44,424.37 422.96,420.07 424.89,415.95Z" style="fill:white;fill-rule:nonzero;"/>
        <path d="M130.96,451.64C132.03,453.71 132.15,456.07 132.47,458.34C132.88,460 133.2,461.69 133.53,463.38C133.92,465.36 134.19,467.36 134.49,469.36C134.92,471.33 135.18,473.34 135.47,475.35C135.88,477.01 136.2,478.7 136.53,480.39C136.92,482.36 137.19,484.37 137.49,486.37C137.92,488.34 138.18,490.34 138.47,492.35C138.88,494.01 139.2,495.69 139.52,497.38C139.93,499.36 140.19,501.36 140.49,503.36C140.92,505.33 141.18,507.34 141.49,509.34C142.24,513 142.74,516.71 143.5,520.37C144.63,526.01 145.32,531.74 146.5,537.37C147.98,545.01 148.96,552.74 150.5,560.37C151.63,566.01 152.32,571.74 153.5,577.37C154.63,583.02 155.32,588.74 156.5,594.38C157.63,600.02 158.32,605.75 159.5,611.4C160.63,617.03 161.32,622.75 162.5,628.38C163.63,634.02 164.32,639.74 165.5,645.38C166.63,651.03 167.32,656.76 168.51,662.4C169.5,667.59 170.28,672.82 171.21,678.02C171.58,679.46 170.87,680.76 170.16,681.97C168.34,681.23 166.37,681.23 164.45,681.5C162.47,681.26 160.47,681.25 158.49,681.53C154.85,681.11 151.15,681.11 147.51,681.52C141.91,681.32 136.3,681.23 130.69,681.3C130.82,627.19 130.71,573.08 130.75,518.97C130.88,496.53 130.47,474.07 130.96,451.64Z" style="fill:white;fill-rule:nonzero;"/>
        <path d="M211.72,753.33C221.61,754.09 231.61,753.84 241.52,753.48C245.19,753.87 248.92,753.95 252.58,753.38C254.41,753.83 256.69,753.35 258.18,754.71C266.7,763.25 275.94,770.98 284.37,779.63C290.77,784.83 296.38,790.91 302.38,796.56C308.17,801.12 313.04,806.7 318.49,811.65C320.43,813.24 322.44,814.75 324.05,816.71C292.01,798.53 260,780.27 227.96,762.09C222.49,759.28 217.5,755.5 211.72,753.33Z" style="fill:white;fill-rule:nonzero;"/>
        <path d="M331.78,753.67C338.71,753.68 345.66,754.04 352.57,753.46C356.18,753.9 359.85,753.87 363.47,753.47C365.46,753.73 367.48,753.74 369.48,753.47C373.13,753.88 376.83,753.89 380.49,753.47C382.48,753.72 384.5,753.72 386.5,753.51C388.16,753.65 389.84,753.65 391.51,753.5C393.47,753.71 395.46,753.72 397.43,753.51C399.11,753.64 400.81,753.64 402.5,753.51C404.49,753.73 406.51,753.73 408.51,753.47C412.15,753.87 415.85,753.9 419.5,753.46C427.29,754.09 435.12,753.59 442.93,753.75C449.79,753.6 456.67,754.08 463.51,753.45C467.13,753.9 470.81,753.88 474.44,753.47C476.45,753.73 478.49,753.73 480.51,753.47C484.15,753.89 487.84,753.87 491.49,753.47C493.48,753.74 495.5,753.73 497.5,753.5C499.16,753.65 500.84,753.65 502.52,753.51C504.5,753.72 506.5,753.72 508.5,753.51C510.16,753.65 511.84,753.65 513.51,753.51C515.5,753.72 517.51,753.73 519.51,753.47C523.15,753.87 526.85,753.9 530.5,753.45C536.96,754.07 543.46,753.61 549.94,753.73C546.71,756.21 543.65,758.88 540.79,761.77C509.17,790.19 477.61,818.69 445.99,847.12C443.25,849.02 441.31,852.04 438.23,853.41C430.26,846.49 422.62,839.23 415.07,831.85C409.14,827.19 404.21,821.44 398.59,816.43C391.89,811.19 386.59,804.41 379.87,799.19C373.92,793.8 368.62,787.69 362.3,782.7C357.36,777.99 352.56,773.14 347.61,768.44C341.94,763.95 337.12,758.53 331.78,753.67Z" style="fill:white;fill-rule:nonzero;"/>
        <path d="M630.37,753.38C634.04,753.94 637.8,753.88 641.49,753.46C649.06,754.13 656.67,753.49 664.25,753.83C630.06,772.89 596.29,792.74 562,811.61C583.03,792.33 604.5,773.49 625.49,754.15C627.07,753.69 628.74,753.63 630.37,753.38Z" style="fill:white;fill-rule:nonzero;"/>
    </g>
    <g id="_-02c639ff" serif:id="#02c639ff">
        <path d="M762.51,60.09C770.36,68.36 778.68,76.18 786.58,84.41C792,91.26 798.55,97.09 804.61,103.35C812.22,112.39 820.94,120.43 829.15,128.92C837.84,139.46 848.51,148.2 857.22,158.72C865.7,167.6 874.8,175.92 882.76,185.28C888.92,191.44 894.9,197.78 901.14,203.86C909.58,213.72 919.12,222.6 928.15,231.92C936.81,242.51 947.53,251.21 956.24,261.74C958.43,264.01 960.71,266.19 962.9,268.45C954.56,281.34 943.94,292.53 935.09,305.05C931.12,309.9 928.13,315.52 923.56,319.86C922.26,319.76 920.97,319.66 919.7,319.55C909.46,318.04 899.03,319.18 888.72,318.6C877.59,316.74 866.09,318.78 854.96,317.14C855.33,323.32 854.27,329.63 855.6,335.72C856.05,357.81 855.4,379.92 856,402.01C856.3,408.56 855.27,415.25 856.6,421.72C857.08,443.14 856.36,464.6 856.99,486.03C857.36,493.57 856.22,501.26 857.6,508.72C858.03,531.13 857.42,553.56 858,575.98C858.3,582.54 857.27,589.24 858.6,595.72C858.96,607.33 858.61,618.95 858.78,630.57C858.05,631.37 857.32,632.18 856.61,633C842.97,633 829.34,632.77 815.71,632.6C804.15,631.06 792.35,632.18 780.7,631.6C769.15,630.01 757.35,631.2 745.71,630.6C734.49,628.97 723.02,630.22 711.71,629.6C710.51,629.24 709.28,629.04 708.04,629C699.26,628.98 690.48,628.78 681.71,628.6C679.01,627.85 676.19,627.87 673.42,627.73C672.68,627 671.94,626.28 671.22,625.56C671.44,619.37 670.92,613.18 671.03,606.99C671.04,605.06 670.97,603.12 670.4,601.28C669.95,577.2 670.6,553.1 670,529.02C669.68,523.61 670.83,517.99 669.2,512.74C669.34,512.48 669.63,511.94 669.77,511.67C669.41,510.14 669.22,508.57 669.23,507.01C669.23,485.68 669.4,464.35 669.01,443.02C668.76,437.79 669.64,432.43 668.4,427.3C668.01,403.87 668.51,380.42 668.01,357C667.76,351.77 668.64,346.42 667.4,341.29C667.08,334.52 667.33,327.75 667.25,320.99C645.41,320.78 623.56,320.82 601.72,320.6C599.22,319.82 596.58,319.97 594.01,319.96C587.23,320.03 580.45,319.93 573.68,320.03C563.68,308.45 554.53,296.14 544.52,284.55C543.35,282.72 541.15,281.27 540.96,279.01C548.45,271.17 555.98,263.28 564.26,256.26C596.68,223.68 629.48,191.48 661.85,158.85C664.27,156.23 667.3,154.31 669.78,151.76C696.51,124.83 723.61,98.29 750.35,71.38C754.66,67.9 758.6,64.01 762.51,60.09M733.14,175.13C727.92,180.26 722.99,185.7 717.24,190.25C694.37,213.29 671.2,236.03 648.28,259.01C667.94,259.39 687.62,259.09 707.28,259.4C713.31,260.57 719.56,259.94 725.68,260.23C726.72,261.26 727.76,262.3 728.8,263.35C728.93,271.13 728.43,279.04 729.6,286.72C730.04,310.8 729.41,334.91 730,358.99C730.29,365.21 729.28,371.58 730.6,377.72C731.05,399.83 730.4,421.96 731,444.07C731.31,449.45 730.17,455.04 731.8,460.28C731.66,460.52 731.38,461 731.24,461.25C731.57,462.79 731.76,464.38 731.77,465.98C731.77,486.98 731.6,507.99 731.99,529C732.26,534.55 731.32,540.25 732.6,545.72C732.88,552.86 732.75,560.02 732.67,567.17C735.67,568.39 738.95,567.92 742.11,568.11C750.5,568.49 758.9,568 767.29,568.4C776.75,569.72 786.45,569.06 796.01,569.25C795.95,565.92 796.36,562.51 795.4,559.28C794.96,536.53 795.58,513.76 795,491.01C794.7,484.78 795.71,478.42 794.4,472.29C793.97,449.87 794.57,427.44 794,405.02C793.69,398.45 794.72,391.75 793.4,385.27C792.97,362.86 793.58,340.43 793,318.02C792.7,311.78 793.72,305.41 792.4,299.27C792.03,284.97 792.41,270.66 792.21,256.36C793.24,255.3 794.29,254.25 795.35,253.21C799.99,253.31 804.63,253.12 809.27,253.4C810.8,253.86 812.4,254.03 814.01,254.03C823.77,253.94 833.53,254.24 843.29,254.4C850.74,255.83 858.43,254.7 865.95,255.58C864.65,254.75 863.41,253.8 862.51,252.54C859.21,248.16 854.9,244.71 851.27,240.62C846.36,235.26 840.68,230.62 836.2,224.88C827.75,215.63 818.31,207.31 810.25,197.72C803.75,191.24 797.4,184.6 790.9,178.13C786.85,172.86 781.79,168.54 777.34,163.64C772.04,158.03 766.04,153.06 761.53,146.74C752.06,156.2 742.6,165.67 733.14,175.13Z" style="fill:rgb(2,198,57);fill-rule:nonzero;"/>
        <path d="M425.48,107.91C429.97,105.58 434.53,103.41 439.01,101.06C444.64,103.78 449.8,107.35 455.54,109.88C464.21,115.59 473.38,120.53 482.51,125.48C489.79,129.72 497.02,134.07 504.52,137.92C506.77,139.39 509.11,140.72 511.52,141.95C530.08,152.67 548.79,163.09 567.36,173.8C575.67,178.83 584.74,182.81 592.37,188.88C575.23,205.93 558.31,223.23 540.98,240.08C532.69,236.87 525.55,231.28 517.5,227.52C515.6,226.2 513.55,225.13 511.51,224.06C509.23,222.63 506.9,221.29 504.51,220.06C494.28,214.05 483.87,208.35 473.65,202.33C473.85,238.72 473.75,275.11 473.7,311.5C474.05,311.83 474.77,312.49 475.13,312.82C477.2,312.16 479.38,312.19 481.51,312.54C485.15,312.11 488.85,312.1 492.51,312.55C496.15,312.09 499.84,312.12 503.5,312.53C505.48,312.25 507.5,312.27 509.5,312.49C511.16,312.34 512.83,312.34 514.5,312.49C516.49,312.27 518.51,312.25 520.5,312.52C523.52,312.21 526.55,312.24 529.58,312.17C531.01,313.1 532.5,314.04 533.52,315.46C538.91,322.35 544.46,329.11 549.86,336C552.45,339.67 556.74,341.46 560.57,343.55C564.2,345.45 568.23,346.38 572.33,346.49C576.81,347.46 581.44,346.87 585.99,347.01C603.17,346.81 620.35,347.44 637.53,347.21C638.71,347.97 639.89,348.75 641.05,349.57C641.07,357.87 640.69,366.2 641.26,374.5C641.28,375.57 641.36,376.63 641.49,377.7C641.63,378.64 641.77,379.59 641.92,380.55C640.85,382.36 639.37,383.85 637.55,384.89C635.52,384.76 633.5,384.67 631.49,384.44C627.85,384.91 624.15,384.87 620.5,384.47C618.5,384.74 616.48,384.75 614.49,384.47C610.84,384.88 607.15,384.88 603.51,384.48C601.51,384.73 599.49,384.72 597.5,384.51C595.83,384.64 594.16,384.64 592.5,384.51C590.49,384.73 588.48,384.72 586.48,384.5C584.82,384.67 583.15,384.66 581.5,384.5C579.5,384.72 577.48,384.73 575.49,384.47C571.84,384.87 568.15,384.91 564.51,384.45C556.35,385.11 548.14,384.58 539.97,384.75C533.47,384.59 526.95,385.11 520.48,384.42C519.43,384.53 518.38,384.63 517.34,384.74C518.52,386.56 519.57,388.47 520.58,390.4C520.81,390.91 521.28,391.93 521.51,392.43C522.18,393.77 522.86,395.11 523.55,396.44C524.05,397.46 524.56,398.49 525.06,399.52C526.28,402.97 527.92,406.26 529.7,409.46C530.34,410.81 531,412.15 531.7,413.48C532.63,415.5 533.63,417.5 534.71,419.47C536.26,422.85 537.93,426.19 539.71,429.47C540.63,431.5 541.63,433.5 542.71,435.47C574.3,499.01 606.12,562.45 637.87,625.91C638.01,624.1 644.55,630.4 646.15,635.58C648.66,640.58 651.08,646.08 656,649.18C658.73,651.35 662.07,652.44 665.32,653.56C667.3,654.02 669.31,654.26 671.33,654.55C672.69,654.83 674.1,654.84 675.5,654.72C682.42,655.35 689.38,655.11 696.32,655.4C698.79,656.43 702.66,654.99 703.96,657.93C703.95,659.4 703.77,660.87 703.61,662.34C702.69,665.97 702.28,669.71 701.51,673.38C700.9,675.93 700.66,678.56 700.1,681.12C700.85,681.28 701.62,681.45 702.4,681.64C704.07,681.31 705.78,681.3 707.48,681.49C709.5,681.28 711.54,681.26 713.57,681.53C717.18,681.11 720.85,681.12 724.48,681.53C726.47,681.26 728.5,681.26 730.51,681.53C734.16,681.12 737.86,681.08 741.51,681.56C743.33,681.35 745.16,681.24 747,681.14C747.01,674.77 746.99,668.4 746.98,662.03C746.88,660.34 747.29,658.71 747.86,657.15C754,657.26 760.15,657.14 766.29,657.4C771.42,658.67 776.77,657.72 782,658.01C788.09,658.33 794.19,658.13 800.29,658.4C805.62,659.87 811.26,658.31 816.65,659.3C818.37,660.23 817.87,662.33 818.02,663.96C817.96,679.3 818,694.64 817.99,709.97C818.15,714.21 817.47,718.56 818.6,722.71C818.82,726.23 818.82,729.76 818.6,733.28C817.44,737.89 818.13,742.7 817.99,747.4C816.04,749.24 813.81,750.73 811.51,752.08C809.8,753.01 808.16,754.04 806.51,755.06C772.37,773.99 738.65,793.68 704.54,812.67C696.24,817.54 687.79,822.16 679.51,827.06C677.11,828.27 674.78,829.61 672.53,831.08C636.74,851.03 601.33,871.65 565.58,891.67C550.31,900.62 534.73,909.03 519.52,918.09C509.41,923.57 499.33,929.12 489.5,935.1C478.02,941.28 466.67,947.75 455.52,954.53C452.05,956.43 448.38,957.97 445.07,960.15C442.85,961.57 440.49,962.95 437.79,963.1C434.22,960.73 430.24,959.1 426.48,957.09C423.92,955.39 421.22,953.92 418.49,952.53C417.19,951.64 415.86,950.81 414.52,950.02C404.48,944.42 394.67,938.42 384.49,933.08C376.88,928.66 369.32,924.14 361.51,920.1C341.78,908.49 321.7,897.49 301.93,885.96C289.99,879.59 278.5,872.4 266.53,866.09C247.21,855.04 228,843.76 208.48,833.08C188.59,821.56 168.65,810.11 148.49,799.09C138.18,792.7 127.35,787.19 116.95,780.95C104.39,774.13 92.33,766.4 79.5,760.1C72.84,755.48 64.91,752.56 59.19,746.69C59.29,603.57 59.29,460.43 59.2,317.31C60.56,316.11 61.94,314.91 63.43,313.87C94.45,296.22 125.65,278.87 156.49,260.91C179.02,248.61 201.22,235.69 223.51,222.94C225.9,221.72 228.23,220.39 230.47,218.92C249.93,208.39 268.87,196.91 288.26,186.25C315.36,170.83 342.52,155.53 369.5,139.91C377.32,135.87 384.86,131.32 392.5,126.94C394.55,125.87 396.6,124.79 398.51,123.47C407.73,118.69 416.62,113.32 425.48,107.91M376.5,218.06C324.28,247.61 272.16,277.32 219.99,306.98C216.42,309.19 212.76,311.31 208.76,312.65C210.99,312.28 213.27,312.23 215.53,312.49C220.84,312.13 226.2,312.05 231.51,312.55C235.15,312.1 238.85,312.1 242.5,312.55C246.14,312.1 249.84,312.11 253.49,312.53C255.49,312.26 257.51,312.25 259.51,312.53C263.15,312.12 266.85,312.11 270.49,312.53C272.48,312.25 274.48,312.26 276.47,312.49C278.14,312.35 279.82,312.35 281.5,312.49C283.49,312.28 285.5,312.28 287.49,312.49C289.15,312.34 290.83,312.34 292.5,312.49C294.49,312.27 296.51,312.26 298.5,312.53C302.15,312.11 305.85,312.1 309.5,312.54C315.15,312.06 320.85,312.08 326.5,312.54C331.81,312.07 337.19,312.07 342.5,312.54C346.15,312.11 349.85,312.09 353.5,312.55C357.14,312.09 360.84,312.12 364.49,312.53C366.52,312.25 368.57,312.26 370.61,312.52C374.22,312.11 377.88,312.12 381.49,312.53C383.46,312.26 385.46,312.27 387.44,312.49C389.14,312.35 390.85,312.35 392.55,312.49C394.53,312.26 396.54,312.24 398.51,312.57C399.77,312.41 401.02,312.28 402.3,312.17C402.21,275.84 402.24,239.51 402.28,203.18C393.8,208.32 385.03,212.98 376.5,218.06M192.47,384.78C192.75,386.75 193.04,388.72 193.51,390.66C193.81,392.64 194.08,394.63 194.5,396.6C195.26,400.26 195.75,403.98 196.51,407.65C196.81,409.65 197.08,411.65 197.51,413.64C197.81,415.63 198.07,417.63 198.48,419.62C198.79,421.3 199.11,422.98 199.53,424.65C199.82,426.65 200.08,428.66 200.51,430.64C200.81,432.63 201.08,434.63 201.5,436.6C202.26,440.27 202.76,443.99 203.51,447.66C203.81,449.65 204.08,451.66 204.52,453.64C204.81,455.63 205.07,457.63 205.48,459.62C205.79,461.3 206.12,462.98 206.53,464.66C206.82,466.65 207.08,468.65 207.51,470.64C207.81,472.64 208.08,474.65 208.51,476.64C209,480.33 209.75,483.98 210.54,487.62C210.82,489.63 211.08,491.65 211.51,493.64C212,497.33 212.75,500.98 213.54,504.62C213.82,506.63 214.07,508.64 214.5,510.63C214.81,512.63 215.08,514.64 215.51,516.63C216,520.32 216.75,523.98 217.54,527.62C217.82,529.63 218.08,531.65 218.51,533.64C219,537.33 219.75,540.98 220.54,544.62C220.82,546.63 221.08,548.64 221.51,550.63C222,554.32 222.75,557.97 223.54,561.61C223.82,563.62 224.07,565.64 224.51,567.64C224.81,569.64 225.08,571.64 225.51,573.62C226,577.32 226.75,580.98 227.54,584.63C227.82,586.63 228.08,588.65 228.51,590.64C229,594.33 229.75,597.98 230.54,601.62C230.82,603.63 231.08,605.64 231.51,607.63C232,611.32 232.75,614.97 233.54,618.62C233.82,620.62 234.07,622.65 234.51,624.64C234.81,626.63 235.08,628.64 235.52,630.62C235.84,632.95 236.17,635.29 236.61,637.62C241.72,625.61 248.6,614.41 253.53,602.34C253.83,601.96 254.44,601.2 254.75,600.81C255.45,598.59 256.42,596.46 257.44,594.36C257.7,593.88 258.21,592.92 258.47,592.43C259.28,590.78 260.08,589.12 260.92,587.49C269.47,570.17 278.18,552.94 286.79,535.65C289.41,530.28 292.36,525.04 294.41,519.42C294.68,518.92 295.2,517.93 295.47,517.43C296.29,515.78 297.11,514.13 297.95,512.5C298.91,510.5 299.88,508.5 300.89,506.53C309.33,489.13 318.44,472.05 326.6,454.53C328.29,451.21 329.62,447.72 331.39,444.44C341.48,424.55 351.14,404.43 361.47,384.66C358.81,384.77 356.14,384.8 353.5,384.47C346.68,385.07 339.82,384.61 332.99,384.75C325.16,384.58 317.31,385.1 309.5,384.46C305.85,384.9 302.15,384.88 298.5,384.47C296.51,384.73 294.49,384.73 292.5,384.51C290.83,384.65 289.16,384.65 287.5,384.51C285.5,384.73 283.49,384.73 281.5,384.51C279.83,384.65 278.15,384.65 276.49,384.51C274.49,384.72 272.48,384.73 270.49,384.47C266.83,384.87 263.12,384.9 259.45,384.46C253.82,384.93 248.13,384.93 242.51,384.46C235.35,385.08 228.14,384.6 220.97,384.75C213.48,384.6 205.97,385.08 198.5,384.47C196.5,384.67 194.48,384.73 192.47,384.78M424.89,415.95C422.96,420.07 421.44,424.37 419.22,428.35C410.77,445.2 402.36,462.07 393.92,478.92C392.34,482.11 390.54,485.24 389.48,488.66C389.16,489.04 388.54,489.8 388.23,490.19C387.73,491.66 387.18,493.13 386.62,494.59C385.89,495.9 385.19,497.22 384.51,498.57C383.84,499.9 383.18,501.25 382.52,502.6C381.84,503.93 381.17,505.26 380.51,506.61C380.27,507.1 379.78,508.08 379.54,508.57C378.72,510.22 377.91,511.88 377.08,513.53C370.33,527.23 363.43,540.86 356.62,554.54C354.84,558.21 352.71,561.75 351.48,565.67C351.16,566.05 350.5,566.82 350.18,567.2C349.84,568.3 349.5,569.41 349.15,570.51C338.32,592.19 327.37,613.81 316.7,635.56C315.07,640.06 312.72,644.24 310.62,648.52C305.2,659.41 299.71,670.25 294.34,681.16C295.38,681.29 296.42,681.44 297.46,681.61C301.11,681.05 304.83,681.11 308.49,681.55C314.15,681.06 319.87,681.07 325.54,681.54C330.84,681.07 336.2,681.07 341.5,681.55C345.15,681.1 348.85,681.09 352.5,681.55C356.14,681.1 359.84,681.11 363.49,681.53C365.49,681.25 367.51,681.26 369.51,681.53C373.15,681.11 376.84,681.11 380.49,681.53C382.48,681.26 384.5,681.27 386.5,681.49C388.17,681.34 389.84,681.33 391.52,681.49C393.5,681.28 395.5,681.28 397.49,681.49C399.15,681.33 400.83,681.34 402.5,681.49C404.49,681.26 406.51,681.26 408.5,681.53C412.15,681.12 415.85,681.09 419.5,681.54C430.47,681.06 441.52,681.05 452.5,681.55C456.15,681.1 459.85,681.1 463.5,681.55C467.14,681.09 470.84,681.11 474.49,681.53C476.48,681.26 478.5,681.26 480.5,681.53C484.15,681.12 487.85,681.09 491.5,681.55C495.14,681.09 498.84,681.12 502.49,681.53C504.48,681.25 506.49,681.27 508.48,681.49C510.15,681.34 511.83,681.34 513.5,681.49C515.49,681.26 517.51,681.26 519.51,681.53C523.15,681.11 526.85,681.1 530.5,681.55C541.47,681.06 552.52,681.06 563.5,681.55C567.14,681.1 570.84,681.11 574.49,681.53C576.48,681.28 578.49,681.27 580.49,681.44C582.46,681.18 584.43,681.4 586.34,681.99C585.99,681.39 585.31,680.2 584.97,679.61C576.83,663.56 568.86,647.43 560.79,631.36C554.16,617.7 546.89,604.34 540.67,590.51C539.41,588.65 538.4,586.64 537.66,584.52C535.12,579.95 533.06,575.14 530.48,570.59C530.21,570.1 529.66,569.12 529.39,568.63C528.82,567.2 528.27,565.77 527.77,564.33C526.93,563.11 526.14,561.88 525.37,560.65C524.41,558.53 523.46,556.41 522.75,554.2C522.45,553.82 521.83,553.04 521.52,552.66C521.03,551.18 520.46,549.73 519.79,548.34C510.1,529.02 500.46,509.67 490.79,490.34C489.08,486.99 487.62,483.49 485.4,480.44C485.28,479.88 485.05,478.77 484.94,478.22C484.59,477.84 483.88,477.08 483.52,476.71C482.93,474.42 481.86,472.28 480.4,470.44C480.28,469.88 480.05,468.77 479.94,468.21C479.59,467.84 478.88,467.08 478.52,466.71C477.93,464.42 476.86,462.29 475.4,460.44C475.28,459.89 475.06,458.78 474.94,458.22C474.59,457.84 473.88,457.09 473.53,456.71C472.91,454.47 471.88,452.39 470.57,450.49C460.67,429.2 449.52,408.49 439.38,387.3C434.33,396.73 429.77,406.43 424.89,415.95M130.96,451.64C130.47,474.07 130.88,496.53 130.75,518.97C130.71,573.08 130.82,627.19 130.69,681.3C136.3,681.23 141.91,681.32 147.51,681.52C151.15,681.11 154.85,681.11 158.49,681.53C160.47,681.25 162.47,681.26 164.45,681.5C166.37,681.23 168.34,681.23 170.16,681.97C170.87,680.76 171.58,679.46 171.21,678.02C170.28,672.82 169.5,667.59 168.51,662.4C167.32,656.76 166.63,651.03 165.5,645.38C164.32,639.74 163.63,634.02 162.5,628.38C161.32,622.75 160.63,617.03 159.5,611.4C158.32,605.75 157.63,600.02 156.5,594.38C155.32,588.74 154.63,583.02 153.5,577.37C152.32,571.74 151.63,566.01 150.5,560.37C148.96,552.74 147.98,545.01 146.5,537.37C145.32,531.74 144.63,526.01 143.5,520.37C142.74,516.71 142.24,513 141.49,509.34C141.18,507.34 140.92,505.33 140.49,503.36C140.19,501.36 139.93,499.36 139.52,497.38C139.2,495.69 138.88,494.01 138.47,492.35C138.18,490.34 137.92,488.34 137.49,486.37C137.19,484.37 136.92,482.36 136.53,480.39C136.2,478.7 135.88,477.01 135.47,475.35C135.18,473.34 134.92,471.33 134.49,469.36C134.19,467.36 133.92,465.36 133.53,463.38C133.2,461.69 132.88,460 132.47,458.34C132.15,456.07 132.03,453.71 130.96,451.64M211.72,753.33C217.5,755.5 222.49,759.28 227.96,762.09C260,780.27 292.01,798.53 324.05,816.71C322.44,814.75 320.43,813.24 318.49,811.65C313.04,806.7 308.17,801.12 302.38,796.56C296.38,790.91 290.77,784.83 284.37,779.63C275.94,770.98 266.7,763.25 258.18,754.71C256.69,753.35 254.41,753.83 252.58,753.38C248.92,753.95 245.19,753.87 241.52,753.48C231.61,753.84 221.61,754.09 211.72,753.33M331.78,753.67C337.12,758.53 341.94,763.95 347.61,768.44C352.56,773.14 357.36,777.99 362.3,782.7C368.62,787.69 373.92,793.8 379.87,799.19C386.59,804.41 391.89,811.19 398.59,816.43C404.21,821.44 409.14,827.19 415.07,831.85C422.62,839.23 430.26,846.49 438.23,853.41C441.31,852.04 443.25,849.02 445.99,847.12C477.61,818.69 509.17,790.19 540.79,761.77C543.65,758.88 546.71,756.21 549.94,753.73C543.46,753.61 536.96,754.07 530.5,753.45C526.85,753.9 523.15,753.87 519.51,753.47C517.51,753.73 515.5,753.72 513.51,753.51C511.84,753.65 510.16,753.65 508.5,753.51C506.5,753.72 504.5,753.72 502.52,753.51C500.84,753.65 499.16,753.65 497.5,753.5C495.5,753.73 493.48,753.74 491.49,753.47C487.84,753.87 484.15,753.89 480.51,753.47C478.49,753.73 476.45,753.73 474.44,753.47C470.81,753.88 467.13,753.9 463.51,753.45C456.67,754.08 449.79,753.6 442.93,753.75C435.12,753.59 427.29,754.09 419.5,753.46C415.85,753.9 412.15,753.87 408.51,753.47C406.51,753.73 404.49,753.73 402.5,753.51C400.81,753.64 399.11,753.64 397.43,753.51C395.46,753.72 393.47,753.71 391.51,753.5C389.84,753.65 388.16,753.65 386.5,753.51C384.5,753.72 382.48,753.72 380.49,753.47C376.83,753.89 373.13,753.88 369.48,753.47C367.48,753.74 365.46,753.73 363.47,753.47C359.85,753.87 356.18,753.9 352.57,753.46C345.66,754.04 338.71,753.68 331.78,753.67M630.37,753.38C628.74,753.63 627.07,753.69 625.49,754.15C604.5,773.49 583.03,792.33 562,811.61C596.29,792.74 630.06,772.89 664.25,753.83C656.67,753.49 649.06,754.13 641.49,753.46C637.8,753.88 634.04,753.94 630.37,753.38Z" style="fill:rgb(2,198,57);fill-rule:nonzero;"/>
    </g>
</svg>
