<?xml version="1.0" encoding="UTF-8" standalone="no"?>
<!DOCTYPE svg PUBLIC "-//W3C//DTD SVG 1.1//EN" "http://www.w3.org/Graphics/SVG/1.1/DTD/svg11.dtd">
<svg width="100%" height="100%" viewBox="0 0 512 512" version="1.1" xmlns="http://www.w3.org/2000/svg" xmlns:xlink="http://www.w3.org/1999/xlink" xml:space="preserve" xmlns:serif="http://www.serif.com/" style="fill-rule:evenodd;clip-rule:evenodd;stroke-linejoin:round;stroke-miterlimit:2;">
    <g id="_-ffffffff" serif:id="#ffffffff">
        <path d="M136.6,5.82C174.99,2.67 214.24,14.16 245.24,36.95C249.08,39.34 252.21,42.77 256.05,45.11C260.35,42.12 264.23,38.57 268.41,35.42C285.91,22.9 305.73,13.41 326.79,8.8C358.77,1.27 393.29,4.74 423,18.83C453.35,32.94 478.25,57.99 492.82,88.06C506.38,115.71 511.71,147.16 509.25,177.79C506.77,207.25 495.86,235.47 480.44,260.52C458.72,295.67 429.1,325 398.77,352.71C385.97,363.94 373.13,375.12 360.31,386.33C344.16,400.43 327.73,414.33 313.13,430.08C307.08,437.43 299.54,444.36 297.22,453.95C295.1,461.91 292.93,469.86 290.81,477.83C289.68,482.05 288.41,486.3 286.12,490.07C280.55,499.67 270.08,506.2 259.01,506.97C247.19,508.02 235.12,502.38 228.26,492.73C222.71,485.2 221.56,475.67 218.9,466.95C216.25,458.26 215.17,448.81 209.73,441.27C202.46,430.75 193.49,421.57 184.39,412.63C147.86,378.45 107.69,348.14 73.61,311.36C63.92,300.64 54.16,289.93 45.81,278.11C27.54,253.34 13.2,225.29 6.48,195.12C0.67,168.59 0.43,140.65 7.15,114.27C14.57,84.44 31.63,56.97 55.67,37.71C78.5,19.08 107.25,8.05 136.6,5.82M71.17,70.21C54.41,85.96 43.37,107.37 39.19,129.91C35.81,147.43 36.15,165.58 39.42,183.09C45.87,217.07 64.26,247.51 86.37,273.62C93.99,281.99 101.24,290.72 109.46,298.53C127.47,316.89 147.1,333.53 166.51,350.37C186.26,367.63 206.52,384.45 224.25,403.84C233.7,414.87 243.41,426.38 247.64,440.56C250.66,451.15 253.38,461.83 256.33,472.45C258.96,462.7 261.58,452.95 264.2,443.21C267.25,431.7 274.37,421.8 282.11,412.96C292.94,399.9 305.56,388.48 318.13,377.13C332.13,364.82 346.24,352.62 360.25,340.32C387.57,316.72 414.08,291.86 436.37,263.37C450.92,244.32 463.35,223.23 469.95,200.06C475.5,181.24 476.52,161.19 473.5,141.83C470.11,118.47 460.51,95.8 444.89,77.98C430.12,60.88 410.01,48.46 388.09,42.99C352.16,33.83 312.62,43.78 284.17,67.21C273.32,75.47 264.45,85.97 256.27,96.8C245.54,81.99 232.18,68.98 216.55,59.41C192.98,44.74 164.57,37.81 136.9,40.62C112.56,42.95 88.89,53.25 71.17,70.21Z" style="fill:white;fill-rule:nonzero;"/>
        <path d="M96.72,71.7C126.71,53.22 166.11,52.97 197.34,68.57C213.48,75.93 227.31,87.81 238.28,101.64C244.81,109.8 249.89,118.96 255.14,127.95C255.99,129.14 256.04,130.61 256.02,132.01C255.98,167.77 256.02,203.53 256,239.29C247.69,238.6 239.08,240.42 232.16,245.2C223.62,250.94 217.82,260.64 217.1,270.93C216.03,282.27 221.17,293.9 230.18,300.83C237.37,306.64 246.88,309 256,308.2C256,344.43 256.01,380.65 256,416.88C245.94,400.46 232.47,386.54 218.61,373.32C225.61,372 232.21,368.2 236.28,362.27C242.53,353.66 242.56,341.22 236.47,332.52C230.07,322.88 217.02,318.55 206.1,322.35C195.91,325.56 188.58,335.42 187.97,346.03C160.11,321.69 131.31,298.14 106.8,270.3C86.43,248 68.81,222.36 59.86,193.27C52.68,169.16 51.95,142.77 59.76,118.73C66.07,99.36 79.26,82.27 96.72,71.7M155.62,114.62C151.09,123.12 150.63,133.47 153.84,142.5C145.01,142.54 136.42,148.38 133.94,156.98C131.22,165.31 134.77,175.08 142.14,179.78C149.39,184.74 159.82,184.21 166.52,178.53C171.27,174.75 173.79,168.8 174.05,162.82C181.44,165.41 189.66,165.82 197.14,163.37C209.7,159.59 219.54,148.05 221.08,135C222.72,123.69 218.15,111.78 209.45,104.4C202.27,98.11 192.4,95.03 182.91,96.11C171.47,97.16 160.85,104.39 155.62,114.62M207.48,173.72C200,175.49 193.97,182.17 193.18,189.83C192.22,196.96 195.83,204.38 201.96,208.1C208.57,212.33 217.8,211.85 223.9,206.9C229.65,202.5 232.37,194.64 230.59,187.63C228.39,177.67 217.3,171.06 207.48,173.72M174.18,222.28C165.48,224.16 158.15,231.25 156.12,239.94C154.01,248.13 156.73,257.3 162.94,263.04C170.03,269.91 181.45,271.59 190.26,267.16C197.88,263.49 203.29,255.55 203.68,247.07C204.33,238.3 199.57,229.49 191.99,225.08C186.7,221.91 180.19,220.93 174.18,222.28Z" style="fill:white;fill-rule:nonzero;"/>
    </g>
    <g id="_-b00404ff" serif:id="#b00404ff">
        <path d="M71.17,70.21C88.89,53.25 112.56,42.95 136.9,40.62C164.57,37.81 192.98,44.74 216.55,59.41C232.18,68.98 245.54,81.99 256.27,96.8C264.45,85.97 273.32,75.47 284.17,67.21C312.62,43.78 352.16,33.83 388.09,42.99C410.01,48.46 430.12,60.88 444.89,77.98C460.51,95.8 470.11,118.47 473.5,141.83C476.52,161.19 475.5,181.24 469.95,200.06C463.35,223.23 450.92,244.32 436.37,263.37C414.08,291.86 387.57,316.72 360.25,340.32C346.24,352.62 332.13,364.82 318.13,377.13C305.56,388.48 292.94,399.9 282.11,412.96C274.37,421.8 267.25,431.7 264.2,443.21C261.58,452.95 258.96,462.7 256.33,472.45C253.38,461.83 250.66,451.15 247.64,440.56C243.41,426.38 233.7,414.87 224.25,403.84C206.52,384.45 186.26,367.63 166.51,350.37C147.1,333.53 127.47,316.89 109.46,298.53C101.24,290.72 93.99,281.99 86.37,273.62C64.26,247.51 45.87,217.07 39.42,183.09C36.15,165.58 35.81,147.43 39.19,129.91C43.37,107.37 54.41,85.96 71.17,70.21M96.72,71.7C79.26,82.27 66.07,99.36 59.76,118.73C51.95,142.77 52.68,169.16 59.86,193.27C68.81,222.36 86.43,248 106.8,270.3C131.31,298.14 160.11,321.69 187.97,346.03C188.58,335.42 195.91,325.56 206.1,322.35C217.02,318.55 230.07,322.88 236.47,332.52C242.56,341.22 242.53,353.66 236.28,362.27C232.21,368.2 225.61,372 218.61,373.32C232.47,386.54 245.94,400.46 256,416.88C256.01,380.65 256,344.43 256,308.2C246.88,309 237.37,306.64 230.18,300.83C221.17,293.9 216.03,282.27 217.1,270.93C217.82,260.64 223.62,250.94 232.16,245.2C239.08,240.42 247.69,238.6 256,239.29C256.02,203.53 255.98,167.77 256.02,132.01C256.04,130.61 255.99,129.14 255.14,127.95C249.89,118.96 244.81,109.8 238.28,101.64C227.31,87.81 213.48,75.93 197.34,68.57C166.11,52.97 126.71,53.22 96.72,71.7Z" style="fill:rgb(136,0,27);fill-rule:nonzero;"/>
        <path d="M155.62,114.62C160.85,104.39 171.47,97.16 182.91,96.11C192.4,95.03 202.27,98.11 209.45,104.4C218.15,111.78 222.72,123.69 221.08,135C219.54,148.05 209.7,159.59 197.14,163.37C189.66,165.82 181.44,165.41 174.05,162.82C173.79,168.8 171.27,174.75 166.52,178.53C159.82,184.21 149.39,184.74 142.14,179.78C134.77,175.08 131.22,165.31 133.94,156.98C136.42,148.38 145.01,142.54 153.84,142.5C150.63,133.47 151.09,123.12 155.62,114.62Z" style="fill:rgb(136,0,27);fill-rule:nonzero;"/>
        <path d="M207.48,173.72C217.3,171.06 228.39,177.67 230.59,187.63C232.37,194.64 229.65,202.5 223.9,206.9C217.8,211.85 208.57,212.33 201.96,208.1C195.83,204.38 192.22,196.96 193.18,189.83C193.97,182.17 200,175.49 207.48,173.72Z" style="fill:rgb(136,0,27);fill-rule:nonzero;"/>
        <path d="M174.18,222.28C180.19,220.93 186.7,221.91 191.99,225.08C199.57,229.49 204.33,238.3 203.68,247.07C203.29,255.55 197.88,263.49 190.26,267.16C181.45,271.59 170.03,269.91 162.94,263.04C156.73,257.3 154.01,248.13 156.12,239.94C158.15,231.25 165.48,224.16 174.18,222.28Z" style="fill:rgb(136,0,27);fill-rule:nonzero;"/>
    </g>
</svg>
