<?xml version="1.0" encoding="UTF-8" standalone="no"?>
<!DOCTYPE svg PUBLIC "-//W3C//DTD SVG 1.1//EN" "http://www.w3.org/Graphics/SVG/1.1/DTD/svg11.dtd">
<svg width="100%" height="100%" viewBox="0 0 1024 1024" version="1.1" xmlns="http://www.w3.org/2000/svg" xmlns:xlink="http://www.w3.org/1999/xlink" xml:space="preserve" xmlns:serif="http://www.serif.com/" style="fill-rule:evenodd;clip-rule:evenodd;stroke-linejoin:round;stroke-miterlimit:2;">
    <g id="_-ffffffff" serif:id="#ffffffff">
        <g transform="matrix(0.919881,0,0,0.919881,41.0208,41.0493)">
            <path d="M484.31,61.3C513.64,59.99 543.15,60.4 572.27,64.57C645.57,74.25 716.3,102.45 776.24,145.71C847.55,196.61 902.9,269.21 933.94,351.08C945.88,382.34 954.26,414.97 958.98,448.09C963.48,476.83 963.83,505.98 963.03,535.01C960.32,583.34 950.35,631.4 932.56,676.47C904.1,749.83 855.98,815.44 794.49,864.55C763.4,889.26 729.19,910.07 692.75,925.86C639.91,948.91 582.58,961.81 524.96,963.23C439.6,965.97 353.61,943.63 280.38,899.68C263.38,889.72 247.24,878.35 231.68,866.29C221.64,858.4 212.37,849.61 202.73,841.26C193.69,831.98 184.06,823.25 175.74,813.31C125.86,757.75 90.23,689.52 73.1,616.84C66.01,588.08 62.34,558.54 60.95,529C60.99,515.99 60.97,502.99 60.95,489.99C64.02,431.19 78.26,372.84 103.53,319.61C132.82,256.88 176.88,201.1 231.2,158.18C260.56,134.86 292.93,115.4 327.12,100.04C376.57,77.68 430.2,64.82 484.31,61.3M485.5,109.61C437.08,112.95 389.19,124.87 345.06,145.13C263.82,182.22 195.58,247.09 154.34,326.31C152.01,330.14 150.15,334.22 148.43,338.35C138.36,358.43 130.71,379.65 124.34,401.17C115.37,433 109.92,465.9 109.09,498.97C109.11,507.99 107.44,517.02 108.87,526.02C110.96,590.65 129.12,654.73 161.23,710.86C177.26,738.8 196.4,765.04 218.75,788.24C224.05,794.6 229.98,800.4 236.3,805.74C258.94,827.68 284.81,846.1 312.04,861.92C371.91,896.42 440.91,915.08 510.02,915.13C598.53,916.01 686.97,886.08 756.94,831.89C813.28,788.46 858.4,730.31 885.26,664.36C903.8,618.94 914.26,570.08 914.99,521C916.97,452.62 900.34,383.97 868.37,323.55C849.65,288.85 826.22,256.59 798.25,228.75C755.13,184.67 701.54,151.02 643.32,130.82C607.8,118.53 570.54,111.37 533.03,109.33C517.19,108.79 501.32,108.84 485.5,109.61Z" style="fill:white;fill-rule:nonzero;"/>
        </g>
        <g transform="matrix(0.919881,0,0,0.919881,41.0208,41.0493)">
            <path d="M501.31,161.3C509.53,160.75 517.82,160.76 526.02,161.59C539.01,161.6 551.94,163.23 564.79,165.08C611.17,171.99 656.06,188.44 696.04,212.91C748.51,244.79 792.11,291 820.92,345.2C824.17,350.79 827.15,356.55 829.66,362.52C846.78,398.81 857.43,438.13 861.31,478.06C862.37,486.66 862.19,495.33 862.98,503.95C863.94,557.79 853,612.02 829.95,660.79C824.25,674.18 816.71,686.68 809.22,699.13C769.65,762.91 708.55,812.91 638.38,839.49C609.76,850.77 579.49,857.56 548.97,861.09C542.3,861.56 535.66,862.59 528.96,862.35C510.99,863.9 492.94,862.57 475.02,861.1C459.07,859.07 443.12,856.76 427.55,852.64C401.17,846.49 375.87,836.37 351.6,824.48C333.37,814.51 315.11,804.27 299.01,791.02C287.41,782.41 276.62,772.78 266.09,762.92C244.85,741.71 226.14,717.93 210.77,692.14C181.2,642.24 163.91,584.98 161.63,527.01C162.34,517.6 160.03,508.23 161.54,498.87C161.69,481.53 164.11,464.29 167.07,447.23C172.03,420.41 180.33,394.26 191.21,369.27C195.23,361.28 198.33,352.83 203.07,345.19C217.91,317.24 236.87,291.58 258.57,268.58C284.02,242.31 313.52,219.93 345.82,202.72C352.83,198.38 360.57,195.51 367.93,191.86C409.83,173.11 455.42,162.53 501.31,161.3M495.5,215.61C468.54,217.39 441.67,222.23 416.18,231.33C404.63,234.8 393.74,240.01 382.79,244.96C325.94,272.67 278.35,318.92 248.98,374.93C227.68,415.52 216.12,461.15 215.17,506.95C213.54,576.21 237.74,645.71 281.87,699.11C309.5,732.68 344.09,760.74 383.39,779.53C438.05,806.21 501.13,815.11 561.04,804.9C576.1,801.95 591.12,798.59 605.62,793.51C691.53,765.41 762.38,695.43 792,610.09C801.83,582.44 807.27,553.31 808.68,524.03C808.66,516.35 808.63,508.67 808.68,500.99C807.27,466.95 800.13,433.1 787.37,401.49C769.06,355.88 738.91,315.18 701.12,283.82C651.05,241.58 586.39,217.32 521,215.32C512.5,215.53 503.98,214.98 495.5,215.61Z" style="fill:white;fill-rule:nonzero;"/>
        </g>
        <g transform="matrix(0.919881,0,0,0.919881,41.0208,41.0493)">
            <path d="M492.3,268.27C501.83,267.12 511.44,267.88 521,267.63C552.08,268.85 582.98,275.87 611.41,288.53C639.93,300.96 665.88,319.14 687.76,341.24C699.4,353.82 710.36,367.16 719.23,381.86C741.7,417.44 754.23,459.05 756.36,501C756.1,511.5 756.95,522.05 755.63,532.5C753.83,556.4 748.02,579.9 739.38,602.22C727.88,631.95 710.12,659.12 688.26,682.26C650.03,721.47 598.42,747.67 543.95,754.19C480.69,762.94 414.36,745.13 363.59,706.43C355.63,700.49 347.98,694.08 341.08,686.92C312.35,659.48 291.59,624.25 279.2,586.63C274.06,569.11 269.91,551.2 268.66,532.95C262.22,466.58 285.17,398.2 329.6,348.59C370.8,302.21 430.53,273.18 492.3,268.27M499.5,319.6C459.99,322.44 421.22,337.28 390.72,362.72C385.51,366.81 381.02,371.73 375.92,375.96C367.52,385.23 358.78,394.35 351.93,404.9C341.31,420.37 333.3,437.57 327.57,455.43C317.54,488.12 316.35,523.51 324.36,556.75C339.71,622.47 392.19,677.9 456.93,696.89C518.55,715.89 589.42,700.51 637.59,657.64C643.2,652.6 649.09,647.81 653.81,641.88C681.7,612.29 699.12,573.33 703.62,533C709.64,480.37 692.47,425.46 657.21,385.86C652.43,380.96 648.35,375.38 642.88,371.19C605.09,334.93 551.63,316.16 499.5,319.6Z" style="fill:white;fill-rule:nonzero;"/>
        </g>
        <g transform="matrix(1.10643,0,0,1.10643,457.484,424.711)">
            <path d="M49.272,-375.834C300.242,-375.834 503.998,-172.078 503.998,78.892C503.998,329.863 300.242,533.619 49.272,533.619C-201.699,533.619 -405.455,329.863 -405.455,78.892C-405.455,-172.078 -201.699,-375.834 49.272,-375.834ZM38.048,-338.768C34.323,-338.252 30.557,-338.477 26.816,-338.41C2.165,-336.822 -22.478,-333.713 -46.472,-327.727C-91.833,-317.201 -135.34,-298.778 -174.599,-273.761C-187.627,-265.746 -199.799,-256.459 -211.904,-247.131C-227.858,-234.128 -243.106,-220.202 -257.024,-205.021C-294.62,-164.64 -324.043,-116.668 -343.057,-64.864C-358.246,-23.435 -366.918,20.429 -368.323,64.527C-369.828,81.512 -368.273,98.581 -367.201,115.533C-364.565,146.311 -358.147,176.699 -348.985,206.189C-338.443,238.622 -324.126,269.865 -306.109,298.831C-291.336,322.975 -273.735,345.331 -254.388,365.958C-247.105,373.05 -240.213,380.558 -232.614,387.334C-215.82,402.673 -197.67,416.532 -178.664,429.028C-136.23,456.755 -88.699,476.618 -39.156,487.343C-18.562,491.882 2.406,494.601 23.424,496.122C37.025,496.38 50.668,497.702 64.262,496.388C78.437,496.18 92.596,494.875 106.613,492.813C159.889,485.572 211.669,467.68 258.177,440.743C314.671,408.06 363.374,362.018 399.049,307.353C438.075,248.066 461.288,178.561 466.21,107.784C466.908,92.936 468.022,78.004 466.65,63.155C466.55,58.566 466.775,53.951 466.126,49.395C460.864,-26.553 434.201,-100.872 389.962,-162.836C360.946,-203.591 324.631,-239.158 283.194,-267.201C220.457,-309.86 145.814,-334.777 70.057,-338.419C59.398,-338.743 48.715,-339.466 38.048,-338.768Z" style="fill:white;"/>
        </g>
    </g>
    <g id="_-ee00ffff" serif:id="#ee00ffff">
        <g transform="matrix(0.919881,0,0,0.919881,41.0208,41.0493)">
            <path d="M498.5,9.61C511.33,8.77 524.18,9.64 537,10.03C628.12,14.41 717.9,44.38 793.36,95.69C843.2,129.42 886.88,172.2 921.78,221.22C974.99,295.75 1007.06,385.14 1013.39,476.49C1014.17,481.97 1013.9,487.52 1014.02,493.04C1015.67,510.9 1014.33,528.86 1013.49,546.72C1007.57,631.85 979.65,715.45 932.71,786.76C889.8,852.51 831.22,907.89 763.27,947.2C707.33,979.6 645.05,1001.12 580.97,1009.83C564.11,1012.31 547.08,1013.88 530.03,1014.13C513.68,1015.71 497.27,1014.12 480.91,1013.81C455.63,1011.98 430.41,1008.71 405.64,1003.25C346.05,990.35 288.88,966.46 237.84,933.11C214.98,918.08 193.15,901.41 172.95,882.96C163.81,874.81 155.52,865.78 146.76,857.25C123.49,832.44 102.32,805.55 84.55,776.51C62.88,741.67 45.66,704.09 32.98,665.08C21.96,629.61 14.24,593.06 11.07,556.04C9.78,535.65 7.91,515.12 9.72,494.69C11.41,441.65 21.84,388.89 40.11,339.06C62.98,276.75 98.37,219.05 143.59,170.48C160.33,152.22 178.67,135.47 197.86,119.83C212.42,108.61 227.06,97.44 242.73,87.8C289.95,57.71 342.28,35.55 396.84,22.89C425.7,15.69 455.34,11.95 484.99,10.04C489.49,9.96 494.02,10.23 498.5,9.61M484.31,61.3C430.2,64.82 376.57,77.68 327.12,100.04C292.93,115.4 260.56,134.86 231.2,158.18C176.88,201.1 132.82,256.88 103.53,319.61C78.26,372.84 64.02,431.19 60.95,489.99C60.97,502.99 60.99,515.99 60.95,529C62.34,558.54 66.01,588.08 73.1,616.84C90.23,689.52 125.86,757.75 175.74,813.31C184.06,823.25 193.69,831.98 202.73,841.26C212.37,849.61 221.64,858.4 231.68,866.29C247.24,878.35 263.38,889.72 280.38,899.68C353.61,943.63 439.6,965.97 524.96,963.23C582.58,961.81 639.91,948.91 692.75,925.86C729.19,910.07 763.4,889.26 794.49,864.55C855.98,815.44 904.1,749.83 932.56,676.47C950.35,631.4 960.32,583.34 963.03,535.01C963.83,505.98 963.48,476.83 958.98,448.09C954.26,414.97 945.88,382.34 933.94,351.08C902.9,269.21 847.55,196.61 776.24,145.71C716.3,102.45 645.57,74.25 572.27,64.57C543.15,60.4 513.64,59.99 484.31,61.3Z" style="fill:rgb(238,0,255);fill-rule:nonzero;"/>
        </g>
        <g transform="matrix(0.919881,0,0,0.919881,41.0208,41.0493)">
            <path d="M485.5,109.61C501.32,108.84 517.19,108.79 533.03,109.33C570.54,111.37 607.8,118.53 643.32,130.82C701.54,151.02 755.13,184.67 798.25,228.75C826.22,256.59 849.65,288.85 868.37,323.55C900.34,383.97 916.97,452.62 914.99,521C914.26,570.08 903.8,618.94 885.26,664.36C858.4,730.31 813.28,788.46 756.94,831.89C686.97,886.08 598.53,916.01 510.02,915.13C440.91,915.08 371.91,896.42 312.04,861.92C284.81,846.1 258.94,827.68 236.3,805.74C229.98,800.4 224.05,794.6 218.75,788.24C196.4,765.04 177.26,738.8 161.23,710.86C129.12,654.73 110.96,590.65 108.87,526.02C107.44,517.02 109.11,507.99 109.09,498.97C109.92,465.9 115.37,433 124.34,401.17C130.71,379.65 138.36,358.43 148.43,338.35C150.15,334.22 152.01,330.14 154.34,326.31C195.58,247.09 263.82,182.22 345.06,145.13C389.19,124.87 437.08,112.95 485.5,109.61M501.31,161.3C455.42,162.53 409.83,173.11 367.93,191.86C360.57,195.51 352.83,198.38 345.82,202.72C313.52,219.93 284.02,242.31 258.57,268.58C236.87,291.58 217.91,317.24 203.07,345.19C198.33,352.83 195.23,361.28 191.21,369.27C180.33,394.26 172.03,420.41 167.07,447.23C164.11,464.29 161.69,481.53 161.54,498.87C160.03,508.23 162.34,517.6 161.63,527.01C163.91,584.98 181.2,642.24 210.77,692.14C226.14,717.93 244.85,741.71 266.09,762.92C276.62,772.78 287.41,782.41 299.01,791.02C315.11,804.27 333.37,814.51 351.6,824.48C375.87,836.37 401.17,846.49 427.55,852.64C443.12,856.76 459.07,859.07 475.02,861.1C492.94,862.57 510.99,863.9 528.96,862.35C535.66,862.59 542.3,861.56 548.97,861.09C579.49,857.56 609.76,850.77 638.38,839.49C708.55,812.91 769.65,762.91 809.22,699.13C816.71,686.68 824.25,674.18 829.95,660.79C853,612.02 863.94,557.79 862.98,503.95C862.19,495.33 862.37,486.66 861.31,478.06C857.43,438.13 846.78,398.81 829.66,362.52C827.15,356.55 824.17,350.79 820.92,345.2C792.11,291 748.51,244.79 696.04,212.91C656.06,188.44 611.17,171.99 564.79,165.08C551.94,163.23 539.01,161.6 526.02,161.59C517.82,160.76 509.53,160.75 501.31,161.3Z" style="fill:rgb(238,0,255);fill-rule:nonzero;"/>
        </g>
        <g transform="matrix(0.919881,0,0,0.919881,41.0208,41.0493)">
            <path d="M495.5,215.61C503.98,214.98 512.5,215.53 521,215.32C586.39,217.32 651.05,241.58 701.12,283.82C738.91,315.18 769.06,355.88 787.37,401.49C800.13,433.1 807.27,466.95 808.68,500.99C808.63,508.67 808.66,516.35 808.68,524.03C807.27,553.31 801.83,582.44 792,610.09C762.38,695.43 691.53,765.41 605.62,793.51C591.12,798.59 576.1,801.95 561.04,804.9C501.13,815.11 438.05,806.21 383.39,779.53C344.09,760.74 309.5,732.68 281.87,699.11C237.74,645.71 213.54,576.21 215.17,506.95C216.12,461.15 227.68,415.52 248.98,374.93C278.35,318.92 325.94,272.67 382.79,244.96C393.74,240.01 404.63,234.8 416.18,231.33C441.67,222.23 468.54,217.39 495.5,215.61M492.3,268.27C430.53,273.18 370.8,302.21 329.6,348.59C285.17,398.2 262.22,466.58 268.66,532.95C269.91,551.2 274.06,569.11 279.2,586.63C291.59,624.25 312.35,659.48 341.08,686.92C347.98,694.08 355.63,700.49 363.59,706.43C414.36,745.13 480.69,762.94 543.95,754.19C598.42,747.67 650.03,721.47 688.26,682.26C710.12,659.12 727.88,631.95 739.38,602.22C748.02,579.9 753.83,556.4 755.63,532.5C756.95,522.05 756.1,511.5 756.36,501C754.23,459.05 741.7,417.44 719.23,381.86C710.36,367.16 699.4,353.82 687.76,341.24C665.88,319.14 639.93,300.96 611.41,288.53C582.98,275.87 552.08,268.85 521,267.63C511.44,267.88 501.83,267.12 492.3,268.27Z" style="fill:rgb(238,0,255);fill-rule:nonzero;"/>
        </g>
        <g transform="matrix(0.919881,0,0,0.919881,41.0208,41.0493)">
            <path d="M499.5,319.6C551.63,316.16 605.09,334.93 642.88,371.19C648.35,375.38 652.43,380.96 657.21,385.86C692.47,425.46 709.64,480.37 703.62,533C699.12,573.33 681.7,612.29 653.81,641.88C649.09,647.81 643.2,652.6 637.59,657.64C589.42,700.51 518.55,715.89 456.93,696.89C392.19,677.9 339.71,622.47 324.36,556.75C316.35,523.51 317.54,488.12 327.57,455.43C333.3,437.57 341.31,420.37 351.93,404.9C358.78,394.35 367.52,385.23 375.92,375.96C381.02,371.73 385.51,366.81 390.72,362.72C421.22,337.28 459.99,322.44 499.5,319.6Z" style="fill:rgb(238,0,255);fill-rule:nonzero;"/>
        </g>
    </g>
</svg>
