<?xml version="1.0" encoding="UTF-8" standalone="no"?>
<!DOCTYPE svg PUBLIC "-//W3C//DTD SVG 1.1//EN" "http://www.w3.org/Graphics/SVG/1.1/DTD/svg11.dtd">
<svg width="100%" height="100%" viewBox="0 0 383 383" version="1.1" xmlns="http://www.w3.org/2000/svg" xmlns:xlink="http://www.w3.org/1999/xlink" xml:space="preserve" xmlns:serif="http://www.serif.com/" style="fill-rule:evenodd;clip-rule:evenodd;stroke-linejoin:round;stroke-miterlimit:2;">
    <g transform="matrix(0.75,0,0,0.75,0.344483,0.722661)">
        <path d="M132.592,317.578C119.306,295.977 111.647,270.528 111.647,243.25C111.647,222.159 116.223,202.156 124.438,184.179C124.082,183.934 123.734,183.677 123.392,183.409C88.379,155.912 55.424,133.921 28.499,121.607C11.957,114.041 3.899,102.481 0.875,91.471L-0.546,81.667L0.435,72.085L3.573,63.212L8.592,55.376C15.262,47.169 25.927,40.474 38.762,39.393L38.821,39.118C43.599,17.007 63.95,1.991 83.702,1.588L83.704,1.587C98.809,1.277 114.158,8.28 122.89,27.021C135.608,54.32 156.248,86.722 181.68,120.763C202.765,108.372 227.35,101.271 253.624,101.271C280.42,101.271 305.459,108.656 326.821,121.507C351.793,89.24 371.427,58.924 381.916,33.693C391.682,10.198 409.526,1.702 425.145,1.554L425.149,1.554C446.52,1.351 466.22,17.144 467.674,41.487C482.647,42.987 494.455,50.802 501.366,59.949C505.532,65.463 508.238,71.758 509.344,78.299L509.751,88.671L507.403,99.061C503.237,110.343 493.461,121.85 474.713,128.222C447.169,137.585 415.471,156.857 382.41,181.883C382.246,182.007 382.081,182.129 381.914,182.248C390.693,200.719 395.604,221.401 395.604,243.25C395.604,271.337 387.485,297.487 373.464,319.494C409.725,347.893 444.672,369.848 474.712,380.058C493.459,386.43 503.236,397.937 507.401,409.219L509.749,419.609L509.343,429.981C508.236,436.522 505.531,442.817 501.365,448.331C494.456,457.477 482.65,465.291 467.681,466.794C466.882,480.579 460.046,491.58 450.564,498.544C438.01,507.765 420.469,509.943 404.832,501.391C396.037,496.58 387.546,488.166 381.915,474.621C372.681,452.407 356.401,426.268 335.604,398.335L335.604,404.312C335.604,415.726 326.351,424.979 314.937,424.979L296.249,424.979C293.395,424.979 290.675,424.4 288.202,423.353C285.729,424.4 283.009,424.979 280.155,424.979L261.469,424.979C258.681,424.979 256.021,424.426 253.594,423.426C251.168,424.426 248.508,424.979 245.72,424.979L227.03,424.979C224.176,424.979 221.457,424.4 218.983,423.354C216.51,424.4 213.791,424.979 210.937,424.979L192.219,424.979C180.805,424.979 171.552,415.726 171.552,404.312L171.552,401.302C150.758,430.281 133.882,457.696 122.89,481.29C116.799,494.363 107.272,501.561 97.174,504.791C74.791,511.951 46.778,497.52 39.55,472.093C39.253,471.046 38.987,469.979 38.756,468.892C25.925,467.812 15.265,461.125 8.597,452.928L3.576,445.094L0.435,436.222L-0.547,426.64L0.874,416.836C3.898,405.831 11.955,394.272 28.497,386.706C57.777,373.316 94.185,348.495 132.592,317.578Z" style="fill:rgb(255,255,251);fill-opacity:0.99;"/>
    </g>
    <g id="path902" transform="matrix(0.75,0,0,0.75,0.344483,0.722661)">
        <path d="M425.344,22.22C416.317,22.305 406.644,28.046 401,41.625C389.857,68.428 369.07,100.781 342.437,135.095C353.007,143.789 362.287,154.015 369.937,165.405C405.037,138.835 438.819,118.595 468.062,108.655C512.662,93.495 480.082,38.935 432.719,73.312C459.629,45.47 443.826,22.042 425.343,22.219L425.344,22.22ZM84.124,22.25C65.624,22.628 46.52,46.212 67.781,72.125C31.523,38.635 -0.802,85.48 37.095,102.813C65.18,115.657 99.635,138.473 136.157,167.156C144.282,154.656 154.364,143.546 165.937,134.219C139.155,98.476 117.497,64.384 104.157,35.749C99.642,26.059 91.937,22.089 84.127,22.249L84.124,22.25ZM253.624,121.938C186.52,121.938 132.314,176.148 132.314,243.25C132.314,287.926 156.354,326.863 192.219,347.906L192.219,404.312L210.937,404.312L210.937,356.844C216.14,358.794 221.513,360.396 227.03,361.624L227.03,404.312L245.72,404.312L245.72,364.282C248.334,364.449 250.967,364.532 253.625,364.532C256.262,364.532 258.875,364.446 261.469,364.282L261.469,404.312L280.155,404.312L280.155,361.625C285.675,360.399 291.045,358.791 296.249,356.845L296.249,404.312L314.937,404.312L314.937,347.97C350.857,326.94 374.937,287.967 374.937,243.25C374.937,176.145 320.729,121.937 253.624,121.937L253.624,121.938ZM186.75,210.156C206.63,210.156 222.75,226.276 222.75,246.156C222.75,266.036 206.63,282.156 186.75,282.156C166.87,282.156 150.75,266.036 150.75,246.156C150.75,226.276 166.87,210.156 186.75,210.156ZM320.313,210.156C340.191,210.156 356.313,226.276 356.313,246.156C356.313,266.036 340.191,282.156 320.313,282.156C300.433,282.156 284.313,266.036 284.313,246.156C284.313,226.276 300.433,210.156 320.313,210.156ZM253.593,262.5L283.531,310.688L223.657,310.688L253.595,262.5L253.593,262.5ZM146.313,333.063C106.05,365.535 67.767,391.473 37.093,405.5C-0.803,422.834 31.523,469.646 67.781,436.156C37.544,473.01 88.948,505.206 104.157,472.562C119.229,440.21 144.884,400.862 176.595,360.062C165.243,352.556 155.031,343.459 146.315,333.062L146.313,333.063ZM359.469,334.781C351.314,344.196 341.927,352.501 331.561,359.471C363.407,398.861 388.381,436.333 400.999,466.688C418.202,508.071 472.773,476.41 432.719,434.97C480.082,469.346 512.659,414.785 468.061,399.625C435.915,388.699 398.303,365.325 359.468,334.781L359.469,334.781Z" style="fill:rgb(136,0,27);fill-rule:nonzero;"/>
    </g>
</svg>
