<?xml version="1.0" encoding="UTF-8" standalone="no"?>
<!DOCTYPE svg PUBLIC "-//W3C//DTD SVG 1.1//EN" "http://www.w3.org/Graphics/SVG/1.1/DTD/svg11.dtd">
<svg width="100%" height="100%" viewBox="0 0 1024 1024" version="1.1" xmlns="http://www.w3.org/2000/svg" xmlns:xlink="http://www.w3.org/1999/xlink" xml:space="preserve" xmlns:serif="http://www.serif.com/" style="fill-rule:evenodd;clip-rule:evenodd;stroke-linejoin:round;stroke-miterlimit:2;">
    <g id="_-ffffffff" serif:id="#ffffffff">
        <path d="M408.73,7.79C423.04,0.02 440.42,-1.57 456.05,2.78C462.25,4.42 467.86,7.59 473.56,10.44C488.58,17.66 502.8,26.39 517.21,34.73C550.91,54.07 584.85,72.99 618.53,92.37C640.43,105.65 662.95,117.84 685.11,130.67C696.84,136.5 708.14,143.13 719.59,149.49C740.17,161.7 761.14,173.25 781.91,185.14C804.68,198.33 827.94,210.68 850.17,224.78C865.78,235.15 875.83,253.28 876.5,271.99C876.86,290.47 876.68,308.95 876.62,327.43C881.6,330.01 886.89,332.1 891.4,335.54C904.76,344.84 913.53,359.86 916.17,375.82C917.17,393.5 916.44,411.23 916.59,428.93C916.56,441.63 916.53,454.33 916.51,467.03C916.43,474.68 916.83,482.37 915.7,489.97C915.52,508.32 915.61,526.68 915.53,545.04C915.25,556.05 916.15,567.12 914.7,578.07C914.43,599.58 914.76,621.11 914.39,642.62C922.64,642.4 931.04,642.09 939.14,644.07C953.03,647.23 965.51,655.67 974.09,666.99C978.54,672.81 982.6,678.92 987.12,684.69C994.07,694.41 1002.42,703.08 1008.76,713.24C1015.23,722.36 1020.36,732.71 1021.88,743.89C1024.57,761.47 1019.25,780.01 1007.5,793.38C1004.8,796.39 1001.86,799.18 999,802.02C992.59,809.28 986.53,816.85 979.43,823.47C974.15,828.2 970.19,834.14 964.96,838.93C956.13,847.78 947.28,856.62 938.46,865.48C928.98,874.7 920.98,885.28 911.45,894.45C907.96,897.95 904.46,901.44 900.98,904.94C890.69,917.21 878.58,927.8 867.6,939.43C862.13,946.58 855.09,952.3 849.12,959C844.79,964.64 839.39,969.31 834.49,974.43C826.25,982.83 817.81,991.04 809.6,999.46C804.41,1006.33 797.77,1012.1 790.2,1016.21C767.92,1028.59 737.99,1025.14 719.51,1007.44C714.47,1002.17 708.74,997.65 703.53,992.56C697.31,987.8 692.17,981.86 686.55,976.44C677.04,966.94 667.53,957.44 658.03,947.92C651.19,941.53 645.85,933.66 638.33,927.96C631.01,921.22 624.18,913.94 617.06,906.98C613.12,903.17 609.51,898.97 605.04,895.77C565.59,918.44 525.82,940.56 486.55,963.54C479.6,966.75 473.14,970.85 466.28,974.21C449.2,982.77 428.07,982.65 411.09,973.9C405.15,970.85 399.11,968 393.22,964.86C350.23,939.67 306.64,915.5 263.45,890.64C241.25,877.44 218.69,864.89 196.3,852.02C175.83,841.79 156.25,829.92 136.43,818.52C118.95,808.71 101.62,798.64 84.11,788.87C65.12,777.77 45.57,767.56 27.17,755.45C13.94,746.7 4.53,732.46 1.57,716.89C-0.34,707.68 0.98,698.26 0.49,688.95C0.5,551.3 0.45,413.64 0.51,275.98C0.3,261.29 5.86,246.69 15.55,235.67C21.23,228.87 28.67,223.97 36.14,219.36C57.8,206.09 80.29,194.2 102.19,181.33C126.34,167.94 150.13,153.94 174.15,140.35C179.86,136.86 186.16,134.47 191.84,130.94C210.39,120.37 228.95,109.86 247.5,99.31C259.36,91.7 271.91,85.26 284.01,78.04C310.63,63.03 337.23,47.95 363.76,32.75C378.59,24.15 393.25,15.2 408.73,7.79M436.08,61.97C428.99,65.87 421.7,69.42 414.95,73.9C384.24,91.57 353.34,108.9 322.57,126.47C248.53,168.4 174.64,210.58 100.62,252.55C87.45,260.2 73.88,267.14 60.97,275.24C60.95,418.52 60.95,561.82 60.97,705.1C75.93,714.9 92.05,722.7 107.42,731.8C209.78,790.03 312.2,848.16 414.58,906.34C422.41,911.35 430.67,915.61 438.86,919.98C448.57,914.74 458.18,909.32 467.64,903.64C507.69,880.99 547.59,858.08 587.71,835.55C575.53,823.67 563.58,811.54 551.53,799.52C545.09,793.56 539.85,786.41 533.09,780.78C526.82,775.43 521.67,768.98 515.85,763.18C512.44,759.63 510.43,755.08 508.36,750.69C487.55,769.39 466.74,788.1 445.96,806.83C443.09,808.58 441.34,812.2 438.03,813.05C430.55,806.19 423.01,799.38 415.8,792.23C409.82,787.24 404.49,781.55 398.76,776.29C392.91,771.46 387.83,765.8 382.16,760.77C376.85,756.42 372.31,751.23 367.15,746.72C361.83,742.41 357.33,737.19 352.17,732.71C346.24,727.9 341.29,722.03 335.46,717.11C332.71,714.91 330.27,712.36 327.77,709.9C392.85,709.82 457.93,709.83 523,709.9C530.4,702.58 535.95,693.62 543,686C547.19,681.87 551.14,677.22 556.57,674.69C560.17,673.08 564.04,671.81 568.04,671.91C585.02,671.82 602.01,672 619,671.81C624.49,670.48 630.16,671.05 635.76,670.8C636.07,654.87 635.75,638.93 635.94,622.99C635.98,620.3 636.98,617.73 636.88,615.03C636.82,606.01 636.92,596.98 636.85,587.96C636.94,585.28 635.66,582.86 634.53,580.53C629.62,570.78 624.75,561.01 619.86,551.24C602.75,515.85 584.61,480.96 567.13,445.74C549.68,410.8 532.25,375.85 514.92,340.87C571.02,340.84 627.11,340.86 683.21,340.86C682.12,348.09 680.52,355.24 679.44,362.48C682.56,363.16 685.76,363.15 688.94,363.09C731.09,363.07 773.23,363.05 815.38,363.11C815.73,362.82 816.42,362.26 816.77,361.98C816.76,345.96 816.77,329.95 816.77,313.94C816.66,301.01 817.3,288.07 816.19,275.17C808.76,270.33 801.05,265.9 793.19,261.8C683.46,199.51 573.8,137.11 464.07,74.84C456.24,69.84 448.02,65.49 439.84,61.14C438.57,60.3 437.22,61.5 436.08,61.97M669.86,393C668.1,422.97 669.6,453.03 668.28,483.01C667.98,507.33 667.87,531.64 667.75,555.97C666.9,568.94 667.37,581.96 667,594.95C666.61,613.96 667.29,633 666.28,651.99C666.22,668.37 665.84,684.73 665.84,701.11C657.55,701.27 649.25,701.07 640.99,701.74C617.46,701.98 593.91,702.1 570.38,702.43C569.21,702.78 568.37,703.73 567.55,704.58C558,716.03 549,727.96 539.22,739.22C538.48,740.11 537.86,741.08 537.36,742.14C548.69,753.63 560.22,764.92 571.64,776.33C581.91,786.35 591.77,796.82 602.32,806.55C602.36,806.58 602.43,806.65 602.47,806.69C634.65,838.45 666.61,870.48 698.7,902.35C710.91,915.14 724.52,926.52 736.22,939.78C744.09,947.83 752.74,955.07 760.49,963.23C767.78,955.61 775.43,948.33 782.78,940.76C786.86,935.57 791.8,931.16 796.29,926.35C802.4,919.14 809.37,912.73 815.83,905.85C823.64,897.99 830.95,889.66 838.85,881.89C843.82,877.18 847.99,871.73 852.94,867.01C859.3,860.38 866.02,854.09 871.98,847.09C880.98,837.7 890.35,828.67 899,818.96C905.32,812.32 912.09,806.1 918,799.08C925.69,791.12 933.55,783.32 941.21,775.33C947.81,767.53 955.51,760.75 962.31,753.15C954.6,741.33 945,730.9 936.6,719.58C932.42,714.27 928.88,708.46 924.64,703.22C916.75,702.66 908.89,704.09 901,703.93C885.03,703.92 869.12,705.32 853.14,705.17C853.2,677.44 853.29,649.73 854.1,622.03C854.22,603.34 854.29,584.65 854.35,565.96C855.27,540.64 855.18,515.29 855.32,489.96C855.08,477.96 856.04,466.01 855.88,454.02C856.36,433.69 856.33,413.36 856.32,393.02C794.17,392.97 732.01,393.02 669.86,393Z" style="fill:white;fill-rule:nonzero;"/>
        <path d="M472.07,157.99C508.73,178.55 545.17,199.52 581.77,220.19C612.06,237.58 642.62,254.5 672.82,272.05C605.93,272.26 539.03,272.12 472.14,272.12C472.08,234.08 472.21,196.03 472.07,157.99Z" style="fill:white;fill-rule:nonzero;"/>
        <path d="M204.35,272.09C270.83,234.29 337.41,196.68 403.8,158.72C404,196.52 403.84,234.33 403.88,272.13C337.37,272.14 270.86,272.21 204.35,272.09Z" style="fill:white;fill-rule:nonzero;"/>
        <path d="M190.33,340.88C248.02,340.83 305.72,340.84 363.41,340.87C356.2,356.93 347.89,372.46 340.23,388.31C330.05,408.82 320.17,429.48 309.9,449.95C301.02,468.08 291.75,486.02 283.18,504.28C270.09,530.57 257.01,556.86 244.17,583.26C241.27,588.66 239.07,594.44 235.67,599.56C228.01,554.01 219.76,508.56 211.84,463.05C204.66,422.33 197.71,381.56 190.33,340.88" style="fill:white;fill-rule:nonzero;"/>
        <path d="M401.14,419.08C414.01,393.47 426.38,367.62 439.19,341.98C457.54,378.37 475.39,415 493.71,451.39C525.27,514.65 556.91,577.86 588.43,641.13C489.53,641.16 390.63,641.17 291.73,641.12C310.71,602.65 329.52,564.09 348.68,525.71C365.77,489.97 383.99,454.79 401.14,419.08Z" style="fill:white;fill-rule:nonzero;"/>
        <path d="M129.21,455.02C129.32,432.51 128.98,409.99 129.39,387.49C132.17,406.4 135.99,425.13 139.07,444C150.81,509.68 161.95,575.48 173.85,641.14C158.98,641.14 144.1,641.18 129.22,641.12C129.21,579.08 129.22,517.05 129.21,455.02Z" style="fill:white;fill-rule:nonzero;"/>
        <path d="M739.89,447.36C751.9,446.63 763.97,447.38 775.95,446.24C782.58,446.05 789.22,445.94 795.86,445.92C795.7,464.77 795.96,483.64 795.49,502.49C794.59,529.97 794.87,557.49 794.68,584.99C793.41,615.94 794.06,646.94 793.52,677.9C792.51,707.48 792.84,737.11 792.65,766.71C805.43,767.23 818.26,766.63 831.03,765.98C843.46,766.06 855.84,764.74 868.29,764.94C860.51,772.65 853.38,780.97 845.55,788.63C839.1,794.85 833.43,801.79 827.03,808.05C820.4,815.07 813.31,821.67 807.02,829C800.06,836.37 792.59,843.26 785.97,850.95C777.85,859.49 769.2,867.55 761.52,876.49C760.68,877.58 758.88,878.64 757.96,877.06C733.42,852.58 708.84,828.15 684.28,803.69C669.89,789.81 655.59,775.81 641.59,761.54C662.74,760.89 683.92,761.09 705.09,760.78C711.41,760.13 717.77,760.06 724.12,759.89C724.29,759.67 724.63,759.24 724.8,759.03C725.2,744.03 725.49,729.01 725.4,714C726.57,680.7 725.8,647.34 726.86,614.04C727.19,588.89 727.13,563.74 727.6,538.6C728.13,518.41 728.1,498.21 728.29,478.01C728.44,467.96 728.16,457.9 728.91,447.87C732.57,447.81 736.24,447.76 739.89,447.36Z" style="fill:white;fill-rule:nonzero;"/>
        <path d="M207.26,709.93C222.16,709.74 237.06,709.93 251.96,709.83C253.65,709.84 255.36,709.76 257.02,710.14C260.86,713.24 264.05,717.08 267.83,720.27C274.22,725.49 279.57,731.86 285.98,737.07C291.11,741.6 295.64,746.81 300.99,751.1C306.46,755.94 311.28,761.49 316.98,766.08C322.91,771.28 327.96,777.44 334.39,782.06C298.1,761.93 262.19,741.11 226.04,720.74C219.86,717 213.36,713.8 207.26,709.93Z" style="fill:white;fill-rule:nonzero;"/>
    </g>
    <g id="_-b00404ff" serif:id="#b00404ff">
        <path d="M436.08,61.97C437.22,61.5 438.57,60.3 439.84,61.14C448.02,65.49 456.24,69.84 464.07,74.84C573.8,137.11 683.46,199.51 793.19,261.8C801.05,265.9 808.76,270.33 816.19,275.17C817.3,288.07 816.66,301.01 816.77,313.94C816.77,329.95 816.76,345.96 816.77,361.98C816.42,362.26 815.73,362.82 815.38,363.11C773.23,363.05 731.09,363.07 688.94,363.09C685.76,363.15 682.56,363.16 679.44,362.48C680.52,355.24 682.12,348.09 683.21,340.86C627.11,340.86 571.02,340.84 514.92,340.87C532.25,375.85 549.68,410.8 567.13,445.74C584.61,480.96 602.75,515.85 619.86,551.24C624.75,561.01 629.62,570.78 634.53,580.53C635.66,582.86 636.94,585.28 636.85,587.96C636.92,596.98 636.82,606.01 636.88,615.03C636.98,617.73 635.98,620.3 635.94,622.99C635.75,638.93 636.07,654.87 635.76,670.8C630.16,671.05 624.49,670.48 619,671.81C602.01,672 585.02,671.82 568.04,671.91C564.04,671.81 560.17,673.08 556.57,674.69C551.14,677.22 547.19,681.87 543,686C535.95,693.62 530.4,702.58 523,709.9C457.93,709.83 392.85,709.82 327.77,709.9C330.27,712.36 332.71,714.91 335.46,717.11C341.29,722.03 346.24,727.9 352.17,732.71C357.33,737.19 361.83,742.41 367.15,746.72C372.31,751.23 376.85,756.42 382.16,760.77C387.83,765.8 392.91,771.46 398.76,776.29C404.49,781.55 409.82,787.24 415.8,792.23C423.01,799.38 430.55,806.19 438.03,813.05C441.34,812.2 443.09,808.58 445.96,806.83C466.74,788.1 487.55,769.39 508.36,750.69C510.43,755.08 512.44,759.63 515.85,763.18C521.67,768.98 526.82,775.43 533.09,780.78C539.85,786.41 545.09,793.56 551.53,799.52C563.58,811.54 575.53,823.67 587.71,835.55C547.59,858.08 507.69,880.99 467.64,903.64C458.18,909.32 448.57,914.74 438.86,919.98C430.67,915.61 422.41,911.35 414.58,906.34C312.2,848.16 209.78,790.03 107.42,731.8C92.05,722.7 75.93,714.9 60.97,705.1C60.95,561.82 60.95,418.52 60.97,275.24C73.88,267.14 87.45,260.2 100.62,252.55C174.64,210.58 248.53,168.4 322.57,126.47C353.34,108.9 384.24,91.57 414.95,73.9C421.7,69.42 428.99,65.87 436.08,61.97M472.07,157.99C472.21,196.03 472.08,234.08 472.14,272.12C539.03,272.12 605.93,272.26 672.82,272.05C642.62,254.5 612.06,237.58 581.77,220.19C545.17,199.52 508.73,178.55 472.07,157.99M204.35,272.09C270.86,272.21 337.37,272.14 403.88,272.13C403.84,234.33 404,196.52 403.8,158.72C337.41,196.68 270.83,234.29 204.35,272.09M190.33,340.88C197.71,381.56 204.66,422.33 211.84,463.05C219.76,508.56 228.01,554.01 235.67,599.56C239.07,594.44 241.27,588.66 244.17,583.26C257.01,556.86 270.09,530.57 283.18,504.28C291.75,486.02 301.02,468.08 309.9,449.95C320.17,429.48 330.05,408.82 340.23,388.31C347.89,372.46 356.2,356.93 363.41,340.87C305.72,340.84 248.02,340.83 190.33,340.88M401.14,419.08C383.99,454.79 365.77,489.97 348.68,525.71C329.52,564.09 310.71,602.65 291.73,641.12C390.63,641.17 489.53,641.16 588.43,641.13C556.91,577.86 525.27,514.65 493.71,451.39C475.39,415 457.54,378.37 439.19,341.98C426.38,367.62 414.01,393.47 401.14,419.08M129.21,455.02C129.22,517.05 129.21,579.08 129.22,641.12C144.1,641.18 158.98,641.14 173.85,641.14C161.95,575.48 150.81,509.68 139.07,444C135.99,425.13 132.17,406.4 129.39,387.49C128.98,409.99 129.32,432.51 129.21,455.02M207.26,709.93C213.36,713.8 219.86,717 226.04,720.74C262.19,741.11 298.1,761.93 334.39,782.06C327.96,777.44 322.91,771.28 316.98,766.08C311.28,761.49 306.46,755.94 300.99,751.1C295.64,746.81 291.11,741.6 285.98,737.07C279.57,731.86 274.22,725.49 267.83,720.27C264.05,717.08 260.86,713.24 257.02,710.14C255.36,709.76 253.65,709.84 251.96,709.83C237.06,709.93 222.16,709.74 207.26,709.93Z" style="fill:rgb(255,0,43);fill-rule:nonzero;"/>
        <path d="M669.86,393C732.01,393.02 794.17,392.97 856.32,393.02C856.33,413.36 856.36,433.69 855.88,454.02C856.04,466.01 855.08,477.96 855.32,489.96C855.18,515.29 855.27,540.64 854.35,565.96C854.29,584.65 854.22,603.34 854.1,622.03C853.29,649.73 853.2,677.44 853.14,705.17C869.12,705.32 885.03,703.92 901,703.93C908.89,704.09 916.75,702.66 924.64,703.22C928.88,708.46 932.42,714.27 936.6,719.58C945,730.9 954.6,741.33 962.31,753.15C955.51,760.75 947.81,767.53 941.21,775.33C933.55,783.32 925.69,791.12 918,799.08C912.09,806.1 905.32,812.32 899,818.96C890.35,828.67 880.98,837.7 871.98,847.09C866.02,854.09 859.3,860.38 852.94,867.01C847.99,871.73 843.82,877.18 838.85,881.89C830.95,889.66 823.64,897.99 815.83,905.85C809.37,912.73 802.4,919.14 796.29,926.35C791.8,931.16 786.86,935.57 782.78,940.76C775.43,948.33 767.78,955.61 760.49,963.23C752.74,955.07 744.09,947.83 736.22,939.78C724.52,926.52 710.91,915.14 698.7,902.35C666.61,870.48 634.65,838.45 602.47,806.69L602.4,806.61L602.32,806.55C591.77,796.82 581.91,786.35 571.64,776.33C560.22,764.92 548.69,753.63 537.36,742.14C537.86,741.08 538.48,740.11 539.22,739.22C549,727.96 558,716.03 567.55,704.58C568.37,703.73 569.21,702.78 570.38,702.43C593.91,702.1 617.46,701.98 640.99,701.74C649.25,701.07 657.55,701.27 665.84,701.11C665.84,684.73 666.22,668.37 666.28,651.99C667.29,633 666.61,613.96 667,594.95C667.37,581.96 666.9,568.94 667.75,555.97C667.87,531.64 667.98,507.33 668.28,483.01C669.6,453.03 668.1,422.97 669.86,393M739.89,447.36C736.24,447.76 732.57,447.81 728.91,447.87C728.16,457.9 728.44,467.96 728.29,478.01C728.1,498.21 728.13,518.41 727.6,538.6C727.13,563.74 727.19,588.89 726.86,614.04C725.8,647.34 726.57,680.7 725.4,714C725.49,729.01 725.2,744.03 724.8,759.03C724.63,759.24 724.29,759.67 724.12,759.89C717.77,760.06 711.41,760.13 705.09,760.78C683.92,761.09 662.74,760.89 641.59,761.54C655.59,775.81 669.89,789.81 684.28,803.69C708.84,828.15 733.42,852.58 757.96,877.06C758.88,878.64 760.68,877.58 761.52,876.49C769.2,867.55 777.85,859.49 785.97,850.95C792.59,843.26 800.06,836.37 807.02,829C813.31,821.67 820.4,815.07 827.03,808.05C833.43,801.79 839.1,794.85 845.55,788.63C853.38,780.97 860.51,772.65 868.29,764.94C855.84,764.74 843.46,766.06 831.03,765.98C818.26,766.63 805.43,767.23 792.65,766.71C792.84,737.11 792.51,707.48 793.52,677.9C794.06,646.94 793.41,615.94 794.68,584.99C794.87,557.49 794.59,529.97 795.49,502.49C795.96,483.64 795.7,464.77 795.86,445.92C789.22,445.94 782.58,446.05 775.95,446.24C763.97,447.38 751.9,446.63 739.89,447.36Z" style="fill:rgb(255,0,43);fill-rule:nonzero;"/>
    </g>
    <g id="_-c9a5a5b1" serif:id="#c9a5a5b1">
        <path d="M602.32,806.55L602.4,806.61L602.47,806.69C602.43,806.65 602.36,806.58 602.32,806.55Z" style="fill:rgb(201,165,165);fill-opacity:0.69;fill-rule:nonzero;"/>
    </g>
</svg>
