<?xml version="1.0" encoding="UTF-8" standalone="no"?>
<!DOCTYPE svg PUBLIC "-//W3C//DTD SVG 1.1//EN" "http://www.w3.org/Graphics/SVG/1.1/DTD/svg11.dtd">
<svg width="100%" height="100%" viewBox="0 0 512 512" version="1.1" xmlns="http://www.w3.org/2000/svg" xmlns:xlink="http://www.w3.org/1999/xlink" xml:space="preserve" xmlns:serif="http://www.serif.com/" style="fill-rule:evenodd;clip-rule:evenodd;stroke-linejoin:round;stroke-miterlimit:2;">
    <g id="_-ffffffff" serif:id="#ffffffff">
        <path d="M170.17,20.35C220.56,0.93 277.43,-1.3 329.13,14.38C349.03,20.11 367.58,29.48 386.52,37.69C387.82,38.35 389.28,37.96 390.65,37.82C418.9,33.56 450.641,28.496 465.922,28.283C470.375,28.22 474.834,35.715 472.852,39.703C467.626,50.219 456.84,71.02 444.05,88.22C476.04,124.71 496.87,170.81 502.98,218.96C509.56,268.72 500.42,320.43 476.99,364.83C464.23,389.54 446.77,411.61 426.8,430.86C420.29,436.3 414.2,442.23 407.37,447.26C372.58,473.78 330.54,490.61 287.1,495.64C258.1,499.07 228.49,497.28 200.11,490.39C176.39,484.98 154.37,474.42 132.24,464.64C130.32,463.54 128.08,463.66 125.99,464.09C93.31,469.14 59.927,476.611 51.432,468.539C42.937,460.468 59.24,436.69 75.02,415.66C53.77,392.06 37.1,364.35 26.39,334.45C5.74,277.81 6.9,213.53 29.88,157.76C41.96,127.94 60.14,100.67 82.6,77.67C107.24,52.6 137.29,32.82 170.17,20.35M227.13,26.21C191.43,31.11 156.94,44.71 127.55,65.58C81.91,97.81 48.76,147.38 36.96,202.04C28.3,241.26 30.4,282.77 42.88,320.93C54.17,356.17 74.65,388.16 101.03,414.03C91.79,426.68 82.42,439.23 73.1,451.83C112.26,445.9 151.43,440.11 190.59,434.22C184.74,395.08 178.91,355.95 173.02,316.82C160.89,333.23 148.66,349.58 136.64,366.07C129.09,356.96 121.62,347.69 115.56,337.49C92.66,300.16 85.52,253.6 96.04,211.1C103.01,182.37 117.83,155.58 138.42,134.38C161.35,110.43 191.71,93.8 224.15,87.07C247.22,82.18 271.31,82.36 294.33,87.4C293.1,79.25 291.88,71.11 290.68,62.96C269.48,59.33 247.72,60 226.59,63.76C172.71,71.09 122.22,101.55 91.35,146.41C90.25,147.62 89.72,149.86 87.92,150.11C82.25,147.03 76.78,143.56 71.29,140.14C82.18,120.56 95.68,102.35 112,86.94C136.02,63.78 165.61,46.51 197.46,36.59C231.42,26.04 268.03,23.88 302.92,30.9C306.38,31.7 309.9,30.96 313.37,30.61C285.21,23.9 255.82,22.06 227.13,26.21M330.41,67.03C336.23,106.16 342.08,145.28 347.97,184.4C359.53,168.75 371.32,153.25 382.58,137.39C385.02,141.22 388.08,144.6 390.75,148.28C410.77,174.27 423.07,206.16 425.27,238.92C427.61,270.24 420.79,302.2 405.83,329.81C391.03,357.42 368.38,380.83 341.04,396.18C306.82,415.77 265.54,422.45 226.84,414.97C227.92,422.25 229,429.53 230.11,436.8C254.01,440.44 278.63,439.32 302.08,433.4C306.97,432.19 311.95,431.39 316.88,430.39C338.18,425.74 358.75,417.66 377.39,406.33C387.08,400.73 395.85,393.74 404.58,386.79C409.17,391.51 413.78,396.22 418.3,401.01C413.36,406.48 408.28,411.86 402.65,416.63C355.11,460.47 286.93,480.46 223.21,469.78C217.3,468.46 211.42,470.51 205.56,471.12C258.55,483.97 316.09,476.71 364.24,451.12C419.37,422.07 461.57,369.37 477.42,309.04C490.91,258.96 486.34,204.29 464.84,157.1C453.61,131.93 437.35,109.23 418.08,89.59C428.15,76.3 437.88,62.76 447.93,49.45C408.76,55.33 369.58,61.17 330.41,67.03" style="fill:white;fill-rule:nonzero;"/>
    </g>
    <g id="_-ee00ffff" serif:id="#ee00ffff">
        <path d="M227.13,26.21C255.82,22.06 285.21,23.9 313.37,30.61C309.9,30.96 306.38,31.7 302.92,30.9C268.03,23.88 231.42,26.04 197.46,36.59C165.61,46.51 136.02,63.78 112,86.94C95.68,102.35 82.18,120.56 71.29,140.14C76.78,143.56 82.25,147.03 87.92,150.11C89.72,149.86 90.25,147.62 91.35,146.41C122.22,101.55 172.71,71.09 226.59,63.76C247.72,60 269.48,59.33 290.68,62.96C291.88,71.11 293.1,79.25 294.33,87.4C271.31,82.36 247.22,82.18 224.15,87.07C191.71,93.8 161.35,110.43 138.42,134.38C117.83,155.58 103.01,182.37 96.04,211.1C85.52,253.6 92.66,300.16 115.56,337.49C121.62,347.69 129.09,356.96 136.64,366.07C148.66,349.58 160.89,333.23 173.02,316.82C178.91,355.95 184.74,395.08 190.59,434.22C151.43,440.11 112.26,445.9 73.1,451.83C82.42,439.23 91.79,426.68 101.03,414.03C74.65,388.16 54.17,356.17 42.88,320.93C30.4,282.77 28.3,241.26 36.96,202.04C48.76,147.38 81.91,97.81 127.55,65.58C156.94,44.71 191.43,31.11 227.13,26.21Z" style="fill:rgb(238,0,255);fill-rule:nonzero;"/>
        <path d="M330.41,67.03C369.58,61.17 408.76,55.33 447.93,49.45C437.88,62.76 428.15,76.3 418.08,89.59C437.35,109.23 453.61,131.93 464.84,157.1C486.34,204.29 490.91,258.96 477.42,309.04C461.57,369.37 419.37,422.07 364.24,451.12C316.09,476.71 258.55,483.97 205.56,471.12C211.42,470.51 217.3,468.46 223.21,469.78C286.93,480.46 355.11,460.47 402.65,416.63C408.28,411.86 413.36,406.48 418.3,401.01C413.78,396.22 409.17,391.51 404.58,386.79C395.85,393.74 387.08,400.73 377.39,406.33C358.75,417.66 338.18,425.74 316.88,430.39C311.95,431.39 306.97,432.19 302.08,433.4C278.63,439.32 254.01,440.44 230.11,436.8C229,429.53 227.92,422.25 226.84,414.97C265.54,422.45 306.82,415.77 341.04,396.18C368.38,380.83 391.03,357.42 405.83,329.81C420.79,302.2 427.61,270.24 425.27,238.92C423.07,206.16 410.77,174.27 390.75,148.28C388.08,144.6 385.02,141.22 382.58,137.39C371.32,153.25 359.53,168.75 347.97,184.4C342.08,145.28 336.23,106.16 330.41,67.03Z" style="fill:rgb(238,0,255);fill-rule:nonzero;"/>
    </g>
</svg>
